<svg width="1360" height="768" viewBox="0 0 1360 768" fill="none" xmlns="http://www.w3.org/2000/svg">
<rect width="1360" height="768" fill="white"/>
<path d="M1002 525.864H358V526.078H1002V525.864Z" fill="#EBEBEB"/>
<path d="M937.471 539.701H894.813V539.916H937.471V539.701Z" fill="#EBEBEB"/>
<path d="M784.611 542.041H773.419V542.255H784.611V542.041Z" fill="#EBEBEB"/>
<path d="M893.525 531.721H868.808V531.935H893.525V531.721Z" fill="#EBEBEB"/>
<path d="M481.197 533.165H425.568V533.38H481.197V533.165Z" fill="#EBEBEB"/>
<path d="M500.826 533.165H492.673V533.38H500.826V533.165Z" fill="#EBEBEB"/>
<path d="M647.993 536.795H527.333V537.009H647.993V536.795Z" fill="#EBEBEB"/>
<path d="M663.256 487.508H414.556C412.608 487.506 410.74 486.987 409.364 486.067C407.988 485.146 407.214 483.898 407.214 482.597V249.168C407.231 247.874 408.012 246.637 409.387 245.726C410.761 244.815 412.619 244.302 414.556 244.3H663.256C665.207 244.3 667.077 244.817 668.456 245.738C669.836 246.659 670.61 247.908 670.61 249.211V482.597C670.61 483.9 669.836 485.149 668.456 486.07C667.077 486.991 665.207 487.508 663.256 487.508V487.508ZM414.556 244.472C412.693 244.474 410.908 244.97 409.592 245.85C408.276 246.731 407.536 247.924 407.536 249.168V482.597C407.536 483.841 408.276 485.034 409.592 485.915C410.908 486.795 412.693 487.291 414.556 487.293H663.256C665.12 487.291 666.907 486.795 668.225 485.915C669.543 485.035 670.285 483.842 670.288 482.597V249.168C670.285 247.923 669.543 246.73 668.225 245.85C666.907 244.97 665.12 244.474 663.256 244.472H414.556Z" fill="#EBEBEB"/>
<path d="M941.863 487.508H693.15C691.201 487.506 689.332 486.988 687.954 486.067C686.575 485.147 685.799 483.899 685.796 482.597V249.168C685.816 247.873 686.6 246.637 687.976 245.726C689.353 244.814 691.212 244.302 693.15 244.3H941.863C943.798 244.304 945.653 244.818 947.024 245.729C948.396 246.64 949.175 247.876 949.192 249.168V482.597C949.192 483.897 948.421 485.143 947.047 486.064C945.673 486.984 943.809 487.503 941.863 487.508V487.508ZM693.15 244.472C691.286 244.474 689.5 244.97 688.182 245.85C686.863 246.73 686.121 247.923 686.118 249.168V482.597C686.121 483.842 686.863 485.035 688.182 485.915C689.5 486.795 691.286 487.291 693.15 487.293H941.863C943.727 487.291 945.514 486.795 946.832 485.915C948.15 485.035 948.892 483.842 948.896 482.597V249.168C948.892 247.923 948.15 246.73 946.832 245.85C945.514 244.97 943.727 244.474 941.863 244.472H693.15Z" fill="#EBEBEB"/>
<path d="M616.102 295.152H448.096V300.914H616.102V295.152Z" fill="#E0E0E0"/>
<path d="M463.23 273.91H455.824V295.152H463.23V273.91Z" fill="#EBEBEB"/>
<path d="M499.023 273.91H491.617V295.152H499.023V273.91Z" fill="#EBEBEB"/>
<path d="M539.644 273.372L532.345 274.212L537.749 295.146L545.048 294.306L539.644 273.372Z" fill="#EBEBEB"/>
<path d="M472.4 276.705H464.994V295.152H472.4V276.705Z" fill="#EBEBEB"/>
<path d="M489.415 276.705H482.009V295.152H489.415V276.705Z" fill="#EBEBEB"/>
<path d="M532.357 276.705H524.951V295.152H532.357V276.705Z" fill="#EBEBEB"/>
<path d="M508.753 276.069L501.524 277.142L507.517 295.149L514.747 294.077L508.753 276.069Z" fill="#EBEBEB"/>
<path d="M478.802 272.852H475.105V295.152H478.802V272.852Z" fill="#EBEBEB"/>
<path d="M522.825 272.852H519.129V295.152H522.825V272.852Z" fill="#EBEBEB"/>
<path d="M599.977 278.339H563.913V294.963H599.977V278.339Z" fill="#EBEBEB"/>
<path d="M448.096 343.948H616.102V338.186H448.096V343.948Z" fill="#E0E0E0"/>
<path d="M600.955 338.178H608.361V316.936H600.955V338.178Z" fill="#EBEBEB"/>
<path d="M565.175 338.178H572.581V316.936H565.175V338.178Z" fill="#EBEBEB"/>
<path d="M519.14 337.338L526.438 338.178L531.842 317.245L524.544 316.405L519.14 337.338Z" fill="#EBEBEB"/>
<path d="M591.785 338.178H599.191V319.731H591.785V338.178Z" fill="#EBEBEB"/>
<path d="M574.77 338.178H582.176V319.731H574.77V338.178Z" fill="#EBEBEB"/>
<path d="M531.828 338.178H539.234V319.731H531.828V338.178Z" fill="#EBEBEB"/>
<path d="M549.467 337.096L556.696 338.169L562.69 320.162L555.46 319.089L549.467 337.096Z" fill="#EBEBEB"/>
<path d="M585.396 338.186H589.093V315.886H585.396V338.186Z" fill="#EBEBEB"/>
<path d="M541.373 338.186H545.069V315.886H541.373V338.186Z" fill="#EBEBEB"/>
<path d="M464.221 337.988H500.285V321.365H464.221V337.988Z" fill="#EBEBEB"/>
<path d="M907.667 275.122H739.042V399.711H907.667V275.122Z" fill="#E9E9E9"/>
<path d="M900.686 280.059H746.461V395.032H900.686V280.059Z" fill="#F4F4F4"/>
<path d="M790.047 280.059L746.461 389.055V330.051L766.412 280.059H790.047Z" fill="white"/>
<path d="M809.534 280.059L763.565 395.032H754.897L800.853 280.059H809.534Z" fill="white"/>
<path d="M900.686 311.414V370.428L890.923 395.032H867.275L900.686 311.414Z" fill="white"/>
<path d="M826.343 275.122H820.353V399.711H826.343V275.122Z" fill="#E9E9E9"/>
<path d="M904.421 300.406H741.966V304.405H904.421V300.406Z" fill="#E9E9E9"/>
<path d="M929.395 465.518C927.077 462.938 923.252 465.191 923.252 465.191C923.806 460.306 917.069 456.961 917.069 456.961C917.069 456.961 924.887 456.961 925.982 451.981C927.077 447.002 923.252 449.315 919.671 449.281C916.09 449.247 912.342 456.238 917.095 460.169C921.848 464.099 920.547 470.798 909.65 477.257C907.035 478.883 905.077 480.924 903.957 483.191C904.769 477.265 905.245 468.915 902.669 463.333C898.226 453.873 906.688 451.293 909.109 446.581C911.531 441.868 902.669 437.843 902.669 437.843C902.669 437.843 911.041 435.263 906.958 432.382C902.876 429.501 894.413 429.862 894.413 433.672C894.413 437.482 900.145 438.935 900.145 438.935C900.145 438.935 906.688 443.485 906.688 445.858C906.688 448.232 900.145 453.323 900.145 453.323C900.145 453.323 903.133 448.954 897.144 448.774C891.155 448.593 889.236 453.865 891.683 456.238C894.13 458.612 898.226 456.6 898.226 456.6C898.482 459.364 899.111 462.107 900.106 464.795C900.725 466.154 900.428 471.495 899.913 477.05C898.779 475.045 896.962 473.244 894.607 471.787C883.697 465.337 882.422 458.629 887.149 454.699C891.876 450.769 888.128 443.786 884.573 443.82C881.018 443.854 877.18 441.532 878.262 446.52C879.344 451.508 887.175 451.5 887.175 451.5C887.175 451.5 880.451 454.845 880.992 459.73C880.992 459.73 877.128 457.511 874.862 460.057C870.714 464.606 880.31 467.436 881.92 465.217C881.92 465.217 902.257 474.832 897.376 488.669L898.522 489.796C898.368 490.914 898.277 491.584 898.277 491.584L899.874 491.129L901.678 492.909C901.614 494.92 901.769 496.932 902.141 498.929L907.01 494.139C902.103 480.293 922.466 470.678 922.466 470.678C923.934 472.897 933.53 470.076 929.395 465.518Z" fill="#E0E0E0"/>
<path opacity="0.2" d="M929.395 465.518C927.077 462.938 923.252 465.191 923.252 465.191C923.806 460.306 917.069 456.961 917.069 456.961C917.069 456.961 924.887 456.961 925.982 451.981C927.077 447.002 923.252 449.315 919.671 449.281C916.09 449.247 912.342 456.238 917.095 460.169C921.848 464.099 920.547 470.798 909.65 477.257C907.035 478.883 905.077 480.924 903.957 483.191C904.769 477.265 905.245 468.915 902.669 463.333C898.226 453.873 906.688 451.293 909.109 446.581C911.531 441.868 902.669 437.843 902.669 437.843C902.669 437.843 911.041 435.263 906.958 432.382C902.876 429.501 894.413 429.862 894.413 433.672C894.413 437.482 900.145 438.935 900.145 438.935C900.145 438.935 906.688 443.485 906.688 445.858C906.688 448.232 900.145 453.323 900.145 453.323C900.145 453.323 903.133 448.954 897.144 448.774C891.155 448.593 889.236 453.865 891.683 456.238C894.13 458.612 898.226 456.6 898.226 456.6C898.482 459.364 899.111 462.107 900.106 464.795C900.725 466.154 900.428 471.495 899.913 477.05C898.779 475.045 896.962 473.244 894.607 471.787C883.697 465.337 882.422 458.629 887.149 454.699C891.876 450.769 888.128 443.786 884.573 443.82C881.018 443.854 877.18 441.532 878.262 446.52C879.344 451.508 887.175 451.5 887.175 451.5C887.175 451.5 880.451 454.845 880.992 459.73C880.992 459.73 877.128 457.511 874.862 460.057C870.714 464.606 880.31 467.436 881.92 465.217C881.92 465.217 902.257 474.832 897.376 488.669L898.522 489.796C898.368 490.914 898.277 491.584 898.277 491.584L899.874 491.129L901.678 492.909C901.614 494.92 901.769 496.932 902.141 498.929L907.01 494.139C902.103 480.293 922.466 470.678 922.466 470.678C923.934 472.897 933.53 470.076 929.395 465.518Z" fill="#E0E0E0"/>
<path d="M925.416 524.557H878.816L873.792 490.492H930.439L925.416 524.557Z" fill="#E6E6E6"/>
<path d="M932.925 486.734H871.307V494.25H932.925V486.734Z" fill="#F0F0F0"/>
<path d="M680 564.702C817.922 564.702 929.73 560.343 929.73 554.966C929.73 549.59 817.922 545.231 680 545.231C542.078 545.231 430.27 549.59 430.27 554.966C430.27 560.343 542.078 564.702 680 564.702Z" fill="#F5F5F5"/>
<path d="M443.596 553.797H594.923V366.009H443.596V553.797Z" fill="#407BFF"/>
<path opacity="0.5" d="M595 366H443.588V553.304H595V366Z" fill="white"/>
<path opacity="0.2" d="M590.443 371.894H470.436V406.483H590.443V371.894Z" fill="black"/>
<path opacity="0.5" d="M477.254 377.499H470.436V406.492H477.254V377.499Z" fill="white"/>
<path opacity="0.5" d="M510.215 377.499H503.398V406.492H510.215V377.499Z" fill="white"/>
<path opacity="0.5" d="M547.64 376.769L540.922 377.914L545.9 406.486L552.618 405.341L547.64 376.769Z" fill="white"/>
<path opacity="0.5" d="M485.696 381.317H478.879V406.492H485.696V381.317Z" fill="white"/>
<path opacity="0.5" d="M501.369 381.317H494.551V406.492H501.369V381.317Z" fill="white"/>
<path opacity="0.5" d="M540.924 381.317H534.107V406.492H540.924V381.317Z" fill="white"/>
<path opacity="0.5" d="M519.178 380.445L512.523 381.908L518.044 406.483L524.699 405.02L519.178 380.445Z" fill="white"/>
<path opacity="0.5" d="M491.594 376.061H488.189V406.492H491.594V376.061Z" fill="white"/>
<path opacity="0.5" d="M532.138 376.061H528.733V406.492H532.138V376.061Z" fill="white"/>
<path opacity="0.2" d="M470.436 446.558H590.443V411.969H470.436V446.558Z" fill="black"/>
<path opacity="0.5" d="M583.626 446.558H590.443V417.565H583.626V446.558Z" fill="white"/>
<path opacity="0.5" d="M550.656 446.558H557.474V417.565H550.656V446.558Z" fill="white"/>
<path opacity="0.5" d="M508.263 445.41L514.981 446.555L519.96 417.984L513.241 416.838L508.263 445.41Z" fill="white"/>
<path opacity="0.5" d="M575.184 446.558H582.001V421.384H575.184V446.558Z" fill="white"/>
<path opacity="0.5" d="M559.503 446.558H566.32V421.384H559.503V446.558Z" fill="white"/>
<path opacity="0.5" d="M519.956 446.558H526.773V421.384H519.956V446.558Z" fill="white"/>
<path opacity="0.5" d="M536.199 445.087L542.854 446.55L548.375 421.975L541.72 420.512L536.199 445.087Z" fill="white"/>
<path opacity="0.5" d="M569.286 446.558H572.69V416.128H569.286V446.558Z" fill="white"/>
<path opacity="0.5" d="M528.742 446.558H532.146V416.128H528.742V446.558Z" fill="white"/>
<path opacity="0.5" d="M477.254 417.565H470.436V446.558H477.254V417.565Z" fill="white"/>
<path opacity="0.5" d="M485.696 421.384H478.879V446.558H485.696V421.384Z" fill="white"/>
<path opacity="0.5" d="M501.369 421.384H494.551V446.558H501.369V421.384Z" fill="white"/>
<path opacity="0.5" d="M491.594 416.128H488.189V446.558H491.594V416.128Z" fill="white"/>
<path opacity="0.2" d="M590.443 452.036H470.436V486.625H590.443V452.036Z" fill="black"/>
<g opacity="0.5">
<path opacity="0.5" d="M546.134 457.64H539.317V486.634H546.134V457.64Z" fill="white"/>
<path opacity="0.5" d="M583.558 456.905L576.84 458.051L581.818 486.623L588.536 485.477L583.558 456.905Z" fill="white"/>
<path opacity="0.5" d="M521.615 461.459H514.798V486.634H521.615V461.459Z" fill="white"/>
<path opacity="0.5" d="M537.288 461.459H530.47V486.634H537.288V461.459Z" fill="white"/>
<path opacity="0.5" d="M576.834 461.459H570.017V486.634H576.834V461.459Z" fill="white"/>
<path opacity="0.5" d="M555.095 460.579L548.44 462.043L553.961 486.618L560.616 485.154L555.095 460.579Z" fill="white"/>
<path opacity="0.5" d="M527.504 456.195H524.1V486.625H527.504V456.195Z" fill="white"/>
<path opacity="0.5" d="M568.057 456.195H564.652V486.625H568.057V456.195Z" fill="white"/>
<path opacity="0.5" d="M505.132 456.911L498.413 458.057L503.392 486.628L510.11 485.483L505.132 456.911Z" fill="white"/>
<path opacity="0.5" d="M498.403 461.459H491.585V486.634H498.403V461.459Z" fill="white"/>
<path opacity="0.5" d="M476.666 460.59L470.011 462.053L475.532 486.628L482.187 485.165L476.666 460.59Z" fill="white"/>
<path opacity="0.5" d="M489.625 456.195H486.221V486.625H489.625V456.195Z" fill="white"/>
</g>
<path opacity="0.2" d="M443.596 553.797H465.871V366.009H443.596V553.797Z" fill="black"/>
<path opacity="0.1" d="M589.55 492.766H532.748V545.981H589.55V492.766Z" fill="black"/>
<path opacity="0.1" d="M528.218 492.766H470.436V545.981H528.218V492.766Z" fill="black"/>
<path opacity="0.2" d="M524.762 516.673C524.762 517.208 524.601 517.731 524.301 518.175C524 518.62 523.573 518.967 523.074 519.172C522.574 519.376 522.025 519.43 521.494 519.325C520.964 519.221 520.477 518.964 520.095 518.585C519.712 518.207 519.452 517.725 519.346 517.201C519.241 516.676 519.295 516.132 519.502 515.638C519.709 515.144 520.059 514.721 520.509 514.424C520.958 514.127 521.487 513.968 522.028 513.968C522.753 513.968 523.448 514.253 523.961 514.76C524.474 515.268 524.762 515.956 524.762 516.673Z" fill="black"/>
<path opacity="0.2" d="M541.096 516.673C541.096 517.208 540.936 517.731 540.635 518.175C540.335 518.62 539.908 518.967 539.408 519.172C538.909 519.376 538.359 519.43 537.829 519.325C537.298 519.221 536.811 518.964 536.429 518.585C536.047 518.207 535.786 517.725 535.681 517.201C535.575 516.676 535.629 516.132 535.836 515.638C536.043 515.144 536.394 514.721 536.843 514.424C537.293 514.127 537.821 513.968 538.362 513.968C539.087 513.968 539.783 514.253 540.295 514.76C540.808 515.268 541.096 515.956 541.096 516.673Z" fill="black"/>
<path d="M431.734 77H438.614C451.094 77 460.694 80.3067 467.414 86.92C474.24 93.5333 477.654 102.973 477.654 115.24C477.654 122.28 475.947 128.733 472.534 134.6C469.227 140.467 464.694 145.107 458.934 148.52C453.174 151.827 446.827 153.48 439.894 153.48H438.774L480.054 197H473.174L436.854 158.92V197H431.734V77ZM439.734 148.84C445.814 148.84 451.36 147.347 456.374 144.36C461.387 141.373 465.334 137.373 468.214 132.36C471.094 127.24 472.534 121.587 472.534 115.4C472.534 104.627 469.6 96.3067 463.734 90.44C457.974 84.5733 449.707 81.64 438.934 81.64H436.854V148.84H439.734ZM497.828 77H540.868V81.64H503.108V146.92H534.628V151.56H503.108V192.36H540.868V197H497.828V77ZM557.511 77H562.791C575.378 77 585.191 80.36 592.231 87.08C599.271 93.6933 602.791 102.6 602.791 113.8C602.791 121.587 601.085 128.52 597.671 134.6C594.258 140.573 589.618 145.213 583.751 148.52C577.885 151.72 571.325 153.32 564.071 153.32H562.791V197H557.511V77ZM564.391 148.68C574.098 148.68 582.045 145.693 588.231 139.72C594.418 133.64 597.511 125.107 597.511 114.12C597.511 103.667 594.578 95.6667 588.711 90.12C582.951 84.4667 574.738 81.64 564.071 81.64H562.791V148.68H564.391ZM678.389 200.2C667.189 200.2 656.789 197.267 647.189 191.4C637.589 185.533 629.962 177.747 624.309 168.04C618.762 158.227 615.989 147.72 615.989 136.52C615.989 125.427 618.815 115.08 624.469 105.48C630.122 95.7733 637.749 88.0933 647.349 82.44C656.949 76.68 667.349 73.8 678.549 73.8C689.855 73.8 700.255 76.6267 709.749 82.28C719.242 87.9333 726.762 95.6133 732.309 105.32C737.962 114.92 740.789 125.32 740.789 136.52C740.789 148.04 737.962 158.707 732.309 168.52C726.762 178.227 719.189 185.96 709.589 191.72C700.095 197.373 689.695 200.2 678.389 200.2ZM678.389 195.56C688.629 195.56 698.122 192.947 706.869 187.72C715.615 182.387 722.549 175.24 727.669 166.28C732.895 157.213 735.509 147.4 735.509 136.84C735.509 126.387 732.949 116.68 727.829 107.72C722.709 98.76 715.775 91.6667 707.029 86.44C698.282 81.1067 688.789 78.44 678.549 78.44C668.202 78.44 658.655 81.1067 649.909 86.44C641.162 91.6667 634.175 98.76 628.949 107.72C623.829 116.68 621.269 126.387 621.269 136.84C621.269 147.4 623.829 157.213 628.949 166.28C634.175 175.24 641.162 182.387 649.909 187.72C658.655 192.947 668.149 195.56 678.389 195.56ZM762.515 77H769.395C781.875 77 791.475 80.3067 798.195 86.92C805.022 93.5333 808.435 102.973 808.435 115.24C808.435 122.28 806.728 128.733 803.315 134.6C800.008 140.467 795.475 145.107 789.715 148.52C783.955 151.827 777.608 153.48 770.675 153.48H769.555L810.835 197H803.955L767.635 158.92V197H762.515V77ZM770.515 148.84C776.595 148.84 782.142 147.347 787.155 144.36C792.168 141.373 796.115 137.373 798.995 132.36C801.875 127.24 803.315 121.587 803.315 115.4C803.315 104.627 800.382 96.3067 794.515 90.44C788.755 84.5733 780.488 81.64 769.715 81.64H767.635V148.84H770.515ZM847.009 81.64H819.329V77H879.649V81.64H852.289V197H847.009V81.64ZM914.354 199.24C901.02 199.24 890.674 193.747 883.314 182.76V174.12C886.194 180.52 890.354 185.533 895.794 189.16C901.34 192.787 907.954 194.6 915.634 194.6C920.967 194.6 925.874 193.427 930.354 191.08C934.94 188.733 938.567 185.427 941.234 181.16C943.9 176.893 945.234 171.987 945.234 166.44C945.234 161.427 944.38 157.107 942.674 153.48C940.967 149.853 938.14 146.387 934.194 143.08C930.247 139.667 924.54 135.667 917.074 131.08L911.954 127.88C907.26 125 903.474 122.44 900.594 120.2C897.714 117.96 895.207 115.347 893.074 112.36C890.3 108.2 888.914 103.4 888.914 97.96C888.914 90.7067 891.26 85.0533 895.954 81C900.647 76.9467 906.62 74.92 913.874 74.92C923.687 74.92 931.474 78.5467 937.234 85.8V93.96C934.78 89.48 931.42 85.96 927.154 83.4C922.887 80.84 918.194 79.56 913.074 79.56C907.74 79.56 903.26 81.2133 899.634 84.52C896.007 87.8267 894.194 92.2533 894.194 97.8C894.194 103.24 895.847 107.933 899.154 111.88C902.567 115.72 908.274 119.933 916.274 124.52C926.087 130.28 933.714 135.507 939.154 140.2C942.994 143.72 945.767 147.613 947.474 151.88C949.287 156.147 950.194 160.893 950.194 166.12C950.194 172.733 948.647 178.547 945.554 183.56C942.46 188.573 938.194 192.467 932.754 195.24C927.314 197.907 921.18 199.24 914.354 199.24Z" fill="black" fill-opacity="0.54"/>
</svg>
