<svg width="289" height="264" viewBox="0 0 289 264" fill="none" xmlns="http://www.w3.org/2000/svg">
<path d="M74.5273 253.021L76.6953 254.738L75.9336 255.441L73.8008 253.748L74.5273 253.021ZM76.666 249.465V250.004C76.666 250.645 76.5859 251.219 76.4258 251.727C76.2656 252.234 76.0352 252.666 75.7344 253.021C75.4336 253.377 75.0723 253.648 74.6504 253.836C74.2324 254.023 73.7637 254.117 73.2441 254.117C72.7402 254.117 72.2773 254.023 71.8555 253.836C71.4375 253.648 71.0742 253.377 70.7656 253.021C70.4609 252.666 70.2246 252.234 70.0566 251.727C69.8887 251.219 69.8047 250.645 69.8047 250.004V249.465C69.8047 248.824 69.8867 248.252 70.0508 247.748C70.2188 247.24 70.4551 246.809 70.7598 246.453C71.0645 246.094 71.4258 245.82 71.8438 245.633C72.2656 245.445 72.7285 245.352 73.2324 245.352C73.752 245.352 74.2227 245.445 74.6445 245.633C75.0664 245.82 75.4277 246.094 75.7285 246.453C76.0293 246.809 76.2598 247.24 76.4199 247.748C76.584 248.252 76.666 248.824 76.666 249.465ZM75.5469 250.004V249.453C75.5469 248.945 75.4941 248.496 75.3887 248.105C75.2871 247.715 75.1367 247.387 74.9375 247.121C74.7383 246.855 74.4961 246.654 74.2109 246.518C73.9258 246.381 73.5996 246.312 73.2324 246.312C72.8848 246.312 72.5684 246.381 72.2832 246.518C72.002 246.654 71.7598 246.855 71.5566 247.121C71.3535 247.387 71.1973 247.715 71.0879 248.105C70.9785 248.496 70.9238 248.945 70.9238 249.453V250.004C70.9238 250.516 70.9785 250.969 71.0879 251.363C71.1973 251.754 71.3535 252.084 71.5566 252.354C71.7637 252.619 72.0098 252.82 72.2949 252.957C72.5801 253.094 72.8965 253.162 73.2441 253.162C73.6113 253.162 73.9375 253.094 74.2227 252.957C74.5078 252.82 74.748 252.619 74.9434 252.354C75.1426 252.084 75.293 251.754 75.3945 251.363C75.4961 250.969 75.5469 250.516 75.5469 250.004ZM82.127 252.535V247.66H83.2168V254H82.1797L82.127 252.535ZM82.332 251.199L82.7832 251.188C82.7832 251.609 82.7383 252 82.6484 252.359C82.5625 252.715 82.4219 253.023 82.2266 253.285C82.0312 253.547 81.7754 253.752 81.459 253.9C81.1426 254.045 80.7578 254.117 80.3047 254.117C79.9961 254.117 79.7129 254.072 79.4551 253.982C79.2012 253.893 78.9824 253.754 78.7988 253.566C78.6152 253.379 78.4727 253.135 78.3711 252.834C78.2734 252.533 78.2246 252.172 78.2246 251.75V247.66H79.3086V251.762C79.3086 252.047 79.3398 252.283 79.4023 252.471C79.4688 252.654 79.5566 252.801 79.666 252.91C79.7793 253.016 79.9043 253.09 80.041 253.133C80.1816 253.176 80.3262 253.197 80.4746 253.197C80.9355 253.197 81.3008 253.109 81.5703 252.934C81.8398 252.754 82.0332 252.514 82.1504 252.213C82.2715 251.908 82.332 251.57 82.332 251.199ZM86.0469 247.66V254H84.957V247.66H86.0469ZM84.875 245.979C84.875 245.803 84.9277 245.654 85.0332 245.533C85.1426 245.412 85.3027 245.352 85.5137 245.352C85.7207 245.352 85.8789 245.412 85.9883 245.533C86.1016 245.654 86.1582 245.803 86.1582 245.979C86.1582 246.146 86.1016 246.291 85.9883 246.412C85.8789 246.529 85.7207 246.588 85.5137 246.588C85.3027 246.588 85.1426 246.529 85.0332 246.412C84.9277 246.291 84.875 246.146 84.875 245.979ZM92.5098 253.109V254H87.8984V253.109H92.5098ZM92.3398 248.428L88.1445 254H87.4824V253.203L91.6484 247.66H92.3398V248.428ZM91.8594 247.66V248.557H87.5293V247.66H91.8594ZM98.4629 253.109V254H93.8516V253.109H98.4629ZM98.293 248.428L94.0977 254H93.4355V253.203L97.6016 247.66H98.293V248.428ZM97.8125 247.66V248.557H93.4824V247.66H97.8125ZM102.23 254.117C101.789 254.117 101.389 254.043 101.029 253.895C100.674 253.742 100.367 253.529 100.109 253.256C99.8555 252.982 99.6602 252.658 99.5234 252.283C99.3867 251.908 99.3184 251.498 99.3184 251.053V250.807C99.3184 250.291 99.3945 249.832 99.5469 249.43C99.6992 249.023 99.9062 248.68 100.168 248.398C100.43 248.117 100.727 247.904 101.059 247.76C101.391 247.615 101.734 247.543 102.09 247.543C102.543 247.543 102.934 247.621 103.262 247.777C103.594 247.934 103.865 248.152 104.076 248.434C104.287 248.711 104.443 249.039 104.545 249.418C104.646 249.793 104.697 250.203 104.697 250.648V251.135H99.9629V250.25H103.613V250.168C103.598 249.887 103.539 249.613 103.438 249.348C103.34 249.082 103.184 248.863 102.969 248.691C102.754 248.52 102.461 248.434 102.09 248.434C101.844 248.434 101.617 248.486 101.41 248.592C101.203 248.693 101.025 248.846 100.877 249.049C100.729 249.252 100.613 249.5 100.531 249.793C100.449 250.086 100.408 250.424 100.408 250.807V251.053C100.408 251.354 100.449 251.637 100.531 251.902C100.617 252.164 100.74 252.395 100.9 252.594C101.064 252.793 101.262 252.949 101.492 253.062C101.727 253.176 101.992 253.232 102.289 253.232C102.672 253.232 102.996 253.154 103.262 252.998C103.527 252.842 103.76 252.633 103.959 252.371L104.615 252.893C104.479 253.1 104.305 253.297 104.094 253.484C103.883 253.672 103.623 253.824 103.314 253.941C103.01 254.059 102.648 254.117 102.23 254.117ZM109.654 252.318C109.654 252.162 109.619 252.018 109.549 251.885C109.482 251.748 109.344 251.625 109.133 251.516C108.926 251.402 108.613 251.305 108.195 251.223C107.844 251.148 107.525 251.061 107.24 250.959C106.959 250.857 106.719 250.734 106.52 250.59C106.324 250.445 106.174 250.275 106.068 250.08C105.963 249.885 105.91 249.656 105.91 249.395C105.91 249.145 105.965 248.908 106.074 248.686C106.188 248.463 106.346 248.266 106.549 248.094C106.756 247.922 107.004 247.787 107.293 247.689C107.582 247.592 107.904 247.543 108.26 247.543C108.768 247.543 109.201 247.633 109.561 247.812C109.92 247.992 110.195 248.232 110.387 248.533C110.578 248.83 110.674 249.16 110.674 249.523H109.59C109.59 249.348 109.537 249.178 109.432 249.014C109.33 248.846 109.18 248.707 108.98 248.598C108.785 248.488 108.545 248.434 108.26 248.434C107.959 248.434 107.715 248.48 107.527 248.574C107.344 248.664 107.209 248.779 107.123 248.92C107.041 249.061 107 249.209 107 249.365C107 249.482 107.02 249.588 107.059 249.682C107.102 249.771 107.176 249.855 107.281 249.934C107.387 250.008 107.535 250.078 107.727 250.145C107.918 250.211 108.162 250.277 108.459 250.344C108.979 250.461 109.406 250.602 109.742 250.766C110.078 250.93 110.328 251.131 110.492 251.369C110.656 251.607 110.738 251.896 110.738 252.236C110.738 252.514 110.68 252.768 110.562 252.998C110.449 253.229 110.283 253.428 110.064 253.596C109.85 253.76 109.592 253.889 109.291 253.982C108.994 254.072 108.66 254.117 108.289 254.117C107.73 254.117 107.258 254.018 106.871 253.818C106.484 253.619 106.191 253.361 105.992 253.045C105.793 252.729 105.693 252.395 105.693 252.043H106.783C106.799 252.34 106.885 252.576 107.041 252.752C107.197 252.924 107.389 253.047 107.615 253.121C107.842 253.191 108.066 253.227 108.289 253.227C108.586 253.227 108.834 253.188 109.033 253.109C109.236 253.031 109.391 252.924 109.496 252.787C109.602 252.65 109.654 252.494 109.654 252.318ZM116.217 245.469V255.582H115.344V245.469H116.217ZM124.367 246.225L121.543 254H120.389L123.641 245.469H124.385L124.367 246.225ZM126.734 254L123.904 246.225L123.887 245.469H124.631L127.895 254H126.734ZM126.588 250.842V251.768H121.795V250.842H126.588ZM129.957 249.014V254H128.873V247.66H129.898L129.957 249.014ZM129.699 250.59L129.248 250.572C129.252 250.139 129.316 249.738 129.441 249.371C129.566 249 129.742 248.678 129.969 248.404C130.195 248.131 130.465 247.92 130.777 247.771C131.094 247.619 131.443 247.543 131.826 247.543C132.139 247.543 132.42 247.586 132.67 247.672C132.92 247.754 133.133 247.887 133.309 248.07C133.488 248.254 133.625 248.492 133.719 248.785C133.812 249.074 133.859 249.428 133.859 249.846V254H132.77V249.834C132.77 249.502 132.721 249.236 132.623 249.037C132.525 248.834 132.383 248.688 132.195 248.598C132.008 248.504 131.777 248.457 131.504 248.457C131.234 248.457 130.988 248.514 130.766 248.627C130.547 248.74 130.357 248.896 130.197 249.096C130.041 249.295 129.918 249.523 129.828 249.781C129.742 250.035 129.699 250.305 129.699 250.59ZM139.244 252.916V249.652C139.244 249.402 139.193 249.186 139.092 249.002C138.994 248.814 138.846 248.67 138.646 248.568C138.447 248.467 138.201 248.416 137.908 248.416C137.635 248.416 137.395 248.463 137.188 248.557C136.984 248.65 136.824 248.773 136.707 248.926C136.594 249.078 136.537 249.242 136.537 249.418H135.453C135.453 249.191 135.512 248.967 135.629 248.744C135.746 248.521 135.914 248.32 136.133 248.141C136.355 247.957 136.621 247.812 136.93 247.707C137.242 247.598 137.59 247.543 137.973 247.543C138.434 247.543 138.84 247.621 139.191 247.777C139.547 247.934 139.824 248.17 140.023 248.486C140.227 248.799 140.328 249.191 140.328 249.664V252.617C140.328 252.828 140.346 253.053 140.381 253.291C140.42 253.529 140.477 253.734 140.551 253.906V254H139.42C139.365 253.875 139.322 253.709 139.291 253.502C139.26 253.291 139.244 253.096 139.244 252.916ZM139.432 250.156L139.443 250.918H138.348C138.039 250.918 137.764 250.943 137.521 250.994C137.279 251.041 137.076 251.113 136.912 251.211C136.748 251.309 136.623 251.432 136.537 251.58C136.451 251.725 136.408 251.895 136.408 252.09C136.408 252.289 136.453 252.471 136.543 252.635C136.633 252.799 136.768 252.93 136.947 253.027C137.131 253.121 137.355 253.168 137.621 253.168C137.953 253.168 138.246 253.098 138.5 252.957C138.754 252.816 138.955 252.645 139.104 252.441C139.256 252.238 139.338 252.041 139.35 251.85L139.812 252.371C139.785 252.535 139.711 252.717 139.59 252.916C139.469 253.115 139.307 253.307 139.104 253.49C138.904 253.67 138.666 253.82 138.389 253.941C138.115 254.059 137.807 254.117 137.463 254.117C137.033 254.117 136.656 254.033 136.332 253.865C136.012 253.697 135.762 253.473 135.582 253.191C135.406 252.906 135.318 252.588 135.318 252.236C135.318 251.896 135.385 251.598 135.518 251.34C135.65 251.078 135.842 250.861 136.092 250.689C136.342 250.514 136.643 250.381 136.994 250.291C137.346 250.201 137.738 250.156 138.172 250.156H139.432ZM143.211 245V254H142.121V245H143.211ZM146.732 253.344L148.496 247.66H149.656L147.113 254.979C147.055 255.135 146.977 255.303 146.879 255.482C146.785 255.666 146.664 255.84 146.516 256.004C146.367 256.168 146.188 256.301 145.977 256.402C145.77 256.508 145.521 256.561 145.232 256.561C145.146 256.561 145.037 256.549 144.904 256.525C144.771 256.502 144.678 256.482 144.623 256.467L144.617 255.588C144.648 255.592 144.697 255.596 144.764 255.6C144.834 255.607 144.883 255.611 144.91 255.611C145.156 255.611 145.365 255.578 145.537 255.512C145.709 255.449 145.854 255.342 145.971 255.189C146.092 255.041 146.195 254.836 146.281 254.574L146.732 253.344ZM145.438 247.66L147.084 252.582L147.365 253.725L146.586 254.123L144.254 247.66H145.438ZM153.289 247.66V248.492H149.861V247.66H153.289ZM151.021 246.119H152.105V252.43C152.105 252.645 152.139 252.807 152.205 252.916C152.271 253.025 152.357 253.098 152.463 253.133C152.568 253.168 152.682 253.186 152.803 253.186C152.893 253.186 152.986 253.178 153.084 253.162C153.186 253.143 153.262 253.127 153.312 253.115L153.318 254C153.232 254.027 153.119 254.053 152.979 254.076C152.842 254.104 152.676 254.117 152.48 254.117C152.215 254.117 151.971 254.064 151.748 253.959C151.525 253.854 151.348 253.678 151.215 253.432C151.086 253.182 151.021 252.846 151.021 252.424V246.119ZM155.738 247.66V254H154.648V247.66H155.738ZM154.566 245.979C154.566 245.803 154.619 245.654 154.725 245.533C154.834 245.412 154.994 245.352 155.205 245.352C155.412 245.352 155.57 245.412 155.68 245.533C155.793 245.654 155.85 245.803 155.85 245.979C155.85 246.146 155.793 246.291 155.68 246.412C155.57 246.529 155.412 246.588 155.205 246.588C154.994 246.588 154.834 246.529 154.725 246.412C154.619 246.291 154.566 246.146 154.566 245.979ZM160.016 253.227C160.273 253.227 160.512 253.174 160.73 253.068C160.949 252.963 161.129 252.818 161.27 252.635C161.41 252.447 161.49 252.234 161.51 251.996H162.541C162.521 252.371 162.395 252.721 162.16 253.045C161.93 253.365 161.627 253.625 161.252 253.824C160.877 254.02 160.465 254.117 160.016 254.117C159.539 254.117 159.123 254.033 158.768 253.865C158.416 253.697 158.123 253.467 157.889 253.174C157.658 252.881 157.484 252.545 157.367 252.166C157.254 251.783 157.197 251.379 157.197 250.953V250.707C157.197 250.281 157.254 249.879 157.367 249.5C157.484 249.117 157.658 248.779 157.889 248.486C158.123 248.193 158.416 247.963 158.768 247.795C159.123 247.627 159.539 247.543 160.016 247.543C160.512 247.543 160.945 247.645 161.316 247.848C161.688 248.047 161.979 248.32 162.189 248.668C162.404 249.012 162.521 249.402 162.541 249.84H161.51C161.49 249.578 161.416 249.342 161.287 249.131C161.162 248.92 160.99 248.752 160.771 248.627C160.557 248.498 160.305 248.434 160.016 248.434C159.684 248.434 159.404 248.5 159.178 248.633C158.955 248.762 158.777 248.938 158.645 249.16C158.516 249.379 158.422 249.623 158.363 249.893C158.309 250.158 158.281 250.43 158.281 250.707V250.953C158.281 251.23 158.309 251.504 158.363 251.773C158.418 252.043 158.51 252.287 158.639 252.506C158.771 252.725 158.949 252.9 159.172 253.033C159.398 253.162 159.68 253.227 160.016 253.227ZM167.451 252.318C167.451 252.162 167.416 252.018 167.346 251.885C167.279 251.748 167.141 251.625 166.93 251.516C166.723 251.402 166.41 251.305 165.992 251.223C165.641 251.148 165.322 251.061 165.037 250.959C164.756 250.857 164.516 250.734 164.316 250.59C164.121 250.445 163.971 250.275 163.865 250.08C163.76 249.885 163.707 249.656 163.707 249.395C163.707 249.145 163.762 248.908 163.871 248.686C163.984 248.463 164.143 248.266 164.346 248.094C164.553 247.922 164.801 247.787 165.09 247.689C165.379 247.592 165.701 247.543 166.057 247.543C166.564 247.543 166.998 247.633 167.357 247.812C167.717 247.992 167.992 248.232 168.184 248.533C168.375 248.83 168.471 249.16 168.471 249.523H167.387C167.387 249.348 167.334 249.178 167.229 249.014C167.127 248.846 166.977 248.707 166.777 248.598C166.582 248.488 166.342 248.434 166.057 248.434C165.756 248.434 165.512 248.48 165.324 248.574C165.141 248.664 165.006 248.779 164.92 248.92C164.838 249.061 164.797 249.209 164.797 249.365C164.797 249.482 164.816 249.588 164.855 249.682C164.898 249.771 164.973 249.855 165.078 249.934C165.184 250.008 165.332 250.078 165.523 250.145C165.715 250.211 165.959 250.277 166.256 250.344C166.775 250.461 167.203 250.602 167.539 250.766C167.875 250.93 168.125 251.131 168.289 251.369C168.453 251.607 168.535 251.896 168.535 252.236C168.535 252.514 168.477 252.768 168.359 252.998C168.246 253.229 168.08 253.428 167.861 253.596C167.646 253.76 167.389 253.889 167.088 253.982C166.791 254.072 166.457 254.117 166.086 254.117C165.527 254.117 165.055 254.018 164.668 253.818C164.281 253.619 163.988 253.361 163.789 253.045C163.59 252.729 163.49 252.395 163.49 252.043H164.58C164.596 252.34 164.682 252.576 164.838 252.752C164.994 252.924 165.186 253.047 165.412 253.121C165.639 253.191 165.863 253.227 166.086 253.227C166.383 253.227 166.631 253.188 166.83 253.109C167.033 253.031 167.188 252.924 167.293 252.787C167.398 252.65 167.451 252.494 167.451 252.318ZM174.014 245.469V255.582H173.141V245.469H174.014ZM179.006 245.469H181.83C182.471 245.469 183.012 245.566 183.453 245.762C183.898 245.957 184.236 246.246 184.467 246.629C184.701 247.008 184.818 247.475 184.818 248.029C184.818 248.42 184.738 248.777 184.578 249.102C184.422 249.422 184.195 249.695 183.898 249.922C183.605 250.145 183.254 250.311 182.844 250.42L182.527 250.543H179.873L179.861 249.623H181.865C182.271 249.623 182.609 249.553 182.879 249.412C183.148 249.268 183.352 249.074 183.488 248.832C183.625 248.59 183.693 248.322 183.693 248.029C183.693 247.701 183.629 247.414 183.5 247.168C183.371 246.922 183.168 246.732 182.891 246.6C182.617 246.463 182.264 246.395 181.83 246.395H180.137V254H179.006V245.469ZM183.992 254L181.918 250.133L183.096 250.127L185.199 253.93V254H183.992ZM188.867 254.117C188.426 254.117 188.025 254.043 187.666 253.895C187.311 253.742 187.004 253.529 186.746 253.256C186.492 252.982 186.297 252.658 186.16 252.283C186.023 251.908 185.955 251.498 185.955 251.053V250.807C185.955 250.291 186.031 249.832 186.184 249.43C186.336 249.023 186.543 248.68 186.805 248.398C187.066 248.117 187.363 247.904 187.695 247.76C188.027 247.615 188.371 247.543 188.727 247.543C189.18 247.543 189.57 247.621 189.898 247.777C190.23 247.934 190.502 248.152 190.713 248.434C190.924 248.711 191.08 249.039 191.182 249.418C191.283 249.793 191.334 250.203 191.334 250.648V251.135H186.6V250.25H190.25V250.168C190.234 249.887 190.176 249.613 190.074 249.348C189.977 249.082 189.82 248.863 189.605 248.691C189.391 248.52 189.098 248.434 188.727 248.434C188.48 248.434 188.254 248.486 188.047 248.592C187.84 248.693 187.662 248.846 187.514 249.049C187.365 249.252 187.25 249.5 187.168 249.793C187.086 250.086 187.045 250.424 187.045 250.807V251.053C187.045 251.354 187.086 251.637 187.168 251.902C187.254 252.164 187.377 252.395 187.537 252.594C187.701 252.793 187.898 252.949 188.129 253.062C188.363 253.176 188.629 253.232 188.926 253.232C189.309 253.232 189.633 253.154 189.898 252.998C190.164 252.842 190.396 252.633 190.596 252.371L191.252 252.893C191.115 253.1 190.941 253.297 190.73 253.484C190.52 253.672 190.26 253.824 189.951 253.941C189.646 254.059 189.285 254.117 188.867 254.117ZM193.684 248.879V256.438H192.594V247.66H193.59L193.684 248.879ZM197.955 250.777V250.9C197.955 251.361 197.9 251.789 197.791 252.184C197.682 252.574 197.521 252.914 197.311 253.203C197.104 253.492 196.848 253.717 196.543 253.877C196.238 254.037 195.889 254.117 195.494 254.117C195.092 254.117 194.736 254.051 194.428 253.918C194.119 253.785 193.857 253.592 193.643 253.338C193.428 253.084 193.256 252.779 193.127 252.424C193.002 252.068 192.916 251.668 192.869 251.223V250.566C192.916 250.098 193.004 249.678 193.133 249.307C193.262 248.936 193.432 248.619 193.643 248.357C193.857 248.092 194.117 247.891 194.422 247.754C194.727 247.613 195.078 247.543 195.477 247.543C195.875 247.543 196.229 247.621 196.537 247.777C196.846 247.93 197.105 248.148 197.316 248.434C197.527 248.719 197.686 249.061 197.791 249.459C197.9 249.854 197.955 250.293 197.955 250.777ZM196.865 250.9V250.777C196.865 250.461 196.832 250.164 196.766 249.887C196.699 249.605 196.596 249.359 196.455 249.148C196.318 248.934 196.143 248.766 195.928 248.645C195.713 248.52 195.457 248.457 195.16 248.457C194.887 248.457 194.648 248.504 194.445 248.598C194.246 248.691 194.076 248.818 193.936 248.979C193.795 249.135 193.68 249.314 193.59 249.518C193.504 249.717 193.439 249.924 193.396 250.139V251.656C193.475 251.93 193.584 252.188 193.725 252.43C193.865 252.668 194.053 252.861 194.287 253.01C194.521 253.154 194.816 253.227 195.172 253.227C195.465 253.227 195.717 253.166 195.928 253.045C196.143 252.92 196.318 252.75 196.455 252.535C196.596 252.32 196.699 252.074 196.766 251.797C196.832 251.516 196.865 251.217 196.865 250.9ZM199.051 250.9V250.766C199.051 250.309 199.117 249.885 199.25 249.494C199.383 249.1 199.574 248.758 199.824 248.469C200.074 248.176 200.377 247.949 200.732 247.789C201.088 247.625 201.486 247.543 201.928 247.543C202.373 247.543 202.773 247.625 203.129 247.789C203.488 247.949 203.793 248.176 204.043 248.469C204.297 248.758 204.49 249.1 204.623 249.494C204.756 249.885 204.822 250.309 204.822 250.766V250.9C204.822 251.357 204.756 251.781 204.623 252.172C204.49 252.562 204.297 252.904 204.043 253.197C203.793 253.486 203.49 253.713 203.135 253.877C202.783 254.037 202.385 254.117 201.939 254.117C201.494 254.117 201.094 254.037 200.738 253.877C200.383 253.713 200.078 253.486 199.824 253.197C199.574 252.904 199.383 252.562 199.25 252.172C199.117 251.781 199.051 251.357 199.051 250.9ZM200.135 250.766V250.9C200.135 251.217 200.172 251.516 200.246 251.797C200.32 252.074 200.432 252.32 200.58 252.535C200.732 252.75 200.922 252.92 201.148 253.045C201.375 253.166 201.639 253.227 201.939 253.227C202.236 253.227 202.496 253.166 202.719 253.045C202.945 252.92 203.133 252.75 203.281 252.535C203.43 252.32 203.541 252.074 203.615 251.797C203.693 251.516 203.732 251.217 203.732 250.9V250.766C203.732 250.453 203.693 250.158 203.615 249.881C203.541 249.6 203.428 249.352 203.275 249.137C203.127 248.918 202.939 248.746 202.713 248.621C202.49 248.496 202.229 248.434 201.928 248.434C201.631 248.434 201.369 248.496 201.143 248.621C200.92 248.746 200.732 248.918 200.58 249.137C200.432 249.352 200.32 249.6 200.246 249.881C200.172 250.158 200.135 250.453 200.135 250.766ZM207.266 248.656V254H206.182V247.66H207.236L207.266 248.656ZM209.246 247.625L209.24 248.633C209.15 248.613 209.064 248.602 208.982 248.598C208.904 248.59 208.814 248.586 208.713 248.586C208.463 248.586 208.242 248.625 208.051 248.703C207.859 248.781 207.697 248.891 207.564 249.031C207.432 249.172 207.326 249.34 207.248 249.535C207.174 249.727 207.125 249.938 207.102 250.168L206.797 250.344C206.797 249.961 206.834 249.602 206.908 249.266C206.986 248.93 207.105 248.633 207.266 248.375C207.426 248.113 207.629 247.91 207.875 247.766C208.125 247.617 208.422 247.543 208.766 247.543C208.844 247.543 208.934 247.553 209.035 247.572C209.137 247.588 209.207 247.605 209.246 247.625ZM213.195 247.66V248.492H209.768V247.66H213.195ZM210.928 246.119H212.012V252.43C212.012 252.645 212.045 252.807 212.111 252.916C212.178 253.025 212.264 253.098 212.369 253.133C212.475 253.168 212.588 253.186 212.709 253.186C212.799 253.186 212.893 253.178 212.99 253.162C213.092 253.143 213.168 253.127 213.219 253.115L213.225 254C213.139 254.027 213.025 254.053 212.885 254.076C212.748 254.104 212.582 254.117 212.387 254.117C212.121 254.117 211.877 254.064 211.654 253.959C211.432 253.854 211.254 253.678 211.121 253.432C210.992 253.182 210.928 252.846 210.928 252.424V246.119ZM218.158 252.318C218.158 252.162 218.123 252.018 218.053 251.885C217.986 251.748 217.848 251.625 217.637 251.516C217.43 251.402 217.117 251.305 216.699 251.223C216.348 251.148 216.029 251.061 215.744 250.959C215.463 250.857 215.223 250.734 215.023 250.59C214.828 250.445 214.678 250.275 214.572 250.08C214.467 249.885 214.414 249.656 214.414 249.395C214.414 249.145 214.469 248.908 214.578 248.686C214.691 248.463 214.85 248.266 215.053 248.094C215.26 247.922 215.508 247.787 215.797 247.689C216.086 247.592 216.408 247.543 216.764 247.543C217.271 247.543 217.705 247.633 218.064 247.812C218.424 247.992 218.699 248.232 218.891 248.533C219.082 248.83 219.178 249.16 219.178 249.523H218.094C218.094 249.348 218.041 249.178 217.936 249.014C217.834 248.846 217.684 248.707 217.484 248.598C217.289 248.488 217.049 248.434 216.764 248.434C216.463 248.434 216.219 248.48 216.031 248.574C215.848 248.664 215.713 248.779 215.627 248.92C215.545 249.061 215.504 249.209 215.504 249.365C215.504 249.482 215.523 249.588 215.562 249.682C215.605 249.771 215.68 249.855 215.785 249.934C215.891 250.008 216.039 250.078 216.23 250.145C216.422 250.211 216.666 250.277 216.963 250.344C217.482 250.461 217.91 250.602 218.246 250.766C218.582 250.93 218.832 251.131 218.996 251.369C219.16 251.607 219.242 251.896 219.242 252.236C219.242 252.514 219.184 252.768 219.066 252.998C218.953 253.229 218.787 253.428 218.568 253.596C218.354 253.76 218.096 253.889 217.795 253.982C217.498 254.072 217.164 254.117 216.793 254.117C216.234 254.117 215.762 254.018 215.375 253.818C214.988 253.619 214.695 253.361 214.496 253.045C214.297 252.729 214.197 252.395 214.197 252.043H215.287C215.303 252.34 215.389 252.576 215.545 252.752C215.701 252.924 215.893 253.047 216.119 253.121C216.346 253.191 216.57 253.227 216.793 253.227C217.09 253.227 217.338 253.188 217.537 253.109C217.74 253.031 217.895 252.924 218 252.787C218.105 252.65 218.158 252.494 218.158 252.318Z" fill="#828282" fill-opacity="0.86"/>
<path d="M23.0938 197.498C23.5723 198.159 24.1875 198.695 24.9395 199.105C25.6914 199.492 26.6143 199.686 27.708 199.686C28.8245 199.686 29.8385 199.424 30.75 198.9C31.6615 198.353 32.4932 197.646 33.2451 196.781C33.9971 195.915 34.6693 194.946 35.2617 193.875C35.8542 192.804 36.3896 191.733 36.8682 190.662C36.9821 190.412 37.1416 190.229 37.3467 190.115C37.5518 189.979 37.7796 189.91 38.0303 189.91C38.4176 189.91 38.7253 190.047 38.9531 190.321C39.2038 190.594 39.3291 190.89 39.3291 191.209C39.3291 191.323 39.3177 191.426 39.2949 191.517C39.2721 191.585 39.238 191.665 39.1924 191.756C37.6201 195.22 35.8997 197.829 34.0312 199.583C32.1855 201.338 30.0892 202.238 27.7422 202.283C26.2383 202.283 24.9395 201.987 23.8457 201.395C22.752 200.825 21.8519 200.085 21.1455 199.173C20.4391 198.239 19.915 197.191 19.5732 196.029C19.2314 194.866 19.0605 193.704 19.0605 192.542C19.0605 191.38 19.1973 190.309 19.4707 189.329C19.7669 188.35 20.1771 187.495 20.7012 186.766C21.248 186.037 21.8861 185.467 22.6152 185.057C23.3672 184.647 24.1875 184.442 25.0762 184.442C25.6003 184.442 26.113 184.556 26.6143 184.783C27.1383 184.989 27.6055 185.296 28.0156 185.706C28.4258 186.094 28.7562 186.572 29.0068 187.142C29.2575 187.712 29.3828 188.361 29.3828 189.09C29.3828 190.024 29.2233 190.902 28.9043 191.722C28.5853 192.542 28.141 193.306 27.5713 194.012C27.0244 194.718 26.3636 195.368 25.5889 195.96C24.8141 196.553 23.9824 197.065 23.0938 197.498ZM22.0684 195.277C22.7747 194.98 23.4128 194.604 23.9824 194.149C24.5749 193.693 25.0762 193.192 25.4863 192.645C25.8965 192.098 26.2155 191.528 26.4434 190.936C26.6712 190.321 26.7852 189.705 26.7852 189.09C26.7852 188.406 26.6143 187.894 26.2725 187.552C25.9307 187.187 25.5319 187.005 25.0762 187.005C24.4609 187.005 23.9368 187.176 23.5039 187.518C23.071 187.86 22.7178 188.304 22.4443 188.851C22.1709 189.398 21.9658 190.013 21.8291 190.697C21.7152 191.357 21.6582 192.018 21.6582 192.679C21.6582 193.089 21.6924 193.522 21.7607 193.978C21.8519 194.434 21.9544 194.866 22.0684 195.277ZM57.2734 181.912C53.7643 186.242 50.5628 190.799 47.6689 195.584C48.4665 196.769 49.3438 197.749 50.3008 198.524C51.2578 199.298 52.3402 199.686 53.5479 199.686C54.6188 199.686 55.6328 199.378 56.5898 198.763C57.5469 198.148 58.4128 197.396 59.1875 196.507C59.985 195.596 60.6686 194.627 61.2383 193.602C61.8307 192.554 62.2865 191.608 62.6055 190.765C62.8333 190.195 63.2321 189.91 63.8018 189.91C64.1891 189.91 64.4967 190.047 64.7246 190.321C64.9753 190.571 65.1006 190.867 65.1006 191.209C65.1006 191.323 65.0778 191.471 65.0322 191.654C65.055 191.608 64.9525 191.836 64.7246 192.337C64.4967 192.838 64.1549 193.488 63.6992 194.285C63.2435 195.06 62.6852 195.915 62.0244 196.849C61.3636 197.783 60.6003 198.66 59.7344 199.481C58.8913 200.278 57.9456 200.939 56.8975 201.463C55.8493 202.01 54.7214 202.283 53.5137 202.283C52.0098 202.283 50.654 201.885 49.4463 201.087C48.2614 200.29 47.1904 199.276 46.2334 198.045C45.846 198.729 45.4701 199.412 45.1055 200.096C44.7409 200.78 44.3763 201.463 44.0117 202.147C43.7611 202.625 43.3737 202.865 42.8496 202.865C42.4622 202.865 42.1432 202.728 41.8926 202.454C41.6647 202.181 41.5508 201.885 41.5508 201.566C41.5508 201.383 41.6077 201.178 41.7217 200.95C42.1774 200.062 42.6445 199.173 43.123 198.284C43.6016 197.396 44.1029 196.518 44.627 195.653C43.8522 194.308 43.1914 192.941 42.6445 191.551C42.0977 190.138 41.6647 188.817 41.3457 187.586L39.3291 191.756C39.0785 192.257 38.6911 192.508 38.167 192.508C37.7796 192.508 37.4606 192.371 37.21 192.098C36.9821 191.824 36.8682 191.528 36.8682 191.209C36.8682 191.004 36.9137 190.822 37.0049 190.662L40.7305 182.869C40.8444 182.664 41.0039 182.493 41.209 182.357C41.4141 182.22 41.6419 182.152 41.8926 182.152C42.2572 182.152 42.5534 182.277 42.7812 182.528C43.0091 182.755 43.1458 183.04 43.1914 183.382C43.2142 183.701 43.2939 184.202 43.4307 184.886C43.5902 185.57 43.7952 186.356 44.0459 187.244C44.3193 188.11 44.627 189.045 44.9688 190.047C45.3333 191.05 45.7549 192.041 46.2334 193.021C48.9678 188.577 51.987 184.328 55.291 180.272C55.5189 179.976 55.8493 179.827 56.2822 179.827C56.6468 179.827 56.9544 179.953 57.2051 180.203C57.4557 180.454 57.5811 180.75 57.5811 181.092C57.5811 181.411 57.4785 181.684 57.2734 181.912ZM89.0947 191.722C89.0036 191.904 88.8099 192.292 88.5137 192.884C88.2402 193.454 87.8757 194.115 87.4199 194.866C86.987 195.618 86.4743 196.405 85.8818 197.225C85.2894 198.045 84.6286 198.797 83.8994 199.481C83.1702 200.164 82.3841 200.734 81.541 201.19C80.6979 201.623 79.8092 201.839 78.875 201.839C77.5534 201.839 76.4368 201.418 75.5254 200.574C74.6367 199.731 73.9873 198.672 73.5771 197.396C72.8024 198.695 71.8796 199.731 70.8086 200.506C69.7376 201.258 68.6667 201.634 67.5957 201.634C66.7526 201.634 65.9893 201.486 65.3057 201.19C64.6221 200.871 64.041 200.438 63.5625 199.891C63.084 199.321 62.708 198.66 62.4346 197.908C62.1839 197.156 62.0586 196.336 62.0586 195.448C62.0586 193.67 62.3548 192.109 62.9473 190.765C63.5625 189.398 64.3372 188.258 65.2715 187.347C66.2057 186.435 67.2311 185.752 68.3477 185.296C69.487 184.84 70.5807 184.613 71.6289 184.613C72.3353 184.613 72.9847 184.715 73.5771 184.92C74.1696 185.102 74.6709 185.308 75.0811 185.535C75.514 185.763 75.8444 185.98 76.0723 186.185C76.3001 186.367 76.4255 186.47 76.4482 186.492C76.6989 186.789 76.8242 187.096 76.8242 187.415C76.8242 187.757 76.6989 188.065 76.4482 188.338C76.1976 188.589 75.9014 188.714 75.5596 188.714C75.195 188.714 74.8874 188.589 74.6367 188.338C74.5911 188.293 74.4886 188.213 74.3291 188.099C74.1696 187.962 73.9531 187.825 73.6797 187.689C73.4062 187.552 73.0758 187.438 72.6885 187.347C72.3239 187.233 71.9023 187.176 71.4238 187.176C70.7174 187.176 69.9655 187.336 69.168 187.655C68.3704 187.974 67.6413 188.475 66.9805 189.158C66.3197 189.819 65.7614 190.662 65.3057 191.688C64.8727 192.69 64.6562 193.887 64.6562 195.277C64.6562 195.71 64.7018 196.154 64.793 196.61C64.8841 197.043 65.0436 197.441 65.2715 197.806C65.4993 198.17 65.807 198.467 66.1943 198.695C66.5817 198.922 67.0602 199.036 67.6299 199.036C68.04 199.036 68.5072 198.9 69.0312 198.626C69.5781 198.353 70.0908 197.931 70.5693 197.362C71.0706 196.792 71.515 196.074 71.9023 195.208C72.3125 194.342 72.5973 193.317 72.7568 192.132C72.8024 191.813 72.9505 191.551 73.2012 191.346C73.4518 191.118 73.748 191.004 74.0898 191.004C74.4089 191.004 74.6823 191.129 74.9102 191.38C75.1608 191.631 75.2975 191.916 75.3203 192.235C75.3431 192.668 75.3887 193.283 75.457 194.08C75.5254 194.855 75.6735 195.63 75.9014 196.405C76.152 197.179 76.5166 197.851 76.9951 198.421C77.4736 198.991 78.1344 199.276 78.9775 199.276C79.5244 199.276 80.0599 199.128 80.584 198.831C81.1309 198.535 81.6549 198.148 82.1562 197.669C82.6803 197.168 83.1702 196.61 83.626 195.994C84.1045 195.356 84.5374 194.718 84.9248 194.08C85.3122 193.442 85.654 192.827 85.9502 192.235C86.2464 191.642 86.4971 191.129 86.7021 190.697C86.8161 190.446 86.9756 190.252 87.1807 190.115C87.4085 189.979 87.6478 189.91 87.8984 189.91C88.2858 189.91 88.5934 190.059 88.8213 190.355C89.0719 190.628 89.1973 190.924 89.1973 191.243C89.1973 191.403 89.1631 191.562 89.0947 191.722ZM94.6318 198.216C94.9736 197.532 95.4066 196.689 95.9307 195.687C96.4775 194.661 97.0358 193.636 97.6055 192.611C98.1979 191.585 98.7676 190.617 99.3145 189.705C99.8841 188.794 100.363 188.099 100.75 187.62C101.411 186.823 102.094 186.253 102.801 185.911C103.507 185.57 104.157 185.399 104.749 185.399C105.341 185.399 105.843 185.524 106.253 185.775C106.686 186.025 107.039 186.367 107.312 186.8C107.586 187.21 107.791 187.7 107.928 188.27C108.064 188.817 108.133 189.409 108.133 190.047C108.133 190.412 108.11 190.89 108.064 191.483C108.042 192.075 108.007 192.713 107.962 193.397C107.939 194.08 107.905 194.787 107.859 195.516C107.837 196.245 107.814 196.929 107.791 197.567C108.133 196.883 108.52 196.131 108.953 195.311C109.386 194.468 109.819 193.636 110.252 192.816C110.708 191.995 111.141 191.232 111.551 190.526C111.961 189.796 112.337 189.204 112.679 188.748C113.659 187.404 114.57 186.504 115.413 186.048C116.279 185.592 117.042 185.365 117.703 185.365C118.478 185.365 119.116 185.513 119.617 185.809C120.118 186.082 120.506 186.447 120.779 186.903C121.076 187.336 121.281 187.825 121.395 188.372C121.508 188.919 121.565 189.443 121.565 189.945C121.565 190.719 121.508 191.528 121.395 192.371C121.281 193.214 121.224 194.217 121.224 195.379C121.224 195.858 121.246 196.336 121.292 196.815C121.338 197.293 121.429 197.715 121.565 198.079C121.725 198.444 121.964 198.74 122.283 198.968C122.602 199.196 123.035 199.31 123.582 199.31C124.174 199.31 124.756 199.162 125.325 198.865C125.895 198.546 126.442 198.136 126.966 197.635C127.49 197.134 127.98 196.564 128.436 195.926C128.914 195.288 129.347 194.65 129.734 194.012C130.122 193.374 130.464 192.77 130.76 192.2C131.056 191.608 131.295 191.107 131.478 190.697C131.591 190.446 131.751 190.252 131.956 190.115C132.161 189.979 132.389 189.91 132.64 189.91C133.027 189.91 133.335 190.059 133.562 190.355C133.813 190.628 133.938 190.924 133.938 191.243C133.938 191.403 133.904 191.562 133.836 191.722C133.745 191.904 133.562 192.292 133.289 192.884C133.016 193.454 132.651 194.115 132.195 194.866C131.74 195.596 131.204 196.37 130.589 197.191C129.996 198.011 129.336 198.774 128.606 199.481C127.877 200.164 127.091 200.734 126.248 201.19C125.405 201.623 124.516 201.839 123.582 201.839C122.579 201.839 121.759 201.657 121.121 201.292C120.506 200.95 120.005 200.483 119.617 199.891C119.253 199.298 119.002 198.615 118.865 197.84C118.729 197.065 118.66 196.256 118.66 195.413C118.66 194.297 118.717 193.271 118.831 192.337C118.945 191.38 119.002 190.64 119.002 190.115C119.002 189.546 118.945 189.113 118.831 188.817C118.74 188.52 118.615 188.315 118.455 188.201C118.318 188.065 118.182 187.996 118.045 187.996C117.908 187.974 117.806 187.962 117.737 187.962C117.19 187.962 116.609 188.27 115.994 188.885C115.402 189.477 114.786 190.275 114.148 191.278C113.51 192.28 112.85 193.42 112.166 194.696C111.505 195.972 110.833 197.27 110.149 198.592C109.762 199.321 109.432 199.925 109.158 200.404C108.908 200.882 108.657 201.258 108.406 201.531C108.178 201.805 107.951 201.999 107.723 202.113C107.495 202.226 107.244 202.283 106.971 202.283C106.378 202.283 105.923 202.078 105.604 201.668C105.307 201.258 105.159 200.723 105.159 200.062C105.159 199.72 105.171 199.264 105.193 198.695C105.216 198.125 105.239 197.498 105.262 196.815C105.285 196.131 105.319 195.425 105.364 194.696C105.41 193.966 105.444 193.271 105.467 192.611C105.49 191.927 105.512 191.323 105.535 190.799C105.558 190.275 105.569 189.876 105.569 189.603C105.569 189.01 105.467 188.589 105.262 188.338C105.057 188.065 104.817 187.928 104.544 187.928C104.293 187.928 104.008 188.019 103.689 188.201C103.393 188.384 103.04 188.737 102.63 189.261C102.311 189.671 101.901 190.275 101.399 191.073C100.921 191.847 100.408 192.713 99.8613 193.67C99.3145 194.627 98.7676 195.607 98.2207 196.61C97.6966 197.612 97.2409 198.512 96.8535 199.31C96.375 200.267 95.8965 200.916 95.418 201.258C94.9395 201.623 94.4723 201.805 94.0166 201.805C93.3558 201.805 92.8659 201.611 92.5469 201.224C92.2279 200.814 92.0684 200.278 92.0684 199.617C92.0684 199.549 92.0798 199.139 92.1025 198.387C92.1481 197.635 92.1937 196.724 92.2393 195.653C92.2848 194.559 92.3304 193.397 92.376 192.166C92.4443 190.936 92.5013 189.785 92.5469 188.714C92.5697 188.144 92.5469 187.62 92.4785 187.142C92.4102 186.663 92.319 186.378 92.2051 186.287C92.0228 186.333 91.6582 186.754 91.1113 187.552C90.5872 188.35 89.915 189.74 89.0947 191.722C88.9808 191.973 88.8099 192.166 88.582 192.303C88.3542 192.44 88.1149 192.508 87.8643 192.508C87.4769 192.508 87.1693 192.383 86.9414 192.132C86.7135 191.859 86.5996 191.551 86.5996 191.209C86.5996 191.05 86.6338 190.879 86.7021 190.697C87.7275 188.258 88.7074 186.47 89.6416 185.33C90.5758 184.168 91.4873 183.587 92.376 183.587C92.9001 183.587 93.333 183.712 93.6748 183.963C94.0394 184.191 94.3242 184.499 94.5293 184.886C94.7344 185.251 94.8825 185.672 94.9736 186.151C95.0648 186.629 95.1104 187.096 95.1104 187.552C95.1104 189.58 95.0534 191.437 94.9395 193.123C94.8483 194.809 94.7458 196.507 94.6318 198.216ZM164.427 191.722C164.427 193.818 164.051 195.607 163.299 197.088C162.547 198.569 161.624 199.697 160.53 200.472H160.667C162.011 200.472 163.23 200.176 164.324 199.583C165.441 198.968 166.443 198.193 167.332 197.259C168.221 196.302 169.018 195.242 169.725 194.08C170.431 192.918 171.058 191.79 171.604 190.697C171.718 190.446 171.878 190.252 172.083 190.115C172.311 189.979 172.55 189.91 172.801 189.91C173.188 189.91 173.496 190.047 173.724 190.321C173.951 190.594 174.065 190.89 174.065 191.209C174.065 191.392 174.031 191.562 173.963 191.722C173.37 193.044 172.664 194.377 171.844 195.721C171.023 197.043 170.066 198.239 168.973 199.31C167.879 200.381 166.648 201.247 165.281 201.907C163.914 202.591 162.399 202.933 160.735 202.933C159.528 202.933 158.354 202.739 157.215 202.352C156.076 201.987 155.073 201.406 154.207 200.609C153.888 200.358 153.615 200.096 153.387 199.823C153.159 199.526 152.977 199.253 152.84 199.002C152.794 198.957 152.771 198.911 152.771 198.865C152.635 198.66 152.566 198.444 152.566 198.216C152.566 197.92 152.669 197.646 152.874 197.396C152.897 197.35 152.92 197.327 152.942 197.327C152.965 197.305 152.988 197.282 153.011 197.259C153.239 197.054 153.489 196.94 153.763 196.917H153.865C153.979 196.917 154.059 196.929 154.104 196.951C154.127 196.951 154.139 196.963 154.139 196.986C154.161 196.986 154.184 196.986 154.207 196.986C154.275 196.986 154.355 197.008 154.446 197.054C154.469 197.077 154.492 197.088 154.515 197.088C154.72 197.225 154.891 197.396 155.027 197.601C155.187 197.874 155.369 198.125 155.574 198.353C155.757 198.535 155.973 198.706 156.224 198.865C156.474 199.002 156.759 199.071 157.078 199.071C157.648 199.071 158.217 198.9 158.787 198.558C159.357 198.216 159.869 197.726 160.325 197.088C160.781 196.45 161.146 195.675 161.419 194.764C161.715 193.852 161.863 192.838 161.863 191.722C161.863 190.902 161.772 190.207 161.59 189.637C161.43 189.045 161.214 188.566 160.94 188.201C160.69 187.837 160.416 187.575 160.12 187.415C159.824 187.233 159.539 187.142 159.266 187.142C158.65 187.142 158.024 187.461 157.386 188.099C156.771 188.737 156.155 189.546 155.54 190.526C154.925 191.505 154.31 192.588 153.694 193.773C153.102 194.958 152.498 196.108 151.883 197.225C151.837 200.916 151.769 204.437 151.678 207.786C151.609 211.136 151.473 214.246 151.268 217.117C151.085 219.989 150.823 222.586 150.481 224.91C150.14 227.235 149.673 229.217 149.08 230.858C148.488 232.521 147.758 233.797 146.893 234.686C146.027 235.574 144.967 236.019 143.714 236.019C143.326 236.019 142.882 235.939 142.381 235.78C141.88 235.62 141.412 235.29 140.979 234.788C140.547 234.31 140.182 233.615 139.886 232.703C139.59 231.792 139.441 230.573 139.441 229.046C139.441 227.109 139.681 224.865 140.159 222.313C140.638 219.761 141.321 217.049 142.21 214.178C143.076 211.33 144.113 208.402 145.32 205.394C146.528 202.386 147.861 199.458 149.319 196.61C149.319 195.812 149.319 195.026 149.319 194.251C149.342 193.476 149.354 192.725 149.354 191.995C149.057 192.337 148.704 192.508 148.294 192.508C147.907 192.508 147.599 192.371 147.371 192.098C147.143 191.824 147.029 191.528 147.029 191.209C147.029 191.05 147.063 190.879 147.132 190.697C147.679 189.443 148.1 188.258 148.396 187.142C148.693 186.003 148.909 185.011 149.046 184.168C149.205 183.302 149.297 182.619 149.319 182.117C149.342 181.616 149.354 181.354 149.354 181.331C149.354 180.99 149.479 180.693 149.729 180.443C149.98 180.192 150.288 180.067 150.652 180.067C150.994 180.067 151.29 180.192 151.541 180.443C151.792 180.67 151.917 180.967 151.917 181.331V191.824C152.441 190.936 152.965 190.059 153.489 189.193C154.013 188.327 154.56 187.552 155.13 186.868C155.722 186.185 156.349 185.638 157.01 185.228C157.693 184.795 158.445 184.578 159.266 184.578C160.04 184.578 160.747 184.761 161.385 185.125C162.023 185.49 162.57 185.991 163.025 186.629C163.481 187.267 163.823 188.031 164.051 188.919C164.301 189.785 164.427 190.719 164.427 191.722ZM149.251 202.694C148.134 205.2 147.12 207.718 146.209 210.247C145.32 212.777 144.568 215.215 143.953 217.562C143.315 219.909 142.825 222.108 142.483 224.158C142.142 226.209 141.971 228.009 141.971 229.559C141.971 229.946 141.993 230.368 142.039 230.823C142.085 231.279 142.176 231.701 142.312 232.088C142.449 232.476 142.643 232.795 142.894 233.045C143.144 233.319 143.475 233.455 143.885 233.455C144.637 233.455 145.286 232.977 145.833 232.02C146.38 231.086 146.836 229.809 147.2 228.192C147.588 226.597 147.907 224.751 148.157 222.655C148.408 220.581 148.602 218.405 148.738 216.126C148.898 213.848 149.012 211.546 149.08 209.222C149.148 206.92 149.205 204.744 149.251 202.694ZM187.396 197.498C186.826 197.498 186.325 197.453 185.892 197.362C185.55 198.045 185.14 198.683 184.661 199.276C184.183 199.845 183.624 200.347 182.986 200.78C182.371 201.212 181.676 201.554 180.901 201.805C180.127 202.056 179.284 202.181 178.372 202.181C177.301 202.181 176.321 201.987 175.433 201.6C174.544 201.235 173.769 200.723 173.108 200.062C172.448 199.378 171.935 198.569 171.57 197.635C171.206 196.678 171.023 195.63 171.023 194.49C171.023 193.032 171.285 191.767 171.81 190.697C172.334 189.603 172.938 188.703 173.621 187.996C174.305 187.267 174.988 186.732 175.672 186.39C176.355 186.025 176.868 185.843 177.21 185.843C177.597 185.843 177.882 185.946 178.064 186.151C178.27 186.356 178.372 186.629 178.372 186.971C178.372 187.358 178.247 187.655 177.996 187.86C177.768 188.042 177.472 188.224 177.107 188.406C176.743 188.589 176.355 188.851 175.945 189.193C175.535 189.512 175.148 189.922 174.783 190.423C174.441 190.924 174.157 191.517 173.929 192.2C173.701 192.884 173.587 193.647 173.587 194.49C173.587 195.242 173.701 195.949 173.929 196.61C174.157 197.248 174.487 197.806 174.92 198.284C175.353 198.74 175.866 199.105 176.458 199.378C177.05 199.629 177.711 199.754 178.44 199.754C179.739 199.754 180.81 199.458 181.653 198.865C182.519 198.25 183.18 197.476 183.636 196.541C182.291 195.835 181.186 194.832 180.32 193.533C179.454 192.235 179.021 190.776 179.021 189.158C179.021 187.86 179.329 186.8 179.944 185.98C180.582 185.159 181.414 184.749 182.439 184.749C183.055 184.749 183.636 184.897 184.183 185.194C184.729 185.49 185.208 185.957 185.618 186.595C186.051 187.233 186.393 188.053 186.644 189.056C186.894 190.059 187.02 191.255 187.02 192.645C187.02 193.374 186.928 194.137 186.746 194.935C186.883 194.958 187.02 194.969 187.156 194.969C187.293 194.969 187.441 194.969 187.601 194.969C188.375 194.969 189.07 194.878 189.686 194.696C190.301 194.513 190.859 194.24 191.36 193.875C191.862 193.511 192.306 193.044 192.693 192.474C193.104 191.904 193.491 191.243 193.855 190.491C193.924 190.355 194.072 190.229 194.3 190.115C194.528 189.979 194.756 189.91 194.983 189.91C195.28 189.91 195.553 190.036 195.804 190.286C196.077 190.514 196.214 190.822 196.214 191.209C196.214 191.392 196.168 191.597 196.077 191.824C195.986 192.03 195.895 192.223 195.804 192.406C195.416 193.089 194.961 193.75 194.437 194.388C193.935 195.003 193.331 195.55 192.625 196.029C191.941 196.484 191.167 196.849 190.301 197.122C189.435 197.396 188.466 197.521 187.396 197.498ZM181.551 188.885C181.551 189.318 181.608 189.774 181.722 190.252C181.836 190.731 182.007 191.209 182.234 191.688C182.485 192.143 182.781 192.588 183.123 193.021C183.488 193.431 183.909 193.784 184.388 194.08C184.456 193.602 184.49 193.135 184.49 192.679C184.49 192.064 184.445 191.437 184.354 190.799C184.262 190.161 184.126 189.58 183.943 189.056C183.784 188.509 183.579 188.076 183.328 187.757C183.077 187.415 182.781 187.244 182.439 187.244C182.303 187.244 182.12 187.347 181.893 187.552C181.665 187.757 181.551 188.201 181.551 188.885ZM197.376 187.21C197.285 187.825 197.171 188.406 197.034 188.953C196.897 189.477 196.761 189.945 196.624 190.355C196.51 190.742 196.408 191.061 196.316 191.312C196.225 191.562 196.168 191.699 196.146 191.722C195.918 192.246 195.519 192.508 194.949 192.508C194.63 192.508 194.334 192.394 194.061 192.166C193.787 191.916 193.65 191.608 193.65 191.243C193.65 191.107 193.673 191.004 193.719 190.936C193.764 190.867 193.833 190.731 193.924 190.526C194.015 190.321 194.129 189.979 194.266 189.5C194.402 189.022 194.573 188.281 194.778 187.279C194.391 187.279 193.992 187.267 193.582 187.244C193.172 187.222 192.796 187.142 192.454 187.005C192.09 186.868 191.793 186.652 191.565 186.356C191.338 186.059 191.224 185.649 191.224 185.125C191.224 184.738 191.338 184.214 191.565 183.553C191.771 182.892 192.055 182.243 192.42 181.605C192.785 180.967 193.195 180.42 193.65 179.964C194.106 179.486 194.562 179.246 195.018 179.246C195.542 179.246 195.963 179.44 196.282 179.827C196.624 180.215 196.886 180.693 197.068 181.263C197.251 181.81 197.376 182.391 197.444 183.006C197.535 183.621 197.581 184.157 197.581 184.613C197.968 184.613 198.344 184.613 198.709 184.613C199.096 184.59 199.461 184.578 199.803 184.578C201.102 184.578 202.093 184.863 202.776 185.433C203.46 186.003 203.802 186.937 203.802 188.236C203.802 188.76 203.768 189.307 203.699 189.876C203.631 190.446 203.551 191.038 203.46 191.654C203.369 192.246 203.289 192.838 203.221 193.431C203.152 194.023 203.118 194.604 203.118 195.174C203.118 195.994 203.232 196.678 203.46 197.225C203.688 197.749 203.973 198.17 204.314 198.49C204.656 198.809 205.021 199.036 205.408 199.173C205.796 199.287 206.149 199.344 206.468 199.344C207.448 199.344 208.37 199.025 209.236 198.387C210.102 197.749 210.9 196.986 211.629 196.097C212.358 195.185 213.007 194.228 213.577 193.226C214.17 192.223 214.66 191.346 215.047 190.594C215.161 190.389 215.32 190.229 215.525 190.115C215.73 190.002 215.947 189.945 216.175 189.945C216.585 189.945 216.904 190.081 217.132 190.355C217.36 190.605 217.474 190.89 217.474 191.209C217.474 191.437 217.428 191.642 217.337 191.824C216.813 192.759 216.198 193.818 215.491 195.003C214.808 196.165 214.021 197.259 213.133 198.284C212.244 199.31 211.242 200.176 210.125 200.882C209.031 201.588 207.824 201.942 206.502 201.942C205.682 201.942 204.907 201.782 204.178 201.463C203.449 201.167 202.811 200.734 202.264 200.164C201.74 199.572 201.318 198.854 200.999 198.011C200.68 197.145 200.521 196.177 200.521 195.106C200.521 193.966 200.634 192.838 200.862 191.722C201.09 190.583 201.204 189.5 201.204 188.475C201.204 188.042 201.102 187.723 200.896 187.518C200.714 187.29 200.293 187.176 199.632 187.176C199.313 187.176 198.96 187.176 198.572 187.176C198.208 187.176 197.809 187.187 197.376 187.21ZM195.086 184.681C195.086 184.521 195.075 184.316 195.052 184.066C195.052 183.792 195.029 183.53 194.983 183.28C194.961 183.029 194.915 182.812 194.847 182.63C194.801 182.448 194.744 182.357 194.676 182.357C194.607 182.357 194.516 182.448 194.402 182.63C194.311 182.79 194.209 182.995 194.095 183.245C193.981 183.473 193.878 183.724 193.787 183.997C193.696 184.271 193.628 184.499 193.582 184.681H195.086ZM242.732 167.044C242.732 167.409 242.607 167.705 242.356 167.933C242.106 168.138 241.798 168.24 241.434 168.24H224.104V168.616C224.104 170.006 224.002 171.488 223.797 173.06C223.592 174.632 223.307 176.204 222.942 177.777C222.601 179.326 222.202 180.841 221.746 182.323C221.313 183.804 220.857 185.171 220.379 186.424C219.923 187.677 219.467 188.771 219.012 189.705C218.556 190.617 218.146 191.3 217.781 191.756C218.077 192.804 218.431 193.784 218.841 194.696C219.251 195.584 219.707 196.37 220.208 197.054C220.732 197.715 221.29 198.239 221.883 198.626C222.475 199.014 223.113 199.207 223.797 199.207C224.594 199.207 225.381 198.877 226.155 198.216C226.953 197.532 227.682 196.735 228.343 195.823C229.026 194.889 229.619 193.955 230.12 193.021C230.644 192.064 231.02 191.3 231.248 190.731C231.476 190.184 231.875 189.91 232.444 189.91C232.832 189.91 233.139 190.047 233.367 190.321C233.618 190.594 233.743 190.89 233.743 191.209C233.743 191.369 233.709 191.528 233.641 191.688C233.572 191.847 233.401 192.212 233.128 192.781C232.877 193.351 232.535 194.012 232.103 194.764C231.692 195.516 231.202 196.313 230.633 197.156C230.086 197.977 229.459 198.729 228.753 199.412C228.069 200.096 227.329 200.666 226.531 201.121C225.734 201.577 224.891 201.805 224.002 201.805C222.43 201.805 221.017 201.292 219.764 200.267C218.51 199.241 217.439 197.806 216.551 195.96C215.685 194.115 215.024 191.927 214.568 189.398C214.113 186.868 213.885 184.1 213.885 181.092C213.885 180.34 213.896 179.463 213.919 178.46C213.942 177.435 213.987 176.364 214.056 175.247C214.124 174.108 214.227 172.946 214.363 171.761C214.5 170.553 214.682 169.38 214.91 168.24H202.64C202.275 168.24 201.967 168.138 201.717 167.933C201.466 167.705 201.341 167.409 201.341 167.044C201.341 166.68 201.466 166.395 201.717 166.19C201.967 165.962 202.275 165.848 202.64 165.848H215.491C215.719 165.028 215.981 164.276 216.277 163.592C216.596 162.908 216.95 162.316 217.337 161.815C217.747 161.313 218.191 160.926 218.67 160.653C219.171 160.356 219.718 160.208 220.311 160.208C220.88 160.208 221.37 160.356 221.78 160.653C222.213 160.926 222.578 161.313 222.874 161.815C223.17 162.316 223.398 162.908 223.558 163.592C223.74 164.276 223.877 165.028 223.968 165.848H241.434C241.798 165.848 242.106 165.962 242.356 166.19C242.607 166.395 242.732 166.68 242.732 167.044ZM216.995 188.338C217.679 186.834 218.294 185.216 218.841 183.485C219.41 181.73 219.889 179.964 220.276 178.187C220.687 176.409 220.994 174.666 221.199 172.957C221.427 171.248 221.541 169.676 221.541 168.24H217.508C217.189 169.653 216.927 171.408 216.722 173.504C216.539 175.578 216.448 178.107 216.448 181.092C216.448 182.755 216.494 184.157 216.585 185.296C216.676 186.413 216.813 187.427 216.995 188.338ZM220.174 162.772C219.969 162.772 219.673 163 219.285 163.455C218.898 163.888 218.51 164.686 218.123 165.848H221.404C221.29 164.891 221.119 164.139 220.892 163.592C220.687 163.045 220.447 162.772 220.174 162.772ZM217.542 190.799V190.833V190.799ZM257.806 191.722C257.715 191.904 257.521 192.292 257.225 192.884C256.951 193.454 256.587 194.115 256.131 194.866C255.698 195.618 255.185 196.405 254.593 197.225C254 198.045 253.34 198.797 252.61 199.481C251.881 200.164 251.095 200.734 250.252 201.19C249.409 201.623 248.52 201.839 247.586 201.839C246.264 201.839 245.148 201.418 244.236 200.574C243.348 199.731 242.698 198.672 242.288 197.396C241.513 198.695 240.59 199.731 239.52 200.506C238.449 201.258 237.378 201.634 236.307 201.634C235.464 201.634 234.7 201.486 234.017 201.19C233.333 200.871 232.752 200.438 232.273 199.891C231.795 199.321 231.419 198.66 231.146 197.908C230.895 197.156 230.77 196.336 230.77 195.448C230.77 193.67 231.066 192.109 231.658 190.765C232.273 189.398 233.048 188.258 233.982 187.347C234.917 186.435 235.942 185.752 237.059 185.296C238.198 184.84 239.292 184.613 240.34 184.613C241.046 184.613 241.696 184.715 242.288 184.92C242.881 185.102 243.382 185.308 243.792 185.535C244.225 185.763 244.555 185.98 244.783 186.185C245.011 186.367 245.136 186.47 245.159 186.492C245.41 186.789 245.535 187.096 245.535 187.415C245.535 187.757 245.41 188.065 245.159 188.338C244.909 188.589 244.612 188.714 244.271 188.714C243.906 188.714 243.598 188.589 243.348 188.338C243.302 188.293 243.2 188.213 243.04 188.099C242.881 187.962 242.664 187.825 242.391 187.689C242.117 187.552 241.787 187.438 241.399 187.347C241.035 187.233 240.613 187.176 240.135 187.176C239.428 187.176 238.676 187.336 237.879 187.655C237.081 187.974 236.352 188.475 235.691 189.158C235.031 189.819 234.472 190.662 234.017 191.688C233.584 192.69 233.367 193.887 233.367 195.277C233.367 195.71 233.413 196.154 233.504 196.61C233.595 197.043 233.755 197.441 233.982 197.806C234.21 198.17 234.518 198.467 234.905 198.695C235.293 198.922 235.771 199.036 236.341 199.036C236.751 199.036 237.218 198.9 237.742 198.626C238.289 198.353 238.802 197.931 239.28 197.362C239.782 196.792 240.226 196.074 240.613 195.208C241.023 194.342 241.308 193.317 241.468 192.132C241.513 191.813 241.661 191.551 241.912 191.346C242.163 191.118 242.459 191.004 242.801 191.004C243.12 191.004 243.393 191.129 243.621 191.38C243.872 191.631 244.008 191.916 244.031 192.235C244.054 192.668 244.1 193.283 244.168 194.08C244.236 194.855 244.384 195.63 244.612 196.405C244.863 197.179 245.228 197.851 245.706 198.421C246.185 198.991 246.845 199.276 247.688 199.276C248.235 199.276 248.771 199.128 249.295 198.831C249.842 198.535 250.366 198.148 250.867 197.669C251.391 197.168 251.881 196.61 252.337 195.994C252.815 195.356 253.248 194.718 253.636 194.08C254.023 193.442 254.365 192.827 254.661 192.235C254.957 191.642 255.208 191.129 255.413 190.697C255.527 190.446 255.687 190.252 255.892 190.115C256.119 189.979 256.359 189.91 256.609 189.91C256.997 189.91 257.304 190.059 257.532 190.355C257.783 190.628 257.908 190.924 257.908 191.243C257.908 191.403 257.874 191.562 257.806 191.722ZM274.896 191.79C274.645 192.314 274.326 192.941 273.938 193.67C273.574 194.377 273.152 195.117 272.674 195.892C272.195 196.667 271.66 197.441 271.067 198.216C270.475 198.968 269.826 199.652 269.119 200.267C268.436 200.859 267.695 201.338 266.897 201.702C266.123 202.09 265.291 202.283 264.402 202.283C263.035 202.283 261.862 201.862 260.882 201.019C259.902 200.176 259.07 199.071 258.387 197.703C257.703 196.336 257.145 194.787 256.712 193.055C256.302 191.3 255.983 189.523 255.755 187.723C255.527 185.9 255.368 184.134 255.276 182.425C255.208 180.716 255.174 179.201 255.174 177.879C255.174 175.965 255.231 173.983 255.345 171.932C255.481 169.881 255.687 167.876 255.96 165.916C256.233 163.957 256.575 162.1 256.985 160.345C257.418 158.59 257.92 157.052 258.489 155.731C259.082 154.409 259.754 153.361 260.506 152.586C261.258 151.811 262.112 151.424 263.069 151.424C263.821 151.424 264.493 151.606 265.086 151.971C265.701 152.313 266.214 152.882 266.624 153.68C267.034 154.477 267.353 155.514 267.581 156.79C267.809 158.066 267.923 159.627 267.923 161.473C267.923 163.752 267.684 166.11 267.205 168.548C266.727 170.963 266.077 173.402 265.257 175.863C264.437 178.323 263.468 180.784 262.352 183.245C261.235 185.684 260.039 188.065 258.763 190.389C259.332 193.283 260.096 195.561 261.053 197.225C262.01 198.865 263.16 199.686 264.505 199.686C265.416 199.686 266.294 199.333 267.137 198.626C267.98 197.897 268.755 197.043 269.461 196.063C270.167 195.083 270.783 194.092 271.307 193.089C271.854 192.064 272.275 191.243 272.571 190.628C272.685 190.4 272.845 190.229 273.05 190.115C273.255 189.979 273.483 189.91 273.733 189.91C274.121 189.91 274.428 190.047 274.656 190.321C274.907 190.594 275.032 190.902 275.032 191.243C275.032 191.38 274.987 191.562 274.896 191.79ZM257.771 178.05C257.771 179.508 257.806 180.91 257.874 182.254C257.942 183.599 258.034 184.886 258.147 186.116C259.104 184.271 260.016 182.311 260.882 180.238C261.748 178.141 262.511 176.033 263.172 173.914C263.833 171.772 264.357 169.653 264.744 167.557C265.154 165.438 265.359 163.421 265.359 161.507C265.359 158.818 265.143 156.893 264.71 155.731C264.277 154.569 263.696 153.988 262.967 153.988C262.488 153.988 262.021 154.318 261.565 154.979C261.132 155.64 260.722 156.54 260.335 157.679C259.948 158.818 259.594 160.163 259.275 161.712C258.956 163.262 258.683 164.925 258.455 166.702C258.25 168.48 258.079 170.337 257.942 172.274C257.828 174.211 257.771 176.136 257.771 178.05Z" fill="black"/>
<g clip-path="url(#clip0_9_20)">
<path d="M91.3685 111.752C91.5172 86.9873 91.6585 62.2631 91.7923 37.5797C91.7982 36.7985 92.0723 36.0429 92.5693 35.4378C93.0662 34.8328 93.7561 34.4148 94.5247 34.253V34.253C96.4732 33.8612 98.4432 33.5835 100.424 33.4214C100.248 34.9088 100.37 36.4162 100.781 37.8569C101.005 38.6517 101.311 39.4211 101.696 40.1522C100.581 40.2299 99.5992 40.3297 98.6512 40.4627L98.2609 108.414C106.246 108.126 117.276 109.135 124.626 111.519C130.526 113.422 136.089 116.236 141.109 119.858V82.8438C143.389 83.2818 145.736 83.2478 148.002 82.744V120.523C153.59 116.716 159.628 113.606 165.98 111.264C174.009 108.71 182.448 107.669 190.861 108.193V40.629C189.01 40.4516 186.98 40.374 184.85 40.374C185.131 40.1297 185.4 39.8706 185.653 39.5978L186.222 38.9768C187.472 37.4339 188.277 35.583 188.553 33.621C190.783 33.7208 192.846 33.9204 194.809 34.1976C195.632 34.3126 196.386 34.7192 196.931 35.3428C197.476 35.9663 197.776 36.7646 197.776 37.5907V37.5907V112.051C197.776 112.502 197.686 112.949 197.513 113.365C197.339 113.782 197.084 114.16 196.763 114.478C196.441 114.797 196.06 115.049 195.641 115.22C195.221 115.392 194.772 115.479 194.319 115.478C194.052 115.476 193.787 115.447 193.527 115.389C185.052 114.295 176.438 115.091 168.311 117.718C162.31 119.96 156.615 122.94 151.359 126.589C158.75 124.297 166.457 123.175 174.199 123.262C184.132 123.422 194.017 124.668 203.676 126.977C203.676 101.007 203.676 75.0336 203.676 49.0565H207.133C208.047 49.0565 208.924 49.4175 209.57 50.06C210.216 50.7026 210.579 51.5741 210.579 52.4829V131.468C210.579 132.377 210.216 133.248 209.57 133.891C208.924 134.533 208.047 134.894 207.133 134.894C206.754 134.892 206.378 134.832 206.018 134.717C195.636 131.878 184.942 130.325 174.177 130.093C164.645 129.958 155.196 131.868 146.474 135.693C145.891 136.072 145.207 136.269 144.511 136.258C143.818 136.269 143.138 136.072 142.559 135.693C133.838 131.863 124.389 129.945 114.856 130.071C104.092 130.304 93.3972 131.857 83.0152 134.695C82.655 134.811 82.2787 134.871 81.8999 134.872C81.4465 134.873 80.9971 134.786 80.5777 134.614C80.1583 134.443 79.7771 134.191 79.4559 133.872C79.1347 133.554 78.8799 133.176 78.706 132.759C78.5321 132.343 78.4426 131.896 78.4426 131.446V52.4607C78.4426 51.552 78.8057 50.6804 79.452 50.0379C80.0983 49.3953 80.9748 49.0343 81.8888 49.0343H85.3461V126.955C95.0047 124.644 104.89 123.399 114.823 123.24C123.118 123.14 131.371 124.43 139.236 127.054C134.263 123.052 128.592 119.993 122.507 118.028C114.923 115.567 103.547 114.702 95.0935 115.467C94.6421 115.505 94.1877 115.453 93.7563 115.316C93.3249 115.179 92.9251 114.958 92.5799 114.666C92.2347 114.374 91.951 114.018 91.745 113.617C91.539 113.215 91.4149 112.778 91.3797 112.329C91.3574 112.137 91.3574 111.944 91.3797 111.752H91.3685ZM157.916 102.016C157.645 102.192 157.341 102.312 157.022 102.371C156.704 102.43 156.377 102.425 156.06 102.359C155.743 102.292 155.442 102.163 155.175 101.981C154.908 101.798 154.68 101.566 154.504 101.295C154.327 101.025 154.206 100.723 154.147 100.407C154.088 100.09 154.092 99.7646 154.159 99.4495C154.227 99.1345 154.356 98.8356 154.539 98.5702C154.723 98.3047 154.957 98.0777 155.229 97.9022C159.197 95.4521 163.462 93.511 167.92 92.125C172.428 90.6061 177.106 89.6452 181.85 89.2641C182.174 89.2437 182.498 89.2869 182.805 89.3913C183.112 89.4956 183.395 89.659 183.639 89.8721C183.882 90.0853 184.081 90.344 184.223 90.6335C184.366 90.923 184.45 91.2377 184.471 91.5595C184.491 91.8813 184.448 92.204 184.343 92.5091C184.238 92.8142 184.074 93.0958 183.859 93.3378C183.645 93.5798 183.385 93.7774 183.094 93.9194C182.802 94.0614 182.486 94.145 182.162 94.1653C177.832 94.5195 173.562 95.4022 169.448 96.7934C165.398 98.0429 161.523 99.7978 157.916 102.016V102.016ZM157.916 83.0323C157.465 83.3157 156.934 83.4459 156.403 83.4035C155.871 83.3611 155.367 83.1483 154.967 82.7971C154.568 82.4459 154.293 81.9753 154.186 81.4558C154.078 80.9364 154.143 80.3962 154.37 79.9164C155.045 79.4248 155.679 78.8797 156.266 78.2863C159.937 76.1785 163.826 74.4685 167.865 73.1855C172.314 71.7119 176.929 70.7846 181.605 70.4244C181.928 70.4062 182.252 70.4516 182.558 70.5579C182.864 70.6643 183.146 70.8295 183.388 71.0442C183.63 71.2589 183.827 71.5188 183.968 71.8092C184.109 72.0995 184.19 72.4146 184.209 72.7364C184.227 73.0582 184.181 73.3805 184.075 73.6848C183.968 73.9891 183.801 74.2694 183.585 74.5099C183.37 74.7503 183.108 74.9461 182.816 75.086C182.524 75.226 182.207 75.3074 181.883 75.3256C177.628 75.6779 173.43 76.5379 169.381 77.8871C165.358 79.1307 161.5 80.8546 157.894 83.0212L157.916 83.0323ZM164.708 55.4436C165.746 55.0666 166.805 54.7006 167.853 54.3347C172.288 52.8598 176.887 51.9288 181.549 51.5625C182.203 51.5272 182.844 51.7516 183.331 52.1862C183.818 52.6208 184.112 53.2301 184.147 53.8801C184.183 54.53 183.957 55.1673 183.52 55.6519C183.083 56.1364 182.47 56.4284 181.817 56.4637C177.575 56.8079 173.392 57.6644 169.359 59.0141C166.507 59.9064 163.729 61.0187 161.05 62.3407C161.05 61.9416 161.05 61.5534 161.106 61.1543L161.285 60.3448L161.686 59.7682C162.589 58.3377 163.649 56.874 164.708 55.3992V55.4436ZM133.771 97.8912C134.321 98.2455 134.707 98.8027 134.844 99.4401C134.981 100.077 134.858 100.743 134.501 101.29C134.145 101.837 133.585 102.221 132.944 102.357C132.303 102.493 131.633 102.371 131.083 102.016C127.48 99.8025 123.608 98.0513 119.562 96.8045C115.46 95.414 111.201 94.5277 106.882 94.1653C106.228 94.1301 105.615 93.838 105.178 93.3535C104.741 92.869 104.515 92.2316 104.551 91.5817C104.586 90.9317 104.88 90.3224 105.368 89.8878C105.855 89.4532 106.496 89.2288 107.15 89.2641C111.896 89.6426 116.578 90.5997 121.09 92.1139C125.545 93.502 129.805 95.443 133.771 97.8912V97.8912ZM134.63 79.8387C134.868 80.3176 134.943 80.8609 134.842 81.3859C134.742 81.9108 134.471 82.3887 134.072 82.7466C133.673 83.1046 133.167 83.3229 132.631 83.3685C132.096 83.4141 131.56 83.2843 131.105 82.999C127.504 80.8303 123.65 79.1063 119.629 77.8649C115.58 76.5178 111.383 75.6578 107.127 75.3035C106.789 75.3059 106.454 75.2391 106.142 75.1071C105.831 74.9751 105.55 74.7809 105.318 74.5364C105.086 74.2919 104.906 74.0024 104.791 73.686C104.676 73.3696 104.628 73.033 104.649 72.6973C104.671 72.3615 104.762 72.0338 104.916 71.7344C105.071 71.435 105.285 71.1705 105.547 70.9573C105.809 70.7441 106.112 70.5867 106.438 70.495C106.763 70.4034 107.104 70.3793 107.44 70.4244C112.101 70.7861 116.7 71.7134 121.135 73.1855C125.38 74.5015 129.456 76.3064 133.28 78.5635C133.702 79.0169 134.153 79.4428 134.63 79.8387V79.8387ZM127.871 62.2853C125.216 60.9722 122.464 59.8602 119.641 58.9587C115.608 57.6089 111.424 56.7525 107.183 56.4083C106.569 56.3273 106.007 56.0191 105.611 55.5452C105.215 55.0713 105.013 54.4664 105.046 53.851C105.078 53.2356 105.342 52.655 105.786 52.2247C106.23 51.7944 106.82 51.5461 107.44 51.5293C112.106 51.9054 116.709 52.8476 121.146 54.3347C122.339 54.7228 123.533 55.1331 124.704 55.5877C125.201 56.1847 125.635 56.8313 125.998 57.5172C126.517 58.4782 126.957 59.4794 127.314 60.5111C127.426 60.8895 127.564 61.26 127.726 61.62L127.849 62.3518L127.871 62.2853Z" fill="black"/>
<path d="M151.236 71.1562C150.524 72.3805 149.501 73.3976 148.269 74.1058C147.249 74.7022 146.104 75.0552 144.923 75.1371C143.717 75.2119 142.512 74.9791 141.422 74.4606C140.644 74.0767 139.942 73.5586 139.347 72.9304L151.292 71.1562H151.236ZM152.886 58.6149L152.496 60.4112L152.407 61.6975L136.793 64.004C136.754 63.0129 136.634 62.0265 136.436 61.0544L152.931 58.6149H152.886ZM152.373 64.5141V65.2903V65.5564C152.407 66.0659 152.407 66.5771 152.373 67.0866L152.139 68.1955L137.641 70.3356L137.384 69.759L136.815 67.4637V66.7983L152.307 64.503L152.373 64.5141Z" fill="#5C546A"/>
<path d="M131.329 50.4315C129.296 48.298 127.594 45.8765 126.276 43.246C124.833 40.3137 124.071 37.0963 124.046 33.8317C124.123 30.3156 125.041 26.8683 126.723 23.7742V23.6966C128.862 19.9975 132.188 17.1196 136.169 15.5242C139.262 14.2888 142.61 13.8134 145.927 14.1381C149.214 14.4355 152.393 15.4502 155.24 17.1099C158.882 19.1992 161.738 22.4159 163.37 26.2692C164.413 28.7256 164.95 31.3649 164.95 34.0313C164.95 36.6976 164.413 39.3369 163.37 41.7934C161.53 46.3397 157.214 51.2077 154.448 55.6764L135.633 58.3599C134.706 55.4743 133.246 52.7856 131.329 50.4315V50.4315Z" fill="#F4BB2C"/>
<path d="M111.588 37.7016C110.963 37.7104 110.358 37.4756 109.904 37.0474C109.44 36.6085 109.165 36.0088 109.135 35.373C109.125 35.0575 109.178 34.7433 109.291 34.4483C109.404 34.1533 109.574 33.8835 109.793 33.6542C110.009 33.4246 110.27 33.2406 110.559 33.1129C110.848 32.9853 111.16 32.9167 111.477 32.9113L116.741 32.7228C117.058 32.712 117.375 32.7643 117.671 32.8766C117.968 32.989 118.24 33.1591 118.469 33.377C118.704 33.59 118.892 33.8484 119.023 34.1363C119.153 34.4243 119.223 34.7357 119.228 35.0514V35.1401C119.219 35.7553 118.972 36.3434 118.538 36.7815C118.103 37.2196 117.515 37.4738 116.897 37.4909H116.808L111.588 37.7016ZM144.054 2.35079C144.062 1.72042 144.322 1.11918 144.776 0.678625C145.229 0.238067 145.84 -0.0059421 146.474 -1.66199e-05H146.641C147.23 0.047472 147.782 0.307803 148.191 0.731838C148.624 1.18662 148.86 1.7916 148.849 2.41732V2.41732C148.855 2.45775 148.855 2.49887 148.849 2.5393L148.704 7.67337C148.709 7.72499 148.709 7.77699 148.704 7.82861C148.664 8.41648 148.401 8.96727 147.968 9.36994C147.511 9.80187 146.903 10.0404 146.273 10.0353H146.117C145.507 9.99028 144.938 9.71669 144.524 9.26992C144.11 8.82315 143.882 8.23658 143.886 7.62902V7.62902C143.881 7.58483 143.881 7.54014 143.886 7.49595L144.009 2.36188L144.054 2.35079ZM166.838 9.40321C167.015 9.1416 167.241 8.91712 167.505 8.74261C167.768 8.56811 168.064 8.44701 168.375 8.38625C168.686 8.32548 169.005 8.32624 169.316 8.38848C169.626 8.45072 169.921 8.57322 170.184 8.74898V8.74898C170.446 8.92267 170.671 9.14643 170.845 9.40723C171.019 9.66803 171.14 9.96067 171.199 10.2681C171.319 10.8903 171.191 11.5345 170.842 12.0645L167.898 16.4224C167.724 16.6845 167.499 16.9096 167.237 17.0848C166.975 17.2599 166.68 17.3815 166.37 17.4425C165.741 17.5674 165.087 17.4399 164.552 17.0877C164.019 16.719 163.651 16.1582 163.526 15.5242C163.409 14.9006 163.541 14.2562 163.894 13.7278L166.838 9.35885V9.40321ZM177.233 30.2832H177.311C177.912 30.2489 178.505 30.4387 178.973 30.8155C179.467 31.2208 179.783 31.8015 179.854 32.4345V32.4345C179.854 32.4345 179.854 32.501 179.854 32.5121C179.89 33.1135 179.699 33.7067 179.318 34.1754C179.117 34.4189 178.87 34.6207 178.591 34.7691C178.311 34.9175 178.005 35.0097 177.69 35.0403L172.448 35.5947C172.133 35.6285 171.814 35.5997 171.51 35.5102C171.206 35.4206 170.923 35.272 170.678 35.073C170.432 34.874 170.228 34.6285 170.078 34.3507C169.929 34.0729 169.836 33.7683 169.805 33.4546C169.768 33.1425 169.796 32.8262 169.886 32.5251C169.976 32.2239 170.127 31.9441 170.329 31.7026C170.731 31.2101 171.312 30.8953 171.946 30.8266C173.708 30.6381 175.459 30.4385 177.222 30.2722L177.233 30.2832ZM117.912 11.3105C117.563 10.988 117.318 10.5701 117.209 10.1094C117.099 9.64879 117.129 9.16611 117.294 8.72234C117.46 8.27858 117.755 7.89365 118.141 7.61616C118.526 7.33867 118.986 7.18108 119.462 7.16329C120.095 7.13135 120.715 7.34619 121.191 7.76208L125.049 11.3437C125.283 11.5561 125.471 11.8126 125.603 12.0982C125.735 12.3839 125.809 12.6928 125.819 13.007C125.833 13.4793 125.708 13.9454 125.457 14.347C125.207 14.7487 124.843 15.0682 124.411 15.2657C123.98 15.4632 123.499 15.5299 123.029 15.4576C122.56 15.3852 122.122 15.177 121.771 14.8589L117.912 11.3105Z" fill="black"/>
</g>
<defs>
<clipPath id="clip0_9_20">
<rect width="132.114" height="136.258" fill="white" transform="translate(78.4426)"/>
</clipPath>
</defs>
</svg>
