<svg width="1500" height="500" viewBox="0 0 1500 500" fill="none" xmlns="http://www.w3.org/2000/svg">
<rect width="1500" height="500" fill="white"/>
<path d="M756.39 340.44C754.47 340.44 752.923 339.853 751.75 338.68C750.683 337.613 750.15 336.12 750.15 334.2V258.68C750.257 250.36 752.23 242.893 756.07 236.28C760.017 229.56 765.297 224.28 771.91 220.44C778.63 216.6 786.15 214.68 794.47 214.68C803.003 214.68 810.63 216.653 817.35 220.6C824.07 224.44 829.35 229.72 833.19 236.44C837.137 243.16 839.11 250.787 839.11 259.32C839.11 267.747 837.19 275.32 833.35 282.04C829.617 288.76 824.497 294.093 817.99 298.04C811.483 301.88 804.123 303.8 795.91 303.8C788.763 303.8 782.257 302.307 776.39 299.32C770.63 296.227 765.99 292.173 762.47 287.16V334.2C762.47 336.12 761.883 337.613 760.71 338.68C759.643 339.853 758.203 340.44 756.39 340.44ZM794.47 292.6C800.657 292.6 806.203 291.16 811.11 288.28C816.017 285.4 819.857 281.453 822.63 276.44C825.51 271.32 826.95 265.613 826.95 259.32C826.95 252.92 825.51 247.213 822.63 242.2C819.857 237.187 816.017 233.24 811.11 230.36C806.203 227.373 800.657 225.88 794.47 225.88C788.39 225.88 782.897 227.373 777.99 230.36C773.083 233.24 769.243 237.187 766.47 242.2C763.697 247.213 762.31 252.92 762.31 259.32C762.31 265.613 763.697 271.32 766.47 276.44C769.243 281.453 773.083 285.4 777.99 288.28C782.897 291.16 788.39 292.6 794.47 292.6ZM903.115 303.8C894.582 303.8 886.955 301.88 880.235 298.04C873.515 294.2 868.235 288.92 864.395 282.2C860.555 275.48 858.635 267.853 858.635 259.32C858.635 250.68 860.555 243 864.395 236.28C868.235 229.56 873.515 224.28 880.235 220.44C886.955 216.6 894.582 214.68 903.115 214.68C911.648 214.68 919.222 216.6 925.835 220.44C932.555 224.28 937.835 229.56 941.675 236.28C945.515 243 947.488 250.68 947.595 259.32C947.595 267.853 945.622 275.48 941.675 282.2C937.835 288.92 932.555 294.2 925.835 298.04C919.222 301.88 911.648 303.8 903.115 303.8ZM903.115 292.6C909.302 292.6 914.848 291.16 919.755 288.28C924.662 285.4 928.502 281.453 931.275 276.44C934.048 271.427 935.435 265.72 935.435 259.32C935.435 252.92 934.048 247.213 931.275 242.2C928.502 237.08 924.662 233.08 919.755 230.2C914.848 227.32 909.302 225.88 903.115 225.88C896.928 225.88 891.382 227.32 886.475 230.2C881.568 233.08 877.675 237.08 874.795 242.2C872.022 247.213 870.635 252.92 870.635 259.32C870.635 265.72 872.022 271.427 874.795 276.44C877.675 281.453 881.568 285.4 886.475 288.28C891.382 291.16 896.928 292.6 903.115 292.6ZM976.676 249.08C976.996 242.467 978.703 236.547 981.796 231.32C984.996 226.093 989.103 221.987 994.116 219C999.236 216.013 1004.89 214.52 1011.08 214.52C1015.98 214.52 1019.77 215.213 1022.44 216.6C1025.1 217.987 1026.12 220.013 1025.48 222.68C1025.05 224.28 1024.3 225.347 1023.24 225.88C1022.28 226.413 1021.05 226.627 1019.56 226.52C1018.17 226.413 1016.57 226.307 1014.76 226.2C1008.78 225.667 1003.45 226.307 998.756 228.12C994.17 229.827 990.49 232.493 987.716 236.12C985.05 239.747 983.716 244.067 983.716 249.08H976.676ZM977.636 303C975.716 303 974.223 302.467 973.156 301.4C972.09 300.333 971.556 298.84 971.556 296.92V221.56C971.556 219.64 972.09 218.147 973.156 217.08C974.223 216.013 975.716 215.48 977.636 215.48C979.556 215.48 981.05 216.013 982.116 217.08C983.183 218.147 983.716 219.64 983.716 221.56V296.92C983.716 298.84 983.183 300.333 982.116 301.4C981.05 302.467 979.556 303 977.636 303ZM1079.08 303C1073.42 303 1068.36 301.667 1063.88 299C1059.5 296.333 1056.04 292.707 1053.48 288.12C1050.92 283.427 1049.64 278.093 1049.64 272.12V193.88C1049.64 192.067 1050.17 190.573 1051.24 189.4C1052.41 188.227 1053.9 187.64 1055.72 187.64C1057.53 187.64 1059.02 188.227 1060.2 189.4C1061.37 190.573 1061.96 192.067 1061.96 193.88V272.12C1061.96 277.56 1063.56 282.04 1066.76 285.56C1069.96 288.973 1074.06 290.68 1079.08 290.68H1083.4C1085.1 290.68 1086.49 291.267 1087.56 292.44C1088.62 293.613 1089.16 295.107 1089.16 296.92C1089.16 298.733 1088.52 300.227 1087.24 301.4C1085.96 302.467 1084.36 303 1082.44 303H1079.08ZM1039.24 229.4C1037.64 229.4 1036.3 228.92 1035.24 227.96C1034.17 226.893 1033.64 225.613 1033.64 224.12C1033.64 222.52 1034.17 221.24 1035.24 220.28C1036.3 219.213 1037.64 218.68 1039.24 218.68H1080.04C1081.64 218.68 1082.97 219.213 1084.04 220.28C1085.1 221.24 1085.64 222.52 1085.64 224.12C1085.64 225.613 1085.1 226.893 1084.04 227.96C1082.97 228.92 1081.64 229.4 1080.04 229.4H1039.24ZM1147.77 303.8C1139.56 303.8 1132.2 301.88 1125.69 298.04C1119.19 294.093 1114.01 288.76 1110.17 282.04C1106.44 275.32 1104.57 267.747 1104.57 259.32C1104.57 250.787 1106.49 243.16 1110.33 236.44C1114.28 229.72 1119.61 224.44 1126.33 220.6C1133.05 216.653 1140.63 214.68 1149.05 214.68C1157.48 214.68 1165 216.653 1171.61 220.6C1178.33 224.44 1183.61 229.72 1187.45 236.44C1191.4 243.16 1193.43 250.787 1193.53 259.32L1188.57 263.16C1188.57 270.84 1186.76 277.773 1183.13 283.96C1179.61 290.04 1174.76 294.893 1168.57 298.52C1162.49 302.04 1155.56 303.8 1147.77 303.8ZM1149.05 292.6C1155.24 292.6 1160.73 291.16 1165.53 288.28C1170.44 285.4 1174.28 281.453 1177.05 276.44C1179.93 271.32 1181.37 265.613 1181.37 259.32C1181.37 252.92 1179.93 247.213 1177.05 242.2C1174.28 237.187 1170.44 233.24 1165.53 230.36C1160.73 227.373 1155.24 225.88 1149.05 225.88C1142.97 225.88 1137.48 227.373 1132.57 230.36C1127.67 233.24 1123.77 237.187 1120.89 242.2C1118.01 247.213 1116.57 252.92 1116.57 259.32C1116.57 265.613 1118.01 271.32 1120.89 276.44C1123.77 281.453 1127.67 285.4 1132.57 288.28C1137.48 291.16 1142.97 292.6 1149.05 292.6ZM1187.29 303C1185.48 303 1183.99 302.467 1182.81 301.4C1181.64 300.227 1181.05 298.733 1181.05 296.92V269.56L1184.09 256.92L1193.53 259.32V296.92C1193.53 298.733 1192.95 300.227 1191.77 301.4C1190.6 302.467 1189.11 303 1187.29 303ZM1236.37 303C1232.11 303 1228.27 301.827 1224.85 299.48C1221.55 297.133 1218.93 293.88 1217.01 289.72C1215.2 285.56 1214.29 280.76 1214.29 275.32V184.12C1214.29 182.307 1214.83 180.867 1215.89 179.8C1217.07 178.627 1218.56 178.04 1220.37 178.04C1222.19 178.04 1223.63 178.627 1224.69 179.8C1225.87 180.867 1226.45 182.307 1226.45 184.12V275.32C1226.45 279.907 1227.36 283.64 1229.17 286.52C1231.09 289.4 1233.49 290.84 1236.37 290.84H1240.37C1241.97 290.84 1243.25 291.427 1244.21 292.6C1245.17 293.667 1245.65 295.107 1245.65 296.92C1245.65 298.733 1244.96 300.227 1243.57 301.4C1242.29 302.467 1240.59 303 1238.45 303H1236.37Z" fill="black"/>
<path d="M338.096 310.8C329.456 310.8 321.776 308.933 315.056 305.2C308.442 301.36 303.216 296.08 299.376 289.36C295.642 282.64 293.776 274.96 293.776 266.32C293.776 257.573 295.536 249.893 299.056 243.28C302.682 236.56 307.642 231.28 313.936 227.44C320.229 223.6 327.482 221.68 335.696 221.68C343.802 221.68 350.842 223.547 356.816 227.28C362.896 230.907 367.589 235.973 370.896 242.48C374.202 248.987 375.856 256.4 375.856 264.72C375.856 266.427 375.322 267.813 374.256 268.88C373.189 269.84 371.802 270.32 370.096 270.32H302.096V260.08H371.376L364.496 265.04C364.602 258.853 363.482 253.307 361.136 248.4C358.789 243.493 355.429 239.653 351.056 236.88C346.789 234.107 341.669 232.72 335.696 232.72C329.616 232.72 324.282 234.16 319.696 237.04C315.109 239.92 311.536 243.92 308.976 249.04C306.522 254.053 305.296 259.813 305.296 266.32C305.296 272.827 306.682 278.587 309.456 283.6C312.336 288.613 316.229 292.56 321.136 295.44C326.042 298.32 331.696 299.76 338.096 299.76C341.936 299.76 345.776 299.12 349.616 297.84C353.562 296.453 356.709 294.747 359.056 292.72C360.229 291.76 361.562 291.28 363.056 291.28C364.549 291.173 365.829 291.547 366.896 292.4C368.282 293.68 368.976 295.067 368.976 296.56C369.082 298.053 368.496 299.333 367.216 300.4C363.696 303.387 359.216 305.893 353.776 307.92C348.336 309.84 343.109 310.8 338.096 310.8ZM452.973 310C451.693 310 450.626 309.787 449.773 309.36C449.026 308.933 448.226 308.187 447.373 307.12L419.693 271.92L414.893 267.76L387.053 232.4C385.88 231.013 385.293 229.573 385.293 228.08C385.4 226.587 385.933 225.307 386.893 224.24C387.853 223.067 389.24 222.48 391.053 222.48C392.866 222.48 394.413 223.12 395.693 224.4L422.573 258.8L426.893 262.32L456.653 300.4C458.04 302.107 458.626 303.707 458.413 305.2C458.2 306.693 457.506 307.867 456.333 308.72C455.266 309.573 454.146 310 452.973 310ZM389.613 310C387.906 310 386.52 309.467 385.453 308.4C384.493 307.333 383.96 306.053 383.853 304.56C383.853 303.067 384.44 301.627 385.613 300.24L415.053 263.44L421.933 272.56L393.933 308.08C392.973 309.36 391.533 310 389.613 310ZM427.053 268.4L419.213 260.4L446.893 225.36C447.64 224.293 448.44 223.547 449.293 223.12C450.253 222.693 451.213 222.48 452.173 222.48C453.986 222.48 455.373 223.067 456.333 224.24C457.293 225.307 457.72 226.64 457.613 228.24C457.613 229.733 457.08 231.173 456.013 232.56L427.053 268.4ZM510.101 310.8C501.887 310.8 494.527 308.88 488.021 305.04C481.514 301.093 476.341 295.76 472.501 289.04C468.767 282.32 466.901 274.747 466.901 266.32C466.901 257.787 468.821 250.16 472.661 243.44C476.607 236.72 481.941 231.44 488.661 227.6C495.381 223.653 502.954 221.68 511.381 221.68C519.807 221.68 527.327 223.653 533.941 227.6C540.661 231.44 545.941 236.72 549.781 243.44C553.727 250.16 555.754 257.787 555.861 266.32L550.901 270.16C550.901 277.84 549.087 284.773 545.461 290.96C541.941 297.04 537.087 301.893 530.901 305.52C524.821 309.04 517.887 310.8 510.101 310.8ZM511.381 299.6C517.567 299.6 523.061 298.16 527.861 295.28C532.767 292.4 536.607 288.453 539.381 283.44C542.261 278.32 543.701 272.613 543.701 266.32C543.701 259.92 542.261 254.213 539.381 249.2C536.607 244.187 532.767 240.24 527.861 237.36C523.061 234.373 517.567 232.88 511.381 232.88C505.301 232.88 499.807 234.373 494.901 237.36C489.994 240.24 486.101 244.187 483.221 249.2C480.341 254.213 478.901 259.92 478.901 266.32C478.901 272.613 480.341 278.32 483.221 283.44C486.101 288.453 489.994 292.4 494.901 295.28C499.807 298.16 505.301 299.6 511.381 299.6ZM549.621 310C547.807 310 546.314 309.467 545.141 308.4C543.967 307.227 543.381 305.733 543.381 303.92V276.56L546.421 263.92L555.861 266.32V303.92C555.861 305.733 555.274 307.227 554.101 308.4C552.927 309.467 551.434 310 549.621 310ZM698.062 310C696.249 310 694.755 309.467 693.582 308.4C692.409 307.227 691.822 305.733 691.822 303.92V257.84C691.822 250.267 689.849 244.293 685.902 239.92C681.955 235.44 676.889 233.2 670.702 233.2C664.089 233.2 658.649 235.44 654.382 239.92C650.222 244.293 648.195 250.16 648.302 257.52H637.262C637.369 250.373 638.915 244.08 641.902 238.64C644.889 233.2 648.995 228.987 654.222 226C659.449 223.013 665.369 221.52 671.982 221.52C678.275 221.52 683.822 223.013 688.622 226C693.529 228.987 697.315 233.2 699.982 238.64C702.755 244.08 704.142 250.48 704.142 257.84V303.92C704.142 305.733 703.555 307.227 702.382 308.4C701.315 309.467 699.875 310 698.062 310ZM586.062 310C584.142 310 582.595 309.467 581.422 308.4C580.355 307.227 579.822 305.733 579.822 303.92V228.72C579.822 226.907 580.355 225.413 581.422 224.24C582.595 223.067 584.142 222.48 586.062 222.48C587.875 222.48 589.315 223.067 590.382 224.24C591.555 225.413 592.142 226.907 592.142 228.72V303.92C592.142 305.733 591.555 307.227 590.382 308.4C589.315 309.467 587.875 310 586.062 310ZM642.222 310C640.409 310 638.915 309.467 637.742 308.4C636.569 307.227 635.982 305.733 635.982 303.92V257.84C635.982 250.267 634.009 244.293 630.062 239.92C626.115 235.44 621.049 233.2 614.862 233.2C608.249 233.2 602.809 235.387 598.542 239.76C594.275 244.027 592.142 249.627 592.142 256.56H583.342C583.555 249.733 585.049 243.707 587.822 238.48C590.702 233.147 594.595 228.987 599.502 226C604.409 223.013 609.955 221.52 616.142 221.52C622.435 221.52 627.982 223.013 632.782 226C637.689 228.987 641.475 233.2 644.142 238.64C646.915 244.08 648.302 250.48 648.302 257.84V303.92C648.302 305.733 647.715 307.227 646.542 308.4C645.475 309.467 644.035 310 642.222 310Z" fill="black"/>
<g clip-path="url(#clip0_6_13)">
<path d="M60.2959 296.368C60.5064 262.381 60.7063 228.45 60.8957 194.574C60.904 193.502 61.292 192.465 61.9954 191.635C62.6988 190.804 63.6754 190.231 64.7633 190.009V190.009C67.5213 189.471 70.3097 189.09 73.114 188.867C72.8648 190.909 73.0364 192.977 73.6192 194.955C73.9351 196.045 74.369 197.101 74.9136 198.105C73.335 198.211 71.9459 198.348 70.6041 198.531L70.0516 291.787C81.3543 291.392 96.9666 292.777 107.369 296.048C115.721 298.659 123.595 302.521 130.701 307.492V256.694C133.928 257.296 137.249 257.249 140.457 256.557V308.406C148.367 303.181 156.913 298.913 165.904 295.698C177.269 292.194 189.213 290.764 201.122 291.483V198.759C198.502 198.516 195.629 198.409 192.613 198.409C193.012 198.074 193.391 197.718 193.75 197.344L194.555 196.492C196.324 194.374 197.464 191.834 197.854 189.141C201.012 189.278 203.932 189.552 206.71 189.933C207.875 190.09 208.941 190.649 209.713 191.504C210.484 192.36 210.909 193.456 210.909 194.589V194.589V296.779C210.909 297.398 210.783 298.01 210.537 298.582C210.29 299.153 209.93 299.673 209.475 300.109C209.02 300.546 208.481 300.892 207.887 301.128C207.294 301.363 206.658 301.483 206.016 301.481C205.639 301.479 205.263 301.438 204.895 301.36C192.899 299.858 180.707 300.95 169.203 304.555C160.709 307.632 152.648 311.722 145.208 316.73C155.67 313.585 166.58 312.045 177.538 312.164C191.597 312.384 205.589 314.094 219.26 317.262C219.26 281.622 219.26 245.976 219.26 210.325H224.154C225.447 210.325 226.688 210.82 227.603 211.702C228.518 212.584 229.032 213.78 229.032 215.027V323.426C229.032 324.673 228.518 325.869 227.603 326.751C226.688 327.633 225.447 328.128 224.154 328.128C223.618 328.125 223.085 328.043 222.575 327.885C207.88 323.989 192.743 321.858 177.506 321.539C164.014 321.353 150.64 323.974 138.294 329.224C137.469 329.745 136.502 330.015 135.516 330C134.535 330.015 133.572 329.745 132.753 329.224C120.409 323.968 107.035 321.336 93.541 321.508C78.3045 321.829 63.1673 323.96 48.4722 327.854C47.9623 328.014 47.4298 328.096 46.8936 328.098C46.2517 328.1 45.6157 327.98 45.0221 327.744C44.4285 327.509 43.8889 327.163 43.4343 326.726C42.9796 326.289 42.6189 325.77 42.3728 325.198C42.1267 324.627 42 324.014 42 323.395V214.997C42 213.75 42.5139 212.554 43.4287 211.672C44.3435 210.79 45.5842 210.294 46.8778 210.294H51.7715V317.232C65.4426 314.061 79.4343 312.352 93.4937 312.134C105.235 311.997 116.917 313.767 128.049 317.369C121.01 311.876 112.984 307.677 104.37 304.981C93.6357 301.603 77.5341 300.416 65.5684 301.466C64.9295 301.518 64.2862 301.448 63.6756 301.259C63.0649 301.071 62.4991 300.767 62.0105 300.367C61.5219 299.967 61.1203 299.477 60.8287 298.927C60.5372 298.376 60.3614 297.776 60.3117 297.159C60.2801 296.896 60.2801 296.631 60.3117 296.368H60.2959ZM154.49 283.007C154.106 283.247 153.676 283.413 153.225 283.493C152.774 283.574 152.311 283.568 151.863 283.476C151.414 283.385 150.989 283.208 150.611 282.958C150.233 282.708 149.91 282.388 149.66 282.017C149.41 281.647 149.239 281.232 149.155 280.797C149.071 280.363 149.077 279.917 149.173 279.484C149.268 279.052 149.451 278.642 149.71 278.277C149.97 277.913 150.301 277.601 150.686 277.361C156.303 273.998 162.339 271.334 168.65 269.432C175.03 267.347 181.652 266.029 188.367 265.506C188.825 265.478 189.285 265.537 189.719 265.68C190.153 265.823 190.554 266.048 190.899 266.34C191.243 266.633 191.524 266.988 191.727 267.385C191.929 267.782 192.048 268.214 192.077 268.656C192.106 269.098 192.044 269.54 191.896 269.959C191.747 270.378 191.515 270.764 191.211 271.096C190.908 271.428 190.539 271.7 190.127 271.895C189.715 272.089 189.267 272.204 188.809 272.232C182.68 272.718 176.636 273.93 170.813 275.839C165.08 277.554 159.595 279.962 154.49 283.007V283.007ZM154.49 256.953C153.852 257.342 153.1 257.521 152.348 257.463C151.595 257.404 150.882 257.112 150.316 256.63C149.751 256.148 149.362 255.502 149.21 254.79C149.057 254.077 149.149 253.335 149.471 252.677C150.426 252.002 151.324 251.254 152.154 250.44C157.351 247.547 162.855 245.2 168.571 243.439C174.87 241.417 181.401 240.145 188.02 239.65C188.478 239.625 188.937 239.687 189.37 239.833C189.803 239.979 190.202 240.206 190.544 240.501C190.887 240.795 191.165 241.152 191.365 241.551C191.564 241.949 191.68 242.381 191.706 242.823C191.732 243.265 191.667 243.707 191.516 244.125C191.364 244.542 191.129 244.927 190.823 245.257C190.518 245.587 190.148 245.856 189.734 246.048C189.321 246.24 188.873 246.352 188.414 246.377C182.391 246.86 176.449 248.04 170.718 249.892C165.023 251.599 159.563 253.965 154.459 256.938L154.49 256.953ZM164.104 219.091C165.572 218.573 167.072 218.071 168.556 217.569C174.833 215.545 181.343 214.267 187.941 213.764C188.866 213.716 189.773 214.024 190.463 214.62C191.153 215.217 191.569 216.053 191.619 216.945C191.669 217.837 191.35 218.711 190.731 219.376C190.112 220.041 189.245 220.442 188.32 220.491C182.316 220.963 176.395 222.138 170.687 223.991C166.649 225.215 162.717 226.742 158.926 228.556C158.926 228.008 158.926 227.476 159.005 226.928L159.258 225.817L159.826 225.026C161.105 223.062 162.604 221.054 164.104 219.03V219.091ZM120.314 277.345C121.093 277.832 121.639 278.596 121.833 279.471C122.027 280.346 121.852 281.259 121.348 282.01C120.843 282.76 120.05 283.287 119.143 283.474C118.235 283.661 117.288 283.493 116.51 283.007C111.409 279.968 105.93 277.565 100.203 275.854C94.3954 273.946 88.3678 272.729 82.2541 272.232C81.3288 272.184 80.4614 271.783 79.8427 271.118C79.224 270.453 78.9046 269.578 78.9548 268.686C79.0051 267.794 79.4208 266.958 80.1106 266.362C80.8004 265.765 81.7077 265.457 82.633 265.506C89.3518 266.025 95.9789 267.339 102.365 269.417C108.67 271.322 114.701 273.986 120.314 277.345V277.345ZM121.529 252.57C121.867 253.228 121.973 253.973 121.83 254.694C121.688 255.414 121.305 256.07 120.74 256.561C120.175 257.052 119.459 257.352 118.701 257.415C117.943 257.477 117.184 257.299 116.541 256.907C111.444 253.931 105.989 251.565 100.297 249.862C94.5655 248.013 88.6245 246.832 82.6014 246.346C82.1224 246.35 81.6479 246.258 81.2073 246.077C80.7668 245.896 80.3696 245.629 80.0406 245.293C79.7115 244.958 79.4577 244.561 79.2949 244.126C79.1321 243.692 79.0637 243.23 79.0941 242.769C79.1246 242.309 79.2531 241.859 79.4717 241.448C79.6903 241.037 79.9943 240.674 80.3648 240.381C80.7353 240.089 81.1643 239.873 81.6251 239.747C82.086 239.621 82.5688 239.588 83.0434 239.65C89.6412 240.147 96.1512 241.419 102.428 243.439C108.438 245.246 114.207 247.723 119.619 250.82C120.217 251.442 120.855 252.027 121.529 252.57V252.57ZM111.963 228.48C108.204 226.678 104.31 225.152 100.313 223.915C94.6047 222.062 88.6835 220.887 82.6803 220.414C81.8107 220.303 81.0164 219.88 80.4557 219.23C79.8951 218.58 79.6091 217.749 79.6549 216.905C79.7007 216.06 80.0749 215.263 80.7028 214.673C81.3308 214.082 82.1665 213.742 83.0434 213.719C89.649 214.235 96.1643 215.528 102.444 217.569C104.133 218.101 105.822 218.664 107.48 219.288C108.184 220.108 108.797 220.995 109.311 221.936C110.046 223.255 110.669 224.629 111.174 226.045C111.333 226.565 111.528 227.073 111.758 227.567L111.932 228.571L111.963 228.48Z" fill="black"/>
<path d="M145.035 240.655C144.026 242.335 142.578 243.731 140.836 244.703C139.392 245.521 137.771 246.006 136.1 246.118C134.392 246.221 132.686 245.901 131.143 245.19C130.043 244.663 129.049 243.952 128.207 243.089L145.114 240.655H145.035ZM147.371 223.443L146.818 225.908L146.692 227.674L124.592 230.839C124.536 229.479 124.367 228.125 124.087 226.791L147.434 223.443H147.371ZM146.645 231.539V232.604V232.969C146.692 233.669 146.692 234.37 146.645 235.07L146.313 236.591L125.792 239.528L125.428 238.737L124.623 235.587V234.674L146.55 231.524L146.645 231.539Z" fill="#5C546A"/>
<path d="M116.857 212.212C113.98 209.284 111.57 205.961 109.706 202.351C107.663 198.326 106.584 193.911 106.549 189.43C106.658 184.605 107.957 179.874 110.337 175.628V175.521C113.365 170.444 118.074 166.495 123.708 164.305C128.087 162.61 132.825 161.957 137.521 162.403C142.172 162.811 146.673 164.204 150.702 166.482C155.858 169.349 159.899 173.763 162.21 179.052C163.686 182.423 164.446 186.045 164.446 189.704C164.446 193.364 163.686 196.986 162.21 200.357C159.605 206.596 153.496 213.277 149.581 219.41L122.95 223.093C121.637 219.133 119.571 215.443 116.857 212.212V212.212Z" fill="#F4BB2C"/>
<path d="M88.9159 194.742C88.0302 194.754 87.1748 194.431 86.5322 193.844C85.8759 193.241 85.4857 192.418 85.443 191.546C85.4294 191.113 85.5046 190.682 85.6645 190.277C85.8243 189.872 86.0655 189.502 86.3743 189.187C86.6807 188.872 87.0495 188.619 87.4589 188.444C87.8684 188.269 88.3101 188.175 88.758 188.167L96.209 187.909C96.6583 187.894 97.1061 187.966 97.5263 188.12C97.9464 188.274 98.3304 188.507 98.6558 188.807C98.9877 189.099 99.2541 189.453 99.4387 189.849C99.6233 190.244 99.7221 190.671 99.7292 191.104V191.226C99.7173 192.07 99.3674 192.878 98.7525 193.479C98.1376 194.08 97.3055 194.429 96.43 194.452H96.3037L88.9159 194.742ZM134.869 146.226C134.881 145.361 135.249 144.536 135.891 143.931C136.533 143.327 137.397 142.992 138.294 143H138.531C139.365 143.065 140.146 143.422 140.725 144.004C141.337 144.629 141.672 145.459 141.657 146.318V146.318C141.665 146.373 141.665 146.429 141.657 146.485L141.451 153.531C141.459 153.602 141.459 153.673 141.451 153.744C141.394 154.551 141.022 155.307 140.41 155.859C139.763 156.452 138.902 156.779 138.01 156.772H137.789C136.926 156.711 136.12 156.335 135.534 155.722C134.948 155.109 134.626 154.304 134.632 153.47V153.47C134.624 153.409 134.624 153.348 134.632 153.287L134.806 146.241L134.869 146.226ZM167.119 155.905C167.369 155.546 167.689 155.238 168.063 154.998C168.436 154.759 168.854 154.593 169.294 154.509C169.734 154.426 170.187 154.427 170.626 154.512C171.065 154.598 171.483 154.766 171.855 155.007V155.007C172.226 155.245 172.544 155.553 172.791 155.91C173.037 156.268 173.207 156.67 173.292 157.092C173.462 157.946 173.281 158.83 172.786 159.557L168.619 165.538C168.373 165.898 168.055 166.207 167.683 166.447C167.312 166.687 166.895 166.854 166.456 166.938C165.566 167.109 164.641 166.934 163.883 166.451C163.128 165.945 162.607 165.175 162.431 164.305C162.265 163.45 162.452 162.565 162.952 161.84L167.119 155.844V155.905ZM181.832 184.561H181.942C182.793 184.514 183.632 184.774 184.294 185.291C184.994 185.847 185.441 186.644 185.541 187.513V187.513C185.541 187.513 185.541 187.604 185.541 187.619C185.593 188.445 185.323 189.259 184.784 189.902C184.499 190.236 184.15 190.513 183.754 190.717C183.359 190.921 182.925 191.047 182.479 191.089L175.06 191.85C174.614 191.896 174.162 191.857 173.732 191.734C173.302 191.611 172.901 191.407 172.553 191.134C172.205 190.861 171.917 190.524 171.705 190.143C171.493 189.762 171.362 189.344 171.318 188.913C171.266 188.485 171.306 188.051 171.433 187.637C171.561 187.224 171.774 186.84 172.06 186.509C172.629 185.833 173.452 185.401 174.349 185.306C176.843 185.048 179.322 184.774 181.816 184.545L181.832 184.561ZM97.8665 158.522C97.373 158.08 97.0267 157.506 96.8711 156.874C96.7156 156.242 96.7579 155.58 96.9927 154.971C97.2275 154.362 97.6443 153.833 98.1903 153.452C98.7364 153.072 99.3872 152.855 100.061 152.831C100.956 152.787 101.834 153.082 102.508 153.653L107.969 158.568C108.299 158.86 108.566 159.212 108.753 159.604C108.94 159.996 109.044 160.42 109.059 160.851C109.079 161.499 108.901 162.139 108.547 162.69C108.192 163.241 107.678 163.68 107.066 163.951C106.455 164.222 105.775 164.313 105.11 164.214C104.445 164.115 103.826 163.829 103.328 163.392L97.8665 158.522Z" fill="black"/>
</g>
<defs>
<clipPath id="clip0_6_13">
<rect width="187" height="187" fill="white" transform="translate(42 143)"/>
</clipPath>
</defs>
</svg>
