<svg xmlns="http://www.w3.org/2000/svg" viewBox="0 0 500 500"><g id="freepik--background-complete--inject-7"><path d="M415.54,289.92c-21.16-9.48-30-32.89-33.44-54.8-.57-3.66-1.7-7.42-.58-10.94s4.74-6.46,8.29-5.55c2.94.75,4.71,3.67,6.72,6a21.6,21.6,0,0,0,10.07,6.51c2.55.76,5.55.95,7.6-.75,2.8-2.33,2.34-6.73,1.63-10.34q-2-10.09-4-20.18c-.71-3.61-1.43-7.3-1-10.94s2.35-7.31,5.6-8.93,7.89-.45,9.29,3a35.31,35.31,0,0,1,1,4.48c.39,1.48,1.4,3,2.91,3.16s2.77-1.16,3.65-2.42c3-4.36,4.67-9.54,6.14-14.67s2.86-10.35,5.48-15,6.71-8.67,11.83-9.95,11.24.86,13.52,5.69.3,10.58-2.15,15.33a81.91,81.91,0,0,1-13.74,19.21,6.75,6.75,0,0,0-2.23,3.56c-.33,2.56,2.41,4.52,4.94,4.85,2.87.39,5.74-.45,8.62-.66s6.17.46,7.74,2.92c2.19,3.41-.16,7.87-2.72,11a70.32,70.32,0,0,1-18.2,15.71c-2.47,1.48-5.11,2.87-6.9,5.14s-2.46,5.78-.68,8.07,5.27,2.49,7.95,1.44,4.89-3,7.36-4.55c4.6-2.82,11.08-3.7,15.09,0,2.62,2.42,3.56,6.31,3.14,9.88a27,27,0,0,1-3.77,10c-6.18,10.86-14.94,20.32-25.7,26.51s-21.23,9.32-33.48,7.31" style="fill:#f5f5f5"></path><path d="M418.56,275.2a329,329,0,0,1,6.2-37.32l2.13-9.7c.71-3.18,1.4-6.34,2.28-9.38a164,164,0,0,1,6-17.2c2.18-5.38,4.45-10.41,6.61-15.09s4.26-9,6.35-12.86a130.33,130.33,0,0,1,11.17-17.47c1.48-2,2.67-3.43,3.49-4.41.4-.48.71-.85.95-1.12a3.74,3.74,0,0,1,.33-.37,1.93,1.93,0,0,1-.28.41l-.89,1.16c-.79,1-1.95,2.52-3.39,4.49a137.49,137.49,0,0,0-11,17.54c-2.05,3.86-4.12,8.19-6.26,12.87s-4.38,9.72-6.54,15.09a163.14,163.14,0,0,0-6,17.15c-.87,3-1.56,6.15-2.26,9.34l-2.13,9.7a338.72,338.72,0,0,0-6.24,37.24" style="fill:#e0e0e0"></path><path d="M429.36,218.74a6.69,6.69,0,0,1-.65-1.48c-.38-1-.89-2.37-1.48-4.12-1.2-3.5-2.69-8.39-4.31-13.79s-3.18-10.26-4.43-13.73c-.61-1.74-1.13-3.14-1.5-4.11a7.85,7.85,0,0,1-.5-1.53,7,7,0,0,1,.74,1.43c.45.93,1,2.31,1.71,4,1.37,3.44,3,8.29,4.62,13.7s3,10.16,4.12,13.84c.51,1.66.93,3.06,1.28,4.19A8.52,8.52,0,0,1,429.36,218.74Z" style="fill:#e0e0e0"></path><path d="M474.17,201.19a10.62,10.62,0,0,1-1.81.57c-1.18.34-2.87.81-4.95,1.46-4.17,1.27-9.87,3.23-16.06,5.67s-11.69,4.9-15.62,6.79c-2,.93-3.55,1.72-4.65,2.27a10.25,10.25,0,0,1-1.72.79,9.05,9.05,0,0,1,1.6-1c1.06-.61,2.6-1.48,4.55-2.47,3.89-2,9.39-4.54,15.59-7a165.5,165.5,0,0,1,16.17-5.49c2.1-.6,3.83-1,5-1.26A10.08,10.08,0,0,1,474.17,201.19Z" style="fill:#e0e0e0"></path><path d="M419,274.24a2.36,2.36,0,0,1-.43-.51l-1.12-1.53c-1-1.33-2.3-3.29-3.93-5.74-3.26-4.9-7.54-11.8-12.17-19.48s-8.85-14.62-12-19.58l-3.75-5.86-1-1.6a2.33,2.33,0,0,1-.31-.59,2.55,2.55,0,0,1,.42.51l1.12,1.53c1,1.33,2.3,3.3,3.93,5.74,3.26,4.9,7.55,11.8,12.17,19.49s8.85,14.62,12,19.57l3.75,5.86,1,1.6A2.21,2.21,0,0,1,419,274.24Z" style="fill:#e0e0e0"></path><path d="M476.92,242.55s-.19.15-.57.37l-1.67,1-6.21,3.4c-5.24,2.88-12.42,6.93-20.36,11.42s-15.17,8.49-20.47,11.26c-2.65,1.38-4.81,2.48-6.31,3.21l-1.74.83a2.87,2.87,0,0,1-.62.25,2.4,2.4,0,0,1,.56-.37l1.68-.94,6.2-3.41c5.24-2.87,12.43-6.93,20.37-11.42s15.17-8.49,20.47-11.26c2.64-1.38,4.8-2.48,6.3-3.21l1.74-.83A2.81,2.81,0,0,1,476.92,242.55Z" style="fill:#e0e0e0"></path><path d="M58.56,158.78l1.34,4.95S84,146.8,101.72,151.49h0a3.51,3.51,0,0,0,3.11,1.2l6.72-.84a3.54,3.54,0,0,0,2.93-2.73h0s14.09-10.86,32.19-5.82l6.76,1.45L127.6,84,48.54,86Z" style="fill:#e0e0e0"></path><path d="M52.77,152.69l2.2,8.95s22.88-21.43,52.76-10.95L91.63,109S52.78,143.11,52.77,152.69Z" style="fill:#ebebeb"></path><path d="M33.65,88.7s26.27-31.11,57.48-2.43l16.6,64.42s-35.2-23-57.47,4.57Z" style="fill:#f5f5f5"></path><path d="M107.73,150.69s23.42-23.25,47.06-9.15L136.22,83.46l-44.51,5Z" style="fill:#ebebeb"></path><path d="M91.11,86.33s4.83-23,25.2-25.34l13.13-1.05,19.79,58.13s-32,3.2-41.53,32.68Z" style="fill:#f5f5f5"></path><path d="M107.73,150.69a11.26,11.26,0,0,1-.84-2.48c-.5-1.83-1.13-4.12-1.89-6.85-1.58-6-3.67-13.92-6-22.66s-4.38-16.64-6-22.66c-.72-2.73-1.33-5-1.81-6.87a11.1,11.1,0,0,1-.54-2.55,11.91,11.91,0,0,1,.94,2.43c.55,1.59,1.28,3.91,2.15,6.78,1.73,5.75,4,13.74,6.27,22.6s4.3,16.9,5.67,22.75c.68,2.92,1.21,5.29,1.55,6.93A12.12,12.12,0,0,1,107.73,150.69Z" style="fill:#e0e0e0"></path><path d="M124.79,71.26c0,.19-2.07.26-5.29,1a34,34,0,0,0-20.57,14.5c-1.8,2.78-2.55,4.72-2.74,4.65s.07-.53.38-1.43a21.45,21.45,0,0,1,1.71-3.62,31.09,31.09,0,0,1,21.06-14.85,21,21,0,0,1,4-.38C124.27,71.14,124.79,71.18,124.79,71.26Z" style="fill:#e0e0e0"></path><path d="M127.92,77.65c0,.2-2.07.26-5.29,1a33.94,33.94,0,0,0-20.57,14.49c-1.79,2.78-2.55,4.72-2.73,4.65s.06-.53.38-1.42a20.87,20.87,0,0,1,1.7-3.63,31,31,0,0,1,21.06-14.84,21.19,21.19,0,0,1,4-.39A4.08,4.08,0,0,1,127.92,77.65Z" style="fill:#e0e0e0"></path><path d="M129.93,84.94c0,.19-2.07.26-5.3,1a33.91,33.91,0,0,0-20.56,14.5c-1.8,2.78-2.56,4.72-2.74,4.65s.07-.53.38-1.43a21.25,21.25,0,0,1,1.7-3.62A31.08,31.08,0,0,1,124.48,85.2a21,21,0,0,1,4-.38C129.41,84.82,129.93,84.86,129.93,84.94Z" style="fill:#e0e0e0"></path><path d="M132.82,91.48c0,.19-2.07.26-5.29,1A34,34,0,0,0,107,107c-1.8,2.78-2.55,4.72-2.74,4.65s.07-.53.38-1.42a21.84,21.84,0,0,1,1.71-3.63,31.09,31.09,0,0,1,21.06-14.85,21,21,0,0,1,4-.38C132.3,91.36,132.82,91.4,132.82,91.48Z" style="fill:#e0e0e0"></path><path d="M136,98.34c0,.2-2.07.26-5.3,1a33.91,33.91,0,0,0-20.56,14.5c-1.8,2.78-2.56,4.72-2.74,4.64s.07-.53.38-1.42a21.25,21.25,0,0,1,1.7-3.62,31,31,0,0,1,21.07-14.85,22.06,22.06,0,0,1,4-.39A4.12,4.12,0,0,1,136,98.34Z" style="fill:#e0e0e0"></path><path d="M139.86,106c0,.2-2.26.26-5.75,1.15a41.08,41.08,0,0,0-6,2,49.2,49.2,0,0,0-6.8,3.67,46.56,46.56,0,0,0-6.06,4.79,36.92,36.92,0,0,0-4.15,4.74c-2.1,2.92-2.91,5-3.1,5a4.85,4.85,0,0,1,.45-1.53,11,11,0,0,1,.78-1.71,15.53,15.53,0,0,1,1.24-2.15,31.74,31.74,0,0,1,4.08-5,42.39,42.39,0,0,1,6.16-5,44.81,44.81,0,0,1,7-3.68,36.17,36.17,0,0,1,6.2-1.86,21.74,21.74,0,0,1,2.45-.38,12.08,12.08,0,0,1,1.87-.12A5,5,0,0,1,139.86,106Z" style="fill:#e0e0e0"></path><path d="M141.58,112.37c0,.2-2.27.25-5.76,1.21a39.21,39.21,0,0,0-5.95,2.18,50.5,50.5,0,0,0-6.7,3.91,50,50,0,0,0-5.93,5,38.8,38.8,0,0,0-4.06,4.87c-2.07,3-2.89,5.09-3.07,5a4.58,4.58,0,0,1,.44-1.54,11.43,11.43,0,0,1,.77-1.72,18.52,18.52,0,0,1,1.22-2.18,33.52,33.52,0,0,1,4-5.13,44.4,44.4,0,0,1,6-5.2,45.56,45.56,0,0,1,6.92-3.93,33.9,33.9,0,0,1,6.18-2,18.38,18.38,0,0,1,2.46-.42,11.13,11.13,0,0,1,1.87-.14A4.41,4.41,0,0,1,141.58,112.37Z" style="fill:#e0e0e0"></path><path d="M94.92,136c-.12.15-1.88-1.41-5.18-3.13a30.44,30.44,0,0,0-27.88-.34c-3.34,1.65-5.14,3.16-5.25,3s.35-.49,1.17-1.17a24.18,24.18,0,0,1,3.73-2.52,28.84,28.84,0,0,1,28.6.35,24.43,24.43,0,0,1,3.67,2.6C94.58,135.49,95,135.93,94.92,136Z" style="fill:#e0e0e0"></path><path d="M92.6,127.75c-.12.15-1.89-1.41-5.19-3.13a30.42,30.42,0,0,0-27.87-.34c-3.34,1.65-5.14,3.16-5.26,3s.36-.49,1.17-1.17a24,24,0,0,1,3.73-2.52,28.87,28.87,0,0,1,28.6.34,24.55,24.55,0,0,1,3.67,2.61C92.25,127.26,92.64,127.7,92.6,127.75Z" style="fill:#e0e0e0"></path><path d="M90.27,119.52c-.12.15-1.88-1.41-5.18-3.13a30.44,30.44,0,0,0-27.88-.34c-3.34,1.65-5.14,3.16-5.26,3s.36-.49,1.17-1.17a24.14,24.14,0,0,1,3.74-2.52,28.88,28.88,0,0,1,28.6.34,25.67,25.67,0,0,1,3.67,2.61C89.93,119,90.31,119.47,90.27,119.52Z" style="fill:#e0e0e0"></path><path d="M87.94,111.29c-.12.15-1.88-1.41-5.18-3.13a30.36,30.36,0,0,0-27.88-.34c-3.34,1.65-5.14,3.16-5.25,3s.35-.49,1.17-1.17a23.48,23.48,0,0,1,3.73-2.52,28.87,28.87,0,0,1,28.6.34,24.36,24.36,0,0,1,3.67,2.61C87.6,110.79,88,111.24,87.94,111.29Z" style="fill:#e0e0e0"></path><path d="M85.62,103.06c-.12.15-1.89-1.41-5.19-3.14a30.38,30.38,0,0,0-27.87-.33c-3.34,1.65-5.14,3.16-5.26,3s.36-.49,1.17-1.17a24,24,0,0,1,3.73-2.52,28.87,28.87,0,0,1,28.6.34,23.84,23.84,0,0,1,3.67,2.61C85.27,102.56,85.66,103,85.62,103.06Z" style="fill:#e0e0e0"></path><path d="M83.29,94.83c-.12.15-1.88-1.41-5.19-3.14a30.38,30.38,0,0,0-27.87-.33c-3.34,1.64-5.14,3.16-5.26,3s.36-.48,1.17-1.16a24.14,24.14,0,0,1,3.74-2.52,28.88,28.88,0,0,1,28.6.34,24.89,24.89,0,0,1,3.67,2.61C82.94,94.33,83.33,94.78,83.29,94.83Z" style="fill:#e0e0e0"></path><path d="M212.59,389.53s-9,6.88-.38,16a.78.78,0,0,0,.57.24l78.92-.46s6.74-7.56,1.15-16.27Z" style="fill:#ebebeb"></path><path d="M274.26,396.71c0,.09-9.83.16-21.95.16s-21.95-.07-21.95-.16,9.83-.16,21.95-.16S274.26,396.62,274.26,396.71Z" style="fill:#e0e0e0"></path><path d="M262,399.57c0,.08-4.62.15-10.31.15s-10.32-.07-10.32-.15,4.62-.16,10.32-.16S262,399.48,262,399.57Z" style="fill:#e0e0e0"></path><path d="M282.33,405c-.05,0,.17-.91.42-2.37a34.32,34.32,0,0,0,.45-5.76,33.68,33.68,0,0,0-.56-5.74c-.28-1.46-.52-2.35-.47-2.36s.11.21.23.6.29,1,.46,1.71a27.94,27.94,0,0,1,.66,5.79,28.36,28.36,0,0,1-.55,5.8c-.15.73-.3,1.32-.42,1.72A2.39,2.39,0,0,1,282.33,405Z" style="fill:#e0e0e0"></path><path d="M288.22,388.92a2.72,2.72,0,0,1,.35.57,5.89,5.89,0,0,1,.35.71,10.38,10.38,0,0,1,.4,1,16.77,16.77,0,0,1,.75,2.62,18.79,18.79,0,0,1,.35,3.32,20.14,20.14,0,0,1-.29,3.33,17.54,17.54,0,0,1-.71,2.63c-.12.37-.27.69-.39,1a5.29,5.29,0,0,1-.34.71,2.79,2.79,0,0,1-.34.58c-.06,0,.38-.88.85-2.33a20,20,0,0,0,.64-2.61,20.87,20.87,0,0,0,.26-3.28,21.61,21.61,0,0,0-.31-3.26,20.11,20.11,0,0,0-.68-2.6C288.62,389.79,288.16,388.94,288.22,388.92Z" style="fill:#e0e0e0"></path><path d="M225,405.14a2.57,2.57,0,0,1-.37-.53,7.13,7.13,0,0,1-.37-.66c-.12-.26-.29-.56-.42-.91a14.19,14.19,0,0,1-.77-2.49,15.76,15.76,0,0,1-.3-3.18,15.53,15.53,0,0,1,.39-3.17,13.16,13.16,0,0,1,.84-2.47,7.39,7.39,0,0,1,.44-.89,5,5,0,0,1,.39-.65,2.91,2.91,0,0,1,.38-.52c.05,0-.45.8-1,2.15a15.26,15.26,0,0,0-.75,2.45,16.39,16.39,0,0,0-.36,3.11,16.94,16.94,0,0,0,.27,3.12,15.76,15.76,0,0,0,.69,2.46C224.61,404.33,225.1,405.1,225,405.14Z" style="fill:#e0e0e0"></path><path d="M216.52,407.06a3.27,3.27,0,0,1-.41-.6,6.61,6.61,0,0,1-.41-.74c-.14-.3-.33-.63-.48-1a17.5,17.5,0,0,1-.9-2.78,18.53,18.53,0,0,1-.44-3.56,19.19,19.19,0,0,1,.28-3.58,16.53,16.53,0,0,1,.78-2.82,11,11,0,0,1,.43-1,7.62,7.62,0,0,1,.38-.76,3.36,3.36,0,0,1,.38-.62c.06,0-.45.93-1,2.49a18.71,18.71,0,0,0-.7,2.8,20.53,20.53,0,0,0-.25,3.52,18.75,18.75,0,0,0,1.23,6.27C216,406.15,216.58,407,216.52,407.06Z" style="fill:#e0e0e0"></path><path d="M288.81,429.32v15.1H259.58v-15.1Z" style="fill:#ebebeb"></path><path d="M194.43,437c0,.13,0,.26,0,.4a8.64,8.64,0,0,0,8.69,8.1h87v-1.09H269.51a7.55,7.55,0,0,1-7.55-7.55h0a7.55,7.55,0,0,1,7.55-7.55h20.66v-1.61l-87.06.3A8.7,8.7,0,0,0,194.43,437Z" style="fill:#e0e0e0"></path><path d="M288.81,437.07c0,.09-6,.16-13.42.16s-13.42-.07-13.42-.16,6-.16,13.42-.16S288.81,437,288.81,437.07Z" style="fill:#e0e0e0"></path><path d="M288.38,440.47c0,.09-5.68.16-12.69.16s-12.7-.07-12.7-.16,5.68-.16,12.7-.16S288.38,440.39,288.38,440.47Z" style="fill:#e0e0e0"></path><path d="M288.81,443.58c0,.09-5.12.16-11.42.16s-11.42-.07-11.42-.16,5.11-.15,11.42-.15S288.81,443.5,288.81,443.58Z" style="fill:#e0e0e0"></path><path d="M288.81,434c0,.09-5.89.16-13.15.16s-13.14-.07-13.14-.16,5.88-.16,13.14-.16S288.81,433.92,288.81,434Z" style="fill:#e0e0e0"></path><path d="M288.38,431c0,.09-5.24.16-11.7.16S265,431,265,431s5.24-.15,11.7-.15S288.38,430.87,288.38,431Z" style="fill:#e0e0e0"></path><path d="M205,428.26a19.72,19.72,0,0,0-1.85,2.2,11.19,11.19,0,0,0,.16,12.94,17.31,17.31,0,0,0,1.9,2.15,2.24,2.24,0,0,1-.63-.46,9.56,9.56,0,0,1-1.46-1.56,11,11,0,0,1-.15-13.2,10.15,10.15,0,0,1,1.41-1.59A3.14,3.14,0,0,1,205,428.26Z" style="fill:#f5f5f5"></path><path d="M202,427.94a19.72,19.72,0,0,0-1.85,2.2,11.17,11.17,0,0,0,.15,12.94,20.87,20.87,0,0,0,1.9,2.15,3.08,3.08,0,0,1-.63-.46,10,10,0,0,1-1.45-1.56A11,11,0,0,1,200,430a9.66,9.66,0,0,1,1.41-1.59A2.69,2.69,0,0,1,202,427.94Z" style="fill:#f5f5f5"></path><path d="M261.16,428.26a19.72,19.72,0,0,0-1.85,2.2,11.19,11.19,0,0,0,.16,12.94,18.37,18.37,0,0,0,1.9,2.15,2.42,2.42,0,0,1-.63-.46,9.58,9.58,0,0,1-1.45-1.56,11,11,0,0,1-.16-13.2,9.64,9.64,0,0,1,1.42-1.59A3,3,0,0,1,261.16,428.26Z" style="fill:#f5f5f5"></path><path d="M258.22,427.94a19.72,19.72,0,0,0-1.85,2.2,11.19,11.19,0,0,0,.16,12.94,18.32,18.32,0,0,0,1.9,2.15,2.55,2.55,0,0,1-.63-.46,9.56,9.56,0,0,1-1.46-1.56,11,11,0,0,1-.15-13.2,10.15,10.15,0,0,1,1.41-1.59A2.69,2.69,0,0,1,258.22,427.94Z" style="fill:#f5f5f5"></path><path d="M214.88,439.13l-.09-6.14a4.23,4.23,0,0,0-.21-1.58,1.48,1.48,0,0,0-1.17-1c-.77-.35-2,.3-2.5,1.18a5.83,5.83,0,0,0-.61,3,43.63,43.63,0,0,0,.24,4.85,5.61,5.61,0,0,0,.57,2.22,1.85,1.85,0,0,0,3.51-.3A6.13,6.13,0,0,0,214.88,439.13Z" style="fill:#f5f5f5"></path><path d="M248.68,437.37c0,.08-6.3.15-14.05.15s-14.06-.07-14.06-.15,6.29-.16,14.06-.16S248.68,437.28,248.68,437.37Z" style="fill:#f5f5f5"></path><polygon points="209.05 427.66 208.88 413.34 216.68 413.34 216.95 427.66 209.05 427.66" style="fill:#f5f5f5"></polygon><path d="M216.22,415.89a41,41,0,0,1-7.24,0,41,41,0,0,1,7.24,0Z" style="fill:#e0e0e0"></path><path d="M216.22,418.1a41,41,0,0,1-7.24,0,41,41,0,0,1,7.24,0Z" style="fill:#e0e0e0"></path><path d="M216.22,420.31a41,41,0,0,1-7.24,0,41,41,0,0,1,7.24,0Z" style="fill:#e0e0e0"></path><path d="M216.22,422.52a41,41,0,0,1-7.24,0,41,41,0,0,1,7.24,0Z" style="fill:#e0e0e0"></path><path d="M216.22,424.73a41,41,0,0,1-7.24,0,41,41,0,0,1,7.24,0Z" style="fill:#e0e0e0"></path><path d="M208.47,413h86.36a40.41,40.41,0,0,1,0,15.47h-86v-1.05h5.25a2.48,2.48,0,0,0,2.49-2.48v-8.56a2.48,2.48,0,0,0-2.49-2.48h-5.62Z" style="fill:#ebebeb"></path><path d="M228.89,420.71h1.44a.26.26,0,0,1,.15,0,.29.29,0,0,1,.16.27.25.25,0,0,1,0,.09c0,.12-.06.25-.1.37a4.08,4.08,0,0,1-.9,1.63,1.74,1.74,0,0,1-1.23.64l-.17,0a1.37,1.37,0,0,1-1-.71,3.19,3.19,0,0,1-.43-1.73,4.46,4.46,0,0,1,.17-1.24,4.25,4.25,0,0,1,.85-1.67,1.75,1.75,0,0,1,1.3-.69,1.31,1.31,0,0,1,.55.13,1.76,1.76,0,0,1,.84,1.05.35.35,0,0,1,0,.14.3.3,0,0,1-.31.31h-.09a.29.29,0,0,1-.2-.2l0,0a1.42,1.42,0,0,0-.17-.35.83.83,0,0,0-.69-.41.8.8,0,0,0-.48.18,2.49,2.49,0,0,0-.78,1.13,4.19,4.19,0,0,0-.35,1.62,3,3,0,0,0,.25,1.28.85.85,0,0,0,.75.57,1.09,1.09,0,0,0,.7-.42,3.83,3.83,0,0,0,.74-1.34h-1c-.23,0-.34-.16-.35-.35l0-.11A.35.35,0,0,1,228.89,420.71Z" style="fill:#fafafa"></path><path d="M233.79,417.9a.51.51,0,0,1,0,.1c.06.21.4,2,1,5.35a.22.22,0,0,1,0,.08.32.32,0,0,1,0,.16.3.3,0,0,1-.26.16h-.05a.29.29,0,0,1-.24-.21l-.34-1.78h-1.77l-.86,1.78a.14.14,0,0,1,0,.06.39.39,0,0,1-.27.16.27.27,0,0,1-.17-.06.28.28,0,0,1-.14-.26.15.15,0,0,1,0-.09l.26-.58c1.24-2.71,2-4.31,2.23-4.8a.34.34,0,0,1,.3-.22A.3.3,0,0,1,233.79,417.9Zm-.38,1.19-1,2h1.35Z" style="fill:#fafafa"></path><path d="M238.61,423.75H236a.27.27,0,0,1-.17-.06c-.08-.05-.12-.16-.15-.32h0q0-.17.72-5.33a.5.5,0,0,1,0-.12.28.28,0,0,1,.28-.19.23.23,0,0,1,.14,0,.28.28,0,0,1,.16.27c0,.24-.08.72-.17,1.46-.3,2.28-.46,3.48-.47,3.61h2.21a.47.47,0,0,1,.17,0,.29.29,0,0,1,.2.29.44.44,0,0,1,0,.1A.36.36,0,0,1,238.61,423.75Z" style="fill:#fafafa"></path><path d="M242.17,417.9l0,.1c.06.21.4,2,1,5.35a.24.24,0,0,1,0,.08.47.47,0,0,1,0,.16.31.31,0,0,1-.26.16h-.05a.28.28,0,0,1-.24-.21l-.34-1.78h-1.78l-.85,1.78,0,.06a.36.36,0,0,1-.27.16.25.25,0,0,1-.16-.06.28.28,0,0,1-.13-.35c.06-.12.14-.32.27-.58q1.86-4.06,2.22-4.8a.34.34,0,0,1,.3-.22A.32.32,0,0,1,242.17,417.9Zm-.39,1.19-1,2h1.36Z" style="fill:#fafafa"></path><path d="M246.31,421c.21.56.36,1,.48,1.3.26.74.4,1.13.4,1.18a.3.3,0,0,1-.05.15.29.29,0,0,1-.26.15.31.31,0,0,1-.26-.21c0-.06,0-.1-.05-.14q-.21-.48-.69-1.83l-1.48,2a.37.37,0,0,1-.27.17.3.3,0,0,1-.16-.05.28.28,0,0,1-.15-.26v-.06a.72.72,0,0,1,.16-.25c.49-.64,1-1.4,1.63-2.28-.06-.18-.12-.34-.18-.49-.55-1.49-.83-2.26-.83-2.31a.37.37,0,0,1,0-.15.27.27,0,0,1,.25-.16.32.32,0,0,1,.3.17l.86,2.35,1.74-2.37a.39.39,0,0,1,.28-.15.33.33,0,0,1,.14,0,.3.3,0,0,1,.15.28.39.39,0,0,1,0,.14Z" style="fill:#fafafa"></path><path d="M252.76,417.76a.35.35,0,0,1,.14,0,.33.33,0,0,1,.17.27c-.43,3.37-.66,5.19-.71,5.46a3.31,3.31,0,0,1-.56,1.42,2,2,0,0,1-1.72.85,2.18,2.18,0,0,1-.84-.22,1.91,1.91,0,0,1-.92-.81.4.4,0,0,1,0-.15.32.32,0,0,1,0-.16.3.3,0,0,1,.51,0,1.68,1.68,0,0,0,1.33.76,1.33,1.33,0,0,0,1-.53,2.89,2.89,0,0,0,.58-1.63,1.48,1.48,0,0,1-.39.4,1.51,1.51,0,0,1-.93.31h-.18a1.42,1.42,0,0,1-1-.71,3.23,3.23,0,0,1-.44-1.74c0-.31,0-.64,0-1a21,21,0,0,1,.35-2.25.16.16,0,0,1,0-.09.27.27,0,0,1,.27-.21.29.29,0,0,1,.16,0,.27.27,0,0,1,.15.25c0,.16-.05.56-.14,1.19a16,16,0,0,0-.21,1.81,3.71,3.71,0,0,0,.23,1.41c.18.43.44.64.77.64h.11a1.43,1.43,0,0,0,.78-.63,3.8,3.8,0,0,0,.64-1.43l.4-3a.22.22,0,0,1,0-.13A.28.28,0,0,1,252.76,417.76Z" style="fill:#fafafa"></path><path d="M291.59,428.64c-.09,0-.16-3.56-.16-7.94s.07-7.94.16-7.94.16,3.55.16,7.94S291.68,428.64,291.59,428.64Z" style="fill:#f5f5f5"></path><path d="M220.92,428.64c-.09,0-.16-3.56-.16-7.94s.07-7.94.16-7.94.16,3.55.16,7.94S221,428.64,220.92,428.64Z" style="fill:#e0e0e0"></path><path d="M293.11,428.64c-.09,0-.16-3.56-.16-7.94s.07-7.94.16-7.94.15,3.55.15,7.94S293.19,428.64,293.11,428.64Z" style="fill:#f5f5f5"></path><path d="M219.5,428.64c-.08,0-.16-3.56-.16-7.94s.08-7.94.16-7.94.16,3.55.16,7.94S219.59,428.64,219.5,428.64Z" style="fill:#e0e0e0"></path><path d="M270.65,415.38v0l9.12,7.36.08.07-.1,0-1.21.32-7.71,2h0l-7-3-2-.84-.52-.23-.13-.06-.05,0,.05,0,.14,0,.52.22,2,.82,7,2.93h0l7.7-2,1.22-.32,0,.09-9.11-7.38h0v0" style="fill:#e0e0e0"></path><polygon points="278.94 421.57 279.44 422.04 280.1 421.89 279.81 422.51 280.16 423.1 279.48 423.01 279.02 423.52 278.9 422.85 278.27 422.57 278.87 422.25 278.94 421.57" style="fill:#e0e0e0"></polygon><polygon points="270.18 424.47 270.52 424.75 270.95 424.63 270.78 425.04 271.03 425.41 270.59 425.38 270.31 425.73 270.21 425.3 269.79 425.15 270.17 424.91 270.18 424.47" style="fill:#e0e0e0"></polygon><polygon points="260.51 420.5 261.05 420.53 261.39 420.11 261.52 420.63 262.03 420.82 261.57 421.11 261.56 421.65 261.14 421.31 260.62 421.46 260.81 420.95 260.51 420.5" style="fill:#e0e0e0"></polygon><polygon points="283.03 415.49 283.57 415.53 283.91 415.1 284.04 415.63 284.55 415.81 284.09 416.1 284.07 416.64 283.66 416.3 283.13 416.45 283.33 415.94 283.03 415.49" style="fill:#e0e0e0"></polygon><polygon points="270.21 415.14 270.55 415.16 270.77 414.88 270.85 415.22 271.18 415.34 270.89 415.53 270.87 415.87 270.61 415.65 270.27 415.75 270.4 415.42 270.21 415.14" style="fill:#e0e0e0"></polygon><path d="M283.79,415.87s-3-.06-6.59-.22-6.59-.31-6.59-.34,2.95.06,6.59.22S283.79,415.84,283.79,415.87Z" style="fill:#e0e0e0"></path><path d="M287.11,412.83H199.52c-1.15-2.61-1.43-5.08,0-7.29h87.59A8.45,8.45,0,0,1,287.11,412.83Z" style="fill:#e0e0e0"></path><rect x="217.66" y="407.62" width="47.45" height="2.65" style="fill:#ebebeb"></rect><path d="M202.88,412.87a2.55,2.55,0,0,1-.69-.88,6.49,6.49,0,0,1-.8-2.59,6.29,6.29,0,0,1,.34-2.69,2.64,2.64,0,0,1,.52-1,7,7,0,0,1-.31,1.06,7.4,7.4,0,0,0,.45,5.1A8.42,8.42,0,0,1,202.88,412.87Z" style="fill:#e0e0e0"></path><path d="M204.78,412.87a2.64,2.64,0,0,1-.7-.88,6.53,6.53,0,0,1-.46-5.28,2.56,2.56,0,0,1,.53-1s-.14.41-.31,1.06a7.68,7.68,0,0,0-.24,2.59,7.42,7.42,0,0,0,.68,2.51A9.88,9.88,0,0,1,204.78,412.87Z" style="fill:#e0e0e0"></path><path d="M283.56,412.7a14.79,14.79,0,0,0,.62-3.57,15,15,0,0,0-.57-3.57,6.5,6.5,0,0,1,.89,3.57A6.34,6.34,0,0,1,283.56,412.7Z" style="fill:#f5f5f5"></path><path d="M281.93,412.68c-.09,0,.28-1.56.27-3.49s-.37-3.47-.27-3.49a8.64,8.64,0,0,1,.59,3.49A8.26,8.26,0,0,1,281.93,412.68Z" style="fill:#f5f5f5"></path></g><g id="freepik--Blackboard--inject-7"><rect x="86.62" y="126.55" width="331.91" height="237.06" style="fill:#263238"></rect><rect x="94.51" y="136.02" width="313.77" height="218.48" style="fill:#455a64"></rect><path d="M408.27,354.5c0-1.73-.08-85.65-.21-218.48l.21.21-313.74.05h0l.26-.26c0,78.09,0,152.24,0,218.48l-.23-.24,313.76.24-313.76.24h-.24v-.24c0-66.24,0-140.39,0-218.48v-.26h.29l313.74.05h.21V136C408.36,268.85,408.28,352.78,408.27,354.5Z" style="fill:#263238"></path><rect x="75.81" y="363.6" width="360.96" height="9.43" style="fill:#263238"></rect><path d="M428.36,363.6c0,.15-64,.26-142.85.26s-142.87-.11-142.87-.26,64-.26,142.87-.26S428.36,363.46,428.36,363.6Z" style="fill:#455a64"></path><path d="M95.73,135.57a53.09,53.09,0,0,1-4.58-4.32,53.65,53.65,0,0,1-4.41-4.48,29.85,29.85,0,0,1,4.78,4.11A30.24,30.24,0,0,1,95.73,135.57Z" style="fill:#455a64"></path><path d="M418.55,127a46.5,46.5,0,0,1-4.83,5,47.91,47.91,0,0,1-5.2,4.69,46,46,0,0,1,4.83-5.06A48.2,48.2,0,0,1,418.55,127Z" style="fill:#455a64"></path><path d="M419.73,363.3a60,60,0,0,1-10.65-8.86,61.92,61.92,0,0,1,5.4,4.34A62.66,62.66,0,0,1,419.73,363.3Z" style="fill:#455a64"></path><path d="M363.37,250.5s0-.09,0-.26,0-.44,0-.77c0-.69,0-1.68,0-2.95,0-2.6,0-6.38-.06-11.17,0-9.6-.06-23.28-.11-39.69l.22.23-54.83,0h0l.26-.26c0,20.08,0,38.9,0,54.84l-.23-.22,39.69.11,11.17.06,2.95,0h1s-.07,0-.24,0h-.74l-2.91,0-11.12.06-39.83.11h-.22v-.23c0-15.94,0-34.76,0-54.84v-.26h.27l54.83,0h.23v.22c-.05,16.47-.09,30.2-.11,39.83,0,4.77-.05,8.53-.06,11.12q0,1.89,0,2.91c0,.32,0,.56,0,.74S363.38,250.51,363.37,250.5Z" style="fill:#fff"></path><path d="M363.37,250.5l.42-.29,1.26-.81,4.86-3.06,17.85-11.12-.09.17c0-14.31,0-33.27-.06-54l.26.26h-.16l-54-.06.1,0-18.41,10.37-5,2.81-1.32.72-.46.22.43-.28,1.3-.76,5-2.9,18.32-10.52.05,0h.05l54-.06h.42v.26c0,20.75-.05,39.71-.07,54v.11l-.09.06-18,11-4.91,3-1.29.76A4.85,4.85,0,0,1,363.37,250.5Z" style="fill:#fff"></path><path d="M387.87,181.37c.07.12-5.35,3.42-12.12,7.37s-12.3,7-12.38,6.92,5.36-3.42,12.12-7.37S387.79,181.25,387.87,181.37Z" style="fill:#fff"></path><path d="M311.14,248.25c.07.13-.46.56-1.18,1s-1.36.64-1.43.52.46-.56,1.17-1S311.06,248.13,311.14,248.25Z" style="fill:#fff"></path><path d="M316.34,245.27c.07.12-.45.56-1.17,1s-1.36.64-1.43.52.45-.56,1.17-1S316.27,245.14,316.34,245.27Z" style="fill:#fff"></path><path d="M321.54,242.28c.07.12-.45.56-1.17,1s-1.36.65-1.43.52.45-.56,1.17-1S321.47,242.15,321.54,242.28Z" style="fill:#fff"></path><path d="M326.75,239.29c.07.13-.46.56-1.18,1s-1.35.65-1.43.53.46-.56,1.18-1S326.67,239.17,326.75,239.29Z" style="fill:#fff"></path><path d="M332,236.3c.07.13-.45.56-1.17,1s-1.36.64-1.43.52.45-.56,1.17-1S331.88,236.18,332,236.3Z" style="fill:#fff"></path><path d="M333.27,231.05c.14,0,.25.67.25,1.5s-.13,1.5-.28,1.5-.25-.68-.24-1.5S333.12,231.05,333.27,231.05Z" style="fill:#fff"></path><path d="M333.31,225.05c.15,0,.26.67.25,1.5s-.12,1.5-.27,1.5-.25-.68-.25-1.5S333.17,225.05,333.31,225.05Z" style="fill:#fff"></path><path d="M333.36,219.05c.15,0,.26.67.25,1.5s-.13,1.5-.27,1.5-.26-.68-.25-1.5S333.22,219.05,333.36,219.05Z" style="fill:#fff"></path><path d="M333.41,213.05c.14,0,.25.67.25,1.5s-.13,1.5-.27,1.5-.26-.68-.25-1.5S333.27,213.05,333.41,213.05Z" style="fill:#fff"></path><path d="M333.46,207.05c.14,0,.25.67.24,1.5s-.12,1.5-.27,1.5-.25-.68-.25-1.5S333.31,207.05,333.46,207.05Z" style="fill:#fff"></path><path d="M333.5,201.05c.15,0,.26.67.25,1.5s-.13,1.5-.27,1.5-.26-.68-.25-1.5S333.36,201.05,333.5,201.05Z" style="fill:#fff"></path><path d="M333.55,195.05c.14,0,.26.67.25,1.5s-.13,1.5-.27,1.5-.26-.67-.25-1.5S333.41,195.05,333.55,195.05Z" style="fill:#fff"></path><path d="M333.6,189.05c.14,0,.25.67.25,1.5s-.13,1.5-.28,1.5-.25-.67-.24-1.5S333.45,189.05,333.6,189.05Z" style="fill:#fff"></path><path d="M333.64,183.05c.15,0,.26.67.25,1.5s-.12,1.5-.27,1.5-.25-.67-.25-1.5S333.5,183.05,333.64,183.05Z" style="fill:#fff"></path><path d="M384.87,235.39c0-.14.67-.26,1.5-.26s1.5.12,1.5.26-.67.26-1.5.26S384.87,235.53,384.87,235.39Z" style="fill:#fff"></path><path d="M378.87,235.39c0-.14.67-.26,1.5-.26s1.5.12,1.5.26-.67.26-1.5.26S378.87,235.53,378.87,235.39Z" style="fill:#fff"></path><path d="M372.87,235.39c0-.14.67-.26,1.5-.26s1.5.12,1.5.26-.67.26-1.5.26S372.87,235.53,372.87,235.39Z" style="fill:#fff"></path><path d="M366.87,235.39c0-.14.67-.26,1.5-.26s1.5.12,1.5.26-.67.26-1.5.26S366.87,235.53,366.87,235.39Z" style="fill:#fff"></path><path d="M360.87,235.39c0-.14.67-.26,1.5-.26s1.5.12,1.5.26-.67.26-1.5.26S360.87,235.53,360.87,235.39Z" style="fill:#fff"></path><path d="M354.87,235.39c0-.14.67-.26,1.5-.26s1.5.12,1.5.26-.67.26-1.5.26S354.87,235.53,354.87,235.39Z" style="fill:#fff"></path><path d="M348.87,235.39c0-.14.67-.26,1.5-.26s1.5.12,1.5.26-.67.26-1.5.26S348.87,235.53,348.87,235.39Z" style="fill:#fff"></path><path d="M342.87,235.39c0-.14.67-.26,1.5-.26s1.5.12,1.5.26-.67.26-1.5.26S342.87,235.53,342.87,235.39Z" style="fill:#fff"></path><path d="M336.87,235.39c0-.14.67-.26,1.5-.26s1.5.12,1.5.26-.67.26-1.5.26S336.87,235.53,336.87,235.39Z" style="fill:#fff"></path><path d="M333.23,235.39a.33.33,0,1,1,.32.26A.3.3,0,0,1,333.23,235.39Z" style="fill:#fff"></path><path d="M394.51,217.12a5.93,5.93,0,0,0,1.37-.06,4.27,4.27,0,0,0,2.84-2.14,5.75,5.75,0,0,0-.16-5.22,1.56,1.56,0,0,0-1.07-.86,1.86,1.86,0,0,0-1.4.37,6.56,6.56,0,0,0-1.74,2.91,13.44,13.44,0,0,0-.78,3.72h-.51c-.05-4-.08-7.44-.08-9.92,0-1.16,0-2.13,0-2.9a5.14,5.14,0,0,1,.07-1,4.43,4.43,0,0,1,.11,1c0,.78.07,1.75.13,2.91.08,2.47.18,5.94.26,9.91h-.51a13.77,13.77,0,0,1,.8-3.87,12.22,12.22,0,0,1,.75-1.69,4.31,4.31,0,0,1,1.17-1.45,2.38,2.38,0,0,1,1.8-.45,2.07,2.07,0,0,1,1.4,1.11,6,6,0,0,1,.06,5.63,4.36,4.36,0,0,1-3.13,2.17,3.53,3.53,0,0,1-1.06,0C394.62,217.19,394.5,217.14,394.51,217.12Z" style="fill:#fff"></path><path d="M367.92,175.11s0,.08-.13.19a1.64,1.64,0,0,1-.53.4,2.12,2.12,0,0,1-1.05.23,2.06,2.06,0,0,1-1.35-.57,4,4,0,0,1-.9-1.53,18.76,18.76,0,0,1-.64-1.92,21.77,21.77,0,0,1-.76-4.73l.49,0a18,18,0,0,1-.18,6.26,5.69,5.69,0,0,1-1.94,3.19,2.48,2.48,0,0,1-1.83.4,2.23,2.23,0,0,1-1.43-1.09,6.1,6.1,0,0,1,.11-5.71,6.21,6.21,0,0,1,2.85-2.64,5.09,5.09,0,0,1,1-.34c.24-.05.37-.06.37,0s-.49.15-1.28.57a6.18,6.18,0,0,0-2.61,2.62,6.06,6.06,0,0,0-.65,2.48,5.22,5.22,0,0,0,.61,2.81,1.78,1.78,0,0,0,1.13.85,1.9,1.9,0,0,0,1.44-.34,5.24,5.24,0,0,0,1.73-2.9,18.14,18.14,0,0,0,.19-6.08l.49,0a21.94,21.94,0,0,0,.67,4.64c.17.69.37,1.32.57,1.91a4,4,0,0,0,.78,1.44,2,2,0,0,0,2.12.41A4,4,0,0,0,367.92,175.11Z" style="fill:#fff"></path><path d="M275.58,236.36s0,.11.05.3l.09.89c.07.81.17,1.95.29,3.4.23,3,.58,7.24.6,12.56A71.59,71.59,0,0,1,274.49,272a46.9,46.9,0,0,1-4,10.28,40.27,40.27,0,0,1-7.14,9.45c-2.85,2.89-5.81,5.51-8.28,8.39a34.26,34.26,0,0,0-5.69,9.27,53.24,53.24,0,0,0-3.68,18.09c-.22,5.29,0,9.58.14,12.54.07,1.46.12,2.6.16,3.42,0,.36,0,.66,0,.88a1.5,1.5,0,0,1,0,.31,1.4,1.4,0,0,1,0-.3c0-.23-.05-.52-.09-.89-.06-.81-.15-1.95-.26-3.4-.18-3-.47-7.26-.3-12.57a53.13,53.13,0,0,1,3.6-18.26,34.58,34.58,0,0,1,5.75-9.42c2.5-2.92,5.47-5.56,8.3-8.43a40.26,40.26,0,0,0,7.07-9.32,47.45,47.45,0,0,0,4-10.16,72.76,72.76,0,0,0,2.21-18.39c0-5.3-.27-9.58-.43-12.54-.08-1.46-.15-2.6-.2-3.41,0-.37,0-.66,0-.89A1.5,1.5,0,0,1,275.58,236.36Z" style="fill:#fff"></path><path d="M264.39,253.42a17.26,17.26,0,0,1-1.24-2.68c-.71-1.67-1.65-4-2.67-6.59l-.16-.4.47,0A28.3,28.3,0,0,0,258.3,250c-.45,1.66-.6,2.72-.68,2.71A9.64,9.64,0,0,1,258,250a23.81,23.81,0,0,1,2.39-6.42l.27-.49.2.52c.05.13.1.27.16.4,1,2.59,1.9,4.94,2.52,6.65A15.85,15.85,0,0,1,264.39,253.42Z" style="fill:#fff"></path><path d="M259.3,348.1c-.14,0,.15-23.39.66-52.23s1-52.23,1.18-52.23-.15,23.39-.66,52.24S259.45,348.11,259.3,348.1Z" style="fill:#fff"></path><path d="M281.54,294c0,.14-8.18.26-18.26.26S245,294.18,245,294s8.17-.26,18.26-.26S281.54,293.9,281.54,294Z" style="fill:#fff"></path><path d="M277.48,298.05a19.54,19.54,0,0,1,2.73-1.33c1.71-.76,4.09-1.79,6.74-2.9l0,.49-.3-.1c-2.81-.93-5.33-1.8-7.16-2.46a18.12,18.12,0,0,1-2.91-1.16,19,19,0,0,1,3,.81c1.85.57,4.4,1.38,7.2,2.31l.31.1.66.22-.65.27c-2.65,1.11-5.06,2.08-6.8,2.76A16.36,16.36,0,0,1,277.48,298.05Z" style="fill:#fff"></path><path d="M281.63,286.81s-.06.15-.24.36l-.59.69.43-.83c.34-.65,1.23-2,2.32-3.61a21.48,21.48,0,0,1,2.9-3.73,22.26,22.26,0,0,1-2.47,4c-1.09,1.57-2.08,2.88-2.57,3.43l-.16-.14C281.47,286.85,281.61,286.78,281.63,286.81Z" style="fill:#fff"></path><path d="M287.9,286.1a18.77,18.77,0,0,1-3.29-3.05,20,20,0,0,1-2.91-3.41,18.77,18.77,0,0,1,3.29,3.05A20.4,20.4,0,0,1,287.9,286.1Z" style="fill:#fff"></path><path d="M254.67,284.68s.25-.22.79-.11a2,2,0,0,1,1.42,1.59,5.86,5.86,0,0,1-.56,3.13,3.8,3.8,0,0,1-1.15,1.56,2.27,2.27,0,0,1-3.62-1,3.54,3.54,0,0,1-.17-1.94,4.82,4.82,0,0,1,1.5-2.81,2.5,2.5,0,0,1,2.07-.56c.51.12.72.35.7.36s-.26-.12-.73-.16a2.38,2.38,0,0,0-1.8.64,4.5,4.5,0,0,0-1.26,2.61,3.05,3.05,0,0,0,.16,1.66,2,2,0,0,0,1.21,1.15,1.92,1.92,0,0,0,1.63-.37,3.34,3.34,0,0,0,1-1.34,5.76,5.76,0,0,0,.64-2.88,1.77,1.77,0,0,0-1.12-1.45A2.56,2.56,0,0,0,254.67,284.68Z" style="fill:#fff"></path><path d="M249.62,250.73c-.12.08-.88-.77-1.71-1.91a6.4,6.4,0,0,1-1.28-2.22c.11-.08.88.77,1.7,1.91A6.53,6.53,0,0,1,249.62,250.73Z" style="fill:#fff"></path><path d="M247.44,256.06a30.29,30.29,0,0,1,1.73-5.38,30.34,30.34,0,0,1,2.22-5.2,31.32,31.32,0,0,1-1.73,5.38A32.33,32.33,0,0,1,247.44,256.06Z" style="fill:#fff"></path><path d="M306.67,296.06a29.89,29.89,0,0,1-5.3-5.93,30.74,30.74,0,0,1,5.3,5.93Z" style="fill:#fff"></path><path d="M305.5,304.37a9.54,9.54,0,0,1,.47-2.32c.37-1.42.95-3.36,1.7-5.46s1.53-4,2.14-5.3a9.13,9.13,0,0,1,1.11-2.1,12.76,12.76,0,0,1-.77,2.24c-.52,1.36-1.24,3.24-2,5.33s-1.38,4-1.84,5.39A12.39,12.39,0,0,1,305.5,304.37Z" style="fill:#fff"></path><path d="M324.22,293.47a32.69,32.69,0,0,1-8.23,0,31.49,31.49,0,0,1,8.23,0Z" style="fill:#fff"></path><path d="M325.15,300.19a43.52,43.52,0,0,1-9.5,0,43.52,43.52,0,0,1,9.5,0Z" style="fill:#fff"></path><path d="M338,303.34a67.92,67.92,0,0,1-7.77-8.94,33.68,33.68,0,0,1,4.08,4.3A34.83,34.83,0,0,1,338,303.34Z" style="fill:#fff"></path><path d="M337.44,293.12a10.93,10.93,0,0,1-1.1,2.06L333.48,300l-2.84,4.84a12.58,12.58,0,0,1-1.27,2,9.22,9.22,0,0,1,.94-2.14c.66-1.28,1.61-3,2.72-4.93s2.19-3.57,3-4.76A9.78,9.78,0,0,1,337.44,293.12Z" style="fill:#fff"></path><path d="M345.19,290.36c0,.12-2.45-.35-6.07-.19l-.44,0,.24-.37c.87-1.38,1.86-2.93,2.9-4.59.81-1.34,1.93-2.59,1.63-3.86a1.39,1.39,0,0,0-1.13-1.11,2.38,2.38,0,0,0-1.53.22,4.82,4.82,0,0,0-1.63,1.7,3.57,3.57,0,0,1-.52.75,2.83,2.83,0,0,1,.34-.85,4.68,4.68,0,0,1,1.64-1.92,2.69,2.69,0,0,1,1.78-.33,1.86,1.86,0,0,1,1.52,1.44,3.2,3.2,0,0,1-.42,2.25c-.38.68-.81,1.31-1.24,2l-3,4.56-.2-.35a25.52,25.52,0,0,1,4.44.26A6.05,6.05,0,0,1,345.19,290.36Z" style="fill:#fff"></path><path d="M370.44,282.74s.34.23,1,.49a4.05,4.05,0,0,0,2.91,0,3.38,3.38,0,0,0,2.08-3.45,2.73,2.73,0,0,0-1.29-2,2.78,2.78,0,0,0-2.55-.28l-.19-.49.32-.1a6.55,6.55,0,0,0,2.53-1.31,2.42,2.42,0,0,0,.84-2.26,2.48,2.48,0,0,0-1.42-1.69,3.08,3.08,0,0,0-2-.13,4.6,4.6,0,0,0-2.46,1.73c-.44.59-.63,1-.67.95a3.21,3.21,0,0,1,.5-1.06,4.6,4.6,0,0,1,2.53-2,3.46,3.46,0,0,1,2.28.09,2.75,2.75,0,0,1,.77,4.72,6.85,6.85,0,0,1-2.72,1.43l-.32.11-.18-.49a3.36,3.36,0,0,1,4.53,2.75,3.77,3.77,0,0,1-2.43,3.83,4.13,4.13,0,0,1-3.12-.19,3.47,3.47,0,0,1-.72-.46C370.5,282.83,370.43,282.75,370.44,282.74Z" style="fill:#fff"></path><path d="M385.66,270.52a.64.64,0,0,1,.42-.16,1.38,1.38,0,0,1,1.12.62,1.66,1.66,0,0,1,.32.92,2.43,2.43,0,0,1-.3,1.1,8.3,8.3,0,0,1-1.81,2,22.25,22.25,0,0,1-2.56,2,3.28,3.28,0,0,0-1.81,2.74,3.12,3.12,0,0,0,2.17,2.8,4.35,4.35,0,0,0,3.93-.52,2.56,2.56,0,0,0,1.09-1.62,2.37,2.37,0,0,0-.52-1.82,6.42,6.42,0,0,0-3.31-2,7.64,7.64,0,0,1-3.28-1.81,3.28,3.28,0,0,1-.85-1.53,2.53,2.53,0,0,1,.16-1.62,3.76,3.76,0,0,1,1.93-1.89,6.39,6.39,0,0,1,2-.5c.55-.05,1-.06,1.27-.06a1.25,1.25,0,0,1,.44,0s-.61.07-1.68.23a6.69,6.69,0,0,0-1.87.56,3.53,3.53,0,0,0-1.72,1.77,2.48,2.48,0,0,0,.67,2.72,7.23,7.23,0,0,0,3.12,1.65,6.84,6.84,0,0,1,3.56,2.12,2.88,2.88,0,0,1,.62,2.21,3.09,3.09,0,0,1-1.29,2A4.88,4.88,0,0,1,383,283a3.83,3.83,0,0,1-1.78-1.28,3.53,3.53,0,0,1-.7-2,2.89,2.89,0,0,1,.65-1.91,6,6,0,0,1,1.4-1.2,26.22,26.22,0,0,0,2.56-1.89,7.93,7.93,0,0,0,1.79-1.86,1.58,1.58,0,0,0,.08-1.75,1.3,1.3,0,0,0-1-.64A1.77,1.77,0,0,0,385.66,270.52Z" style="fill:#fff"></path><path d="M395.73,278.5a5.85,5.85,0,0,1-1.75.38l-1.91.26a9.83,9.83,0,0,1-1.18.1,1.42,1.42,0,0,1-.7-.2,1,1,0,0,1-.43-.69,2.56,2.56,0,0,1,.33-1.31c.15-.35.31-.7.46-1l.81-1.75a5.76,5.76,0,0,1,.87-1.56,6.48,6.48,0,0,1-.53,1.7c-.23.58-.47,1.18-.71,1.8-.14.35-.29.7-.44,1.05a2.33,2.33,0,0,0-.27,1c0,.29.29.43.64.45a10.32,10.32,0,0,0,1.1-.07l1.92-.15A6.32,6.32,0,0,1,395.73,278.5Z" style="fill:#fff"></path><path d="M396.69,283.89a37.9,37.9,0,0,1-.75-6.31,38,38,0,0,1-.23-6.34,39.18,39.18,0,0,1,.75,6.3A39.44,39.44,0,0,1,396.69,283.89Z" style="fill:#fff"></path><path d="M375.54,302.8c.06,0,.11.4.17,1.11h-.28c-.18-1.72-.38-3.7-.61-6-.42-3.9-.88-7.06-.74-7.08a7.45,7.45,0,0,1,.52,2c.25,1.27.52,3,.73,5a59.3,59.3,0,0,1,.38,6l-.28,0A3.29,3.29,0,0,1,375.54,302.8Z" style="fill:#fff"></path><path d="M387.06,289.73a22.35,22.35,0,0,1-6.54,1.84,11.62,11.62,0,0,1,3.2-1.17A11.2,11.2,0,0,1,387.06,289.73Z" style="fill:#fff"></path><path d="M380.3,301.55a5.86,5.86,0,0,1,.8.16,4.44,4.44,0,0,0,2.14-.2,4.21,4.21,0,0,0,2.39-2,3.23,3.23,0,0,0,.39-1.77,2.23,2.23,0,0,0-.83-1.64,2.12,2.12,0,0,0-2.08-.21,8,8,0,0,0-1.85,1.08l-.34.25,0-.41a25.39,25.39,0,0,1-.05-4.23,5.84,5.84,0,0,1,.23-1.61c.13,0-.11,2.37.29,5.79l-.38-.16a7.68,7.68,0,0,1,2-1.18,2.61,2.61,0,0,1,2.57.27,2.77,2.77,0,0,1,1,2,3.61,3.61,0,0,1-.48,2,4.47,4.47,0,0,1-2.69,2.1,4.39,4.39,0,0,1-2.3.05C380.53,301.75,380.28,301.57,380.3,301.55Z" style="fill:#fff"></path><path d="M366.14,290.25c0,.15-.94.26-2.09.26s-2.09-.11-2.09-.26a8.53,8.53,0,0,1,4.18,0Z" style="fill:#fff"></path><path d="M136.85,294.78c-.15,0-.26-21.84-.26-48.79s.11-48.79.26-48.79.26,21.84.26,48.79S137,294.78,136.85,294.78Z" style="fill:#fff"></path><path d="M139.77,198.05a42.17,42.17,0,0,1-3.32-5.67l.47,0,0,.12a42.27,42.27,0,0,1-2.84,6.08,44.27,44.27,0,0,1,2.36-6.28l.05-.12.21-.5.25.47A41.55,41.55,0,0,1,139.77,198.05Z" style="fill:#fff"></path><path d="M136.31,185.68c-.09.11-.89-.42-1.53-1.39s-.8-1.92-.67-1.95.51.76,1.11,1.66S136.4,185.57,136.31,185.68Z" style="fill:#fff"></path><path d="M134.77,188.49A20,20,0,0,1,136,185a19.72,19.72,0,0,1,1.41-3.41,9.88,9.88,0,0,1-.93,3.6A10,10,0,0,1,134.77,188.49Z" style="fill:#fff"></path><path d="M129.86,210.05a28.5,28.5,0,0,0,.89-3,29.44,29.44,0,0,0,.07-3.12,5.57,5.57,0,0,1-1,6.12Z" style="fill:#fff"></path><path d="M130.82,206c.05,0-.13.43-.75.58a1.46,1.46,0,1,1-.13-2.88c.63.09.84.47.79.5s-.32-.16-.81-.13a1.07,1.07,0,1,0,.1,2.14C130.51,206.16,130.76,205.92,130.82,206Z" style="fill:#fff"></path><path d="M212.81,287.85c0,.15-18.69.26-41.74.26s-41.75-.11-41.75-.26,18.69-.26,41.75-.26S212.81,287.71,212.81,287.85Z" style="fill:#fff"></path><path d="M213.67,287.75a12.49,12.49,0,0,1-3.44-1.09,12.91,12.91,0,0,1-3.25-1.58,24.81,24.81,0,0,1,6.69,2.67Z" style="fill:#fff"></path><path d="M214.58,288.06a9.12,9.12,0,0,1-2.76,1.24,9.31,9.31,0,0,1-2.94.76,17.51,17.51,0,0,1,5.7-2Z" style="fill:#fff"></path><path d="M132.93,290.5a2.64,2.64,0,0,1,1.08,1.74,3.76,3.76,0,0,1-.17,2.26,2.58,2.58,0,0,1-.84,1.13,1.42,1.42,0,0,1-1.58.06,3,3,0,0,1-1.2-2.53,2.63,2.63,0,0,1,.92-2.1,2.14,2.14,0,0,1,1.47-.47c.37,0,.54.17.52.19s-.2,0-.52,0a2.12,2.12,0,0,0-1.23.55,2.34,2.34,0,0,0-.68,1.81,2.59,2.59,0,0,0,1,2.1.9.9,0,0,0,1,0,2.14,2.14,0,0,0,.69-.9,3.5,3.5,0,0,0,.24-2A6.32,6.32,0,0,0,132.93,290.5Z" style="fill:#fff"></path><path d="M200.91,291.6s.3-.17.7.17a1,1,0,0,1,.35.83,1.7,1.7,0,0,1-.49,1.07c-.59.65-1.66.89-2.16,1.69a1.41,1.41,0,0,0,0,1.35,1.33,1.33,0,0,0,1.27.63,1.31,1.31,0,0,0,1.1-.9,1.37,1.37,0,0,0-.27-1.33,3.56,3.56,0,0,0-1.1-.88,1.72,1.72,0,0,1-1-1,1.42,1.42,0,0,1,.27-1.17,1.58,1.58,0,0,1,.71-.51,1.13,1.13,0,0,1,.71-.11c0,.05-.25.09-.63.29a1.6,1.6,0,0,0-.55.5,1.08,1.08,0,0,0-.15.9c.16.66,1.4.76,2.12,1.7a1.88,1.88,0,0,1,.38,1.8,1.8,1.8,0,0,1-1.53,1.25,1.82,1.82,0,0,1-1.76-.9,1.85,1.85,0,0,1,0-1.85,3.17,3.17,0,0,1,1.24-1,5.21,5.21,0,0,0,1.07-.68,1.4,1.4,0,0,0,.46-.83.85.85,0,0,0-.2-.67C201.19,291.59,200.9,291.65,200.91,291.6Z" style="fill:#fff"></path><path d="M200.67,289.65a10.39,10.39,0,0,1,0-4.62,10.39,10.39,0,0,1,0,4.62Z" style="fill:#fff"></path><path d="M223,288a4.19,4.19,0,0,1-1.43.22l-1.57.09a.58.58,0,0,1-.35-.07.43.43,0,0,1-.18-.46.91.91,0,0,1,.32-.49l.69-.71a2.28,2.28,0,0,0,.84-1.47.93.93,0,0,0-.65-1,1.52,1.52,0,0,0-.91.17c-.23.1-.36.15-.38.12s.07-.14.28-.29a1.53,1.53,0,0,1,1.07-.37,1.32,1.32,0,0,1,1.07,1.34,2.57,2.57,0,0,1-.93,1.81l-.7.7c-.13.12-.22.22-.22.26s-.09,0-.08,0h0a.14.14,0,0,0,0-.06H220l1.57,0A4.23,4.23,0,0,1,223,288Z" style="fill:#fff"></path><path d="M148,287.85a12.53,12.53,0,0,1-.07-1.43c0-1,0-2.27-.07-3.84-.05-3.24-.11-7.73-.12-12.86l.26.25h-4.85c.51-.52.14-.14.26-.26h0v1.36c0,.45,0,.91,0,1.35v2.65c0,1.72,0,3.36,0,4.91,0,3.06-.06,5.73-.08,7.84l-.15-.16,3.52.09c.84,0,1.31.05,1.33.07a9.92,9.92,0,0,1-1.23.07l-3.62.09H143v-.16c0-2.11-.05-4.78-.08-7.84,0-1.55,0-3.19,0-4.91v-5.36h0c.11-.12-.27.26.26-.26h5.1v.26c0,5.24-.06,9.81-.11,13,0,1.54-.06,2.81-.08,3.78A10.45,10.45,0,0,1,148,287.85Z" style="fill:#fff"></path><path d="M194.15,287.86a2.54,2.54,0,0,1,0-.56q0-.6,0-1.53c0-1.38-.05-3.27-.08-5.6-.05-4.74-.1-11.31-.11-18.75l.26.25H189.3c.51-.52.14-.14.25-.26h0v8.06c0,2.57,0,5,0,7.28,0,4.49-.07,8.29-.09,11.09l-.14-.14,3.55.08,1,0,.35,0s-.41,0-1.23.06l-3.63.07h-.13v-.14c0-2.8-.06-6.6-.09-11.09,0-2.26,0-4.71,0-7.28v-4c0-.67,0-1.35,0-2v-2.06h0l.27-.26h5.1v.26c0,7.55-.06,14.2-.11,18.93,0,2.31-.06,4.18-.08,5.55q0,.89,0,1.47A2.83,2.83,0,0,1,194.15,287.86Z" style="fill:#fff"></path><path d="M159.64,287.85a6.56,6.56,0,0,1,0-.68c0-.49,0-1.12,0-1.91,0-1.7,0-4.07-.08-7,0-5.94-.06-14.12-.11-23.36l.26.26h-4.85c.52-.52.14-.14.26-.25h0v5.23c0,1.71,0,3.39,0,5,0,3.26,0,6.35,0,9.18,0,5.63-.07,10.28-.1,13.49l-.12-.12,3.57.07.94,0,.34,0a.94.94,0,0,1-.29,0l-.92,0-3.64.07h-.13v-.13c0-3.21,0-7.86-.1-13.49,0-2.83,0-5.92,0-9.18,0-1.63,0-3.31,0-5v-5.23h0c.11-.12-.26.25.26-.27h5.11v.26c-.05,9.31-.09,17.56-.11,23.54,0,2.9-.06,5.25-.08,6.93,0,.77,0,1.38,0,1.85A4.52,4.52,0,0,1,159.64,287.85Z" style="fill:#fff"></path><path d="M171.07,287.75a1.58,1.58,0,0,1,0-.28c0-.2,0-.45,0-.77,0-.72,0-1.7,0-3,0-2.6-.05-6.29-.08-10.87,0-9.19-.07-21.9-.11-36.16l.26.26h-4.85c.51-.52.14-.13.26-.25V241c0,1.39,0,2.78,0,4.15v8c0,5.17,0,10,0,14.45-.05,8.79-.08,15.83-.11,20.2l-.1-.1,3.57.06.94,0,.34,0-.3,0-.92,0-3.63.06h-.11v-.11c0-4.37-.06-11.41-.11-20.2,0-4.42,0-9.28,0-14.45q0-3.9,0-8v-8.38c.11-.12-.27.25.26-.27h5.11v.26c-.05,14.34-.08,27.11-.11,36.35,0,4.55-.06,8.23-.08,10.81,0,1.23,0,2.2,0,2.9,0,.3,0,.55,0,.74S171.07,287.76,171.07,287.75Z" style="fill:#fff"></path><path d="M182.77,287.75s0-.16,0-.46,0-.75,0-1.31c0-1.16,0-2.84,0-5,0-4.35,0-10.62-.08-18.38,0-15.53-.06-37-.11-61l.26.26h-4.84c.51-.52.14-.13.25-.24v14.82c0,4.82,0,9.52,0,14.06,0,9.08,0,17.51,0,25-.06,15-.1,26.41-.13,32.22l-.08-.08,3.64.05.9,0h.31a1.21,1.21,0,0,1-.28,0l-.89,0-3.68,0h-.08v-.08c0-5.81-.07-17.21-.13-32.22,0-7.53,0-16,0-25,0-4.54,0-9.24,0-14.06V201.61c.12-.12-.26.24.27-.28H183v.26c0,24.06-.08,45.62-.1,61.2,0,7.73-.06,14-.08,18.32,0,2.13,0,3.79,0,4.95l0,1.27A1.83,1.83,0,0,1,182.77,287.75Z" style="fill:#fff"></path><path d="M264,161.64l.53.16c.35.13.88.28,1.55.55a30.39,30.39,0,0,1,5.58,2.91A30.83,30.83,0,0,1,279,172a27.24,27.24,0,0,1,5.48,11.94,26.62,26.62,0,0,1-2,15.72,24.54,24.54,0,0,1-5.1,7.33,23.26,23.26,0,0,1-3.65,2.94c-.69.4-1.37.83-2.09,1.19s-1.44.72-2.21,1c-6.11,2.42-13.13,2.52-20.11,1.86-3.5-.34-7-.85-10.64-1.41a64.88,64.88,0,0,1-10.78-2.5,27.43,27.43,0,0,1-9.65-5.42,21.51,21.51,0,0,1-3.52-4.17,22.82,22.82,0,0,1-2.25-4.87,25.51,25.51,0,0,1-1-10.33,27.65,27.65,0,0,1,2.83-9.54,31.77,31.77,0,0,1,13-12.78,43.13,43.13,0,0,1,15.2-4.85,58.93,58.93,0,0,1,13.19-.08,86.12,86.12,0,0,1,9.83,1.61c2.67.59,4.72,1.15,6.11,1.53l1.57.46.53.17s-.19,0-.54-.12l-1.59-.41c-1.39-.35-3.45-.87-6.12-1.43a88.41,88.41,0,0,0-9.82-1.52,58.59,58.59,0,0,0-13.11.16,43,43,0,0,0-15.05,4.86,31.46,31.46,0,0,0-12.76,12.62,27.16,27.16,0,0,0-2.77,9.37,25.16,25.16,0,0,0,1,10.12,22,22,0,0,0,2.19,4.75,20.8,20.8,0,0,0,3.44,4.06,26.94,26.94,0,0,0,9.47,5.32A64.88,64.88,0,0,0,238.73,212c3.58.56,7.12,1.07,10.61,1.41,6.94.67,13.89.57,19.88-1.8a23.27,23.27,0,0,0,12.84-12.18A26.32,26.32,0,0,0,284.13,184a27.23,27.23,0,0,0-5.35-11.82,30.88,30.88,0,0,0-7.2-6.74,33.16,33.16,0,0,0-5.51-3c-.66-.28-1.18-.45-1.53-.59S264,161.64,264,161.64Z" style="fill:#fff"></path><path d="M229.09,195.46a4.1,4.1,0,0,1-1.07.13c-.69,0-1.69.1-2.92.15l-1,0a3.56,3.56,0,0,1-1.11-.05.87.87,0,0,1-.55-.43,1.55,1.55,0,0,1-.18-.63l-.08-1.2c-.09-1.64-.2-3.42-.31-5.29s-.22-3.65-.23-5.31a4.77,4.77,0,0,1,.55-2.33,3.27,3.27,0,0,1,1.6-1.37,6.47,6.47,0,0,1,2.95-.32,3,3,0,0,1,1.06.19,6.45,6.45,0,0,1-1.07,0,6.87,6.87,0,0,0-2.79.46,2.91,2.91,0,0,0-1.37,1.24,4.52,4.52,0,0,0-.45,2.13c0,1.59.19,3.4.27,5.27s.19,3.65.27,5.29c.08.78-.09,1.75.46,1.88a3.75,3.75,0,0,0,1,.06h1c1.23,0,2.22,0,2.91,0A4.78,4.78,0,0,1,229.09,195.46Z" style="fill:#fff"></path><path d="M227.61,186.89a7.51,7.51,0,0,1-2.72.31,7.29,7.29,0,0,1-2.73-.2,7.69,7.69,0,0,1,2.72-.32A7.13,7.13,0,0,1,227.61,186.89Z" style="fill:#fff"></path><path d="M241.24,184.46a24.62,24.62,0,0,1-4.14.21,26.21,26.21,0,0,1-4.15.05,12.49,12.49,0,0,1,4.13-.57A12.7,12.7,0,0,1,241.24,184.46Z" style="fill:#fff"></path><path d="M242,190.72a13.26,13.26,0,0,1-4.1.28,13.06,13.06,0,0,1-4.07-.48,21,21,0,0,1,4.09,0A20.9,20.9,0,0,1,242,190.72Z" style="fill:#fff"></path><path d="M264,194.48s0-.57,0-1.6a15.91,15.91,0,0,0-.79-4.31,4.38,4.38,0,0,0-1.51-2.47,1.31,1.31,0,0,0-1.43.1,3.48,3.48,0,0,0-1.08,1.35c-1.16,2.24-1.32,5.12-1.33,8.13l-.51,0a34.75,34.75,0,0,0-.07-6,23.1,23.1,0,0,0-.35-2.42,3.08,3.08,0,0,0-1.1-1.89,1.64,1.64,0,0,0-1.91,0,2.88,2.88,0,0,0-1.2,1.65,11.19,11.19,0,0,0-.37,2.08c-.08.69-.14,1.37-.17,2a35.66,35.66,0,0,0,0,3.73l-.4,0c-.11-2.94-.2-5.35-.27-7.11,0-.79,0-1.44,0-1.94a2.94,2.94,0,0,1,0-.68,3,3,0,0,1,.09.67c0,.51.09,1.15.15,1.94.11,1.76.26,4.17.45,7.1l-.4,0a33.44,33.44,0,0,1-.05-3.78c0-.67.08-1.36.15-2.06a11.61,11.61,0,0,1,.38-2.18,3.42,3.42,0,0,1,1.39-1.93,2.4,2.4,0,0,1,1.24-.37,2.2,2.2,0,0,1,1.24.44,3.55,3.55,0,0,1,1.3,2.18,23.36,23.36,0,0,1,.37,2.49,34.78,34.78,0,0,1,.06,6.11l-.51,0c0-3,.2-6,1.45-8.32a3.93,3.93,0,0,1,1.24-1.5,1.73,1.73,0,0,1,1.85-.09,4.71,4.71,0,0,1,1.64,2.71,15.2,15.2,0,0,1,.65,4.41,10.36,10.36,0,0,1-.07,1.19A1.25,1.25,0,0,1,264,194.48Z" style="fill:#fff"></path><path d="M275.51,193.65a1.8,1.8,0,0,1-.63.44,4.86,4.86,0,0,1-2,.5,5.39,5.39,0,0,1-3-.82,5.3,5.3,0,0,1-1.68-6.93,5.34,5.34,0,0,1,2.3-2.1,5,5,0,0,1,2-.49,1.52,1.52,0,0,1,.76.11,7.4,7.4,0,0,0-2.63.7,5.2,5.2,0,0,0-2.05,2,4.95,4.95,0,0,0,1.52,6.29,5.19,5.19,0,0,0,2.75.85A7.36,7.36,0,0,0,275.51,193.65Z" style="fill:#fff"></path><path d="M278.6,178.81a27.75,27.75,0,0,0-5.83,1l-.88.29.65-.67a17.66,17.66,0,0,0,3.25-4,6,6,0,0,0,.69-4c-.14-.6-.51-1.09-1-1.11a3.12,3.12,0,0,0-1.47.41,5.38,5.38,0,0,0-1.81,1.45c-.35.43-.5.71-.53.69s.05-.33.37-.81a5,5,0,0,1,1.8-1.66,3.54,3.54,0,0,1,1.67-.51,1.37,1.37,0,0,1,1,.46,2.31,2.31,0,0,1,.49,1,6.21,6.21,0,0,1-.69,4.39,16.64,16.64,0,0,1-3.39,4.05l-.23-.39a17.11,17.11,0,0,1,4.31-.69A5.7,5.7,0,0,1,278.6,178.81Z" style="fill:#fff"></path><path d="M392.63,300.67a4.66,4.66,0,0,1,.87-.25,7,7,0,0,0,2.18-1,4.25,4.25,0,0,0,1.8-2.85,3.21,3.21,0,0,0-.39-1.92,2.4,2.4,0,0,0-1.63-1.2,2.21,2.21,0,0,0-2,.58l-.37-.35a10.09,10.09,0,0,1,1.56-1.11,2.45,2.45,0,0,0,1-1.15,1,1,0,0,0-.23-1.17,1.6,1.6,0,0,0-1.1-.37,3.38,3.38,0,0,0-1.64.69c-.35.25-.55.4-.57.37s.13-.21.46-.51a3.17,3.17,0,0,1,1.73-.88,1.92,1.92,0,0,1,1.37.4,1.43,1.43,0,0,1,.4,1.62,2.87,2.87,0,0,1-1.18,1.4,9.42,9.42,0,0,0-1.46,1.06l-.37-.35a2.7,2.7,0,0,1,2.51-.74,2.89,2.89,0,0,1,2,1.46,3.56,3.56,0,0,1,.42,2.23,4.53,4.53,0,0,1-2.06,3.09,6.13,6.13,0,0,1-2.34.89A2.5,2.5,0,0,1,392.63,300.67Z" style="fill:#fff"></path><path d="M405.5,305.57c0,.14-7.83,1.37-17.53,2.75s-17.58,2.37-17.6,2.23,7.83-1.38,17.53-2.75S405.48,305.43,405.5,305.57Z" style="fill:#fff"></path><path d="M342.78,310.76c0,.14-7.75,1.05-17.35,2S308,314.45,308,314.31s7.75-1.06,17.35-2S342.77,310.62,342.78,310.76Z" style="fill:#fff"></path><path d="M344.71,315.09c0,.14-7.27,1.09-16.26,2.11s-16.3,1.73-16.32,1.59,7.26-1.09,16.26-2.11S344.69,315,344.71,315.09Z" style="fill:#fff"></path><rect x="216" y="360.05" width="34.41" height="3.75" style="fill:#fafafa"></rect><path d="M263.9,320.23v43.52h74.82Zm11.48,17.52,31.1,18.42h-31.1Z" style="fill:#3F51B5"></path><path d="M271.09,324.41a8.73,8.73,0,0,1-1.35,2.66,8.44,8.44,0,0,1-1.79,2.39,17.25,17.25,0,0,1,3.14-5Z" style="fill:#263238"></path><path d="M282.19,330.79a8.43,8.43,0,0,1-1.33,2.59,8.26,8.26,0,0,1-1.78,2.32,16.76,16.76,0,0,1,3.11-4.91Z" style="fill:#263238"></path><path d="M293.29,337.18a8.58,8.58,0,0,1-1.6,2.44,8.38,8.38,0,0,1-2,2.11,8.41,8.41,0,0,1,1.59-2.44C292.28,338,293.17,337.09,293.29,337.18Z" style="fill:#263238"></path><path d="M304.19,343.81a8.33,8.33,0,0,1-1.6,2.44,8.17,8.17,0,0,1-2,2.11,8.3,8.3,0,0,1,1.59-2.43C303.18,344.67,304.07,343.72,304.19,343.81Z" style="fill:#263238"></path><path d="M315.58,350.34a8.79,8.79,0,0,1-1.47,2.6,8.54,8.54,0,0,1-1.89,2.31,8.66,8.66,0,0,1,1.47-2.6A8.54,8.54,0,0,1,315.58,350.34Z" style="fill:#263238"></path><path d="M327.42,357.21a7.61,7.61,0,0,1-1.32,2.47,7.75,7.75,0,0,1-1.74,2.2,7.33,7.33,0,0,1,1.31-2.48A7.74,7.74,0,0,1,327.42,357.21Z" style="fill:#263238"></path><path d="M274.55,326.42c.12.08-.13.7-.56,1.4s-.88,1.19-1,1.12.13-.7.56-1.4S274.43,326.35,274.55,326.42Z" style="fill:#263238"></path><path d="M278.19,328.45c.12.08-.13.7-.56,1.4s-.88,1.19-1,1.11.13-.7.56-1.39S278.07,328.37,278.19,328.45Z" style="fill:#263238"></path><path d="M286.28,333.21c.12.07-.13.7-.56,1.39s-.88,1.2-1,1.12.13-.7.56-1.39S286.16,333.13,286.28,333.21Z" style="fill:#263238"></path><path d="M289.92,335.24c.12.07-.13.7-.56,1.39s-.88,1.2-1,1.12.13-.7.56-1.39S289.8,335.16,289.92,335.24Z" style="fill:#263238"></path><path d="M297.23,339.77c.13.08-.12.7-.56,1.39s-.87,1.2-1,1.12.13-.7.56-1.39S297.11,339.69,297.23,339.77Z" style="fill:#263238"></path><path d="M300.7,341.8c.13.08-.12.7-.55,1.39s-.88,1.2-1,1.12.13-.7.56-1.39S300.58,341.72,300.7,341.8Z" style="fill:#263238"></path><path d="M308.19,346.12c.13.08-.12.7-.55,1.4s-.88,1.19-1,1.12.13-.7.56-1.4S308.07,346.05,308.19,346.12Z" style="fill:#263238"></path><path d="M312.22,348.5c.12.07-.13.7-.56,1.39s-.88,1.2-1,1.12.13-.7.56-1.39S312.1,348.42,312.22,348.5Z" style="fill:#263238"></path><path d="M319.45,352.73c.12.08-.13.7-.56,1.4s-.87,1.19-1,1.12.13-.7.56-1.4S319.33,352.66,319.45,352.73Z" style="fill:#263238"></path><path d="M323.63,355.13c.12.07-.13.7-.56,1.39s-.88,1.2-1,1.12.13-.7.56-1.4S323.51,355.05,323.63,355.13Z" style="fill:#263238"></path></g><g id="freepik--Plant--inject-7"><path d="M463.69,369.78a1,1,0,0,0-.1-.22l-.34-.63c-.32-.55-.8-1.35-1.5-2.34a25.14,25.14,0,0,0-7.38-7,18.11,18.11,0,0,0-6.62-2.44,16.38,16.38,0,0,0-8.05.85,13,13,0,0,0-6.88,5.64c-1.58,2.76-2.09,6-3,9.1a16.48,16.48,0,0,1-1.92,4.34,13,13,0,0,1-3.27,3.22c-1.23.91-2.52,1.73-3.68,2.68a16.07,16.07,0,0,0-3,3.24,20.15,20.15,0,0,0-3.07,7.5,26.87,26.87,0,0,0-.41,7,54.81,54.81,0,0,0,1.8,10c.31,1.17.57,2.06.74,2.67a5.18,5.18,0,0,0,.31.91,7.91,7.91,0,0,0-.2-.94c-.15-.66-.37-1.56-.63-2.69a57.19,57.19,0,0,1-1.62-10,26.57,26.57,0,0,1,.47-6.93,19.54,19.54,0,0,1,3-7.29,15.62,15.62,0,0,1,2.91-3.13c1.14-.92,2.42-1.73,3.68-2.65a13.51,13.51,0,0,0,3.4-3.35,16.79,16.79,0,0,0,2-4.49c.93-3.15,1.44-6.35,3-9a12.59,12.59,0,0,1,6.59-5.43,16,16,0,0,1,7.8-.87,17.86,17.86,0,0,1,6.49,2.32,25.78,25.78,0,0,1,7.41,6.76c.71,1,1.23,1.73,1.57,2.26A5.54,5.54,0,0,0,463.69,369.78Z" style="fill:#e0e0e0"></path><path d="M423.17,381.15c.85-.8,1.26-.24,2.41,0a7,7,0,0,1,3.1,1.54,13,13,0,0,1,4.23,13.69,10.17,10.17,0,0,1-9.35-15.29" style="fill:#e0e0e0"></path><path d="M458.22,365.19c.43-1.08,1-.76,2.17-1.07a7.12,7.12,0,0,1,3.46.07,13,13,0,0,1,9.71,10.54,10.19,10.19,0,0,1-15-9.79" style="fill:#e0e0e0"></path><path d="M415.44,402.74a11.75,11.75,0,0,1,18.48.9,14.53,14.53,0,0,1-9.58,3.78,14.87,14.87,0,0,1-9.65-3.9" style="fill:#e0e0e0"></path><path d="M418.32,386.62a11.93,11.93,0,0,1-12-14.22,10.69,10.69,0,0,1,12.43,14.1" style="fill:#e0e0e0"></path><path d="M430.66,367.66a11.92,11.92,0,0,1-16.07-9.41,10.68,10.68,0,0,1,16.4,9.17" style="fill:#e0e0e0"></path><path d="M434.8,361.47a11.9,11.9,0,0,1,16.07,9.41,10.7,10.7,0,0,1-16.41-9.17" style="fill:#e0e0e0"></path><path d="M439.73,358.13a11.89,11.89,0,0,1-6.34-17.5,10.69,10.69,0,0,1,6.75,17.53" style="fill:#e0e0e0"></path><path d="M452.36,358.74a11.91,11.91,0,0,1,9.73-15.88,10.69,10.69,0,0,1-9.49,16.22" style="fill:#e0e0e0"></path><polyline points="401.43 444.14 394.7 401.89 446.28 402.52 441.19 443.59" style="fill:#263238"></polyline><path d="M423.69,394.18a8.8,8.8,0,0,0,8.56.72,9.26,9.26,0,0,0,4.68-7.4,9.9,9.9,0,0,0-14.23,5.92" style="fill:#3F51B5"></path><path d="M447.27,403.27a8.8,8.8,0,0,0,8.56.73,9.26,9.26,0,0,0,4.68-7.4,9.9,9.9,0,0,0-14.23,5.92" style="fill:#3F51B5"></path><path d="M434,383a8.82,8.82,0,0,0,6.75,5.32,9.27,9.27,0,0,0,8-3.61,9.91,9.91,0,0,0-15.15-2.88" style="fill:#3F51B5"></path><path d="M442.64,393.48a8.81,8.81,0,0,0-7.7,3.81,9.29,9.29,0,0,0-.18,8.76A10.51,10.51,0,0,0,442.3,402a10.39,10.39,0,0,0,1.57-8.38" style="fill:#3F51B5"></path><path d="M451,410.11a8.8,8.8,0,0,0,.2,8.59,9.3,9.3,0,0,0,7.87,3.86,10.54,10.54,0,0,0-.49-8.54c-1.36-2.47-3.8-3.69-6.86-4.38" style="fill:#3F51B5"></path><path d="M464.66,412.07a6,6,0,0,0-2-1.3,8.86,8.86,0,0,0-2.8-.49,34.24,34.24,0,0,0-3.81.22,11,11,0,0,1-4.68-.4,7.17,7.17,0,0,1-3.87-3.74,21.63,21.63,0,0,1-1.67-5.7,16.37,16.37,0,0,0-2-5.86,20.37,20.37,0,0,0-4.36-4.43,21.16,21.16,0,0,1-4.17-4.24,13.93,13.93,0,0,1-2.08-9.71,13.65,13.65,0,0,1,2.53-6.24,10.07,10.07,0,0,1,1.24-1.36,3.25,3.25,0,0,1,.49-.42,2.49,2.49,0,0,1-.41.49,13.46,13.46,0,0,0-1.14,1.42,13.85,13.85,0,0,0-2.32,6.16,13.7,13.7,0,0,0,2.11,9.37,21.26,21.26,0,0,0,4.1,4.11,20.6,20.6,0,0,1,4.48,4.55,16.79,16.79,0,0,1,2.06,6.05,21.2,21.2,0,0,0,1.59,5.58,6.74,6.74,0,0,0,3.57,3.54,11,11,0,0,0,4.5.44,30.78,30.78,0,0,1,3.85-.14,8.22,8.22,0,0,1,2.86.6,4.74,4.74,0,0,1,1.55,1,2.75,2.75,0,0,1,.32.36C464.64,412,464.67,412.06,464.66,412.07Z" style="fill:#3F51B5"></path><path d="M464.66,412.07a6,6,0,0,0-2-1.3,8.86,8.86,0,0,0-2.8-.49,34.24,34.24,0,0,0-3.81.22,11,11,0,0,1-4.68-.4,7.17,7.17,0,0,1-3.87-3.74,21.63,21.63,0,0,1-1.67-5.7,16.37,16.37,0,0,0-2-5.86,20.37,20.37,0,0,0-4.36-4.43,21.16,21.16,0,0,1-4.17-4.24,13.93,13.93,0,0,1-2.08-9.71,13.65,13.65,0,0,1,2.53-6.24,10.07,10.07,0,0,1,1.24-1.36,3.25,3.25,0,0,1,.49-.42,2.49,2.49,0,0,1-.41.49,13.46,13.46,0,0,0-1.14,1.42,13.85,13.85,0,0,0-2.32,6.16,13.7,13.7,0,0,0,2.11,9.37,21.26,21.26,0,0,0,4.1,4.11,20.6,20.6,0,0,1,4.48,4.55,16.79,16.79,0,0,1,2.06,6.05,21.2,21.2,0,0,0,1.59,5.58,6.74,6.74,0,0,0,3.57,3.54,11,11,0,0,0,4.5.44,30.78,30.78,0,0,1,3.85-.14,8.22,8.22,0,0,1,2.86.6,4.74,4.74,0,0,1,1.55,1,2.75,2.75,0,0,1,.32.36C464.64,412,464.67,412.06,464.66,412.07Z" style="fill:#3F51B5"></path><path d="M366.19,416.4a13.06,13.06,0,0,0-17.67-12.86,21.79,21.79,0,0,0,17.2,12.7" style="fill:#3F51B5"></path><path d="M362.78,418.2c-2.52,2.76-2.36,7.22-.56,10.5s4.91,5.63,8,7.71a17,17,0,0,0-7.3-19.22" style="fill:#3F51B5"></path><path d="M375,405.21a15.06,15.06,0,0,0,17.11,13.41c-1-4.05-2.6-8.14-5.73-10.89s-8.08-3.78-11.54-1.46" style="fill:#3F51B5"></path><path d="M374.92,401.07c-.63-3.69-4.28-6.37-8-6.72s-7.42,1.25-10.41,3.5A13.51,13.51,0,0,0,375,399.67" style="fill:#3F51B5"></path><path d="M355.7,432.46c-3.54,3-4.43,8.41-3,12.83s4.92,7.95,8.8,10.53c1.49-4.38,2.42-9.08,1.63-13.64s-3.53-9-7.76-10.82" style="fill:#3F51B5"></path><path d="M374.34,390.71a10.9,10.9,0,0,1,17.25-1,9.41,9.41,0,0,1-17,.44" style="fill:#3F51B5"></path><path d="M378.69,380.07A14.15,14.15,0,0,1,360.64,369a32,32,0,0,1,8.52.12,13.87,13.87,0,0,1,7.55,3.72,7.48,7.48,0,0,1,2,7.22" style="fill:#3F51B5"></path><path d="M386.87,377.32a11.56,11.56,0,0,1-.07-17.85,24.26,24.26,0,0,1,5.05,10.78,9.14,9.14,0,0,1,0,4.47,4.13,4.13,0,0,1-3.13,2.92" style="fill:#3F51B5"></path><g style="opacity:0.4"><path d="M366.19,416.4a13.06,13.06,0,0,0-17.67-12.86,21.79,21.79,0,0,0,17.2,12.7"></path></g><g style="opacity:0.4"><path d="M362.78,418.2c-2.52,2.76-2.36,7.22-.56,10.5s4.91,5.63,8,7.71a17,17,0,0,0-7.3-19.22"></path></g><g style="opacity:0.4"><path d="M375,405.21a15.06,15.06,0,0,0,17.11,13.41c-1-4.05-2.6-8.14-5.73-10.89s-8.08-3.78-11.54-1.46"></path></g><g style="opacity:0.4"><path d="M374.92,401.07c-.63-3.69-4.28-6.37-8-6.72s-7.42,1.25-10.41,3.5A13.51,13.51,0,0,0,375,399.67"></path></g><g style="opacity:0.4"><path d="M355.7,432.46c-3.54,3-4.43,8.41-3,12.83s4.92,7.95,8.8,10.53c1.49-4.38,2.42-9.08,1.63-13.64s-3.53-9-7.76-10.82"></path></g><g style="opacity:0.4"><path d="M374.34,390.71a10.9,10.9,0,0,1,17.25-1,9.41,9.41,0,0,1-17,.44"></path></g><g style="opacity:0.4"><path d="M378.69,380.07A14.15,14.15,0,0,1,360.64,369a32,32,0,0,1,8.52.12,13.87,13.87,0,0,1,7.55,3.72,7.48,7.48,0,0,1,2,7.22"></path></g><g style="opacity:0.4"><path d="M386.87,377.32a11.56,11.56,0,0,1-.07-17.85,24.26,24.26,0,0,1,5.05,10.78,9.14,9.14,0,0,1,0,4.47,4.13,4.13,0,0,1-3.13,2.92"></path></g><path d="M401,403.25a1.07,1.07,0,0,1,0-.29c0-.22,0-.5.05-.85.05-.74.12-1.84.14-3.26a29,29,0,0,0-1.92-11.72,17.84,17.84,0,0,0-4.71-6.64,12.59,12.59,0,0,0-8.58-3.15,10.67,10.67,0,0,0-4.84,1.21,9.67,9.67,0,0,0-3.73,3.57c-1.87,3.08-2.34,7-2.17,10.78s.68,7.64.25,11.34a17.06,17.06,0,0,1-1.41,5.26,11.07,11.07,0,0,1-3.17,4.15,16,16,0,0,1-4.42,2.27,22,22,0,0,0-4.17,1.89,15,15,0,0,0-5.47,6,14.42,14.42,0,0,0-1.58,6.52,15.45,15.45,0,0,0,.83,5,18.48,18.48,0,0,0,1.95,3.92,1.47,1.47,0,0,1-.19-.22c-.11-.16-.3-.38-.5-.7a14,14,0,0,1-1.47-2.93,15,15,0,0,1-.93-5.11,14.64,14.64,0,0,1,1.54-6.7,15.42,15.42,0,0,1,5.58-6.18c2.55-1.7,5.91-2.12,8.51-4.16s4-5.52,4.36-9.07-.13-7.38-.27-11.26.29-7.86,2.26-11.09a10.11,10.11,0,0,1,4-3.75,11.18,11.18,0,0,1,5.07-1.26,13,13,0,0,1,8.9,3.32,18.36,18.36,0,0,1,4.77,6.83,24.28,24.28,0,0,1,1.62,6.69,36.81,36.81,0,0,1,.15,5.19c-.06,1.43-.16,2.53-.25,3.27,0,.35-.08.62-.1.85A1,1,0,0,1,401,403.25Z" style="fill:#3F51B5"></path><g style="opacity:0.4"><path d="M401,403.25a1.07,1.07,0,0,1,0-.29c0-.22,0-.5.05-.85.05-.74.12-1.84.14-3.26a29,29,0,0,0-1.92-11.72,17.84,17.84,0,0,0-4.71-6.64,12.59,12.59,0,0,0-8.58-3.15,10.67,10.67,0,0,0-4.84,1.21,9.67,9.67,0,0,0-3.73,3.57c-1.87,3.08-2.34,7-2.17,10.78s.68,7.64.25,11.34a17.06,17.06,0,0,1-1.41,5.26,11.07,11.07,0,0,1-3.17,4.15,16,16,0,0,1-4.42,2.27,22,22,0,0,0-4.17,1.89,15,15,0,0,0-5.47,6,14.42,14.42,0,0,0-1.58,6.52,15.45,15.45,0,0,0,.83,5,18.48,18.48,0,0,0,1.95,3.92,1.47,1.47,0,0,1-.19-.22c-.11-.16-.3-.38-.5-.7a14,14,0,0,1-1.47-2.93,15,15,0,0,1-.93-5.11,14.64,14.64,0,0,1,1.54-6.7,15.42,15.42,0,0,1,5.58-6.18c2.55-1.7,5.91-2.12,8.51-4.16s4-5.52,4.36-9.07-.13-7.38-.27-11.26.29-7.86,2.26-11.09a10.11,10.11,0,0,1,4-3.75,11.18,11.18,0,0,1,5.07-1.26,13,13,0,0,1,8.9,3.32,18.36,18.36,0,0,1,4.77,6.83,24.28,24.28,0,0,1,1.62,6.69,36.81,36.81,0,0,1,.15,5.19c-.06,1.43-.16,2.53-.25,3.27,0,.35-.08.62-.1.85A1,1,0,0,1,401,403.25Z"></path></g><path d="M476.13,394a11,11,0,0,0,.77-3.78,9.54,9.54,0,0,0-1-4.36,9.36,9.36,0,0,0-7.53-5,10.84,10.84,0,0,0-3.7.44c-2.53.66-5,2.1-8,2.69A9.41,9.41,0,0,1,452,384a7,7,0,0,1-3.79-3c-1.8-2.79-2.31-6.3-4.48-8.87a8.91,8.91,0,0,0-4.08-2.67,11.52,11.52,0,0,0-4.76-.48A12.21,12.21,0,0,0,427,373a18.66,18.66,0,0,0-3.93,7.27,22.1,22.1,0,0,0-.88,7.21A80,80,0,0,0,423.5,398c.21,1.21.38,2.16.5,2.86,0,.3.08.54.11.75a.94.94,0,0,1,0,.25s0-.08-.08-.24-.1-.44-.16-.74c-.15-.69-.35-1.64-.6-2.84a71.46,71.46,0,0,1-1.52-10.56,22.1,22.1,0,0,1,.83-7.35,19.05,19.05,0,0,1,4-7.49,14.32,14.32,0,0,1,3.62-2.89,12.54,12.54,0,0,1,9.62-.93,9.47,9.47,0,0,1,4.32,2.83c2.31,2.76,2.8,6.29,4.52,8.94a6.47,6.47,0,0,0,3.49,2.82,9,9,0,0,0,4.39.12c2.88-.56,5.39-2,8-2.64a11.15,11.15,0,0,1,3.86-.42,9.66,9.66,0,0,1,7.77,5.25,9.67,9.67,0,0,1,.94,4.51,8.86,8.86,0,0,1-.56,2.85A4.47,4.47,0,0,1,476.13,394Z" style="fill:#3F51B5"></path><path d="M446,375.31a10,10,0,0,0,9.2.61,9.26,9.26,0,0,0,4.68-7.4,9.9,9.9,0,0,0-14.23,5.92" style="fill:#3F51B5"></path><path d="M455.74,384.18a10,10,0,0,0,4.27,8.17,9.27,9.27,0,0,0,8.76.15,9.91,9.91,0,0,0-12.47-9.07" style="fill:#3F51B5"></path><path d="M472.7,382.22a10.07,10.07,0,0,0,9.22-.38,9.28,9.28,0,0,0,3.86-7.86,10.5,10.5,0,0,0-8.54.48,10.37,10.37,0,0,0-5,6.93" style="fill:#3F51B5"></path><path d="M431.71,369.44c-2.47-2.14-4.13-5.88-3.65-8.68a9.28,9.28,0,0,1,5.68-6.67,9.89,9.89,0,0,1-1.45,15.35" style="fill:#3F51B5"></path><path d="M365.47,357.29a1,1,0,0,1,.1-.22c.09-.17.21-.38.34-.64.31-.55.8-1.34,1.5-2.33a25,25,0,0,1,7.38-7,18.11,18.11,0,0,1,6.62-2.44,16.38,16.38,0,0,1,8,.85,13,13,0,0,1,6.88,5.63c1.58,2.77,2.09,6,3,9.11a16.48,16.48,0,0,0,1.92,4.34,13.34,13.34,0,0,0,3.27,3.22c1.23.91,2.52,1.73,3.68,2.68a15.81,15.81,0,0,1,3,3.24,20.15,20.15,0,0,1,3.07,7.5,26.87,26.87,0,0,1,.41,7,53.82,53.82,0,0,1-1.81,10c-.3,1.16-.56,2.06-.74,2.67a4.81,4.81,0,0,1-.3.91,7.91,7.91,0,0,1,.2-.94c.15-.66.37-1.56.63-2.69a57.17,57.17,0,0,0,1.62-10,26.52,26.52,0,0,0-.47-6.92,19.4,19.4,0,0,0-3-7.29,15.29,15.29,0,0,0-2.9-3.13c-1.14-.92-2.42-1.73-3.68-2.65a13.51,13.51,0,0,1-3.4-3.35,16.93,16.93,0,0,1-2-4.49c-.93-3.15-1.44-6.35-3-9a12.57,12.57,0,0,0-6.58-5.43,16,16,0,0,0-7.8-.87,17.86,17.86,0,0,0-6.49,2.32,25.78,25.78,0,0,0-7.41,6.76c-.71,1-1.23,1.73-1.57,2.26A5.54,5.54,0,0,1,365.47,357.29Z" style="fill:#3F51B5"></path><path d="M406,368.66c-.85-.8-1.26-.24-2.41,0a7.1,7.1,0,0,0-3.1,1.55,13,13,0,0,0-4.23,13.69,10.17,10.17,0,0,0,9.35-15.29" style="fill:#3F51B5"></path><path d="M370.94,352.7c-.43-1.08-1-.76-2.17-1.07a7.24,7.24,0,0,0-3.46.06,13.07,13.07,0,0,0-9.71,10.55,10.19,10.19,0,0,0,15-9.79" style="fill:#3F51B5"></path><path d="M413.71,390.25a11.74,11.74,0,0,0-18.47.9,14.53,14.53,0,0,0,9.58,3.78,14.87,14.87,0,0,0,9.65-3.9" style="fill:#3F51B5"></path><path d="M410.84,374.12a11.92,11.92,0,0,0,12-14.21A10.69,10.69,0,0,0,410.44,374" style="fill:#3F51B5"></path><path d="M398.5,355.17a11.92,11.92,0,0,0,16.07-9.41,10.68,10.68,0,0,0-16.4,9.16" style="fill:#3F51B5"></path><path d="M394.36,349a11.9,11.9,0,0,0-16.07,9.4,10.69,10.69,0,0,0,16.41-9.16" style="fill:#3F51B5"></path><path d="M389.43,345.64a11.9,11.9,0,0,0,6.34-17.51A10.69,10.69,0,0,0,389,345.67" style="fill:#3F51B5"></path><path d="M376.8,346.25a11.91,11.91,0,0,0-9.73-15.88,10.68,10.68,0,0,0,9.49,16.21" style="fill:#3F51B5"></path><polygon points="394.04 439.25 397.99 444.14 446.53 444.14 449.84 439.25 394.04 439.25" style="fill:#263238"></polygon><path d="M448.78,439.2c0,.16-11.93.28-26.65.28s-26.64-.12-26.64-.28,11.93-.28,26.64-.28S448.78,439.05,448.78,439.2Z" style="fill:#455a64"></path><path d="M443.32,420.77a1.88,1.88,0,0,1-.31.4,13,13,0,0,1-1,1,18.2,18.2,0,0,1-4.34,3,19.07,19.07,0,0,1-7.58,1.94,18.05,18.05,0,0,1-4.63-.39,27,27,0,0,1-4.73-1.56c-3.13-1.34-6-2.85-8.75-3.73a15,15,0,0,0-7.55-.73,9.79,9.79,0,0,0-4.63,2.15c-.92.81-1.27,1.41-1.32,1.37s.07-.16.24-.43a6.58,6.58,0,0,1,.93-1.1,9.57,9.57,0,0,1,4.7-2.38,15.18,15.18,0,0,1,7.79.62c2.84.88,5.71,2.4,8.81,3.71a27.57,27.57,0,0,0,4.62,1.55,18.49,18.49,0,0,0,4.5.41,19.19,19.19,0,0,0,7.43-1.79A23,23,0,0,0,443.32,420.77Z" style="fill:#455a64"></path><path d="M443.8,417a2.11,2.11,0,0,1-.33.38,13.53,13.53,0,0,1-1.06,1,19.84,19.84,0,0,1-4.5,2.79,21.07,21.07,0,0,1-7.63,1.83,20.69,20.69,0,0,1-4.65-.32,31.42,31.42,0,0,1-4.8-1.35c-3.2-1.17-6.14-2.5-8.95-3.29a17.72,17.72,0,0,0-7.62-.69,11.42,11.42,0,0,0-4.81,1.84c-1,.71-1.45,1.24-1.49,1.2a1.88,1.88,0,0,1,.31-.4,7.81,7.81,0,0,1,1.06-1,11,11,0,0,1,4.87-2.05,17.68,17.68,0,0,1,7.82.59c2.86.77,5.83,2.1,9,3.25a32.24,32.24,0,0,0,4.71,1.35,20.82,20.82,0,0,0,4.53.33,21.28,21.28,0,0,0,7.49-1.67A26.49,26.49,0,0,0,443.8,417Z" style="fill:#455a64"></path></g><g id="freepik--Clock--inject-7"><circle cx="247.43" cy="81.28" r="35.33" transform="translate(35.81 233.08) rotate(-53.84)" style="fill:#fafafa"></circle><path d="M212.19,79s0,.2,0,.58v2.91c0,.46.08,1,.13,1.49a24.15,24.15,0,0,0,.49,3.68,33.83,33.83,0,0,0,3.3,9.6,35.21,35.21,0,0,0,22.59,18,32.88,32.88,0,0,0,4.4.81c.75.07,1.51.2,2.27.23l2.33,0c.39,0,.78,0,1.17,0l1.18-.11c.79-.07,1.59-.11,2.38-.22a38.67,38.67,0,0,0,9.46-2.78c.76-.35,1.5-.77,2.26-1.16a16.47,16.47,0,0,0,2.21-1.31,40.27,40.27,0,0,0,4.19-3.12,38.3,38.3,0,0,0,3.7-3.83,33.89,33.89,0,0,0,5.63-9.31,37.56,37.56,0,0,0,2.53-10.92,37.45,37.45,0,0,0-1.07-11.16l-.78-2.66c-.35-.85-.69-1.7-1-2.54A9.27,9.27,0,0,0,279,66l-.63-1.21-.63-1.2L277,62.45a38.63,38.63,0,0,0-3.17-4.29,38.86,38.86,0,0,0-3.75-3.63,18.08,18.08,0,0,0-2-1.6c-.71-.48-1.38-1-2.1-1.44a35.25,35.25,0,0,0-4.43-2.31,36,36,0,0,0-4.58-1.68c-.77-.21-1.56-.36-2.33-.54l-1.16-.25c-.38-.08-.77-.1-1.16-.16L250,46.28c-.77-.06-1.53,0-2.29-.06a32.82,32.82,0,0,0-4.46.22,35.29,35.29,0,0,0-24.76,14.93A33.84,33.84,0,0,0,214,70.46a23.53,23.53,0,0,0-1,3.59c-.12.52-.25,1-.33,1.45s-.1.86-.15,1.23c-.1.72-.17,1.27-.22,1.67s-.09.56-.09.56,0-.19,0-.57.09-1,.16-1.67c0-.37.09-.79.14-1.24s.19-.93.29-1.47a25.19,25.19,0,0,1,.94-3.61,33.22,33.22,0,0,1,4.47-9.19,35.52,35.52,0,0,1,25-15.2,33.55,33.55,0,0,1,4.51-.24c.77,0,1.55,0,2.32.06l2.34.27c.39,0,.79.08,1.18.15l1.17.26c.79.18,1.58.32,2.37.54a36.92,36.92,0,0,1,4.64,1.69,36.25,36.25,0,0,1,4.5,2.33c.73.45,1.41,1,2.13,1.46a17.57,17.57,0,0,1,2.05,1.62,38.74,38.74,0,0,1,3.8,3.68,41,41,0,0,1,3.22,4.34l.74,1.15.64,1.21.64,1.22A9.58,9.58,0,0,1,280,67c.35.86.7,1.72,1,2.58s.53,1.79.8,2.7a35.3,35.3,0,0,1-1.48,22.41,34.23,34.23,0,0,1-5.72,9.44A40.5,40.5,0,0,1,270.9,108a41.13,41.13,0,0,1-4.26,3.16,18.86,18.86,0,0,1-2.24,1.33c-.77.39-1.52.81-2.3,1.17a38.9,38.9,0,0,1-9.59,2.79c-.81.11-1.61.15-2.41.23l-1.2.1c-.4,0-.79,0-1.19,0l-2.35,0c-.78-.05-1.55-.17-2.31-.25a33.94,33.94,0,0,1-4.45-.83,35.54,35.54,0,0,1-22.74-18.32,33.67,33.67,0,0,1-3.24-9.7,25.47,25.47,0,0,1-.45-3.71c0-.54-.09-1-.1-1.49s0-.87,0-1.24c0-.73,0-1.29.05-1.69A4.92,4.92,0,0,1,212.19,79Z" style="fill:#263238"></path><path d="M263.47,82.36a6.85,6.85,0,0,1-1.24.09l-3.44.06c-2.91,0-7,.07-11.55.08H247V80.07c0-5.12,0-9.75.07-13.1,0-1.62,0-3,.07-4a9.5,9.5,0,0,1,.09-1.46,9.5,9.5,0,0,1,.09,1.46c0,1,0,2.35.07,4,0,3.35.07,8,.07,13.1v2.29l-.23-.22c4.58,0,8.64,0,11.55.07l3.44.07A7.69,7.69,0,0,1,263.47,82.36Z" style="fill:#263238"></path><path d="M247.35,51.75a10.06,10.06,0,0,1,.23,3,10.06,10.06,0,0,1-.23,3,9.68,9.68,0,0,1-.23-3A9.68,9.68,0,0,1,247.35,51.75Z" style="fill:#263238"></path><path d="M263.44,56.52a9.4,9.4,0,0,1-1.9,2.23,10.16,10.16,0,0,1-2.23,1.91,9.4,9.4,0,0,1,1.9-2.23A9.53,9.53,0,0,1,263.44,56.52Z" style="fill:#263238"></path><path d="M272.85,66.8a11.77,11.77,0,0,1-2.43,1.62,12.49,12.49,0,0,1-2.56,1.42A7.73,7.73,0,0,1,270.18,68,8,8,0,0,1,272.85,66.8Z" style="fill:#263238"></path><path d="M278.37,82.06a37.3,37.3,0,0,1-8.09,0,35.68,35.68,0,0,1,8.09,0Z" style="fill:#263238"></path><path d="M222.26,81.52a31.84,31.84,0,0,1-7.64,0,31.84,31.84,0,0,1,7.64,0Z" style="fill:#263238"></path><path d="M226.23,92.88a17.19,17.19,0,0,1-2.89,2.61,16.86,16.86,0,0,1-3.17,2.27,16.21,16.21,0,0,1,2.88-2.62A15.91,15.91,0,0,1,226.23,92.88Z" style="fill:#263238"></path><path d="M236,101.66a27.41,27.41,0,0,1-2,3.41A26.14,26.14,0,0,1,232,108.4a12.7,12.7,0,0,1,1.69-3.57A12.57,12.57,0,0,1,236,101.66Z" style="fill:#263238"></path><path d="M247.35,113a17.8,17.8,0,0,1-.23-4,17.74,17.74,0,0,1,.23-4,18.46,18.46,0,0,1,.23,4A18.51,18.51,0,0,1,247.35,113Z" style="fill:#263238"></path><path d="M264.79,107.6a11.82,11.82,0,0,1-3.34-2.29,12,12,0,0,1-2.72-3,34.89,34.89,0,0,1,3,2.65A37.93,37.93,0,0,1,264.79,107.6Z" style="fill:#263238"></path><path d="M273,98.78a14.17,14.17,0,0,1-2.68-2.35,14.17,14.17,0,0,1-2.35-2.68,13.83,13.83,0,0,1,2.68,2.35A13.83,13.83,0,0,1,273,98.78Z" style="fill:#263238"></path><path d="M225.86,70.64a11,11,0,0,1-2.37-2,10.67,10.67,0,0,1-2-2.37,10.83,10.83,0,0,1,2.36,2A10.89,10.89,0,0,1,225.86,70.64Z" style="fill:#263238"></path><path d="M236,60a10.38,10.38,0,0,1-2.33-2,10.52,10.52,0,0,1-2-2.31,10.38,10.38,0,0,1,2.33,2A10.78,10.78,0,0,1,236,60Z" style="fill:#263238"></path></g><g id="freepik--Desk--inject-7"><path d="M468.28,444.27c0,.15-98.5.26-220,.26s-220-.11-220-.26,98.48-.26,220-.26S468.28,444.13,468.28,444.27Z" style="fill:#263238"></path></g></svg>