<svg width="350" height="310" viewBox="0 0 350 310" fill="none" xmlns="http://www.w3.org/2000/svg">
<path d="M36.25 230.703C36.7969 231.458 37.5 232.07 38.3594 232.539C39.2188 232.982 40.2734 233.203 41.5234 233.203C42.7995 233.203 43.9583 232.904 45 232.305C46.0417 231.68 46.9922 230.872 47.8516 229.883C48.7109 228.893 49.4792 227.786 50.1562 226.562C50.8333 225.339 51.4453 224.115 51.9922 222.891C52.1224 222.604 52.3047 222.396 52.5391 222.266C52.7734 222.109 53.0339 222.031 53.3203 222.031C53.763 222.031 54.1146 222.188 54.375 222.5C54.6615 222.812 54.8047 223.151 54.8047 223.516C54.8047 223.646 54.7917 223.763 54.7656 223.867C54.7396 223.945 54.7005 224.036 54.6484 224.141C52.8516 228.099 50.8854 231.081 48.75 233.086C46.6406 235.091 44.2448 236.12 41.5625 236.172C39.8438 236.172 38.3594 235.833 37.1094 235.156C35.8594 234.505 34.8307 233.659 34.0234 232.617C33.2161 231.549 32.6172 230.352 32.2266 229.023C31.8359 227.695 31.6406 226.367 31.6406 225.039C31.6406 223.711 31.7969 222.487 32.1094 221.367C32.4479 220.247 32.9167 219.271 33.5156 218.438C34.1406 217.604 34.8698 216.953 35.7031 216.484C36.5625 216.016 37.5 215.781 38.5156 215.781C39.1146 215.781 39.7005 215.911 40.2734 216.172C40.8724 216.406 41.4062 216.758 41.875 217.227C42.3438 217.669 42.7214 218.216 43.0078 218.867C43.2943 219.518 43.4375 220.26 43.4375 221.094C43.4375 222.161 43.2552 223.164 42.8906 224.102C42.526 225.039 42.0182 225.911 41.3672 226.719C40.7422 227.526 39.987 228.268 39.1016 228.945C38.2161 229.622 37.2656 230.208 36.25 230.703ZM35.0781 228.164C35.8854 227.826 36.6146 227.396 37.2656 226.875C37.9427 226.354 38.5156 225.781 38.9844 225.156C39.4531 224.531 39.8177 223.88 40.0781 223.203C40.3385 222.5 40.4688 221.797 40.4688 221.094C40.4688 220.312 40.2734 219.727 39.8828 219.336C39.4922 218.919 39.0365 218.711 38.5156 218.711C37.8125 218.711 37.2135 218.906 36.7188 219.297C36.224 219.688 35.8203 220.195 35.5078 220.82C35.1953 221.445 34.9609 222.148 34.8047 222.93C34.6745 223.685 34.6094 224.44 34.6094 225.195C34.6094 225.664 34.6484 226.159 34.7266 226.68C34.8307 227.201 34.9479 227.695 35.0781 228.164ZM75.3125 212.891C71.3021 217.839 67.6432 223.047 64.3359 228.516C65.2474 229.87 66.25 230.99 67.3438 231.875C68.4375 232.76 69.6745 233.203 71.0547 233.203C72.2786 233.203 73.4375 232.852 74.5312 232.148C75.625 231.445 76.6146 230.586 77.5 229.57C78.4115 228.529 79.1927 227.422 79.8438 226.25C80.5208 225.052 81.0417 223.971 81.4062 223.008C81.6667 222.357 82.1224 222.031 82.7734 222.031C83.2161 222.031 83.5677 222.188 83.8281 222.5C84.1146 222.786 84.2578 223.125 84.2578 223.516C84.2578 223.646 84.2318 223.815 84.1797 224.023C84.2057 223.971 84.0885 224.232 83.8281 224.805C83.5677 225.378 83.1771 226.12 82.6562 227.031C82.1354 227.917 81.4974 228.893 80.7422 229.961C79.987 231.029 79.1146 232.031 78.125 232.969C77.1615 233.88 76.0807 234.635 74.8828 235.234C73.6849 235.859 72.3958 236.172 71.0156 236.172C69.2969 236.172 67.7474 235.716 66.3672 234.805C65.013 233.893 63.7891 232.734 62.6953 231.328C62.2526 232.109 61.8229 232.891 61.4062 233.672C60.9896 234.453 60.5729 235.234 60.1562 236.016C59.8698 236.562 59.4271 236.836 58.8281 236.836C58.3854 236.836 58.0208 236.68 57.7344 236.367C57.474 236.055 57.3438 235.716 57.3438 235.352C57.3438 235.143 57.4089 234.909 57.5391 234.648C58.0599 233.633 58.5938 232.617 59.1406 231.602C59.6875 230.586 60.2604 229.583 60.8594 228.594C59.974 227.057 59.2188 225.495 58.5938 223.906C57.9688 222.292 57.474 220.781 57.1094 219.375L54.8047 224.141C54.5182 224.714 54.0755 225 53.4766 225C53.0339 225 52.6693 224.844 52.3828 224.531C52.1224 224.219 51.9922 223.88 51.9922 223.516C51.9922 223.281 52.0443 223.073 52.1484 222.891L56.4062 213.984C56.5365 213.75 56.7188 213.555 56.9531 213.398C57.1875 213.242 57.4479 213.164 57.7344 213.164C58.151 213.164 58.4896 213.307 58.75 213.594C59.0104 213.854 59.1667 214.18 59.2188 214.57C59.2448 214.935 59.3359 215.508 59.4922 216.289C59.6745 217.07 59.9089 217.969 60.1953 218.984C60.5078 219.974 60.8594 221.042 61.25 222.188C61.6667 223.333 62.1484 224.466 62.6953 225.586C65.8203 220.508 69.2708 215.651 73.0469 211.016C73.3073 210.677 73.6849 210.508 74.1797 210.508C74.5964 210.508 74.9479 210.651 75.2344 210.938C75.5208 211.224 75.6641 211.562 75.6641 211.953C75.6641 212.318 75.5469 212.63 75.3125 212.891ZM111.68 224.102C111.576 224.31 111.354 224.753 111.016 225.43C110.703 226.081 110.286 226.836 109.766 227.695C109.271 228.555 108.685 229.453 108.008 230.391C107.331 231.328 106.576 232.188 105.742 232.969C104.909 233.75 104.01 234.401 103.047 234.922C102.083 235.417 101.068 235.664 100 235.664C98.4896 235.664 97.2135 235.182 96.1719 234.219C95.1562 233.255 94.4141 232.044 93.9453 230.586C93.0599 232.07 92.0052 233.255 90.7812 234.141C89.5573 235 88.3333 235.43 87.1094 235.43C86.1458 235.43 85.2734 235.26 84.4922 234.922C83.7109 234.557 83.0469 234.062 82.5 233.438C81.9531 232.786 81.5234 232.031 81.2109 231.172C80.9245 230.312 80.7812 229.375 80.7812 228.359C80.7812 226.328 81.1198 224.544 81.7969 223.008C82.5 221.445 83.3854 220.143 84.4531 219.102C85.5208 218.06 86.6927 217.279 87.9688 216.758C89.2708 216.237 90.5208 215.977 91.7188 215.977C92.526 215.977 93.2682 216.094 93.9453 216.328C94.6224 216.536 95.1953 216.771 95.6641 217.031C96.1589 217.292 96.5365 217.539 96.7969 217.773C97.0573 217.982 97.2005 218.099 97.2266 218.125C97.513 218.464 97.6562 218.815 97.6562 219.18C97.6562 219.57 97.513 219.922 97.2266 220.234C96.9401 220.521 96.6016 220.664 96.2109 220.664C95.7943 220.664 95.4427 220.521 95.1562 220.234C95.1042 220.182 94.987 220.091 94.8047 219.961C94.6224 219.805 94.375 219.648 94.0625 219.492C93.75 219.336 93.3724 219.206 92.9297 219.102C92.513 218.971 92.0312 218.906 91.4844 218.906C90.6771 218.906 89.8177 219.089 88.9062 219.453C87.9948 219.818 87.1615 220.391 86.4062 221.172C85.651 221.927 85.013 222.891 84.4922 224.062C83.9974 225.208 83.75 226.576 83.75 228.164C83.75 228.659 83.8021 229.167 83.9062 229.688C84.0104 230.182 84.1927 230.638 84.4531 231.055C84.7135 231.471 85.0651 231.81 85.5078 232.07C85.9505 232.331 86.4974 232.461 87.1484 232.461C87.6172 232.461 88.151 232.305 88.75 231.992C89.375 231.68 89.9609 231.198 90.5078 230.547C91.0807 229.896 91.5885 229.076 92.0312 228.086C92.5 227.096 92.8255 225.924 93.0078 224.57C93.0599 224.206 93.2292 223.906 93.5156 223.672C93.8021 223.411 94.1406 223.281 94.5312 223.281C94.8958 223.281 95.2083 223.424 95.4688 223.711C95.7552 223.997 95.9115 224.323 95.9375 224.688C95.9635 225.182 96.0156 225.885 96.0938 226.797C96.1719 227.682 96.3411 228.568 96.6016 229.453C96.888 230.339 97.3047 231.107 97.8516 231.758C98.3984 232.409 99.1536 232.734 100.117 232.734C100.742 232.734 101.354 232.565 101.953 232.227C102.578 231.888 103.177 231.445 103.75 230.898C104.349 230.326 104.909 229.688 105.43 228.984C105.977 228.255 106.471 227.526 106.914 226.797C107.357 226.068 107.747 225.365 108.086 224.688C108.424 224.01 108.711 223.424 108.945 222.93C109.076 222.643 109.258 222.422 109.492 222.266C109.753 222.109 110.026 222.031 110.312 222.031C110.755 222.031 111.107 222.201 111.367 222.539C111.654 222.852 111.797 223.19 111.797 223.555C111.797 223.737 111.758 223.919 111.68 224.102ZM118.008 231.523C118.398 230.742 118.893 229.779 119.492 228.633C120.117 227.461 120.755 226.289 121.406 225.117C122.083 223.945 122.734 222.839 123.359 221.797C124.01 220.755 124.557 219.961 125 219.414C125.755 218.503 126.536 217.852 127.344 217.461C128.151 217.07 128.893 216.875 129.57 216.875C130.247 216.875 130.82 217.018 131.289 217.305C131.784 217.591 132.188 217.982 132.5 218.477C132.812 218.945 133.047 219.505 133.203 220.156C133.359 220.781 133.438 221.458 133.438 222.188C133.438 222.604 133.411 223.151 133.359 223.828C133.333 224.505 133.294 225.234 133.242 226.016C133.216 226.797 133.177 227.604 133.125 228.438C133.099 229.271 133.073 230.052 133.047 230.781C133.438 230 133.88 229.141 134.375 228.203C134.87 227.24 135.365 226.289 135.859 225.352C136.38 224.414 136.875 223.542 137.344 222.734C137.812 221.901 138.242 221.224 138.633 220.703C139.753 219.167 140.794 218.138 141.758 217.617C142.747 217.096 143.62 216.836 144.375 216.836C145.26 216.836 145.99 217.005 146.562 217.344C147.135 217.656 147.578 218.073 147.891 218.594C148.229 219.089 148.464 219.648 148.594 220.273C148.724 220.898 148.789 221.497 148.789 222.07C148.789 222.956 148.724 223.88 148.594 224.844C148.464 225.807 148.398 226.953 148.398 228.281C148.398 228.828 148.424 229.375 148.477 229.922C148.529 230.469 148.633 230.951 148.789 231.367C148.971 231.784 149.245 232.122 149.609 232.383C149.974 232.643 150.469 232.773 151.094 232.773C151.771 232.773 152.435 232.604 153.086 232.266C153.737 231.901 154.362 231.432 154.961 230.859C155.56 230.286 156.12 229.635 156.641 228.906C157.188 228.177 157.682 227.448 158.125 226.719C158.568 225.99 158.958 225.299 159.297 224.648C159.635 223.971 159.909 223.398 160.117 222.93C160.247 222.643 160.43 222.422 160.664 222.266C160.898 222.109 161.159 222.031 161.445 222.031C161.888 222.031 162.24 222.201 162.5 222.539C162.786 222.852 162.93 223.19 162.93 223.555C162.93 223.737 162.891 223.919 162.812 224.102C162.708 224.31 162.5 224.753 162.188 225.43C161.875 226.081 161.458 226.836 160.938 227.695C160.417 228.529 159.805 229.414 159.102 230.352C158.424 231.289 157.669 232.161 156.836 232.969C156.003 233.75 155.104 234.401 154.141 234.922C153.177 235.417 152.161 235.664 151.094 235.664C149.948 235.664 149.01 235.456 148.281 235.039C147.578 234.648 147.005 234.115 146.562 233.438C146.146 232.76 145.859 231.979 145.703 231.094C145.547 230.208 145.469 229.284 145.469 228.32C145.469 227.044 145.534 225.872 145.664 224.805C145.794 223.711 145.859 222.865 145.859 222.266C145.859 221.615 145.794 221.12 145.664 220.781C145.56 220.443 145.417 220.208 145.234 220.078C145.078 219.922 144.922 219.844 144.766 219.844C144.609 219.818 144.492 219.805 144.414 219.805C143.789 219.805 143.125 220.156 142.422 220.859C141.745 221.536 141.042 222.448 140.312 223.594C139.583 224.74 138.828 226.042 138.047 227.5C137.292 228.958 136.523 230.443 135.742 231.953C135.299 232.786 134.922 233.477 134.609 234.023C134.323 234.57 134.036 235 133.75 235.312C133.49 235.625 133.229 235.846 132.969 235.977C132.708 236.107 132.422 236.172 132.109 236.172C131.432 236.172 130.911 235.938 130.547 235.469C130.208 235 130.039 234.388 130.039 233.633C130.039 233.242 130.052 232.721 130.078 232.07C130.104 231.419 130.13 230.703 130.156 229.922C130.182 229.141 130.221 228.333 130.273 227.5C130.326 226.667 130.365 225.872 130.391 225.117C130.417 224.336 130.443 223.646 130.469 223.047C130.495 222.448 130.508 221.992 130.508 221.68C130.508 221.003 130.391 220.521 130.156 220.234C129.922 219.922 129.648 219.766 129.336 219.766C129.049 219.766 128.724 219.87 128.359 220.078C128.021 220.286 127.617 220.69 127.148 221.289C126.784 221.758 126.315 222.448 125.742 223.359C125.195 224.245 124.609 225.234 123.984 226.328C123.359 227.422 122.734 228.542 122.109 229.688C121.51 230.833 120.99 231.862 120.547 232.773C120 233.867 119.453 234.609 118.906 235C118.359 235.417 117.826 235.625 117.305 235.625C116.549 235.625 115.99 235.404 115.625 234.961C115.26 234.492 115.078 233.88 115.078 233.125C115.078 233.047 115.091 232.578 115.117 231.719C115.169 230.859 115.221 229.818 115.273 228.594C115.326 227.344 115.378 226.016 115.43 224.609C115.508 223.203 115.573 221.888 115.625 220.664C115.651 220.013 115.625 219.414 115.547 218.867C115.469 218.32 115.365 217.995 115.234 217.891C115.026 217.943 114.609 218.424 113.984 219.336C113.385 220.247 112.617 221.836 111.68 224.102C111.549 224.388 111.354 224.609 111.094 224.766C110.833 224.922 110.56 225 110.273 225C109.831 225 109.479 224.857 109.219 224.57C108.958 224.258 108.828 223.906 108.828 223.516C108.828 223.333 108.867 223.138 108.945 222.93C110.117 220.143 111.237 218.099 112.305 216.797C113.372 215.469 114.414 214.805 115.43 214.805C116.029 214.805 116.523 214.948 116.914 215.234C117.331 215.495 117.656 215.846 117.891 216.289C118.125 216.706 118.294 217.188 118.398 217.734C118.503 218.281 118.555 218.815 118.555 219.336C118.555 221.654 118.49 223.776 118.359 225.703C118.255 227.63 118.138 229.57 118.008 231.523ZM197.773 224.102C197.773 226.497 197.344 228.542 196.484 230.234C195.625 231.927 194.57 233.216 193.32 234.102H193.477C195.013 234.102 196.406 233.763 197.656 233.086C198.932 232.383 200.078 231.497 201.094 230.43C202.109 229.336 203.021 228.125 203.828 226.797C204.635 225.469 205.352 224.18 205.977 222.93C206.107 222.643 206.289 222.422 206.523 222.266C206.784 222.109 207.057 222.031 207.344 222.031C207.786 222.031 208.138 222.188 208.398 222.5C208.659 222.812 208.789 223.151 208.789 223.516C208.789 223.724 208.75 223.919 208.672 224.102C207.995 225.612 207.188 227.135 206.25 228.672C205.312 230.182 204.219 231.549 202.969 232.773C201.719 233.997 200.312 234.987 198.75 235.742C197.188 236.523 195.456 236.914 193.555 236.914C192.174 236.914 190.833 236.693 189.531 236.25C188.229 235.833 187.083 235.169 186.094 234.258C185.729 233.971 185.417 233.672 185.156 233.359C184.896 233.021 184.688 232.708 184.531 232.422C184.479 232.37 184.453 232.318 184.453 232.266C184.297 232.031 184.219 231.784 184.219 231.523C184.219 231.185 184.336 230.872 184.57 230.586C184.596 230.534 184.622 230.508 184.648 230.508C184.674 230.482 184.701 230.456 184.727 230.43C184.987 230.195 185.273 230.065 185.586 230.039H185.703C185.833 230.039 185.924 230.052 185.977 230.078C186.003 230.078 186.016 230.091 186.016 230.117C186.042 230.117 186.068 230.117 186.094 230.117C186.172 230.117 186.263 230.143 186.367 230.195C186.393 230.221 186.419 230.234 186.445 230.234C186.68 230.391 186.875 230.586 187.031 230.82C187.214 231.133 187.422 231.419 187.656 231.68C187.865 231.888 188.112 232.083 188.398 232.266C188.685 232.422 189.01 232.5 189.375 232.5C190.026 232.5 190.677 232.305 191.328 231.914C191.979 231.523 192.565 230.964 193.086 230.234C193.607 229.505 194.023 228.62 194.336 227.578C194.674 226.536 194.844 225.378 194.844 224.102C194.844 223.164 194.74 222.37 194.531 221.719C194.349 221.042 194.102 220.495 193.789 220.078C193.503 219.661 193.19 219.362 192.852 219.18C192.513 218.971 192.188 218.867 191.875 218.867C191.172 218.867 190.456 219.232 189.727 219.961C189.023 220.69 188.32 221.615 187.617 222.734C186.914 223.854 186.211 225.091 185.508 226.445C184.831 227.799 184.141 229.115 183.438 230.391C183.385 234.609 183.307 238.633 183.203 242.461C183.125 246.289 182.969 249.844 182.734 253.125C182.526 256.406 182.227 259.375 181.836 262.031C181.445 264.688 180.911 266.953 180.234 268.828C179.557 270.729 178.724 272.188 177.734 273.203C176.745 274.219 175.534 274.727 174.102 274.727C173.659 274.727 173.151 274.635 172.578 274.453C172.005 274.271 171.471 273.893 170.977 273.32C170.482 272.773 170.065 271.979 169.727 270.938C169.388 269.896 169.219 268.503 169.219 266.758C169.219 264.544 169.492 261.979 170.039 259.062C170.586 256.146 171.367 253.047 172.383 249.766C173.372 246.51 174.557 243.164 175.938 239.727C177.318 236.289 178.841 232.943 180.508 229.688C180.508 228.776 180.508 227.878 180.508 226.992C180.534 226.107 180.547 225.247 180.547 224.414C180.208 224.805 179.805 225 179.336 225C178.893 225 178.542 224.844 178.281 224.531C178.021 224.219 177.891 223.88 177.891 223.516C177.891 223.333 177.93 223.138 178.008 222.93C178.633 221.497 179.115 220.143 179.453 218.867C179.792 217.565 180.039 216.432 180.195 215.469C180.378 214.479 180.482 213.698 180.508 213.125C180.534 212.552 180.547 212.253 180.547 212.227C180.547 211.836 180.69 211.497 180.977 211.211C181.263 210.924 181.615 210.781 182.031 210.781C182.422 210.781 182.76 210.924 183.047 211.211C183.333 211.471 183.477 211.81 183.477 212.227V224.219C184.076 223.203 184.674 222.201 185.273 221.211C185.872 220.221 186.497 219.336 187.148 218.555C187.826 217.773 188.542 217.148 189.297 216.68C190.078 216.185 190.938 215.938 191.875 215.938C192.76 215.938 193.568 216.146 194.297 216.562C195.026 216.979 195.651 217.552 196.172 218.281C196.693 219.01 197.083 219.883 197.344 220.898C197.63 221.888 197.773 222.956 197.773 224.102ZM180.43 236.641C179.154 239.505 177.995 242.383 176.953 245.273C175.938 248.164 175.078 250.951 174.375 253.633C173.646 256.315 173.086 258.828 172.695 261.172C172.305 263.516 172.109 265.573 172.109 267.344C172.109 267.786 172.135 268.268 172.188 268.789C172.24 269.31 172.344 269.792 172.5 270.234C172.656 270.677 172.878 271.042 173.164 271.328C173.451 271.641 173.828 271.797 174.297 271.797C175.156 271.797 175.898 271.25 176.523 270.156C177.148 269.089 177.669 267.63 178.086 265.781C178.529 263.958 178.893 261.849 179.18 259.453C179.466 257.083 179.688 254.596 179.844 251.992C180.026 249.388 180.156 246.758 180.234 244.102C180.312 241.471 180.378 238.984 180.43 236.641ZM224.023 230.703C223.372 230.703 222.799 230.651 222.305 230.547C221.914 231.328 221.445 232.057 220.898 232.734C220.352 233.385 219.714 233.958 218.984 234.453C218.281 234.948 217.487 235.339 216.602 235.625C215.716 235.911 214.753 236.055 213.711 236.055C212.487 236.055 211.367 235.833 210.352 235.391C209.336 234.974 208.451 234.388 207.695 233.633C206.94 232.852 206.354 231.927 205.938 230.859C205.521 229.766 205.312 228.568 205.312 227.266C205.312 225.599 205.612 224.154 206.211 222.93C206.81 221.68 207.5 220.651 208.281 219.844C209.062 219.01 209.844 218.398 210.625 218.008C211.406 217.591 211.992 217.383 212.383 217.383C212.826 217.383 213.151 217.5 213.359 217.734C213.594 217.969 213.711 218.281 213.711 218.672C213.711 219.115 213.568 219.453 213.281 219.688C213.021 219.896 212.682 220.104 212.266 220.312C211.849 220.521 211.406 220.82 210.938 221.211C210.469 221.576 210.026 222.044 209.609 222.617C209.219 223.19 208.893 223.867 208.633 224.648C208.372 225.43 208.242 226.302 208.242 227.266C208.242 228.125 208.372 228.932 208.633 229.688C208.893 230.417 209.271 231.055 209.766 231.602C210.26 232.122 210.846 232.539 211.523 232.852C212.201 233.138 212.956 233.281 213.789 233.281C215.273 233.281 216.497 232.943 217.461 232.266C218.451 231.562 219.206 230.677 219.727 229.609C218.19 228.802 216.927 227.656 215.938 226.172C214.948 224.688 214.453 223.021 214.453 221.172C214.453 219.688 214.805 218.477 215.508 217.539C216.237 216.602 217.188 216.133 218.359 216.133C219.062 216.133 219.727 216.302 220.352 216.641C220.977 216.979 221.523 217.513 221.992 218.242C222.487 218.971 222.878 219.909 223.164 221.055C223.451 222.201 223.594 223.568 223.594 225.156C223.594 225.99 223.49 226.862 223.281 227.773C223.438 227.799 223.594 227.812 223.75 227.812C223.906 227.812 224.076 227.812 224.258 227.812C225.143 227.812 225.938 227.708 226.641 227.5C227.344 227.292 227.982 226.979 228.555 226.562C229.128 226.146 229.635 225.612 230.078 224.961C230.547 224.31 230.99 223.555 231.406 222.695C231.484 222.539 231.654 222.396 231.914 222.266C232.174 222.109 232.435 222.031 232.695 222.031C233.034 222.031 233.346 222.174 233.633 222.461C233.945 222.721 234.102 223.073 234.102 223.516C234.102 223.724 234.049 223.958 233.945 224.219C233.841 224.453 233.737 224.674 233.633 224.883C233.19 225.664 232.669 226.419 232.07 227.148C231.497 227.852 230.807 228.477 230 229.023C229.219 229.544 228.333 229.961 227.344 230.273C226.354 230.586 225.247 230.729 224.023 230.703ZM217.344 220.859C217.344 221.354 217.409 221.875 217.539 222.422C217.669 222.969 217.865 223.516 218.125 224.062C218.411 224.583 218.75 225.091 219.141 225.586C219.557 226.055 220.039 226.458 220.586 226.797C220.664 226.25 220.703 225.716 220.703 225.195C220.703 224.492 220.651 223.776 220.547 223.047C220.443 222.318 220.286 221.654 220.078 221.055C219.896 220.43 219.661 219.935 219.375 219.57C219.089 219.18 218.75 218.984 218.359 218.984C218.203 218.984 217.995 219.102 217.734 219.336C217.474 219.57 217.344 220.078 217.344 220.859ZM235.43 218.945C235.326 219.648 235.195 220.312 235.039 220.938C234.883 221.536 234.727 222.07 234.57 222.539C234.44 222.982 234.323 223.346 234.219 223.633C234.115 223.919 234.049 224.076 234.023 224.102C233.763 224.701 233.307 225 232.656 225C232.292 225 231.953 224.87 231.641 224.609C231.328 224.323 231.172 223.971 231.172 223.555C231.172 223.398 231.198 223.281 231.25 223.203C231.302 223.125 231.38 222.969 231.484 222.734C231.589 222.5 231.719 222.109 231.875 221.562C232.031 221.016 232.227 220.169 232.461 219.023C232.018 219.023 231.562 219.01 231.094 218.984C230.625 218.958 230.195 218.867 229.805 218.711C229.388 218.555 229.049 218.307 228.789 217.969C228.529 217.63 228.398 217.161 228.398 216.562C228.398 216.12 228.529 215.521 228.789 214.766C229.023 214.01 229.349 213.268 229.766 212.539C230.182 211.81 230.651 211.185 231.172 210.664C231.693 210.117 232.214 209.844 232.734 209.844C233.333 209.844 233.815 210.065 234.18 210.508C234.57 210.951 234.87 211.497 235.078 212.148C235.286 212.773 235.43 213.438 235.508 214.141C235.612 214.844 235.664 215.456 235.664 215.977C236.107 215.977 236.536 215.977 236.953 215.977C237.396 215.951 237.812 215.938 238.203 215.938C239.688 215.938 240.82 216.263 241.602 216.914C242.383 217.565 242.773 218.633 242.773 220.117C242.773 220.716 242.734 221.341 242.656 221.992C242.578 222.643 242.487 223.32 242.383 224.023C242.279 224.701 242.188 225.378 242.109 226.055C242.031 226.732 241.992 227.396 241.992 228.047C241.992 228.984 242.122 229.766 242.383 230.391C242.643 230.99 242.969 231.471 243.359 231.836C243.75 232.201 244.167 232.461 244.609 232.617C245.052 232.747 245.456 232.812 245.82 232.812C246.94 232.812 247.995 232.448 248.984 231.719C249.974 230.99 250.885 230.117 251.719 229.102C252.552 228.06 253.294 226.966 253.945 225.82C254.622 224.674 255.182 223.672 255.625 222.812C255.755 222.578 255.938 222.396 256.172 222.266C256.406 222.135 256.654 222.07 256.914 222.07C257.383 222.07 257.747 222.227 258.008 222.539C258.268 222.826 258.398 223.151 258.398 223.516C258.398 223.776 258.346 224.01 258.242 224.219C257.643 225.286 256.94 226.497 256.133 227.852C255.352 229.18 254.453 230.43 253.438 231.602C252.422 232.773 251.276 233.763 250 234.57C248.75 235.378 247.37 235.781 245.859 235.781C244.922 235.781 244.036 235.599 243.203 235.234C242.37 234.896 241.641 234.401 241.016 233.75C240.417 233.073 239.935 232.253 239.57 231.289C239.206 230.299 239.023 229.193 239.023 227.969C239.023 226.667 239.154 225.378 239.414 224.102C239.674 222.799 239.805 221.562 239.805 220.391C239.805 219.896 239.688 219.531 239.453 219.297C239.245 219.036 238.763 218.906 238.008 218.906C237.643 218.906 237.24 218.906 236.797 218.906C236.38 218.906 235.924 218.919 235.43 218.945ZM232.812 216.055C232.812 215.872 232.799 215.638 232.773 215.352C232.773 215.039 232.747 214.74 232.695 214.453C232.669 214.167 232.617 213.919 232.539 213.711C232.487 213.503 232.422 213.398 232.344 213.398C232.266 213.398 232.161 213.503 232.031 213.711C231.927 213.893 231.81 214.128 231.68 214.414C231.549 214.674 231.432 214.961 231.328 215.273C231.224 215.586 231.146 215.846 231.094 216.055H232.812ZM287.266 195.898C287.266 196.315 287.122 196.654 286.836 196.914C286.549 197.148 286.198 197.266 285.781 197.266H265.977V197.695C265.977 199.284 265.859 200.977 265.625 202.773C265.391 204.57 265.065 206.367 264.648 208.164C264.258 209.935 263.802 211.667 263.281 213.359C262.786 215.052 262.266 216.615 261.719 218.047C261.198 219.479 260.677 220.729 260.156 221.797C259.635 222.839 259.167 223.62 258.75 224.141C259.089 225.339 259.492 226.458 259.961 227.5C260.43 228.516 260.951 229.414 261.523 230.195C262.122 230.951 262.76 231.549 263.438 231.992C264.115 232.435 264.844 232.656 265.625 232.656C266.536 232.656 267.435 232.279 268.32 231.523C269.232 230.742 270.065 229.831 270.82 228.789C271.602 227.721 272.279 226.654 272.852 225.586C273.451 224.492 273.88 223.62 274.141 222.969C274.401 222.344 274.857 222.031 275.508 222.031C275.951 222.031 276.302 222.188 276.562 222.5C276.849 222.812 276.992 223.151 276.992 223.516C276.992 223.698 276.953 223.88 276.875 224.062C276.797 224.245 276.602 224.661 276.289 225.312C276.003 225.964 275.612 226.719 275.117 227.578C274.648 228.438 274.089 229.349 273.438 230.312C272.812 231.25 272.096 232.109 271.289 232.891C270.508 233.672 269.661 234.323 268.75 234.844C267.839 235.365 266.875 235.625 265.859 235.625C264.062 235.625 262.448 235.039 261.016 233.867C259.583 232.695 258.359 231.055 257.344 228.945C256.354 226.836 255.599 224.336 255.078 221.445C254.557 218.555 254.297 215.391 254.297 211.953C254.297 211.094 254.31 210.091 254.336 208.945C254.362 207.773 254.414 206.549 254.492 205.273C254.57 203.971 254.688 202.643 254.844 201.289C255 199.909 255.208 198.568 255.469 197.266H241.445C241.029 197.266 240.677 197.148 240.391 196.914C240.104 196.654 239.961 196.315 239.961 195.898C239.961 195.482 240.104 195.156 240.391 194.922C240.677 194.661 241.029 194.531 241.445 194.531H256.133C256.393 193.594 256.693 192.734 257.031 191.953C257.396 191.172 257.799 190.495 258.242 189.922C258.711 189.349 259.219 188.906 259.766 188.594C260.339 188.255 260.964 188.086 261.641 188.086C262.292 188.086 262.852 188.255 263.32 188.594C263.815 188.906 264.232 189.349 264.57 189.922C264.909 190.495 265.169 191.172 265.352 191.953C265.56 192.734 265.716 193.594 265.82 194.531H285.781C286.198 194.531 286.549 194.661 286.836 194.922C287.122 195.156 287.266 195.482 287.266 195.898ZM257.852 220.234C258.633 218.516 259.336 216.667 259.961 214.688C260.612 212.682 261.159 210.664 261.602 208.633C262.07 206.602 262.422 204.609 262.656 202.656C262.917 200.703 263.047 198.906 263.047 197.266H258.438C258.073 198.88 257.773 200.885 257.539 203.281C257.331 205.651 257.227 208.542 257.227 211.953C257.227 213.854 257.279 215.456 257.383 216.758C257.487 218.034 257.643 219.193 257.852 220.234ZM261.484 191.016C261.25 191.016 260.911 191.276 260.469 191.797C260.026 192.292 259.583 193.203 259.141 194.531H262.891C262.76 193.438 262.565 192.578 262.305 191.953C262.07 191.328 261.797 191.016 261.484 191.016ZM258.477 223.047V223.086V223.047ZM304.492 224.102C304.388 224.31 304.167 224.753 303.828 225.43C303.516 226.081 303.099 226.836 302.578 227.695C302.083 228.555 301.497 229.453 300.82 230.391C300.143 231.328 299.388 232.188 298.555 232.969C297.721 233.75 296.823 234.401 295.859 234.922C294.896 235.417 293.88 235.664 292.812 235.664C291.302 235.664 290.026 235.182 288.984 234.219C287.969 233.255 287.227 232.044 286.758 230.586C285.872 232.07 284.818 233.255 283.594 234.141C282.37 235 281.146 235.43 279.922 235.43C278.958 235.43 278.086 235.26 277.305 234.922C276.523 234.557 275.859 234.062 275.312 233.438C274.766 232.786 274.336 232.031 274.023 231.172C273.737 230.312 273.594 229.375 273.594 228.359C273.594 226.328 273.932 224.544 274.609 223.008C275.312 221.445 276.198 220.143 277.266 219.102C278.333 218.06 279.505 217.279 280.781 216.758C282.083 216.237 283.333 215.977 284.531 215.977C285.339 215.977 286.081 216.094 286.758 216.328C287.435 216.536 288.008 216.771 288.477 217.031C288.971 217.292 289.349 217.539 289.609 217.773C289.87 217.982 290.013 218.099 290.039 218.125C290.326 218.464 290.469 218.815 290.469 219.18C290.469 219.57 290.326 219.922 290.039 220.234C289.753 220.521 289.414 220.664 289.023 220.664C288.607 220.664 288.255 220.521 287.969 220.234C287.917 220.182 287.799 220.091 287.617 219.961C287.435 219.805 287.188 219.648 286.875 219.492C286.562 219.336 286.185 219.206 285.742 219.102C285.326 218.971 284.844 218.906 284.297 218.906C283.49 218.906 282.63 219.089 281.719 219.453C280.807 219.818 279.974 220.391 279.219 221.172C278.464 221.927 277.826 222.891 277.305 224.062C276.81 225.208 276.562 226.576 276.562 228.164C276.562 228.659 276.615 229.167 276.719 229.688C276.823 230.182 277.005 230.638 277.266 231.055C277.526 231.471 277.878 231.81 278.32 232.07C278.763 232.331 279.31 232.461 279.961 232.461C280.43 232.461 280.964 232.305 281.562 231.992C282.188 231.68 282.773 231.198 283.32 230.547C283.893 229.896 284.401 229.076 284.844 228.086C285.312 227.096 285.638 225.924 285.82 224.57C285.872 224.206 286.042 223.906 286.328 223.672C286.615 223.411 286.953 223.281 287.344 223.281C287.708 223.281 288.021 223.424 288.281 223.711C288.568 223.997 288.724 224.323 288.75 224.688C288.776 225.182 288.828 225.885 288.906 226.797C288.984 227.682 289.154 228.568 289.414 229.453C289.701 230.339 290.117 231.107 290.664 231.758C291.211 232.409 291.966 232.734 292.93 232.734C293.555 232.734 294.167 232.565 294.766 232.227C295.391 231.888 295.99 231.445 296.562 230.898C297.161 230.326 297.721 229.688 298.242 228.984C298.789 228.255 299.284 227.526 299.727 226.797C300.169 226.068 300.56 225.365 300.898 224.688C301.237 224.01 301.523 223.424 301.758 222.93C301.888 222.643 302.07 222.422 302.305 222.266C302.565 222.109 302.839 222.031 303.125 222.031C303.568 222.031 303.919 222.201 304.18 222.539C304.466 222.852 304.609 223.19 304.609 223.555C304.609 223.737 304.57 223.919 304.492 224.102ZM324.023 224.18C323.737 224.779 323.372 225.495 322.93 226.328C322.513 227.135 322.031 227.982 321.484 228.867C320.938 229.753 320.326 230.638 319.648 231.523C318.971 232.383 318.229 233.164 317.422 233.867C316.641 234.544 315.794 235.091 314.883 235.508C313.997 235.951 313.047 236.172 312.031 236.172C310.469 236.172 309.128 235.69 308.008 234.727C306.888 233.763 305.938 232.5 305.156 230.938C304.375 229.375 303.737 227.604 303.242 225.625C302.773 223.62 302.409 221.589 302.148 219.531C301.888 217.448 301.706 215.43 301.602 213.477C301.523 211.523 301.484 209.792 301.484 208.281C301.484 206.094 301.549 203.828 301.68 201.484C301.836 199.141 302.07 196.849 302.383 194.609C302.695 192.37 303.086 190.247 303.555 188.242C304.049 186.237 304.622 184.479 305.273 182.969C305.951 181.458 306.719 180.26 307.578 179.375C308.438 178.49 309.414 178.047 310.508 178.047C311.367 178.047 312.135 178.255 312.812 178.672C313.516 179.062 314.102 179.714 314.57 180.625C315.039 181.536 315.404 182.721 315.664 184.18C315.924 185.638 316.055 187.422 316.055 189.531C316.055 192.135 315.781 194.831 315.234 197.617C314.688 200.378 313.945 203.164 313.008 205.977C312.07 208.789 310.964 211.602 309.688 214.414C308.411 217.201 307.044 219.922 305.586 222.578C306.237 225.885 307.109 228.49 308.203 230.391C309.297 232.266 310.612 233.203 312.148 233.203C313.19 233.203 314.193 232.799 315.156 231.992C316.12 231.159 317.005 230.182 317.812 229.062C318.62 227.943 319.323 226.81 319.922 225.664C320.547 224.492 321.029 223.555 321.367 222.852C321.497 222.591 321.68 222.396 321.914 222.266C322.148 222.109 322.409 222.031 322.695 222.031C323.138 222.031 323.49 222.188 323.75 222.5C324.036 222.812 324.18 223.164 324.18 223.555C324.18 223.711 324.128 223.919 324.023 224.18ZM304.453 208.477C304.453 210.143 304.492 211.745 304.57 213.281C304.648 214.818 304.753 216.289 304.883 217.695C305.977 215.586 307.018 213.346 308.008 210.977C308.997 208.581 309.87 206.172 310.625 203.75C311.38 201.302 311.979 198.88 312.422 196.484C312.891 194.062 313.125 191.758 313.125 189.57C313.125 186.497 312.878 184.297 312.383 182.969C311.888 181.641 311.224 180.977 310.391 180.977C309.844 180.977 309.31 181.354 308.789 182.109C308.294 182.865 307.826 183.893 307.383 185.195C306.94 186.497 306.536 188.034 306.172 189.805C305.807 191.576 305.495 193.477 305.234 195.508C305 197.539 304.805 199.661 304.648 201.875C304.518 204.089 304.453 206.289 304.453 208.477Z" fill="black"/>
<g clip-path="url(#clip0_9_20)">
<path d="M110.654 131.224C110.834 102.144 111.005 73.1119 111.167 44.1276C111.175 43.2103 111.507 42.323 112.108 41.6126C112.71 40.9021 113.546 40.4113 114.477 40.2213V40.2213C116.836 39.7612 119.222 39.4351 121.622 39.2448C121.408 40.9914 121.555 42.7614 122.054 44.4531C122.324 45.3864 122.695 46.2898 123.161 47.1484C121.811 47.2395 120.622 47.3567 119.474 47.513L119.001 127.305C128.672 126.966 142.03 128.151 150.931 130.95C158.077 133.184 164.814 136.489 170.894 140.742V97.2786C173.655 97.7929 176.497 97.753 179.241 97.1614V141.523C186.009 137.053 193.322 133.401 201.014 130.651C210.738 127.652 220.957 126.429 231.147 127.044V47.7083C228.905 47.5 226.447 47.4088 223.867 47.4088C224.208 47.122 224.533 46.8177 224.84 46.4974L225.528 45.7682C227.042 43.9564 228.017 41.783 228.351 39.4791C231.053 39.5963 233.551 39.8307 235.929 40.1562C236.925 40.2912 237.837 40.7688 238.498 41.5009C239.158 42.233 239.521 43.1705 239.521 44.1406V44.1406V131.575C239.521 132.105 239.413 132.629 239.202 133.118C238.992 133.607 238.683 134.051 238.294 134.425C237.905 134.799 237.443 135.095 236.936 135.296C236.428 135.498 235.883 135.601 235.334 135.599C235.012 135.597 234.69 135.562 234.375 135.495C224.111 134.21 213.68 135.144 203.837 138.229C196.569 140.862 189.672 144.361 183.307 148.646C192.258 145.955 201.592 144.637 210.968 144.74C222.998 144.928 234.969 146.39 246.666 149.102C246.666 118.607 246.666 88.1076 246.666 57.6041H250.853C251.96 57.6041 253.022 58.028 253.805 58.7826C254.587 59.5371 255.027 60.5605 255.027 61.6276V154.375C255.027 155.442 254.587 156.465 253.805 157.22C253.022 157.975 251.96 158.398 250.853 158.398C250.395 158.396 249.939 158.326 249.503 158.19C236.93 154.857 223.978 153.034 210.941 152.76C199.397 152.602 187.954 154.844 177.391 159.336C176.685 159.782 175.857 160.013 175.014 160C174.174 160.013 173.351 159.781 172.65 159.336C162.088 154.839 150.645 152.587 139.099 152.734C126.063 153.008 113.111 154.832 100.538 158.164C100.101 158.301 99.6458 158.371 99.1871 158.372C98.6379 158.374 98.0937 158.271 97.5858 158.07C97.0778 157.868 96.6162 157.572 96.2272 157.199C95.8382 156.825 95.5296 156.381 95.319 155.892C95.1084 155.403 95 154.878 95 154.349V61.6015C95 60.5344 95.4397 59.5111 96.2224 58.7565C97.0051 58.002 98.0667 57.5781 99.1736 57.5781H103.361V149.075C115.058 146.363 127.029 144.9 139.059 144.714C149.105 144.597 159.1 146.111 168.625 149.193C162.602 144.493 155.735 140.9 148.365 138.594C139.18 135.703 125.404 134.687 115.165 135.586C114.619 135.63 114.068 135.57 113.546 135.409C113.023 135.248 112.539 134.988 112.121 134.646C111.703 134.303 111.36 133.884 111.11 133.413C110.861 132.942 110.71 132.428 110.668 131.901C110.641 131.676 110.641 131.449 110.668 131.224H110.654ZM191.249 119.792C190.919 119.998 190.552 120.139 190.166 120.208C189.78 120.277 189.384 120.272 189 120.194C188.616 120.115 188.252 119.964 187.929 119.75C187.606 119.536 187.329 119.262 187.115 118.945C186.902 118.628 186.755 118.273 186.683 117.902C186.612 117.53 186.617 117.148 186.698 116.778C186.78 116.408 186.936 116.057 187.158 115.745C187.381 115.433 187.664 115.167 187.993 114.961C192.8 112.084 197.964 109.804 203.364 108.177C208.823 106.393 214.489 105.265 220.234 104.818C220.626 104.794 221.019 104.844 221.391 104.967C221.762 105.089 222.105 105.281 222.4 105.532C222.695 105.782 222.935 106.086 223.108 106.426C223.281 106.766 223.383 107.135 223.408 107.513C223.433 107.891 223.38 108.27 223.253 108.628C223.126 108.986 222.927 109.317 222.667 109.601C222.408 109.885 222.093 110.117 221.74 110.284C221.387 110.451 221.004 110.549 220.612 110.573C215.368 110.989 210.196 112.025 205.214 113.659C200.309 115.126 195.616 117.187 191.249 119.792V119.792ZM191.249 97.5C190.702 97.8327 190.059 97.9857 189.415 97.9359C188.771 97.8861 188.161 97.6362 187.677 97.2238C187.193 96.8114 186.861 96.2588 186.73 95.6488C186.6 95.0388 186.678 94.4045 186.953 93.8411C187.771 93.2639 188.539 92.6238 189.25 91.927C193.696 89.452 198.405 87.444 203.296 85.9375C208.685 84.2071 214.274 83.1183 219.937 82.6953C220.329 82.6739 220.721 82.7272 221.092 82.852C221.462 82.9769 221.804 83.1709 222.097 83.423C222.39 83.6751 222.628 83.9803 222.799 84.3213C222.969 84.6622 223.068 85.0322 223.09 85.4101C223.113 85.788 223.057 86.1664 222.928 86.5237C222.798 86.881 222.597 87.2102 222.336 87.4926C222.074 87.7749 221.757 88.0048 221.404 88.1691C221.05 88.3335 220.666 88.4291 220.274 88.4505C215.12 88.8641 210.037 89.874 205.133 91.4583C200.26 92.9185 195.589 94.9429 191.221 97.4869L191.249 97.5ZM199.474 65.1041C200.73 64.6614 202.013 64.2317 203.283 63.802C208.654 62.0701 214.224 60.977 219.869 60.5468C220.661 60.5054 221.437 60.7688 222.027 61.2792C222.617 61.7895 222.973 62.505 223.016 63.2682C223.059 64.0314 222.786 64.7798 222.257 65.3487C221.727 65.9177 220.985 66.2606 220.193 66.302C215.057 66.7062 209.991 67.7119 205.106 69.2968C201.652 70.3446 198.288 71.6507 195.044 73.2031C195.044 72.7343 195.044 72.2786 195.111 71.8099L195.328 70.8593L195.814 70.1823C196.908 68.5026 198.191 66.7838 199.474 65.052V65.1041ZM162.007 114.948C162.673 115.364 163.14 116.018 163.306 116.767C163.472 117.515 163.323 118.296 162.891 118.939C162.46 119.581 161.781 120.032 161.005 120.192C160.228 120.352 159.418 120.208 158.751 119.792C154.387 117.192 149.699 115.136 144.799 113.672C139.83 112.039 134.673 110.998 129.442 110.573C128.65 110.531 127.908 110.189 127.379 109.62C126.849 109.051 126.576 108.302 126.619 107.539C126.662 106.776 127.018 106.06 127.608 105.55C128.198 105.04 128.974 104.776 129.766 104.818C135.515 105.262 141.185 106.386 146.649 108.164C152.044 109.794 157.204 112.073 162.007 114.948V114.948ZM163.047 93.75C163.336 94.3123 163.426 94.9502 163.304 95.5667C163.182 96.1831 162.855 96.7442 162.371 97.1645C161.888 97.5848 161.275 97.8413 160.626 97.8948C159.978 97.9483 159.329 97.7959 158.778 97.4609C154.417 94.9143 149.75 92.8899 144.88 91.4323C139.976 89.8504 134.893 88.8406 129.739 88.4244C129.329 88.4273 128.923 88.3489 128.546 88.1939C128.169 88.0389 127.83 87.8108 127.548 87.5237C127.267 87.2366 127.049 86.8967 126.91 86.5252C126.771 86.1536 126.712 85.7584 126.738 85.3642C126.764 84.9699 126.874 84.585 127.061 84.2335C127.248 83.882 127.509 83.5714 127.825 83.321C128.142 83.0706 128.51 82.8859 128.904 82.7782C129.298 82.6706 129.711 82.6423 130.117 82.6953C135.763 83.12 141.333 84.2088 146.704 85.9375C151.845 87.4827 156.781 89.6022 161.412 92.2526C161.923 92.7849 162.469 93.2851 163.047 93.75V93.75ZM154.862 73.138C151.646 71.5961 148.313 70.2903 144.894 69.2317C140.009 67.6468 134.943 66.6411 129.807 66.2369C129.063 66.1418 128.383 65.78 127.903 65.2235C127.424 64.667 127.179 63.9567 127.218 63.2341C127.257 62.5115 127.577 61.8296 128.115 61.3244C128.652 60.8191 129.367 60.5276 130.117 60.5078C135.769 60.9495 141.344 62.0558 146.717 63.802C148.162 64.2578 149.607 64.7395 151.026 65.2734C151.628 65.9744 152.153 66.7336 152.592 67.539C153.221 68.6675 153.754 69.8432 154.186 71.0546C154.322 71.499 154.489 71.934 154.686 72.3567L154.835 73.2161L154.862 73.138Z" fill="black"/>
<path d="M183.158 83.5547C182.295 84.9923 181.056 86.1866 179.565 87.0182C178.33 87.7185 176.943 88.1331 175.513 88.2292C174.052 88.3171 172.593 88.0437 171.272 87.4349C170.331 86.9841 169.48 86.3757 168.76 85.638L183.226 83.5547H183.158ZM185.157 68.8281L184.684 70.9375L184.576 72.4479L165.667 75.1563C165.619 73.9925 165.474 72.8343 165.235 71.6927L185.211 68.8281H185.157ZM184.536 75.7552V76.6667V76.9792C184.576 77.5775 184.576 78.1777 184.536 78.776L184.252 80.0781L166.693 82.5912L166.383 81.9141L165.694 79.2188V78.4375L184.455 75.7422L184.536 75.7552Z" fill="#5C546A"/>
<path d="M159.049 59.2188C156.587 56.7136 154.525 53.8701 152.93 50.7813C151.182 47.338 150.259 43.56 150.229 39.7266C150.323 35.5978 151.434 31.5498 153.47 27.9167V27.8255C156.061 23.4819 160.09 20.1025 164.911 18.2292C168.657 16.7786 172.711 16.2202 176.729 16.6016C180.709 16.9508 184.56 18.1423 188.007 20.0912C192.418 22.5446 195.876 26.3217 197.853 30.8464C199.116 33.7308 199.767 36.83 199.767 39.9609C199.767 43.0919 199.116 46.1911 197.853 49.0755C195.625 54.4141 190.398 60.1302 187.048 65.3776L164.262 68.5287C163.139 65.1402 161.371 61.9831 159.049 59.2188V59.2188Z" fill="#F4BB2C"/>
<path d="M135.142 44.2708C134.384 44.2811 133.652 44.0054 133.102 43.5026C132.541 42.9873 132.207 42.283 132.17 41.5365C132.159 41.166 132.223 40.797 132.36 40.4507C132.497 40.1043 132.703 39.7874 132.967 39.5182C133.229 39.2486 133.545 39.0325 133.895 38.8826C134.245 38.7328 134.623 38.6523 135.007 38.6458L141.382 38.4245C141.766 38.4118 142.149 38.4732 142.509 38.6051C142.868 38.7371 143.197 38.9368 143.475 39.1927C143.759 39.4428 143.987 39.7462 144.145 40.0843C144.303 40.4224 144.388 40.7881 144.394 41.1589V41.263C144.384 41.9854 144.084 42.676 143.558 43.1904C143.032 43.7049 142.32 44.0033 141.571 44.0234H141.463L135.142 44.2708ZM174.46 2.76042C174.47 2.02021 174.785 1.31421 175.334 0.796891C175.883 0.27957 176.623 -0.00695619 177.391 1.75401e-06H177.593C178.307 0.0557649 178.975 0.361457 179.471 0.859377C179.994 1.3934 180.28 2.10379 180.268 2.83854V2.83854C180.275 2.88602 180.275 2.9343 180.268 2.98177L180.092 9.01042C180.098 9.07103 180.098 9.13209 180.092 9.19271C180.043 9.88301 179.724 10.5298 179.201 11.0026C178.647 11.5098 177.911 11.7899 177.147 11.7839H176.958C176.22 11.731 175.531 11.4098 175.029 10.8852C174.528 10.3605 174.252 9.67177 174.257 8.95834V8.95834C174.25 8.90645 174.25 8.85397 174.257 8.80209L174.406 2.77344L174.46 2.76042ZM202.054 11.0417C202.267 10.7345 202.542 10.4709 202.861 10.266C203.18 10.0611 203.538 9.91886 203.915 9.84751C204.291 9.77615 204.678 9.77704 205.054 9.85013C205.43 9.92322 205.788 10.0671 206.106 10.2734V10.2734C206.423 10.4774 206.695 10.7401 206.906 11.0464C207.117 11.3526 207.263 11.6963 207.335 12.0573C207.48 12.7878 207.325 13.5443 206.903 14.1667L203.337 19.2839C203.126 19.5917 202.854 19.856 202.536 20.0617C202.219 20.2673 201.862 20.4101 201.487 20.4818C200.724 20.6284 199.933 20.4787 199.285 20.0651C198.639 19.6322 198.193 18.9736 198.042 18.2292C197.901 17.4969 198.061 16.7403 198.488 16.1198L202.054 10.9896V11.0417ZM214.642 35.5599H214.737C215.465 35.5196 216.182 35.7424 216.749 36.1849C217.347 36.6608 217.73 37.3427 217.816 38.0859V38.0859C217.816 38.0859 217.816 38.1641 217.816 38.1771C217.86 38.8833 217.629 39.5798 217.168 40.1302C216.924 40.4162 216.625 40.6531 216.287 40.8274C215.948 41.0016 215.578 41.1099 215.196 41.1458L208.848 41.7969C208.466 41.8365 208.08 41.8027 207.712 41.6976C207.344 41.5924 207.001 41.4179 206.703 41.1842C206.406 40.9505 206.159 40.6622 205.978 40.336C205.796 40.0099 205.684 39.6522 205.647 39.2839C205.602 38.9174 205.636 38.546 205.745 38.1923C205.854 37.8387 206.036 37.5101 206.281 37.2266C206.768 36.6483 207.472 36.2786 208.24 36.1979C210.374 35.9766 212.494 35.7422 214.629 35.5469L214.642 35.5599ZM142.8 13.2813C142.378 12.9026 142.081 12.4119 141.948 11.871C141.815 11.33 141.852 10.7633 142.052 10.2422C142.253 9.72108 142.61 9.26908 143.077 8.94324C143.544 8.6174 144.101 8.43235 144.677 8.41146C145.444 8.37395 146.195 8.62623 146.771 9.11459L151.444 13.3203C151.727 13.5697 151.955 13.8709 152.115 14.2063C152.275 14.5417 152.364 14.9045 152.376 15.2734C152.394 15.828 152.241 16.3753 151.938 16.8469C151.635 17.3186 151.194 17.6937 150.672 17.9256C150.149 18.1575 149.567 18.2359 148.998 18.1509C148.429 18.066 147.899 17.8215 147.473 17.4479L142.8 13.2813Z" fill="black"/>
</g>
<defs>
<clipPath id="clip0_9_20">
<rect width="160" height="160" fill="white" transform="translate(95)"/>
</clipPath>
</defs>
</svg>
