<svg xmlns="http://www.w3.org/2000/svg" viewBox="0 0 500 500"><g id="freepik--background-complete--inject-2"><rect y="382.4" width="500" height="0.25" style="fill:#ebebeb"></rect><rect x="416.78" y="398.49" width="33.12" height="0.25" style="fill:#ebebeb"></rect><rect x="322.53" y="401.21" width="8.69" height="0.25" style="fill:#ebebeb"></rect><rect x="396.59" y="389.21" width="19.19" height="0.25" style="fill:#ebebeb"></rect><rect x="52.46" y="390.89" width="43.19" height="0.25" style="fill:#ebebeb"></rect><rect x="104.56" y="390.89" width="6.33" height="0.25" style="fill:#ebebeb"></rect><rect x="131.47" y="395.11" width="93.68" height="0.25" style="fill:#ebebeb"></rect><path d="M237,337.8H43.91a5.71,5.71,0,0,1-5.7-5.71V60.66A5.71,5.71,0,0,1,43.91,55H237a5.71,5.71,0,0,1,5.71,5.71V332.09A5.71,5.71,0,0,1,237,337.8ZM43.91,55.2a5.46,5.46,0,0,0-5.45,5.46V332.09a5.46,5.46,0,0,0,5.45,5.46H237a5.47,5.47,0,0,0,5.46-5.46V60.66A5.47,5.47,0,0,0,237,55.2Z" style="fill:#ebebeb"></path><path d="M453.31,337.8H260.21a5.72,5.72,0,0,1-5.71-5.71V60.66A5.72,5.72,0,0,1,260.21,55h193.1A5.71,5.71,0,0,1,459,60.66V332.09A5.71,5.71,0,0,1,453.31,337.8ZM260.21,55.2a5.47,5.47,0,0,0-5.46,5.46V332.09a5.47,5.47,0,0,0,5.46,5.46h193.1a5.47,5.47,0,0,0,5.46-5.46V60.66a5.47,5.47,0,0,0-5.46-5.46Z" style="fill:#ebebeb"></path><rect x="69.95" y="114.13" width="130.44" height="6.7" style="fill:#e0e0e0"></rect><rect x="75.95" y="89.43" width="5.75" height="24.7" style="fill:#ebebeb"></rect><rect x="103.74" y="89.43" width="5.75" height="24.7" style="fill:#ebebeb"></rect><rect x="137.42" y="89.12" width="5.75" height="24.7" transform="translate(-15.2 25.3) rotate(-9.78)" style="fill:#ebebeb"></rect><rect x="83.07" y="92.68" width="5.75" height="21.45" style="fill:#ebebeb"></rect><rect x="96.28" y="92.68" width="5.75" height="21.45" style="fill:#ebebeb"></rect><rect x="129.62" y="92.68" width="5.75" height="21.45" style="fill:#ebebeb"></rect><rect x="113.68" y="92.32" width="5.75" height="21.45" transform="translate(-19.57 27.73) rotate(-12.53)" style="fill:#ebebeb"></rect><rect x="90.92" y="88.2" width="2.87" height="25.93" style="fill:#ebebeb"></rect><rect x="125.1" y="88.2" width="2.87" height="25.93" style="fill:#ebebeb"></rect><rect x="159.87" y="94.58" width="28" height="19.33" style="fill:#ebebeb"></rect><rect x="69.95" y="164.16" width="130.44" height="6.7" transform="translate(270.34 335.03) rotate(180)" style="fill:#e0e0e0"></rect><rect x="188.64" y="139.46" width="5.75" height="24.7" transform="translate(383.02 303.62) rotate(180)" style="fill:#ebebeb"></rect><rect x="160.85" y="139.46" width="5.75" height="24.7" transform="translate(327.45 303.62) rotate(180)" style="fill:#ebebeb"></rect><rect x="127.17" y="139.15" width="5.75" height="24.7" transform="translate(232.46 322.89) rotate(-170.22)" style="fill:#ebebeb"></rect><rect x="181.52" y="142.72" width="5.75" height="21.45" transform="translate(368.78 306.88) rotate(180)" style="fill:#ebebeb"></rect><rect x="168.31" y="142.72" width="5.75" height="21.45" transform="translate(342.36 306.88) rotate(180)" style="fill:#ebebeb"></rect><rect x="134.97" y="142.72" width="5.75" height="21.45" transform="translate(275.68 306.88) rotate(180)" style="fill:#ebebeb"></rect><rect x="150.91" y="142.35" width="5.75" height="21.45" transform="translate(270.7 335.85) rotate(-167.47)" style="fill:#ebebeb"></rect><rect x="176.55" y="138.23" width="2.87" height="25.93" transform="translate(355.97 302.4) rotate(180)" style="fill:#ebebeb"></rect><rect x="142.37" y="138.23" width="2.87" height="25.93" transform="translate(287.61 302.4) rotate(180)" style="fill:#ebebeb"></rect><rect x="82.46" y="144.61" width="28" height="19.33" transform="translate(192.93 308.55) rotate(180)" style="fill:#ebebeb"></rect><rect x="295.84" y="90.84" width="130.92" height="144.87" style="fill:#e9e9e9"></rect><rect x="301.6" y="96.58" width="119.74" height="133.69" style="fill:#f4f4f4"></rect><polygon points="335.44 96.58 301.6 223.32 301.6 154.71 317.09 96.58 335.44 96.58" style="fill:#fff"></polygon><polygon points="350.57 96.58 314.88 230.27 308.15 230.27 343.83 96.58 350.57 96.58" style="fill:#fff"></polygon><polygon points="421.34 133.04 421.34 201.66 413.76 230.27 395.4 230.27 421.34 133.04" style="fill:#fff"></polygon><rect x="358.97" y="90.84" width="4.65" height="144.87" style="fill:#e9e9e9"></rect><rect x="298.11" y="120.24" width="126.13" height="4.65" style="fill:#e9e9e9"></rect><path d="M443.63,312.23c-1.8-3-4.77-.38-4.77-.38.43-5.68-4.8-9.57-4.8-9.57s6.07,0,6.92-5.79-2.12-3.1-4.9-3.14-5.69,8.09-2,12.66,2.68,12.36-5.78,19.87a16.48,16.48,0,0,0-4.42,6.9c.63-6.89,1-16.6-1-23.09-3.45-11,3.12-14,5-19.48s-5-10.16-5-10.16,6.5-3,3.33-6.35-9.74-2.93-9.74,1.5,4.45,6.12,4.45,6.12,5.08,5.29,5.08,8.05-5.08,8.68-5.08,8.68,2.32-5.08-2.33-5.29-6.14,5.92-4.24,8.68,5.08.42,5.08.42a53.45,53.45,0,0,0,1.46,9.53c.48,1.58.25,7.79-.15,14.25a16.09,16.09,0,0,0-4.12-6.12c-8.47-7.5-9.46-15.3-5.79-19.87s.76-12.69-2-12.65-5.74-2.66-4.9,3.14,6.92,5.79,6.92,5.79-5.22,3.89-4.8,9.57c0,0-3-2.58-4.76.38-3.22,5.29,4.23,8.58,5.48,6,0,0,15.79,11.18,12,27.27l.89,1.31c-.12,1.3-.19,2.08-.19,2.08l1.24-.53,1.4,2.07a48.27,48.27,0,0,0,.36,7l3.78-5.57c-3.81-16.1,12-27.28,12-27.28C439.39,320.81,446.84,317.53,443.63,312.23Z" style="fill:#e0e0e0"></path><path d="M443.63,312.23c-1.8-3-4.77-.38-4.77-.38.43-5.68-4.8-9.57-4.8-9.57s6.07,0,6.92-5.79-2.12-3.1-4.9-3.14-5.69,8.09-2,12.66,2.68,12.36-5.78,19.87a16.48,16.48,0,0,0-4.42,6.9c.63-6.89,1-16.6-1-23.09-3.45-11,3.12-14,5-19.48s-5-10.16-5-10.16,6.5-3,3.33-6.35-9.74-2.93-9.74,1.5,4.45,6.12,4.45,6.12,5.08,5.29,5.08,8.05-5.08,8.68-5.08,8.68,2.32-5.08-2.33-5.29-6.14,5.92-4.24,8.68,5.08.42,5.08.42a53.45,53.45,0,0,0,1.46,9.53c.48,1.58.25,7.79-.15,14.25a16.09,16.09,0,0,0-4.12-6.12c-8.47-7.5-9.46-15.3-5.79-19.87s.76-12.69-2-12.65-5.74-2.66-4.9,3.14,6.92,5.79,6.92,5.79-5.22,3.89-4.8,9.57c0,0-3-2.58-4.76.38-3.22,5.29,4.23,8.58,5.48,6,0,0,15.79,11.18,12,27.27l.89,1.31c-.12,1.3-.19,2.08-.19,2.08l1.24-.53,1.4,2.07a48.27,48.27,0,0,0,.36,7l3.78-5.57c-3.81-16.1,12-27.28,12-27.28C439.39,320.81,446.84,317.53,443.63,312.23Z" style="fill:#e0e0e0;opacity:0.2;isolation:isolate"></path><polygon points="440.54 380.88 404.36 380.88 400.46 341.27 444.44 341.27 440.54 380.88" style="fill:#e6e6e6"></polygon><rect x="398.53" y="336.9" width="47.84" height="8.74" style="fill:#f0f0f0"></rect></g><g id="freepik--Shadow--inject-2"><ellipse id="freepik--path--inject-2" cx="250" cy="416.24" rx="193.89" ry="11.32" style="fill:#f5f5f5"></ellipse></g><g id="freepik--Bookshelf--inject-2"><rect x="66.45" y="194.07" width="176.02" height="220.8" transform="translate(308.93 608.95) rotate(180)" style="fill:#407BFF"></rect><rect x="66.45" y="194.07" width="176.12" height="220.23" style="fill:#fff;opacity:0.5"></rect><rect x="97.68" y="201" width="139.59" height="40.67" style="opacity:0.2;isolation:isolate"></rect><rect x="97.68" y="207.59" width="7.93" height="34.09" style="fill:#fff;opacity:0.5"></rect><rect x="136.02" y="207.59" width="7.93" height="34.09" style="fill:#fff;opacity:0.5"></rect><rect x="182.5" y="207.16" width="7.93" height="34.09" transform="translate(-35.37 34.93) rotate(-9.78)" style="fill:#fff;opacity:0.5"></rect><rect x="107.5" y="212.08" width="7.93" height="29.6" style="fill:#fff;opacity:0.5"></rect><rect x="125.73" y="212.08" width="7.93" height="29.6" style="fill:#fff;opacity:0.5"></rect><rect x="171.74" y="212.08" width="7.93" height="29.6" style="fill:#fff;opacity:0.5"></rect><rect x="149.74" y="211.57" width="7.93" height="29.6" transform="translate(-45.44 38.73) rotate(-12.53)" style="fill:#fff;opacity:0.5"></rect><rect x="118.33" y="205.9" width="3.96" height="35.78" style="fill:#fff;opacity:0.5"></rect><rect x="165.49" y="205.9" width="3.96" height="35.78" style="fill:#fff;opacity:0.5"></rect><rect x="97.68" y="248.12" width="139.59" height="40.67" transform="translate(334.95 536.91) rotate(180)" style="opacity:0.2;isolation:isolate"></rect><rect x="229.34" y="254.7" width="7.93" height="34.09" transform="translate(466.61 543.49) rotate(180)" style="fill:#fff;opacity:0.5"></rect><rect x="191" y="254.7" width="7.93" height="34.09" transform="translate(389.92 543.49) rotate(180)" style="fill:#fff;opacity:0.5"></rect><rect x="144.52" y="254.28" width="7.93" height="34.09" transform="translate(248.72 563.92) rotate(-170.22)" style="fill:#fff;opacity:0.5"></rect><rect x="219.51" y="259.19" width="7.93" height="29.6" transform="translate(446.96 547.98) rotate(180)" style="fill:#fff;opacity:0.5"></rect><rect x="201.29" y="259.19" width="7.93" height="29.6" transform="translate(410.5 547.98) rotate(180)" style="fill:#fff;opacity:0.5"></rect><rect x="155.28" y="259.19" width="7.93" height="29.6" transform="translate(318.49 547.98) rotate(180)" style="fill:#fff;opacity:0.5"></rect><rect x="177.28" y="258.69" width="7.93" height="29.6" transform="translate(298.85 579.77) rotate(-167.47)" style="fill:#fff;opacity:0.5"></rect><rect x="212.66" y="253.01" width="3.96" height="35.78" transform="translate(429.28 541.8) rotate(180)" style="fill:#fff;opacity:0.5"></rect><rect x="165.49" y="253.01" width="3.96" height="35.78" transform="translate(334.95 541.8) rotate(180)" style="fill:#fff;opacity:0.5"></rect><rect x="97.68" y="254.7" width="7.93" height="34.09" style="fill:#fff;opacity:0.5"></rect><rect x="107.5" y="259.19" width="7.93" height="29.6" style="fill:#fff;opacity:0.5"></rect><rect x="125.73" y="259.19" width="7.93" height="29.6" style="fill:#fff;opacity:0.5"></rect><rect x="118.33" y="253.01" width="3.96" height="35.78" style="fill:#fff;opacity:0.5"></rect><rect x="97.68" y="295.23" width="139.59" height="40.67" style="opacity:0.2;isolation:isolate"></rect><g style="opacity:0.5"><rect x="177.8" y="301.82" width="7.93" height="34.09" style="fill:#fff"></rect><rect x="224.28" y="301.39" width="7.93" height="34.09" transform="translate(-50.77 43.39) rotate(-9.78)" style="fill:#fff"></rect><rect x="149.28" y="306.31" width="7.93" height="29.6" style="fill:#fff"></rect><rect x="167.51" y="306.31" width="7.93" height="29.6" style="fill:#fff"></rect><rect x="213.51" y="306.31" width="7.93" height="29.6" style="fill:#fff"></rect><rect x="191.52" y="305.8" width="7.93" height="29.6" transform="translate(-64.89 50.03) rotate(-12.53)" style="fill:#fff"></rect><rect x="160.1" y="300.12" width="3.96" height="35.78" style="fill:#fff"></rect><rect x="207.27" y="300.12" width="3.96" height="35.78" style="fill:#fff"></rect><rect x="133.05" y="301.39" width="7.93" height="34.09" transform="translate(-52.09 27.9) rotate(-9.78)" style="fill:#fff"></rect><rect x="122.28" y="306.31" width="7.93" height="29.6" style="fill:#fff"></rect><rect x="100.29" y="305.8" width="7.93" height="29.6" transform="translate(-67.06 30.25) rotate(-12.53)" style="fill:#fff"></rect><rect x="116.04" y="300.12" width="3.96" height="35.78" style="fill:#fff"></rect></g><rect x="66.45" y="194.07" width="25.91" height="220.8" transform="translate(158.82 608.95) rotate(180)" style="opacity:0.2;isolation:isolate"></rect><rect x="170.16" y="343.12" width="66.07" height="62.57" style="opacity:0.1;isolation:isolate"></rect><rect x="97.68" y="343.12" width="67.21" height="62.57" style="opacity:0.1;isolation:isolate"></rect><path d="M160.87,371.23a3.18,3.18,0,1,1-3.18-3.18A3.18,3.18,0,0,1,160.87,371.23Z" style="opacity:0.2;isolation:isolate"></path><path d="M179.87,371.23a3.18,3.18,0,1,1-3.18-3.18A3.18,3.18,0,0,1,179.87,371.23Z" style="opacity:0.2;isolation:isolate"></path></g></svg>