<svg width="1360" height="768" viewBox="0 0 1360 768" fill="none" xmlns="http://www.w3.org/2000/svg">
<rect width="1360" height="768" fill="white"/>
<g opacity="0.3">
<path d="M899.304 500.445C895.745 498.214 891.719 496.831 887.54 496.404C885.616 496.207 883.512 496.258 881.975 497.425C881.649 497.674 881.323 498.034 881.4 498.438C881.486 498.729 881.679 498.978 881.941 499.133C884.44 500.912 887.379 501.976 890.439 502.207C893.499 502.438 896.565 501.829 899.304 500.445" fill="#E0E0E0"/>
<path d="M899.003 500.119C896.28 498.117 893.737 495.88 891.404 493.436C889.066 490.972 887.422 487.935 886.638 484.632C886.484 484.142 886.438 483.625 886.504 483.115C886.569 482.606 886.744 482.117 887.016 481.681C893.078 486.408 897.835 492.526 899.037 500.119" fill="#E0E0E0"/>
<path d="M899.243 500.403C898.683 497.098 898.73 493.72 899.381 490.433C900.059 487.122 901.956 484.185 904.696 482.204C905.743 484.65 905.297 487.464 904.559 490.021C903.415 493.977 901.634 497.721 899.286 501.106" fill="#E0E0E0"/>
<path d="M905.185 511.033C901.579 511.471 898.436 513.375 895.74 515.804C893.042 518.269 891.169 521.504 890.373 525.07C893.911 524.847 896.908 522.359 899.089 519.562C901.27 516.765 902.772 513.701 905.16 511.093" fill="#E0E0E0"/>
<path d="M906.473 512.732C905.055 509.134 904.558 505.239 905.028 501.4C905.497 497.562 906.918 493.901 909.161 490.75C911.213 498.043 910.457 506.288 906.473 512.741" fill="#E0E0E0"/>
<path d="M914.322 522.076C911.027 521.867 907.743 522.633 904.882 524.278C902.02 525.923 899.706 528.374 898.23 531.325C898.024 531.728 897.852 532.234 898.118 532.586C898.257 532.721 898.426 532.821 898.612 532.876C898.797 532.931 898.993 532.941 899.183 532.904C902.36 532.698 905.194 530.793 907.487 528.614C909.779 526.434 911.823 523.929 914.356 522.058" fill="#E0E0E0"/>
<path d="M914.072 521.561C912.382 516.129 912.277 510.327 913.772 504.838C914.356 502.685 915.352 500.411 917.344 499.407C917.497 499.317 917.678 499.289 917.851 499.33C918.015 499.41 918.142 499.552 918.203 499.725C918.873 501.233 919.168 502.882 919.061 504.529C918.942 506.166 918.69 507.79 918.306 509.386C917.679 512.354 917.344 515.546 915.73 518.103C915.348 518.722 915.004 519.364 914.699 520.025C914.39 520.668 914.382 520.883 914.107 521.415" fill="#E0E0E0"/>
<path d="M934.835 524.658C933.298 518.807 934.93 511.72 938.622 506.923C938.897 506.572 939.257 506.194 939.695 506.228C940.374 506.297 940.554 507.198 940.554 507.876C940.277 513.893 938.307 519.71 934.869 524.658" fill="#E0E0E0"/>
<path d="M936.741 525.928C940.373 526.784 944.147 526.844 947.804 526.104C951.46 525.363 954.913 523.839 957.925 521.638C954.378 519.859 950.325 519.361 946.453 520.231C942.623 521.089 939.12 522.805 936.741 525.945" fill="#E0E0E0"/>
<path d="M938.287 522.041C942.271 515.555 949.913 511.316 957.521 510.887C956.662 513.985 954.086 516.387 951.227 517.837C948.29 519.157 945.183 520.064 941.996 520.531C940.769 520.771 939.086 521.037 938.287 521.998" fill="#E0E0E0"/>
<path d="M935.239 503.14C936.439 499.484 937.262 495.714 937.695 491.891C938.122 488.031 937.339 484.133 935.453 480.737C931.727 487.927 931.358 496.336 935.127 503.5" fill="#E0E0E0"/>
<path d="M947.758 496.816C952.112 488.914 960.99 482.608 969.972 481.724C966.537 490.304 957.092 497.005 947.758 496.816Z" fill="#E0E0E0"/>
<path d="M945.027 498.369C951.51 499.356 957.049 503.517 963.102 506.005C964.375 506.613 965.783 506.882 967.19 506.786C967.846 506.781 968.484 506.575 969.019 506.195C969.553 505.815 969.957 505.28 970.177 504.662C970.396 504.045 970.42 503.375 970.245 502.743C970.07 502.111 969.705 501.549 969.199 501.132C968.339 500.339 967.329 499.726 966.228 499.33C959.625 496.584 952.541 496.516 945.62 498.18" fill="#E0E0E0"/>
<path d="M941.266 502.916C942.735 503.337 943.241 504.092 944.401 505.087C948.378 508.456 953.079 510.864 958.139 512.123C958.663 512.251 959.35 512.303 959.608 511.831C959.865 511.359 959.548 510.913 959.256 510.553C957.052 507.97 954.193 506.028 950.978 504.933C947.81 503.757 945.07 502.359 941.292 502.642" fill="#E0E0E0"/>
<path d="M937.033 475.452C939.695 477.902 942.839 479.77 946.266 480.934C949.692 482.098 953.324 482.534 956.929 482.213C957.244 482.205 957.547 482.09 957.787 481.887C958.285 481.338 957.684 480.505 957.1 480.051C951.253 475.495 944.169 473.599 936.99 475.452" fill="#E0E0E0"/>
<path d="M942.057 473.59C945.579 471.002 949.663 469.281 953.978 468.57C958.292 467.859 962.713 468.177 966.88 469.497C963.633 472.508 959.464 474.337 955.048 474.688C950.687 475.088 946.289 474.716 942.057 473.59" fill="#E0E0E0"/>
<path d="M940.056 460.986C939.48 455.16 939.858 450.553 939.455 444.684C939.455 444.212 939.317 443.654 938.879 443.483C938.27 443.251 937.763 443.998 937.557 444.615C936.709 447.332 936.493 450.207 936.925 453.02C937.356 455.833 938.424 458.51 940.047 460.849" fill="#E0E0E0"/>
<path d="M939.635 461.638C943.449 459.175 946.738 455.982 949.312 452.243C951.218 449.669 952.833 446.503 952.395 443.294C951.053 443.328 949.735 443.652 948.531 444.245C947.328 444.837 946.267 445.684 945.422 446.726C943.752 448.835 942.541 451.269 941.868 453.873C941.086 456.447 940.545 459.081 939.635 461.595" fill="#E0E0E0"/>
<path d="M949.141 459.004C957.844 455.785 965.902 451.037 972.934 444.984C970.092 443.843 966.838 444.521 963.995 445.671C957.543 448.112 952.211 452.835 949.012 458.944" fill="#E0E0E0"/>
<path d="M942.314 464.83C946.702 465.302 951.167 465.619 955.52 464.89C959.874 464.161 963.858 462.479 967.859 460.797C968.215 460.699 968.521 460.473 968.718 460.162C968.782 459.977 968.787 459.776 968.733 459.588C968.68 459.399 968.569 459.231 968.418 459.107C968.11 458.86 967.748 458.69 967.361 458.609C963.008 457.391 958.311 457.966 954.035 459.407C949.954 460.799 946.031 462.616 942.331 464.83" fill="#E0E0E0"/>
<path d="M917.224 475.649C914.227 469.643 914.425 462.548 917.009 456.318C918.838 459.09 919.053 462.625 918.727 465.928C918.4 469.231 917.387 472.629 917.318 475.95" fill="#E0E0E0"/>
<path d="M905.254 469.609C901.505 469.563 897.787 470.299 894.338 471.769C890.888 473.238 887.784 475.41 885.221 478.146C889.001 478.601 892.83 477.892 896.195 476.112C899.549 474.342 902.714 472.235 905.641 469.823" fill="#E0E0E0"/>
<path d="M897.243 466.923C893.585 466.623 890.064 466.177 886.544 467.249C884.768 467.751 883.12 468.628 881.713 469.821C880.305 471.014 879.171 472.496 878.386 474.165C881.839 474.444 885.303 473.789 888.416 472.269C891.512 470.753 894.466 468.965 897.243 466.923Z" fill="#E0E0E0"/>
<path d="M909.118 467.043C905.829 464.89 902.446 462.693 898.608 461.801C894.77 460.909 890.33 461.569 887.66 464.452C890.76 466.28 894.529 466.494 898.127 466.486C901.725 466.477 906.139 466.443 909.53 467.644" fill="#E0E0E0"/>
<path d="M909.144 467.224C903.511 461.698 901.373 451.78 903.64 444.221C908.082 451.021 910.027 459.151 909.144 467.224" fill="#E0E0E0"/>
<path d="M924.626 451.565C925.682 449.103 926.429 446.512 927.382 443.998C928.254 441.449 929.59 439.084 931.323 437.022C933.084 434.952 935.588 433.655 938.296 433.41C937.43 437.216 935.779 440.801 933.449 443.934C931.119 447.068 928.161 449.681 924.763 451.608" fill="#E0E0E0"/>
<path d="M921.818 454.826C920.1 452.415 918.031 449.128 915.653 447.327C913.274 445.525 910.166 444.435 907.255 445.122C908.764 447.763 910.869 450.016 913.403 451.701C915.938 453.386 918.831 454.456 921.852 454.826" fill="#E0E0E0"/>
<path d="M922.384 451.771C921.106 448.891 920.161 445.874 919.568 442.779C918.992 439.662 919.488 436.441 920.976 433.642C924.067 439.476 925.063 445.748 922.505 451.831" fill="#E0E0E0"/>
<path d="M924.651 433.642C926.369 427.85 931.701 423.594 937.428 421.63C938.137 421.337 938.906 421.222 939.669 421.295C940.05 421.334 940.41 421.486 940.703 421.73C940.997 421.975 941.211 422.301 941.318 422.668C941.533 423.654 940.717 424.538 939.953 425.19C935.476 429.009 930.271 431.881 924.651 433.633" fill="#E0E0E0"/>
<path d="M924.72 428.905C924.943 425.173 925.175 421.389 926.437 417.854C927.7 414.319 929.992 410.99 933.393 409.455C933.976 413.221 932.311 416.971 930.301 420.214C928.292 423.457 925.879 426.52 924.677 430.141" fill="#E0E0E0"/>
<path d="M924.626 431.479C923.174 427.258 923.028 421.904 920.495 418.223C918.735 415.649 915.901 413.933 914.382 411.188C913.461 413.796 913.588 416.659 914.734 419.176C915.885 421.666 917.469 423.932 919.413 425.868C921.285 427.867 922.848 429.369 924.626 431.479" fill="#E0E0E0"/>
<path d="M924.651 555.683C924.54 555.683 924.437 527.541 924.428 492.844C924.419 458.146 924.505 430.004 924.626 430.004C924.746 430.004 924.832 458.137 924.84 492.844C924.849 527.55 924.763 555.683 924.651 555.683Z" fill="#E0E0E0"/>
<path d="M949.252 471.402C948.912 471.564 948.559 471.696 948.196 471.797L945.328 472.783C942.872 473.641 939.498 474.826 935.831 476.327C932.165 477.829 928.79 479.141 926.841 480.832C926.061 481.477 925.441 482.293 925.029 483.217C924.754 483.877 924.703 484.281 924.668 484.281C924.634 484.281 924.668 484.178 924.668 483.98C924.71 483.703 924.779 483.43 924.875 483.165C925.241 482.176 925.845 481.292 926.635 480.591C927.812 479.599 929.128 478.784 930.542 478.172C932.105 477.442 933.83 476.679 935.694 475.924C939.369 474.422 942.769 473.247 945.251 472.492C946.496 472.106 947.509 471.823 948.213 471.634C948.552 471.525 948.899 471.448 949.252 471.402V471.402Z" fill="#E0E0E0"/>
<path d="M957.349 451.608C957.262 451.725 957.161 451.832 957.049 451.925L956.19 452.783L952.816 455.847L941.593 465.834C937.205 469.738 933.418 473.461 930.799 476.267C929.486 477.666 928.447 478.841 927.743 479.639C927.408 480.008 927.141 480.317 926.884 480.566C926.626 480.814 926.592 480.883 926.575 480.874C926.644 480.748 926.725 480.627 926.815 480.514C926.987 480.291 927.236 479.948 927.579 479.536C928.249 478.678 929.297 477.502 930.542 476.104C933.93 472.404 937.513 468.887 941.275 465.568C945.672 461.681 949.673 458.189 952.584 455.666L956.018 452.706L956.972 451.917C957.084 451.798 957.211 451.694 957.349 451.608V451.608Z" fill="#E0E0E0"/>
<path d="M936.793 469.781C936.673 469.729 937.591 467.618 938.51 464.95C939.429 462.282 939.867 460.025 939.979 460.042C939.891 461.768 939.526 463.469 938.897 465.079C938.51 466.232 938.054 467.361 937.531 468.459C937.351 468.933 937.102 469.378 936.793 469.781V469.781Z" fill="#E0E0E0"/>
<path d="M924.72 486.812C924.464 486.579 924.236 486.317 924.042 486.031L922.324 483.817C920.865 481.938 918.89 479.347 916.606 476.507C914.321 473.667 912.312 471.128 910.784 469.291L909.015 467.104C908.784 466.839 908.579 466.551 908.405 466.246C908.676 466.46 908.92 466.705 909.135 466.975C909.59 467.464 910.226 468.185 911.007 469.077C912.561 470.879 914.674 473.367 916.923 476.233C919.173 479.098 921.156 481.69 922.556 483.611C923.252 484.572 923.81 485.327 924.179 485.911C924.389 486.193 924.57 486.494 924.72 486.812V486.812Z" fill="#E0E0E0"/>
<path d="M919.285 479.896C918.194 478.693 917.416 477.24 917.018 475.666C916.591 474.279 916.419 472.825 916.511 471.376H916.691C916.606 471.702 916.546 471.874 916.52 471.865C916.494 471.857 916.52 471.677 916.52 471.342H916.7C916.787 472.746 917.029 474.136 917.421 475.486C917.928 477.002 918.551 478.476 919.285 479.896V479.896Z" fill="#E0E0E0"/>
<path d="M912.312 471.136C911.826 470.769 911.299 470.461 910.741 470.218C909.319 469.798 907.824 469.681 906.353 469.875C904.868 469.989 903.394 470.228 901.948 470.587C901.351 470.771 900.743 470.917 900.128 471.025C900.659 470.697 901.239 470.453 901.845 470.304C903.294 469.852 904.789 469.564 906.302 469.446C907.824 469.243 909.373 469.407 910.818 469.926C911.446 470.136 911.977 470.566 912.312 471.136V471.136Z" fill="#E0E0E0"/>
<path d="M910.664 469.017C910.664 469.077 909.745 468.648 908.242 468.159C904.327 466.825 900.138 466.507 896.066 467.232C894.504 467.515 893.559 467.807 893.542 467.738C893.739 467.616 893.953 467.524 894.177 467.464C894.776 467.257 895.387 467.085 896.006 466.949C900.123 466.055 904.412 466.383 908.345 467.893C908.934 468.117 909.507 468.378 910.063 468.674C910.466 468.862 910.681 468.991 910.664 469.017Z" fill="#E0E0E0"/>
<path d="M924.626 460.042C923.905 458.043 923.314 456 922.857 453.925C922.266 451.883 921.81 449.805 921.491 447.704C922.187 449.707 922.761 451.75 923.209 453.822C923.809 455.864 924.282 457.941 924.626 460.042Z" fill="#E0E0E0"/>
<path d="M924.72 460.042C924.148 458.78 923.494 457.556 922.762 456.379C921.933 455.272 920.966 454.274 919.886 453.41C920.295 453.513 920.674 453.71 920.993 453.985C921.811 454.583 922.522 455.314 923.097 456.147C923.969 457.282 924.529 458.624 924.72 460.042V460.042Z" fill="#E0E0E0"/>
<path d="M924.651 540.686C924.651 540.686 924.522 540.008 924.205 538.807C923.741 537.127 923.111 535.497 922.324 533.942C919.607 528.862 916.251 524.151 912.338 519.922C910.114 517.348 907.95 514.971 906.113 512.68C904.468 510.658 902.981 508.512 901.665 506.263C900.782 504.742 900.029 503.149 899.415 501.501C899.209 500.909 899.054 500.454 898.977 500.137C898.915 499.98 898.875 499.815 898.857 499.647C898.857 499.647 899.097 500.291 899.561 501.441C900.226 503.056 901.013 504.62 901.914 506.117C903.257 508.329 904.758 510.443 906.405 512.44C908.251 514.714 910.415 517.108 912.647 519.656C917.155 524.71 920.693 529.815 922.582 533.847C923.354 535.431 923.95 537.094 924.359 538.807C924.488 539.416 924.574 539.888 924.608 540.214C924.636 540.369 924.651 540.527 924.651 540.686V540.686Z" fill="#E0E0E0"/>
<path d="M946.882 515.632C946.508 515.871 946.121 516.089 945.723 516.284C944.668 516.876 943.658 517.544 942.7 518.283C941.283 519.382 939.954 520.59 938.725 521.895C937.334 523.371 935.9 525.079 934.431 526.906C931.503 530.578 928.764 533.83 927.124 536.421C926.266 537.708 925.69 538.789 925.295 539.553C925.101 539.956 924.886 540.348 924.651 540.729C924.651 540.729 924.651 540.608 924.754 540.394C924.857 540.179 924.96 539.871 925.149 539.484C925.653 538.377 926.227 537.302 926.867 536.267C928.455 533.607 931.16 530.321 934.097 526.649C935.565 524.821 937.016 523.105 938.441 521.638C939.692 520.33 941.05 519.13 942.503 518.052C943.489 517.329 944.534 516.692 945.629 516.147C946.015 515.949 946.333 515.829 946.539 515.744C946.745 515.658 946.882 515.572 946.882 515.632Z" fill="#E0E0E0"/>
<path d="M947.32 523.732C946.508 523.904 945.684 524.022 944.856 524.083C942.879 524.29 940.924 524.675 939.017 525.233C937.131 525.846 935.363 526.775 933.787 527.979C932.577 528.905 932.01 529.695 931.959 529.635C931.907 529.575 932.053 529.412 932.319 529.068C932.704 528.589 933.136 528.15 933.607 527.756C935.164 526.456 936.957 525.468 938.888 524.847C940.822 524.273 942.816 523.922 944.83 523.8C945.656 523.695 946.49 523.672 947.32 523.732V523.732Z" fill="#E0E0E0"/>
<path d="M932.671 528.742C932.543 528.665 933.659 526.975 934.517 524.692C935.376 522.41 935.513 520.402 935.659 520.402C935.735 520.84 935.735 521.287 935.659 521.724C935.539 522.783 935.297 523.826 934.938 524.83C934.568 525.831 934.09 526.789 933.513 527.687C933.297 528.086 933.012 528.443 932.671 528.742Z" fill="#E0E0E0"/>
<path d="M954.086 493.727C953.964 493.815 953.832 493.887 953.691 493.942L952.532 494.465C952.026 494.68 951.407 494.963 950.72 495.323C950.034 495.684 949.209 496.052 948.368 496.559L947.02 497.322C946.556 497.588 946.092 497.906 945.603 498.18C944.615 498.781 943.619 499.519 942.563 500.274C938.027 503.653 934.069 507.744 930.842 512.389C930.13 513.47 929.417 514.491 928.85 515.503C928.567 516.001 928.258 516.473 927.992 516.945L927.279 518.318C926.798 519.176 926.42 520.034 926.12 520.703C925.819 521.372 925.527 522.033 925.321 522.548L924.84 523.723C924.784 523.862 924.718 523.997 924.643 524.126C924.66 523.978 924.701 523.833 924.763 523.697C924.877 523.377 925.015 522.974 925.175 522.487C925.355 521.964 925.587 521.329 925.914 520.617C926.24 519.905 926.558 519.055 927.021 518.189L927.717 516.799C927.966 516.318 928.258 515.838 928.575 515.332C929.134 514.302 929.829 513.273 930.542 512.174C932.166 509.842 933.966 507.636 935.926 505.576C937.918 503.545 940.065 501.672 942.348 499.974C943.422 499.218 944.426 498.489 945.431 497.897C945.929 497.597 946.401 497.279 946.874 497.039L948.239 496.293C949.098 495.795 949.956 495.435 950.626 495.1C951.296 494.765 951.966 494.5 952.481 494.302L953.666 493.847C953.801 493.793 953.942 493.752 954.086 493.727V493.727Z" fill="#E0E0E0"/>
<path d="M936.492 505.516C936.646 504.944 936.984 504.437 937.454 504.075C938.536 503.13 939.916 502.599 941.352 502.573C942.76 502.569 944.155 502.843 945.457 503.38C946.011 503.549 946.535 503.804 947.011 504.135C946.436 504.011 945.873 503.839 945.328 503.62C944.042 503.185 942.693 502.962 941.335 502.959C939.986 502.988 938.681 503.445 937.609 504.263C937.202 504.649 936.829 505.068 936.492 505.516V505.516Z" fill="#E0E0E0"/>
<path d="M933.856 508.227C935.037 505.962 935.342 503.342 934.715 500.866C934.948 501.174 935.107 501.533 935.179 501.913C935.65 503.728 935.424 505.653 934.543 507.309C934.165 507.91 933.899 508.253 933.856 508.227Z" fill="#E0E0E0"/>
<path d="M905.203 544.71C905.812 555.469 909.049 566.4 914.038 577.459H935.728C940.485 566.511 943.508 555.589 944.04 544.71H905.203Z" fill="#E0E0E0"/>
<path d="M940.528 562.11C940.528 562.221 933.384 562.316 924.574 562.316C915.764 562.316 908.629 562.221 908.629 562.11C908.629 561.998 915.764 561.904 924.574 561.904C933.384 561.904 940.528 561.964 940.528 562.11Z" fill="#FAFAFA"/>
<path d="M940.039 566.005C940.039 566.117 933.35 566.211 925.089 566.211C916.829 566.211 910.14 566.117 910.14 566.005C910.14 565.894 916.829 565.799 925.089 565.799C933.35 565.799 940.039 565.894 940.039 566.005Z" fill="#FAFAFA"/>
<path d="M914.416 551.771C914.691 555.094 914.691 558.435 914.416 561.758C914.141 558.435 914.141 555.094 914.416 551.771V551.771Z" fill="#FAFAFA"/>
<path d="M926.008 551.771C926.283 555.212 926.283 558.669 926.008 562.11C925.745 558.669 925.745 555.212 926.008 551.771Z" fill="#FAFAFA"/>
<path d="M936.922 551.668C937.185 555.178 937.185 558.703 936.922 562.213C936.647 558.703 936.647 555.178 936.922 551.668V551.668Z" fill="#FAFAFA"/>
<path d="M943.353 551.771C943.353 551.883 934.972 551.977 924.643 551.977C914.313 551.977 905.941 551.883 905.941 551.771C905.941 551.659 914.313 551.565 924.643 551.565C934.972 551.565 943.353 551.668 943.353 551.771Z" fill="#FAFAFA"/>
<path d="M501.32 406.46C503.535 405.119 505.921 404.083 508.413 403.38L509.872 396.361L521.739 396.156L523.456 403.114C525.974 403.73 528.397 404.682 530.661 405.945L536.671 402.016L545.207 410.252L541.488 416.379C542.829 418.592 543.866 420.976 544.571 423.466L551.595 424.933L551.801 436.782L544.837 438.498C544.221 441.014 543.268 443.435 542.004 445.696L545.936 451.702L537.693 460.231L531.562 456.516C529.346 457.855 526.961 458.894 524.47 459.605L523.001 466.614L511.143 466.829L509.426 459.862C506.908 459.246 504.485 458.294 502.222 457.031L496.211 460.96L487.676 452.723L491.394 446.597C490.053 444.382 489.014 441.999 488.303 439.51L481.287 438.052L481.073 426.194L488.045 424.478C488.66 421.965 489.613 419.546 490.879 417.288L486.946 411.282L495.189 402.754L501.32 406.469V406.46ZM507.64 422.256C505.894 424.068 504.725 426.356 504.281 428.832C503.836 431.307 504.135 433.859 505.141 436.164C506.147 438.47 507.814 440.426 509.931 441.785C512.049 443.145 514.522 443.846 517.039 443.802C519.555 443.758 522.002 442.969 524.071 441.536C526.139 440.103 527.736 438.09 528.66 435.75C529.583 433.411 529.793 430.85 529.261 428.392C528.729 425.933 527.48 423.688 525.672 421.938C524.468 420.774 523.046 419.858 521.488 419.244C519.929 418.629 518.265 418.328 516.59 418.358C514.915 418.387 513.262 418.747 511.726 419.416C510.19 420.085 508.802 421.05 507.64 422.256Z" fill="#EBEBEB"/>
<path d="M421.103 245.903C422.51 245.055 424.023 244.397 425.603 243.946L426.53 239.493L434.061 239.356L435.143 243.775C436.738 244.169 438.274 244.772 439.711 245.568L443.515 243.08L448.924 248.305L446.571 252.226C447.42 253.635 448.078 255.149 448.529 256.731L452.977 257.657L453.114 265.173L448.692 266.263C448.3 267.855 447.696 269.387 446.898 270.819L449.388 274.628L444.159 280.034L440.269 277.683C438.864 278.533 437.351 279.188 435.769 279.631L434.842 284.084L427.312 284.221L426.23 279.802C424.632 279.395 423.096 278.777 421.662 277.966L417.858 280.454L412.448 275.229L414.801 271.342C413.953 269.936 413.294 268.425 412.843 266.846L408.395 265.954L408.258 258.429L412.68 257.348C413.071 255.753 413.675 254.218 414.474 252.784L411.984 248.983L417.248 243.543L421.138 245.903H421.103ZM425.113 255.924C424.005 257.072 423.263 258.522 422.979 260.091C422.696 261.661 422.884 263.279 423.521 264.741C424.157 266.203 425.213 267.444 426.556 268.307C427.898 269.17 429.466 269.615 431.062 269.588C432.657 269.56 434.209 269.061 435.521 268.152C436.832 267.243 437.845 265.967 438.431 264.483C439.016 263 439.149 261.376 438.811 259.818C438.473 258.259 437.681 256.835 436.534 255.727C434.993 254.24 432.924 253.426 430.783 253.463C428.641 253.5 426.602 254.385 425.113 255.924V255.924Z" fill="#E0E0E0"/>
<path d="M897.767 249.48C899.643 248.34 901.665 247.457 903.777 246.855L905.031 240.849L915.155 240.677L916.614 246.615C918.763 247.143 920.83 247.957 922.762 249.034L927.914 245.679L935.204 252.715L932.036 257.94C933.179 259.833 934.063 261.87 934.663 263.998L940.674 265.242L940.846 275.366L934.904 276.825C934.373 278.971 933.559 281.037 932.482 282.968L935.84 288.116L928.799 295.401L923.569 292.235C921.674 293.375 919.636 294.258 917.507 294.86L916.262 300.866L906.13 301.046L904.67 295.1C902.523 294.573 900.455 293.762 898.522 292.689L893.37 296.044L886.08 289.008L889.257 283.775C888.113 281.9 887.227 279.88 886.621 277.769L880.61 276.516L880.43 266.4L886.381 264.942C886.908 262.796 887.72 260.73 888.793 258.798L885.436 253.65L892.477 246.366L897.715 249.532L897.767 249.48ZM903.168 262.968C901.674 264.513 900.672 266.466 900.289 268.58C899.906 270.695 900.159 272.875 901.016 274.845C901.873 276.815 903.295 278.488 905.104 279.65C906.912 280.813 909.024 281.413 911.174 281.376C913.324 281.339 915.414 280.665 917.181 279.441C918.948 278.217 920.311 276.496 921.1 274.497C921.888 272.499 922.065 270.311 921.609 268.211C921.153 266.112 920.084 264.195 918.538 262.702C916.464 260.701 913.68 259.605 910.797 259.655C907.915 259.705 905.171 260.896 903.168 262.968V262.968Z" fill="#E0E0E0"/>
<path d="M754.549 410.39C756.187 409.406 757.949 408.644 759.787 408.125L760.861 402.977L769.619 402.822L770.881 407.97C772.728 408.411 774.507 409.098 776.171 410.012L780.593 407.112L786.895 413.195L784.148 417.708C785.158 419.348 785.941 421.118 786.475 422.968L791.627 424.049L791.781 432.792L786.629 434.053C786.17 435.905 785.468 437.688 784.543 439.356L787.436 443.783L781.357 450.072L776.84 447.335C775.202 448.32 773.441 449.085 771.603 449.609L770.521 454.757L761.771 454.911L760.509 449.763C758.653 449.313 756.867 448.612 755.202 447.678L750.771 450.578L744.477 444.495L747.216 439.982C746.229 438.346 745.464 436.586 744.941 434.748L739.789 433.676L739.634 424.924L744.786 423.663C745.24 421.81 745.942 420.026 746.873 418.361L743.971 413.942L750.05 407.644L754.575 410.381L754.549 410.39ZM759.221 422.05C757.933 423.385 757.07 425.072 756.741 426.897C756.413 428.723 756.633 430.604 757.375 432.304C758.116 434.004 759.345 435.447 760.907 436.449C762.469 437.451 764.293 437.968 766.148 437.934C768.004 437.901 769.808 437.318 771.332 436.26C772.857 435.202 774.033 433.716 774.712 431.99C775.391 430.265 775.543 428.376 775.149 426.564C774.754 424.752 773.831 423.098 772.496 421.81C771.609 420.953 770.562 420.28 769.414 419.828C768.267 419.376 767.041 419.155 765.808 419.178C764.575 419.2 763.358 419.465 762.228 419.958C761.098 420.451 760.076 421.162 759.221 422.05V422.05Z" fill="#F5F5F5"/>
<path d="M934.277 215.855C935.025 215.403 935.831 215.054 936.673 214.817L937.162 212.449L941.163 212.38L941.739 214.723C942.585 214.931 943.399 215.251 944.16 215.675L946.187 214.354L949.063 217.134L947.81 219.193C948.262 219.94 948.612 220.746 948.848 221.587L951.218 222.076L951.287 226.074L948.934 226.649C948.725 227.491 948.405 228.302 947.981 229.06L949.304 231.076L946.53 233.951L944.469 232.715C943.724 233.167 942.921 233.517 942.082 233.753L941.584 236.121L937.591 236.19L937.016 233.848C936.168 233.633 935.351 233.31 934.586 232.887L932.56 234.208L929.683 231.428L930.937 229.369C930.474 228.627 930.115 227.824 929.872 226.984L927.528 226.486L927.459 222.488L929.803 221.913C930.004 221.069 930.316 220.255 930.731 219.493L929.408 217.477L932.19 214.603L934.251 215.855H934.277ZM936.415 221.175C935.824 221.785 935.427 222.556 935.274 223.391C935.122 224.226 935.221 225.088 935.559 225.867C935.896 226.646 936.458 227.307 937.172 227.767C937.886 228.227 938.721 228.465 939.571 228.45C940.42 228.436 941.246 228.17 941.945 227.686C942.643 227.202 943.182 226.522 943.493 225.732C943.804 224.942 943.874 224.078 943.693 223.248C943.512 222.419 943.089 221.661 942.477 221.072C941.659 220.284 940.561 219.852 939.425 219.871C938.288 219.891 937.206 220.36 936.415 221.175V221.175Z" fill="#E0E0E0"/>
<path d="M929.468 340.403C930.215 339.947 931.021 339.597 931.864 339.365L932.354 336.996L936.355 336.928L936.93 339.27C937.776 339.478 938.591 339.798 939.352 340.223L941.378 338.884L944.255 341.664L943.001 343.723C943.454 344.471 943.803 345.276 944.04 346.117L946.41 346.606L946.479 350.604L944.126 351.179C943.919 352.025 943.599 352.839 943.173 353.599L944.495 355.624L941.722 358.498L939.652 357.245C938.907 357.698 938.104 358.047 937.265 358.283L936.767 360.651L932.774 360.72L932.199 358.369C931.35 358.161 930.533 357.841 929.769 357.417L927.751 358.747L924.875 355.967L926.128 353.899C925.672 353.156 925.322 352.354 925.089 351.514L922.719 351.025L922.651 347.026L924.995 346.452C925.203 345.603 925.523 344.787 925.948 344.023L924.626 342.007L927.408 339.133L929.468 340.386V340.403ZM931.589 345.748C930.998 346.358 930.601 347.129 930.448 347.964C930.296 348.799 930.395 349.661 930.733 350.44C931.071 351.219 931.632 351.88 932.347 352.34C933.061 352.8 933.896 353.038 934.745 353.023C935.595 353.009 936.421 352.743 937.119 352.259C937.817 351.775 938.356 351.095 938.667 350.305C938.978 349.515 939.048 348.651 938.867 347.821C938.686 346.992 938.263 346.234 937.652 345.645C936.833 344.857 935.736 344.425 934.599 344.445C933.463 344.464 932.38 344.933 931.589 345.748V345.748Z" fill="#F5F5F5"/>
<path d="M522.624 492.612C523.637 491.998 524.728 491.524 525.869 491.205L526.539 487.996L531.957 487.901L532.739 491.076C533.89 491.36 534.999 491.796 536.036 492.372L538.775 490.578L542.673 494.345L540.956 497.142C541.57 498.156 542.046 499.246 542.373 500.385L545.576 501.055L545.67 506.469L542.493 507.249C542.209 508.397 541.773 509.503 541.197 510.535L542.991 513.281L539.222 517.176L536.422 515.46C535.408 516.073 534.317 516.546 533.177 516.868L532.507 520.076L527.089 520.171L526.299 517.005C525.149 516.726 524.043 516.293 523.01 515.718L520.262 517.511L516.364 513.744L518.081 510.947C517.47 509.933 516.997 508.843 516.673 507.704L513.462 507.035L513.367 501.621L516.553 500.84C516.834 499.69 517.267 498.582 517.841 497.545L516.046 494.808L519.816 490.913L522.615 492.629L522.624 492.612ZM525.517 499.828C524.717 500.655 524.18 501.701 523.975 502.834C523.77 503.966 523.905 505.134 524.364 506.19C524.824 507.245 525.586 508.141 526.554 508.763C527.523 509.386 528.655 509.707 529.807 509.687C530.958 509.666 532.078 509.305 533.024 508.649C533.97 507.992 534.7 507.07 535.121 505.999C535.543 504.928 535.637 503.756 535.392 502.631C535.146 501.507 534.573 500.48 533.743 499.682C532.633 498.612 531.142 498.027 529.6 498.054C528.058 498.081 526.589 498.719 525.517 499.828V499.828Z" fill="#F5F5F5"/>
<path d="M656.473 554.002V577.271H690.519H728.068V554.002H656.473Z" fill="#F5F5F5"/>
<path d="M653.467 547.498V554.002H730.575V547.498H690.519H653.467Z" fill="#E0E0E0"/>
<path d="M692.021 577.271H728.068V554.002H730.575V547.498H690.519V553.401L692.021 577.271Z" fill="#E0E0E0"/>
<path d="M681.005 557.751H666.485V561.252H681.005V557.751Z" fill="#E0E0E0"/>
<path d="M683.254 565.636H664.613V573.032H683.254V565.636Z" fill="white"/>
<path d="M667.481 524.263V547.532H701.535H739.085V524.263H667.481Z" fill="#F5F5F5"/>
<path d="M664.484 517.76V524.264H741.592V517.76H701.535H664.484Z" fill="#E0E0E0"/>
<path d="M703.038 547.532H739.085V524.264H741.592V517.76H701.535V523.663L703.038 547.532Z" fill="#E0E0E0"/>
<path d="M692.021 528.013H677.501V531.514H692.021V528.013Z" fill="#E0E0E0"/>
<path d="M694.271 535.898H675.629V543.294H694.271V535.898Z" fill="white"/>
<path d="M963.712 577.262C963.712 577.391 836.681 577.485 680.017 577.485C523.353 577.485 396.288 577.408 396.288 577.262C396.288 577.116 523.293 577.039 680.017 577.039C836.741 577.039 963.712 577.142 963.712 577.262Z" fill="#263238"/>
<path d="M453.613 552.749C453.613 552.749 449.98 527.824 450.289 513.324C450.599 498.824 450.289 482.513 450.289 482.513H451.955C451.955 482.513 450.822 511.291 452.058 528.656C453.295 546.022 456.532 552.749 456.532 552.749H453.63" fill="#263238"/>
<path d="M464.423 454.465C464.156 453.582 463.622 452.803 462.895 452.234C461.839 451.565 460.448 451.848 459.263 452.234C454.214 454.019 449.731 463.431 447.688 468.382L454.394 490.965C466.501 479.768 468.596 465.01 464.423 454.465Z" fill="#455A64"/>
<path d="M462.508 453.152C462.485 453.253 462.451 453.351 462.405 453.444C462.319 453.659 462.216 453.933 462.079 454.302C461.787 455.014 461.375 456.018 460.877 457.331C459.889 459.905 458.636 463.474 457.511 467.515C456.386 471.557 455.622 475.28 455.141 477.983C454.901 479.339 454.72 480.437 454.609 481.192C454.548 481.552 454.506 481.835 454.463 482.05C454.452 482.152 454.429 482.253 454.394 482.35C454.385 482.247 454.385 482.144 454.394 482.041C454.394 481.81 454.445 481.518 454.488 481.183C454.566 480.411 454.72 479.313 454.935 477.949C455.5 474.405 456.265 470.896 457.228 467.438C458.183 463.982 459.329 460.582 460.662 457.254C461.177 455.984 461.624 454.954 461.95 454.259C462.096 453.933 462.225 453.667 462.319 453.461C462.365 453.349 462.429 453.245 462.508 453.152V453.152Z" fill="#263238"/>
<path d="M451.414 496.404C448.371 494.664 445.825 492.173 444.021 489.168C442.217 486.163 441.215 482.747 441.11 479.244C440.87 474.233 442.416 469.317 444.159 464.615C444.266 464.189 444.518 463.813 444.871 463.551C445.157 463.446 445.464 463.415 445.765 463.462C446.065 463.508 446.349 463.631 446.589 463.817C451.157 466.391 453.93 471.368 455.399 476.413C456.454 479.757 456.805 483.283 456.429 486.769C455.859 490.436 454.115 493.82 451.457 496.413" fill="#455A64"/>
<path d="M451.414 496.404C451.403 496.304 451.403 496.204 451.414 496.104C451.414 495.872 451.414 495.581 451.414 495.246C451.414 494.499 451.414 493.41 451.32 492.071C451.141 488.574 450.754 485.09 450.161 481.638C449.457 477.588 448.615 473.968 447.988 471.342C447.679 470.064 447.43 469.017 447.25 468.245C447.164 467.901 447.104 467.627 447.052 467.387C447.024 467.289 447.006 467.188 447.001 467.086C447.047 467.176 447.082 467.271 447.104 467.369L447.353 468.227C447.559 468.948 447.842 470.004 448.212 471.308C448.89 473.882 449.766 477.537 450.461 481.604C451.067 485.066 451.431 488.567 451.552 492.08C451.552 493.427 451.552 494.517 451.552 495.272C451.552 495.623 451.552 495.907 451.552 496.13C451.52 496.227 451.473 496.32 451.414 496.404V496.404Z" fill="#263238"/>
<g opacity="0.3">
<path opacity="0.3" d="M451.414 496.404C448.371 494.664 445.825 492.173 444.021 489.168C442.217 486.163 441.215 482.747 441.11 479.244C440.87 474.233 442.416 469.317 444.159 464.615C444.266 464.189 444.518 463.813 444.871 463.551C445.157 463.446 445.464 463.415 445.765 463.462C446.065 463.508 446.349 463.631 446.589 463.817C451.157 466.391 453.93 471.368 455.399 476.413C456.454 479.757 456.805 483.283 456.429 486.769C455.859 490.436 454.115 493.82 451.457 496.413" fill="black"/>
</g>
<path d="M458.507 534.508C464.698 535.872 469.79 540.231 475.758 542.35C479.707 543.757 484.173 544.246 487.324 547.009C486.568 545.096 484.748 543.826 483.03 542.719C478.117 539.648 472.872 537.144 467.394 535.254C464.586 534.285 461.547 533.478 458.679 534.276" fill="#455A64"/>
<path d="M449.56 540.042C441.832 539.922 433.657 533.333 425.946 532.938C434.018 530.364 445.575 532.457 449.56 540.042Z" fill="#455A64"/>
<path d="M452.591 521.475C456.585 520.162 460.844 519.867 464.981 520.617C469.096 521.371 473.14 522.468 477.071 523.895C476.668 521.209 474.495 519.193 472.452 517.408C470.955 516.011 469.328 514.761 467.592 513.676C465.847 512.587 463.827 512.019 461.77 512.037C460.537 512.117 459.332 512.444 458.228 513C457.125 513.556 456.145 514.329 455.347 515.272C453.777 516.978 452.809 519.15 452.591 521.458" fill="#455A64"/>
<path d="M436.688 512.929C431.845 508.768 424.426 509.171 418.012 509.317C428.313 514.218 438.028 520.262 446.975 527.335C447.241 522.822 442.853 518.206 436.688 512.929Z" fill="#455A64"/>
<g opacity="0.3">
<path opacity="0.3" d="M436.688 512.929C431.845 508.768 424.426 509.171 418.012 509.317C428.313 514.218 438.028 520.262 446.975 527.335C447.241 522.822 442.853 518.206 436.688 512.929Z" fill="black"/>
</g>
<path d="M454.78 507.181C457.163 505.533 459.673 504.075 462.285 502.822C464.861 501.664 467.248 499.802 469.73 498.463C472.941 496.747 475.74 494.302 478.677 492.149C481.614 489.995 484.868 488.047 488.483 487.472C485.51 486.943 482.454 487.12 479.561 487.987C476.68 488.854 473.872 489.947 471.164 491.256C467.36 492.972 463.487 494.688 460.379 497.502C457.27 500.317 454.454 503.028 454.78 507.181" fill="#455A64"/>
<path d="M475.637 540.042C475.553 540.019 475.472 539.984 475.397 539.939L474.719 539.587C474.135 539.278 473.302 538.815 472.246 538.292C471.722 538.017 471.146 537.725 470.528 537.434C469.91 537.142 469.232 536.816 468.51 536.507C466.973 535.819 465.378 535.265 463.745 534.851C462.123 534.4 460.416 534.356 458.773 534.722C458.058 534.882 457.355 535.091 456.669 535.349C456.072 535.582 455.497 535.869 454.952 536.207C454.165 536.7 453.446 537.294 452.814 537.974C452.367 538.455 452.144 538.747 452.127 538.729C452.11 538.712 452.127 538.644 452.264 538.506C452.402 538.369 452.522 538.154 452.728 537.897C453.344 537.186 454.055 536.562 454.84 536.044C455.385 535.688 455.959 535.381 456.558 535.126C457.251 534.845 457.966 534.622 458.696 534.456C460.375 534.067 462.125 534.103 463.788 534.559C465.439 534.986 467.048 535.56 468.596 536.275C469.318 536.596 469.987 536.913 470.606 537.228C471.232 537.528 471.808 537.828 472.323 538.086C473.37 538.635 474.195 539.124 474.761 539.459L475.414 539.853C475.543 539.982 475.637 540.034 475.637 540.042Z" fill="#263238"/>
<path d="M443.781 536.224C443.95 536.249 444.115 536.298 444.27 536.37C444.703 536.523 445.125 536.706 445.532 536.919C446.885 537.593 448.131 538.46 449.233 539.493C450.331 540.547 451.266 541.759 452.007 543.088C452.229 543.489 452.43 543.901 452.608 544.324C452.685 544.474 452.737 544.637 452.762 544.804C452.762 544.804 452.428 544.169 451.835 543.182C451.058 541.907 450.12 540.736 449.044 539.699C447.963 538.662 446.751 537.77 445.438 537.048C444.433 536.516 443.764 536.224 443.781 536.224Z" fill="#263238"/>
<path d="M426.642 512.535C426.754 512.557 426.864 512.591 426.968 512.638L427.904 512.964L429.372 513.504C429.939 513.719 430.557 514.028 431.261 514.362C434.896 516.043 438.289 518.201 441.351 520.78C443.021 522.215 444.593 523.76 446.056 525.405C447.24 526.755 448.352 528.167 449.388 529.635C450.247 530.887 450.951 531.925 451.406 532.646L451.938 533.504C452.008 533.597 452.065 533.698 452.11 533.804C452.024 533.726 451.949 533.636 451.887 533.538C451.758 533.358 451.56 533.092 451.32 532.732C450.83 532.028 450.135 531.016 449.233 529.772C448.332 528.528 447.198 527.112 445.859 525.602C444.396 523.973 442.83 522.439 441.17 521.012C438.123 518.45 434.765 516.282 431.176 514.56C430.489 514.242 429.87 513.916 429.312 513.702L427.861 513.058L426.951 512.681L426.642 512.535Z" fill="#263238"/>
<path d="M464.217 517.125C464.009 517.117 463.802 517.088 463.599 517.039L462.886 516.91C462.611 516.859 462.285 516.859 461.933 516.816C460.094 516.66 458.249 517.026 456.609 517.871C455.707 518.336 454.883 518.942 454.171 519.665C453.58 520.243 453.059 520.888 452.616 521.587C452.214 522.24 451.855 522.919 451.543 523.62C451.576 523.415 451.631 523.213 451.706 523.019C451.9 522.484 452.147 521.969 452.445 521.484C452.875 520.756 453.394 520.084 453.99 519.484C454.709 518.735 455.544 518.106 456.463 517.623C458.145 516.75 460.051 516.403 461.933 516.627C462.256 516.652 462.577 516.695 462.895 516.756L463.607 516.936C463.818 516.97 464.024 517.034 464.217 517.125V517.125Z" fill="#263238"/>
<path d="M472.005 492.981C471.914 493.051 471.817 493.111 471.713 493.161L470.855 493.633C470.099 494.036 469.017 494.637 467.703 495.409C466.389 496.181 464.861 497.125 463.221 498.326C461.431 499.576 459.753 500.98 458.206 502.522C457.41 503.312 456.72 504.204 456.154 505.173C455.648 506.151 455.167 507.086 454.72 507.996C453.913 509.586 453.194 511.218 452.565 512.886C452.151 514.01 451.801 515.155 451.517 516.318C451.32 517.176 451.251 517.614 451.225 517.614C451.208 517.5 451.208 517.385 451.225 517.271C451.225 517.048 451.303 516.713 451.389 516.293C451.629 515.11 451.954 513.946 452.359 512.809C452.964 511.123 453.667 509.473 454.463 507.867C454.909 506.958 455.39 506.005 455.888 505.036C456.46 504.038 457.164 503.123 457.983 502.316C459.537 500.76 461.23 499.35 463.041 498.103C464.698 496.936 466.261 495.984 467.583 495.22C468.905 494.457 470.013 493.899 470.777 493.504L471.636 493.084C471.755 493.037 471.879 493.003 472.005 492.981V492.981Z" fill="#263238"/>
<path d="M450.281 516.421C450.197 516.213 450.145 515.993 450.126 515.769C450.032 515.297 449.92 514.697 449.783 513.985C449.412 512.021 448.924 510.082 448.323 508.176C447.696 506.278 446.956 504.418 446.108 502.608C445.807 501.947 445.55 501.389 445.352 500.943C445.244 500.748 445.161 500.541 445.103 500.325C445.237 500.504 445.352 500.697 445.447 500.9C445.653 501.278 445.945 501.827 446.305 502.522C447.215 504.316 447.984 506.178 448.607 508.09C449.22 510.006 449.688 511.965 450.006 513.95C450.126 514.705 450.212 515.323 450.255 515.752C450.287 515.974 450.295 516.198 450.281 516.421V516.421Z" fill="#263238"/>
<path d="M449.714 498.807C449.473 495.875 448.616 493.028 447.198 490.45C445.286 486.901 442.619 483.814 439.385 481.405C436.152 478.997 432.429 477.325 428.479 476.507C434.261 485.087 440.037 493.69 445.807 502.316L448.048 506.915C449.46 504.46 450.044 501.618 449.714 498.807V498.807Z" fill="#455A64"/>
<path d="M474.573 549.669H434.284V556.807H474.573V549.669Z" fill="#3F51B5"/>
<path d="M437.289 555.383L440.724 577.528H467.471L471.559 555.383H437.289Z" fill="#3F51B5"/>
<path d="M474.547 556.816C474.547 556.893 465.462 556.962 454.257 556.962C443.051 556.962 433.958 556.893 433.958 556.816C433.958 556.739 443.042 556.679 454.257 556.679C465.471 556.679 474.547 556.73 474.547 556.816Z" fill="#263238"/>
<path d="M610.568 573.779C603.329 575.378 595.814 575.245 588.635 573.391C581.457 571.538 574.818 568.016 569.261 563.112C563.703 558.209 559.383 552.063 556.653 545.175C553.924 538.287 552.861 530.852 553.552 523.476C554.243 516.1 556.669 508.991 560.631 502.729C564.593 496.467 569.98 491.229 576.352 487.442C582.724 483.655 589.902 481.426 597.299 480.936C604.697 480.446 612.106 481.71 618.923 484.624V484.624C628.09 488.536 635.776 495.257 640.874 503.815C645.972 512.374 648.218 522.33 647.289 532.246C646.359 542.163 642.302 551.528 635.703 558.993C629.103 566.457 620.302 571.635 610.568 573.779V573.779ZM590.965 485.036C580.76 487.299 571.699 493.13 565.417 501.478C559.134 509.826 556.043 520.142 556.7 530.567C557.357 540.991 561.719 550.839 569 558.333C576.281 565.828 586.002 570.478 596.41 571.443C606.819 572.409 617.23 569.628 625.768 563.601C634.306 557.574 640.408 548.698 642.975 538.573C645.542 528.447 644.404 517.739 639.768 508.377C635.131 499.016 627.3 491.617 617.687 487.515C609.258 483.918 599.912 483.051 590.965 485.036Z" fill="#455A64"/>
<path d="M610.568 573.779C603.329 575.378 595.814 575.245 588.635 573.391C581.457 571.538 574.818 568.016 569.261 563.112C563.703 558.209 559.383 552.063 556.653 545.175C553.924 538.287 552.861 530.852 553.552 523.476C554.243 516.1 556.669 508.991 560.631 502.729C564.593 496.467 569.98 491.229 576.352 487.442C582.724 483.655 589.902 481.426 597.299 480.936C604.697 480.446 612.106 481.71 618.923 484.624V484.624C628.09 488.536 635.776 495.257 640.874 503.815C645.972 512.374 648.218 522.33 647.289 532.246C646.359 542.163 642.302 551.528 635.703 558.993C629.103 566.457 620.302 571.635 610.568 573.779V573.779ZM590.965 485.036C580.76 487.299 571.699 493.13 565.417 501.478C559.134 509.826 556.043 520.142 556.7 530.567C557.357 540.991 561.719 550.839 569 558.333C576.281 565.828 586.002 570.478 596.41 571.443C606.819 572.409 617.23 569.628 625.768 563.601C634.306 557.574 640.408 548.698 642.975 538.573C645.542 528.447 644.404 517.739 639.768 508.377C635.131 499.016 627.3 491.617 617.687 487.515C609.258 483.918 599.912 483.051 590.965 485.036Z" fill="#263238"/>
<path d="M608.954 575.744C601.714 577.342 594.199 577.208 587.021 575.353C579.843 573.499 573.205 569.976 567.648 565.072C562.091 560.168 557.772 554.022 555.043 547.134C552.314 540.246 551.252 532.811 551.944 525.435C552.636 518.059 555.062 510.95 559.025 504.689C562.987 498.428 568.374 493.19 574.747 489.404C581.119 485.617 588.296 483.388 595.694 482.899C603.092 482.41 610.501 483.674 617.317 486.589V486.589C626.484 490.502 634.17 497.223 639.267 505.782C644.364 514.342 646.61 524.297 645.68 534.214C644.749 544.131 640.691 553.496 634.091 560.96C627.491 568.424 618.688 573.601 608.954 575.744V575.744ZM589.351 487.001C579.138 489.261 570.07 495.093 563.781 503.444C557.492 511.795 554.395 522.117 555.049 532.548C555.703 542.979 560.064 552.834 567.348 560.335C574.631 567.837 584.356 572.492 594.771 573.461C605.186 574.431 615.604 571.651 624.149 565.622C632.693 559.594 638.802 550.714 641.373 540.583C643.944 530.452 642.808 519.737 638.171 510.368C633.533 501 625.699 493.595 616.081 489.489C607.649 485.892 598.302 485.022 589.351 487.001Z" fill="#455A64"/>
<path d="M717.292 572.852L716.536 574.791C715.858 576.507 712.844 576.979 710.981 576.241L640.501 548.828L644.048 539.716L714.424 567.112C716.708 568.056 718.159 570.621 717.292 572.852Z" fill="#455A64"/>
<path d="M619.636 512.011C619.713 512.106 610.766 519.476 599.655 528.468C588.543 537.46 579.467 544.684 579.39 544.581C579.313 544.478 588.251 537.116 599.371 528.124C610.491 519.133 619.558 511.917 619.636 512.011Z" fill="#263238"/>
<path d="M607.434 509.283C607.511 509.377 600.891 515.006 592.656 521.844C584.422 528.682 577.673 534.165 577.595 534.07C577.518 533.976 584.13 528.348 592.373 521.501C600.616 514.654 607.348 509.188 607.434 509.283Z" fill="#263238"/>
<path d="M618.64 526.366C618.717 526.46 614.192 530.355 608.533 535.057C602.875 539.759 598.229 543.5 598.126 543.405C598.023 543.311 602.574 539.416 608.241 534.714C613.908 530.012 618.562 526.271 618.64 526.366Z" fill="#263238"/>
<path d="M919.86 389.043C919.934 395.425 918.114 401.687 914.629 407.036C911.145 412.386 906.153 416.585 900.282 419.102C894.412 421.619 887.927 422.342 881.646 421.18C875.365 420.017 869.569 417.022 864.991 412.571C860.412 408.12 857.255 402.414 855.919 396.172C854.583 389.93 855.128 383.433 857.484 377.5C859.841 371.567 863.903 366.465 869.159 362.837C874.415 359.209 880.629 357.219 887.016 357.117C895.605 357.009 903.887 360.309 910.044 366.294C916.201 372.28 919.731 380.46 919.86 389.043V389.043ZM872.075 389.815C872.137 392.866 873.101 395.831 874.848 398.334C876.594 400.838 879.043 402.769 881.887 403.883C884.73 404.996 887.84 405.244 890.824 404.593C893.808 403.942 896.532 402.423 898.652 400.226C900.773 398.03 902.194 395.255 902.738 392.252C903.281 389.249 902.922 386.152 901.705 383.353C900.489 380.553 898.47 378.177 895.903 376.524C893.336 374.87 890.336 374.013 887.282 374.062C883.177 374.141 879.27 375.844 876.419 378.797C873.568 381.75 872.006 385.712 872.075 389.815V389.815Z" fill="#F5F5F5"/>
<path d="M919.86 389.043C920.007 397.62 916.746 405.905 910.791 412.084C904.836 418.263 896.672 421.831 888.089 422.007L887.797 405.079C891.811 404.863 895.585 403.1 898.326 400.162C901.066 397.224 902.56 393.338 902.493 389.322C902.427 385.306 900.805 381.473 897.968 378.627C895.131 375.781 891.301 374.145 887.282 374.062L887.016 357.134C895.603 357.024 903.883 360.321 910.04 366.303C916.197 372.285 919.729 380.463 919.86 389.043V389.043Z" fill="#455A64"/>
<path d="M872.075 389.815C872.066 389.729 872.066 389.643 872.075 389.557V388.82C872.071 388.421 872.097 388.022 872.152 387.627C872.204 387.08 872.296 386.538 872.427 386.005C872.746 384.522 873.297 383.097 874.059 381.784C875.834 378.606 878.673 376.153 882.076 374.856C885.48 373.559 889.232 373.499 892.675 374.688C894.107 375.172 895.456 375.873 896.676 376.765C897.31 377.221 897.912 377.72 898.479 378.258C899.041 378.821 899.566 379.42 900.051 380.051C902.073 382.709 903.192 385.943 903.245 389.282C903.297 392.621 902.28 395.889 900.342 398.609C899.886 399.259 899.384 399.876 898.84 400.454C898.3 401.007 897.727 401.526 897.122 402.007C895.93 402.938 894.601 403.679 893.181 404.204C889.779 405.5 886.03 405.561 882.588 404.376C879.145 403.19 876.23 400.833 874.351 397.717C873.569 396.435 872.99 395.04 872.633 393.582C872.486 393.053 872.38 392.514 872.316 391.968C872.24 391.575 872.2 391.176 872.195 390.776C872.195 390.467 872.195 390.227 872.195 390.038C872.183 389.955 872.183 389.872 872.195 389.789C872.314 391.049 872.524 392.3 872.822 393.53C873.213 394.964 873.815 396.331 874.608 397.588C875.649 399.257 876.998 400.713 878.584 401.878C880.622 403.381 883.005 404.35 885.515 404.694C888.025 405.039 890.581 404.749 892.949 403.852C894.328 403.335 895.617 402.605 896.77 401.69C897.381 401.231 897.955 400.726 898.488 400.18C899.019 399.617 899.509 399.018 899.956 398.386C901.827 395.741 902.808 392.569 902.755 389.33C902.703 386.09 901.62 382.952 899.664 380.368C899.198 379.762 898.69 379.189 898.144 378.652C897.606 378.13 897.032 377.646 896.427 377.202C895.245 376.325 893.932 375.639 892.537 375.169C890.125 374.319 887.536 374.095 885.013 374.517C882.491 374.938 880.116 375.992 878.112 377.58C876.565 378.794 875.262 380.291 874.273 381.99C873.525 383.275 872.966 384.663 872.616 386.108C872.348 387.329 872.167 388.568 872.075 389.815V389.815Z" fill="#263238"/>
<path d="M919.86 389.043C919.86 389.043 919.86 388.863 919.8 388.519L919.68 386.983C919.68 386.64 919.62 386.271 919.594 385.851C919.568 385.431 919.448 384.993 919.362 384.504C919.198 383.379 918.957 382.267 918.641 381.175C917.836 378.162 916.583 375.287 914.923 372.646C912.522 368.753 909.322 365.414 905.534 362.848C901.747 360.281 897.457 358.547 892.949 357.76C891.6 357.534 890.238 357.397 888.871 357.348C888.175 357.348 887.48 357.28 886.776 357.348L884.646 357.494C884.285 357.494 883.925 357.494 883.573 357.58L882.499 357.769C881.787 357.897 881.057 357.992 880.344 358.155C878.885 358.506 877.451 358.953 876.051 359.493C874.623 360.041 873.235 360.686 871.895 361.424C871.225 361.81 870.581 362.282 869.911 362.659C869.243 363.073 868.603 363.532 867.996 364.032C866.733 365.009 865.537 366.069 864.416 367.207L862.81 369.034L862.407 369.497L862.046 369.995L861.333 370.99L860.612 371.994L859.985 373.067L859.35 374.139L859.041 374.68L858.774 375.246L857.744 377.494L856.885 379.888C854.785 386.507 854.896 393.629 857.203 400.18C857.512 400.969 857.813 401.758 858.113 402.548C858.414 403.337 858.869 404.049 859.238 404.796L859.521 405.362L859.848 405.885L860.517 406.941L861.179 407.996L861.926 408.974L862.681 409.944L863.051 410.433L863.471 410.879L865.129 412.655C866.289 413.758 867.522 414.781 868.821 415.718C869.441 416.201 870.096 416.64 870.779 417.031C871.457 417.417 872.118 417.837 872.796 418.198C874.161 418.893 875.573 419.492 877.021 419.991C878.424 420.485 879.858 420.886 881.314 421.192C882.036 421.329 882.766 421.406 883.478 421.509L884.56 421.664C884.912 421.707 885.273 421.664 885.633 421.715L887.763 421.793C888.476 421.793 889.171 421.715 889.867 421.672C891.232 421.589 892.589 421.408 893.928 421.132C898.839 420.127 903.443 417.978 907.366 414.86C910.615 412.306 913.341 409.152 915.395 405.568C916.97 402.875 918.128 399.959 918.83 396.919C919.117 395.82 919.323 394.702 919.448 393.573C919.516 393.084 919.594 392.629 919.637 392.217C919.68 391.805 919.637 391.428 919.68 391.085C919.68 390.424 919.74 389.909 919.757 389.549C919.774 389.189 919.8 389.026 919.8 389.026C919.8 389.026 919.8 389.197 919.8 389.549C919.8 389.901 919.8 390.407 919.8 391.093C919.8 391.428 919.8 391.805 919.8 392.226C919.8 392.646 919.697 393.084 919.645 393.59C919.533 394.727 919.338 395.854 919.061 396.962C918.38 400.026 917.236 402.968 915.67 405.688C913.395 409.702 910.293 413.188 906.568 415.914C902.844 418.641 898.582 420.545 894.066 421.501C892.709 421.779 891.335 421.965 889.953 422.059C889.248 422.059 888.544 422.179 887.832 422.179L885.668 422.11C885.307 422.11 884.947 422.11 884.586 422.059L883.495 421.904C882.766 421.801 882.027 421.732 881.297 421.587C879.815 421.283 878.354 420.879 876.927 420.377C875.457 419.873 874.023 419.271 872.633 418.575C871.938 418.206 871.268 417.786 870.581 417.391C869.891 416.993 869.228 416.548 868.598 416.061C867.284 415.114 866.034 414.082 864.854 412.972L863.136 411.17L862.716 410.716L862.329 410.227L861.574 409.24L860.809 408.245L860.131 407.181L859.461 406.108L859.126 405.576L858.843 405.01L857.744 402.745L856.817 400.343C854.472 393.696 854.358 386.468 856.49 379.751L857.349 377.314L858.414 374.997L858.68 374.422L858.998 373.882L859.642 372.784L860.277 371.703L861.007 370.69L861.737 369.678L862.097 369.171L862.51 368.708L864.132 366.855C865.276 365.708 866.492 364.636 867.773 363.646C868.385 363.135 869.033 362.67 869.714 362.256C870.392 361.836 871.045 361.398 871.723 361.003C873.081 360.259 874.49 359.611 875.939 359.064C877.337 358.516 878.772 358.066 880.232 357.717C880.962 357.546 881.692 357.451 882.422 357.322L883.504 357.142C883.865 357.082 884.234 357.082 884.595 357.048L886.75 356.911C887.462 356.911 888.167 356.911 888.871 356.962C890.253 357.008 891.63 357.152 892.992 357.391C897.54 358.193 901.865 359.955 905.678 362.559C909.49 365.163 912.704 368.549 915.103 372.492C916.754 375.149 917.991 378.042 918.769 381.072C919.084 382.171 919.316 383.293 919.465 384.427C919.534 384.916 919.628 385.362 919.671 385.782C919.714 386.203 919.714 386.572 919.731 386.915C919.731 387.584 919.791 388.09 919.808 388.459C919.826 388.828 919.86 389.043 919.86 389.043Z" fill="#263238"/>
<path d="M890.957 424.615C886.048 424.73 881.164 423.864 876.594 422.069C872.023 420.274 867.856 417.586 864.338 414.162C860.82 410.739 858.02 406.648 856.104 402.13C854.187 397.612 853.192 392.757 853.176 387.85L872.925 387.533C873.088 397.537 880.713 403.835 890.682 403.68L890.957 424.615Z" fill="#3F51B5"/>
<path d="M890.957 424.615C890.947 424.487 890.947 424.358 890.957 424.229V423.122C890.957 422.136 890.897 420.72 890.846 418.927C890.768 415.289 890.657 410.072 890.511 403.68L890.682 403.843C888.681 403.876 886.685 403.633 884.749 403.122C882.619 402.557 880.618 401.584 878.859 400.257C876.97 398.815 875.444 396.952 874.402 394.817C873.3 392.545 872.714 390.057 872.685 387.533L872.908 387.747L857.624 387.996L853.167 388.073L853.391 387.841C853.498 391.807 854.175 395.737 855.4 399.51C855.735 400.368 856.07 401.286 856.396 402.17C856.722 403.054 857.255 403.886 857.607 404.675C858.003 405.494 858.454 406.285 858.955 407.044C859.396 407.81 859.884 408.549 860.414 409.257L861.986 411.325C862.535 411.968 863.128 412.569 863.703 413.178L864.562 414.079L865.472 414.886L867.249 416.456C869.512 418.228 871.966 419.742 874.565 420.969L876.283 421.775C876.867 421.998 877.442 422.187 878 422.385L879.631 422.951C880.164 423.122 880.696 423.217 881.203 423.346L882.663 423.706L883.358 423.869L884.036 423.972L886.449 424.315C887.087 424.403 887.729 424.454 888.373 424.469L889.789 424.538L890.648 424.59H890.966H889.815H888.373C887.715 424.6 887.058 424.562 886.406 424.478L883.976 424.178C883.753 424.178 883.521 424.126 883.298 424.083L882.594 423.92L881.117 423.586C880.61 423.457 880.069 423.363 879.528 423.2L877.888 422.642C877.322 422.445 876.738 422.264 876.171 422.041L874.402 421.243C871.766 420.03 869.28 418.515 866.992 416.73L865.189 415.16L864.261 414.354L863.403 413.444C862.836 412.826 862.235 412.226 861.685 411.574L860.088 409.497C859.549 408.781 859.053 408.033 858.603 407.258C858.093 406.496 857.636 405.699 857.237 404.873C856.834 404.015 856.379 403.157 856.009 402.299C855.64 401.441 855.331 400.514 854.996 399.613C853.744 395.801 853.053 391.827 852.944 387.816V387.593H853.176L857.624 387.515L872.908 387.275H873.123V387.49C873.139 389.95 873.693 392.378 874.746 394.603C875.751 396.676 877.22 398.49 879.039 399.905C880.751 401.211 882.703 402.17 884.783 402.728C886.683 403.243 888.645 403.494 890.614 403.474H890.785V403.646C890.854 410.081 890.906 415.323 890.94 418.987C890.94 420.772 890.94 422.17 890.94 423.148V424.229C890.966 424.504 890.957 424.624 890.957 424.615Z" fill="#263238"/>
<path d="M907.873 202.839H736.784V330.63H907.873V202.839Z" fill="white"/>
<path d="M907.873 202.839H736.784V218.635H907.873V202.839Z" fill="#E0E0E0"/>
<path d="M746.152 213.007C747.408 213.007 748.427 211.989 748.427 210.733C748.427 209.477 747.408 208.459 746.152 208.459C744.895 208.459 743.876 209.477 743.876 210.733C743.876 211.989 744.895 213.007 746.152 213.007Z" fill="white"/>
<path d="M753.837 213.007C755.093 213.007 756.112 211.989 756.112 210.733C756.112 209.477 755.093 208.459 753.837 208.459C752.58 208.459 751.561 209.477 751.561 210.733C751.561 211.989 752.58 213.007 753.837 213.007Z" fill="white"/>
<path d="M761.513 213.007C762.77 213.007 763.789 211.989 763.789 210.733C763.789 209.477 762.77 208.459 761.513 208.459C760.256 208.459 759.238 209.477 759.238 210.733C759.238 211.989 760.256 213.007 761.513 213.007Z" fill="white"/>
<path d="M907.873 330.63C907.873 330.63 907.873 329.832 907.873 328.296C907.873 326.76 907.873 324.478 907.873 321.509C907.873 315.564 907.873 306.838 907.83 295.692C907.83 273.427 907.77 241.501 907.736 202.839L907.916 203.02L736.844 203.063L737.067 202.839C737.067 248.76 737.067 292.269 737.067 330.63L736.861 330.424L860.363 330.527L895.431 330.579H904.73H907.135H904.765H895.5L860.475 330.639L736.827 330.733H736.629V330.536C736.629 292.174 736.629 248.665 736.629 202.745V202.522H736.87H907.942H908.122V202.711C908.122 241.415 908.053 273.384 908.028 295.675C908.028 306.829 908.028 315.512 907.985 321.415C907.985 324.375 907.985 326.64 907.985 328.168C907.985 329.695 907.873 330.63 907.873 330.63Z" fill="#263238"/>
<path d="M898.445 279.854C898.445 279.974 864.399 280.077 822.41 280.077C780.421 280.077 746.366 279.974 746.366 279.854C746.366 279.733 780.404 279.63 822.41 279.63C864.416 279.63 898.445 279.725 898.445 279.854Z" fill="#E0E0E0"/>
<path d="M898.445 266.735C898.445 266.855 864.399 266.958 822.41 266.958C780.421 266.958 746.366 266.855 746.366 266.735C746.366 266.615 780.404 266.512 822.41 266.512C864.416 266.512 898.445 266.606 898.445 266.735Z" fill="#E0E0E0"/>
<path d="M898.445 253.616C898.445 253.736 864.399 253.839 822.41 253.839C780.421 253.839 746.366 253.736 746.366 253.616C746.366 253.496 780.404 253.393 822.41 253.393C864.416 253.393 898.445 253.487 898.445 253.616Z" fill="#E0E0E0"/>
<path d="M898.445 240.497C898.445 240.617 864.399 240.72 822.41 240.72C780.421 240.72 746.366 240.617 746.366 240.497C746.366 240.377 780.404 240.274 822.41 240.274C864.416 240.274 898.445 240.368 898.445 240.497Z" fill="#E0E0E0"/>
<path d="M887.797 279.365C884.835 272.217 882.8 264.41 880.524 257.005C878.55 250.561 878.361 247.567 876.669 242.102C873.99 233.522 866.915 232.578 861.763 234.903C857.177 236.979 855.202 242.359 853.683 247.207L848.221 264.598C847.486 267.383 846.365 270.052 844.89 272.526C843.301 274.92 840.888 276.911 838.072 277.28C833.418 277.889 829.253 274.002 827.261 269.703C825.269 265.405 824.685 260.549 822.968 256.147C821.251 251.745 817.533 247.567 812.844 247.447C807.066 247.344 803.141 253.23 800.746 258.549C797.721 265.258 795.284 272.217 793.464 279.347C792.975 281.809 792.161 284.195 791.043 286.443C789.806 288.614 787.763 290.476 785.298 290.776C782.13 291.162 779.185 288.905 777.347 286.263C775.51 283.62 774.367 280.523 772.478 277.914C770.589 275.306 767.55 273.135 764.398 273.685C761.573 274.182 759.555 276.653 757.881 279.013C753.33 285.401 749.391 292.204 746.117 299.33H903.425C896.212 296.842 890.725 286.546 887.797 279.365Z" fill="#3F51B5"/>
<path d="M790.347 309.626H782.92V317.048H790.347V309.626Z" fill="#3F51B5"/>
<path d="M836.81 313.333H798.067C797.839 313.333 797.621 313.242 797.459 313.081C797.298 312.92 797.208 312.702 797.208 312.475C797.208 312.247 797.298 312.029 797.459 311.868C797.621 311.707 797.839 311.617 798.067 311.617H836.81C837.037 311.617 837.256 311.707 837.417 311.868C837.578 312.029 837.668 312.247 837.668 312.475C837.668 312.702 837.578 312.92 837.417 313.081C837.256 313.242 837.037 313.333 836.81 313.333Z" fill="#263238"/>
<path d="M896.633 299.33H896.066H894.409L888.021 299.373L864.527 299.442L787.033 299.51H746.152H745.946V299.304C745.946 279.167 746.006 261.999 746.023 249.849C746.023 243.8 746.066 238.996 746.083 235.684C746.083 234.054 746.083 232.792 746.083 231.917C746.083 231.505 746.083 231.188 746.083 230.948C746.083 230.707 746.083 230.622 746.083 230.622C746.083 230.622 746.083 230.733 746.083 230.948C746.083 231.162 746.083 231.505 746.083 231.917C746.083 232.775 746.083 234.054 746.083 235.684C746.083 238.996 746.083 243.8 746.143 249.849C746.143 261.999 746.186 279.167 746.22 299.304L746.014 299.099H786.895L864.39 299.167L887.883 299.236H894.272H895.929C896.444 299.313 896.633 299.33 896.633 299.33Z" fill="#263238"/>
<g opacity="0.3">
<path opacity="0.3" d="M878.163 247.867L822.333 299.33H850.248L883.856 268.236L878.163 247.867Z" fill="white"/>
</g>
<g opacity="0.3">
<path opacity="0.3" d="M828.979 272.612L798.264 299.33H790.347L826.617 268.253L829.777 273.599" fill="white"/>
</g>
<path d="M746.117 299.33C747.633 295.801 749.354 292.363 751.269 289.034C753.482 285.116 755.919 281.329 758.568 277.691C759.383 276.585 760.352 275.6 761.445 274.766C762.63 273.861 764.092 273.391 765.583 273.436C767.149 273.557 768.643 274.139 769.877 275.109C771.175 276.106 772.278 277.333 773.131 278.73C774.943 281.51 776.102 284.881 778.506 287.55C779.704 288.917 781.268 289.915 783.014 290.424C783.912 290.633 784.847 290.633 785.745 290.424C786.659 290.197 787.516 289.782 788.261 289.206C789.786 287.98 790.944 286.36 791.61 284.521C792.301 282.607 792.875 280.653 793.327 278.67C794.397 274.538 795.675 270.463 797.156 266.46C797.912 264.412 798.734 262.356 799.621 260.291C800.48 258.185 801.502 256.148 802.678 254.199C803.862 252.171 805.435 250.396 807.306 248.974C808.272 248.259 809.365 247.732 810.526 247.421C811.713 247.13 812.948 247.094 814.149 247.318C816.558 247.879 818.701 249.247 820.22 251.196C821.77 253.116 822.936 255.315 823.655 257.674C824.445 260.025 824.986 262.445 825.673 264.83C826.269 267.253 827.24 269.569 828.549 271.694C829.867 273.798 831.78 275.464 834.045 276.482C835.162 276.944 836.373 277.134 837.578 277.036C838.783 276.937 839.947 276.553 840.974 275.915C843.002 274.604 844.616 272.744 845.628 270.553C846.623 268.384 847.447 266.14 848.093 263.843C849.524 259.302 850.926 254.846 852.3 250.476C852.996 248.296 853.622 246.117 854.404 244.006C855.125 241.888 856.155 239.887 857.461 238.069C858.12 237.181 858.904 236.392 859.788 235.727C860.678 235.087 861.659 234.584 862.699 234.234C863.721 233.891 864.783 233.677 865.858 233.599C866.922 233.541 867.988 233.631 869.027 233.865C871.055 234.384 872.861 235.543 874.179 237.168C875.412 238.752 876.322 240.562 876.858 242.496C878.009 246.229 878.635 249.952 879.563 253.427C880.009 255.143 880.533 256.859 881.031 258.515C881.529 260.171 882.001 261.801 882.474 263.389C884.046 269.122 885.956 274.757 888.192 280.265C889.903 284.417 892.09 288.356 894.71 292.003C896.349 294.322 898.383 296.335 900.72 297.949C901.346 298.341 902 298.685 902.678 298.978L903.365 299.287L902.661 299.021C901.974 298.744 901.31 298.411 900.677 298.026C898.304 296.437 896.238 294.431 894.581 292.106C891.924 288.464 889.707 284.522 887.978 280.36C885.706 274.854 883.77 269.215 882.182 263.474C881.701 261.887 881.22 260.265 880.722 258.609C880.224 256.954 879.692 255.263 879.236 253.513C878.301 250.021 877.665 246.314 876.506 242.608C875.991 240.741 875.116 238.992 873.93 237.46C872.659 235.893 870.915 234.78 868.958 234.285C867.957 234.069 866.933 233.985 865.91 234.036C864.868 234.113 863.841 234.324 862.853 234.663C860.825 235.334 859.061 236.628 857.813 238.361C856.536 240.149 855.529 242.115 854.825 244.195C854.06 246.289 853.425 248.485 852.729 250.647C851.367 255.017 849.97 259.473 848.539 264.015C847.889 266.336 847.057 268.603 846.049 270.793C845.003 273.063 843.328 274.986 841.223 276.336C840.142 277.015 838.912 277.425 837.639 277.529C836.365 277.634 835.086 277.43 833.907 276.936C831.556 275.89 829.571 274.166 828.206 271.986C826.873 269.829 825.883 267.479 825.269 265.019C824.582 262.616 824.033 260.205 823.26 257.889C822.572 255.586 821.453 253.434 819.963 251.548C818.506 249.676 816.451 248.358 814.141 247.816C813.002 247.608 811.831 247.643 810.706 247.919C809.595 248.213 808.549 248.713 807.624 249.395C805.804 250.787 804.27 252.518 803.107 254.491C801.945 256.413 800.932 258.421 800.076 260.497C799.194 262.556 798.373 264.607 797.612 266.649C796.092 270.742 794.821 274.809 793.773 278.815C793.327 280.812 792.754 282.778 792.056 284.701C791.377 286.598 790.189 288.272 788.621 289.54C787.841 290.155 786.935 290.591 785.968 290.819C785.014 291.046 784.02 291.046 783.066 290.819C781.254 290.292 779.633 289.255 778.395 287.833C775.93 285.079 774.788 281.698 773.002 278.953C772.173 277.584 771.099 276.38 769.834 275.401C768.646 274.46 767.206 273.892 765.695 273.77C764.267 273.726 762.868 274.171 761.728 275.032C760.654 275.85 759.7 276.814 758.894 277.897C756.212 281.498 753.733 285.245 751.467 289.12C749.621 292.32 748.324 294.886 747.457 296.627L746.487 298.618C746.272 299.107 746.117 299.33 746.117 299.33Z" fill="#263238"/>
<path d="M679.176 378.644H525.277V471.076H679.176V378.644Z" fill="white"/>
<path d="M679.176 378.644H525.277V392.852H679.176V378.644Z" fill="#E0E0E0"/>
<path d="M535.744 385.748C535.746 386.154 535.627 386.551 535.402 386.89C535.178 387.228 534.858 387.492 534.483 387.649C534.108 387.805 533.695 387.847 533.297 387.769C532.898 387.691 532.532 387.496 532.244 387.21C531.956 386.923 531.76 386.558 531.68 386.16C531.6 385.762 531.64 385.349 531.795 384.974C531.95 384.599 532.213 384.278 532.551 384.052C532.888 383.826 533.286 383.706 533.692 383.706C534.235 383.706 534.755 383.921 535.14 384.304C535.525 384.686 535.742 385.206 535.744 385.748V385.748Z" fill="white"/>
<path d="M542.656 385.748C542.658 386.154 542.539 386.552 542.314 386.89C542.089 387.229 541.769 387.493 541.393 387.649C541.018 387.806 540.605 387.847 540.206 387.768C539.807 387.689 539.44 387.494 539.153 387.207C538.865 386.919 538.67 386.553 538.591 386.155C538.512 385.756 538.553 385.343 538.71 384.968C538.866 384.593 539.13 384.273 539.469 384.048C539.808 383.823 540.206 383.704 540.613 383.706C541.155 383.706 541.674 383.921 542.058 384.304C542.441 384.687 542.656 385.206 542.656 385.748Z" fill="white"/>
<path d="M549.569 385.748C549.57 386.154 549.451 386.551 549.227 386.89C549.002 387.228 548.682 387.492 548.308 387.649C547.933 387.805 547.52 387.847 547.121 387.769C546.723 387.691 546.356 387.496 546.068 387.21C545.78 386.923 545.584 386.558 545.504 386.16C545.424 385.762 545.464 385.349 545.62 384.974C545.775 384.599 546.038 384.278 546.375 384.052C546.713 383.826 547.11 383.706 547.516 383.706C548.059 383.706 548.58 383.921 548.964 384.304C549.349 384.686 549.566 385.206 549.569 385.748V385.748Z" fill="white"/>
<path d="M679.141 471.085C679.141 471.085 679.141 470.51 679.141 469.412C679.141 468.313 679.141 466.692 679.141 464.572C679.141 460.282 679.141 454.071 679.09 446.057C679.09 430.038 679.038 406.949 679.004 378.644L679.176 378.824H525.285L525.509 378.601C525.509 411.351 525.509 442.599 525.509 471.042L525.303 470.827L636.071 470.93L667.841 470.99H676.299H678.489H679.236H676.351H667.936L636.208 471.188L525.32 471.291H525.114V471.085C525.114 442.642 525.114 411.394 525.114 378.644V378.421H525.346L679.236 378.472H679.408V378.644C679.408 406.958 679.339 430.124 679.322 446.16C679.322 454.165 679.322 460.394 679.27 464.641C679.27 466.743 679.27 468.356 679.27 469.454C679.27 470.553 679.141 471.085 679.141 471.085Z" fill="#263238"/>
<path d="M548.676 408.425H542.133V456.284H548.676V408.425Z" fill="#3F51B5"/>
<path d="M561.307 424.675H554.763V456.276H561.307V424.675Z" fill="#3F51B5"/>
<path d="M573.929 414.371H567.386V456.524H573.929V414.371Z" fill="#3F51B5"/>
<path d="M586.56 410.27H580.017V456.284H586.56V410.27Z" fill="#3F51B5"/>
<path d="M599.182 425.645H592.639V456.276H599.182V425.645Z" fill="#3F51B5"/>
<path d="M611.813 431.66H605.27V456.284H611.813V431.66Z" fill="#3F51B5"/>
<path d="M624.436 413.333H617.893V456.276H624.436V413.333Z" fill="#3F51B5"/>
<path d="M637.067 421.08H630.524V456.284H637.067V421.08Z" fill="#3F51B5"/>
<path d="M649.689 414.886H643.146V456.276H649.689V414.886Z" fill="#3F51B5"/>
<path d="M662.32 428.082H655.777V456.284H662.32V428.082Z" fill="#3F51B5"/>
<g opacity="0.3">
<path opacity="0.3" d="M561.307 424.675H554.763V456.276H561.307V424.675Z" fill="white"/>
</g>
<g opacity="0.3">
<path opacity="0.3" d="M586.56 410.27H580.017V456.284H586.56V410.27Z" fill="white"/>
</g>
<g opacity="0.3">
<path opacity="0.3" d="M611.813 431.66H605.27V456.284H611.813V431.66Z" fill="white"/>
</g>
<g opacity="0.3">
<path opacity="0.3" d="M637.067 421.08H630.524V456.284H637.067V421.08Z" fill="white"/>
</g>
<g opacity="0.3">
<path opacity="0.3" d="M662.32 428.082H655.777V456.284H662.32V428.082Z" fill="white"/>
</g>
<path d="M671.714 456.284C671.714 456.404 641.274 456.507 603.733 456.507C566.192 456.507 535.744 456.43 535.744 456.284C535.744 456.138 566.175 456.052 603.733 456.052C641.291 456.052 671.714 456.155 671.714 456.284Z" fill="#263238"/>
<path d="M489.788 311.059H407.777V393.007H489.788V311.059Z" fill="white"/>
<path d="M450.539 358.412L473.147 358.721C472.975 370.733 462.843 380.583 450.539 380.583H450.401L450.539 358.412Z" fill="#455A64"/>
<path d="M446.958 355.186L446.64 377.357C434.353 377.185 424.315 367.232 424.315 355.186C424.315 343.14 434.524 333.015 446.932 333.015C459.34 333.015 469.549 343.028 469.549 355.186H446.958Z" fill="#3F51B5"/>
<path d="M489.711 311.059H407.777V327.181H489.711V311.059Z" fill="#E0E0E0"/>
<path d="M417.334 321.441C418.619 321.441 419.661 320.4 419.661 319.116C419.661 317.832 418.619 316.791 417.334 316.791C416.049 316.791 415.007 317.832 415.007 319.116C415.007 320.4 416.049 321.441 417.334 321.441Z" fill="white"/>
<path d="M425.173 321.441C426.459 321.441 427.5 320.4 427.5 319.116C427.5 317.832 426.459 316.791 425.173 316.791C423.888 316.791 422.846 317.832 422.846 319.116C422.846 320.4 423.888 321.441 425.173 321.441Z" fill="white"/>
<path d="M435.34 319.15C435.34 319.61 435.204 320.059 434.948 320.442C434.692 320.824 434.329 321.122 433.904 321.298C433.478 321.474 433.011 321.52 432.559 321.431C432.108 321.341 431.693 321.119 431.368 320.794C431.042 320.469 430.821 320.055 430.731 319.604C430.641 319.153 430.687 318.685 430.863 318.26C431.039 317.835 431.338 317.472 431.72 317.217C432.103 316.961 432.553 316.825 433.013 316.825C433.63 316.825 434.222 317.07 434.659 317.506C435.095 317.942 435.34 318.533 435.34 319.15V319.15Z" fill="white"/>
<path d="M489.788 393.007C489.788 393.007 489.788 392.869 489.788 392.612C489.788 392.355 489.788 391.968 489.788 391.479C489.788 390.467 489.788 388.991 489.788 387.069C489.788 383.217 489.788 377.571 489.737 370.398C489.737 356.061 489.677 335.606 489.634 311.059L489.831 311.248H407.828L408.052 311.025C408.052 341.055 408.052 369.154 408.052 392.972L407.854 392.775L467.248 392.869L483.932 392.921H488.337H489.376H489.771H488.286H483.915L467.274 392.972L407.803 393.195H407.614V393.007C407.614 369.189 407.614 341.063 407.614 311.059V310.836H407.803H489.805H489.994V311.033C489.994 335.624 489.926 356.13 489.9 370.501C489.9 377.648 489.857 383.277 489.848 387.121C489.848 389.037 489.848 390.496 489.848 391.497C489.848 391.977 489.848 392.355 489.848 392.603C489.848 392.852 489.788 393.007 489.788 393.007Z" fill="#263238"/>
<path d="M690.261 198.507H466.656V359.751H690.261V198.507Z" fill="white"/>
<path d="M649.981 235.057H596.993C588.182 235.057 581.039 242.195 581.039 250.999V256.293C581.039 265.097 588.182 272.235 596.993 272.235H649.981C658.792 272.235 665.935 265.097 665.935 256.293V250.999C665.935 242.195 658.792 235.057 649.981 235.057Z" fill="#EBEBEB"/>
<path d="M482.678 276.567C482.6 269.737 484.547 263.037 488.276 257.312C492.005 251.587 497.348 247.095 503.63 244.401C509.912 241.707 516.851 240.934 523.573 242.178C530.294 243.422 536.496 246.628 541.396 251.391C546.296 256.154 549.673 262.261 551.103 268.941C552.532 275.62 551.949 282.573 549.427 288.922C546.905 295.271 542.557 300.73 536.933 304.612C531.308 308.494 524.659 310.624 517.824 310.733C508.632 310.848 499.771 307.315 493.182 300.91C486.594 294.506 482.816 285.751 482.678 276.567V276.567ZM533.803 275.709C533.735 272.447 532.702 269.278 530.834 266.602C528.966 263.925 526.347 261.861 523.307 260.67C520.267 259.478 516.942 259.213 513.751 259.907C510.56 260.601 507.646 262.224 505.377 264.57C503.108 266.917 501.584 269.882 500.999 273.092C500.414 276.302 500.793 279.614 502.088 282.609C503.383 285.604 505.537 288.149 508.278 289.923C511.018 291.698 514.223 292.621 517.489 292.578C521.885 292.503 526.072 290.689 529.131 287.533C532.19 284.377 533.87 280.137 533.803 275.744V275.709Z" fill="#F5F5F5"/>
<path d="M482.678 276.567C482.52 267.383 486.013 258.511 492.393 251.897C498.772 245.283 507.516 241.467 516.707 241.286L516.999 259.407C512.593 259.478 508.395 261.295 505.329 264.458C502.263 267.622 500.58 271.873 500.65 276.276C500.721 280.679 502.539 284.874 505.705 287.937C508.871 291.001 513.125 292.683 517.532 292.612L517.824 310.733C508.632 310.85 499.769 307.318 493.18 300.913C486.591 294.508 482.814 285.752 482.678 276.567V276.567Z" fill="#455A64"/>
<path d="M533.803 275.744C533.813 275.832 533.813 275.921 533.803 276.01V276.799C533.809 277.227 533.78 277.654 533.718 278.078C533.663 278.656 533.566 279.23 533.426 279.794C533.089 281.369 532.509 282.883 531.708 284.281C530.666 286.152 529.266 287.799 527.587 289.129C525.406 290.888 522.812 292.062 520.051 292.541C517.289 293.02 514.451 292.788 511.804 291.866C511.05 291.604 510.313 291.294 509.598 290.939C508.877 290.554 508.182 290.121 507.52 289.643C506.845 289.156 506.203 288.625 505.596 288.056C504.998 287.452 504.438 286.81 503.922 286.134C502.856 284.747 502.021 283.197 501.449 281.544C500.883 279.834 500.577 278.05 500.539 276.25C500.527 274.45 500.791 272.659 501.32 270.939C501.835 269.268 502.618 267.692 503.638 266.271C504.598 264.882 505.775 263.657 507.125 262.642C507.76 262.156 508.429 261.715 509.125 261.321C509.825 260.939 510.551 260.606 511.298 260.326C514.937 258.935 518.95 258.868 522.634 260.135C526.318 261.402 529.439 263.924 531.451 267.258C532.296 268.629 532.924 270.123 533.314 271.685C533.469 272.249 533.584 272.822 533.657 273.401C533.735 273.82 533.778 274.245 533.786 274.671C533.786 275.006 533.786 275.263 533.786 275.461C533.798 275.552 533.798 275.644 533.786 275.735C533.76 275.649 533.745 275.559 533.743 275.469C533.743 275.263 533.7 275.006 533.666 274.68C533.644 274.256 533.59 273.834 533.503 273.419C533.414 272.838 533.285 272.265 533.116 271.703C532.707 270.167 532.064 268.702 531.21 267.361C530.084 265.572 528.627 264.014 526.917 262.771C524.715 261.14 522.136 260.093 519.42 259.727C516.704 259.361 513.939 259.688 511.384 260.677C509.907 261.235 508.526 262.016 507.288 262.994C505.997 263.994 504.878 265.196 503.973 266.555C502.983 267.941 502.221 269.476 501.715 271.102C501.206 272.77 500.951 274.506 500.959 276.25C501.023 279.724 502.186 283.088 504.282 285.86C505.255 287.187 506.439 288.346 507.786 289.292C508.427 289.76 509.101 290.182 509.804 290.553C510.498 290.904 511.215 291.208 511.95 291.462C514.535 292.371 517.307 292.612 520.01 292.162C522.712 291.711 525.257 290.585 527.406 288.888C529.063 287.588 530.456 285.983 531.511 284.161C532.318 282.791 532.914 281.307 533.28 279.759C533.434 279.197 533.543 278.623 533.606 278.043C533.684 277.624 533.727 277.2 533.735 276.773C533.735 276.447 533.778 276.19 533.786 275.984C533.784 275.904 533.79 275.823 533.803 275.744V275.744Z" fill="#263238"/>
<path d="M482.678 276.567C482.678 276.567 482.678 276.756 482.738 277.125C482.799 277.494 482.807 278.06 482.867 278.764C482.867 279.133 482.927 279.536 482.962 279.974C482.996 280.411 483.116 280.9 483.202 281.424C483.288 281.947 483.391 282.505 483.494 283.14C483.622 283.774 483.783 284.401 483.975 285.019C484.831 288.245 486.171 291.323 487.951 294.148C490.27 297.912 493.293 301.195 496.855 303.818L498.358 304.907C498.881 305.25 499.44 305.551 499.989 305.885C500.539 306.22 501.088 306.563 501.706 306.838L503.51 307.696L504.42 308.116L505.382 308.451L507.331 309.129C507.992 309.343 508.687 309.472 509.374 309.643C510.06 309.836 510.757 309.985 511.461 310.09C512.906 310.336 514.366 310.482 515.831 310.527C516.57 310.527 517.326 310.604 518.081 310.579L520.357 310.424C520.743 310.424 521.129 310.424 521.507 310.33L522.649 310.132C523.414 309.987 524.195 309.892 524.968 309.712C528.112 308.943 531.142 307.769 533.984 306.22C534.705 305.808 535.392 305.362 536.105 304.899C536.823 304.455 537.508 303.962 538.157 303.423C539.513 302.368 540.796 301.221 541.995 299.991L543.712 298.035L544.142 297.546L544.528 297.014L545.292 295.941L546.065 294.869L546.743 293.719L547.413 292.569L547.748 291.994L548.031 291.385L549.156 288.94L550.015 286.366C552.262 279.279 552.141 271.654 549.672 264.641L548.693 262.067C548.298 261.261 547.894 260.454 547.491 259.656L547.19 259.056L546.838 258.489L546.125 257.357L545.421 256.233L544.614 255.186L543.807 254.139L543.412 253.625L542.957 253.144C542.364 252.501 541.772 251.874 541.179 251.239C539.942 250.06 538.625 248.968 537.238 247.97C536.573 247.45 535.87 246.979 535.134 246.563C534.413 246.143 533.709 245.705 532.979 245.302C531.514 244.566 530.002 243.927 528.454 243.389C526.947 242.86 525.407 242.433 523.843 242.11C523.07 241.956 522.289 241.879 521.524 241.758L520.365 241.604C519.987 241.552 519.601 241.604 519.215 241.544L516.931 241.467C516.175 241.467 515.428 241.552 514.689 241.587C513.226 241.68 511.772 241.875 510.336 242.17C509.633 242.295 508.939 242.464 508.258 242.676C507.58 242.874 506.893 243.028 506.24 243.26L504.317 244.006L503.364 244.367L502.462 244.821L500.685 245.679C500.101 245.963 499.577 246.357 499.027 246.683C498.478 247.009 497.937 247.353 497.422 247.713L495.953 248.845C492.479 251.582 489.563 254.961 487.367 258.798C485.68 261.681 484.441 264.802 483.692 268.056C483.517 268.68 483.376 269.313 483.271 269.952C483.185 270.553 483.099 271.111 483.03 271.668C482.962 272.226 482.867 272.672 482.833 273.11C482.799 273.547 482.833 273.968 482.781 274.328C482.781 275.04 482.721 275.581 482.704 275.967C482.687 276.353 482.661 276.533 482.661 276.533C482.661 276.533 482.661 276.344 482.661 275.967C482.661 275.589 482.661 275.032 482.661 274.32C482.661 273.959 482.661 273.547 482.661 273.101C482.661 272.655 482.773 272.175 482.833 271.651C482.893 271.128 482.979 270.553 483.056 269.935C483.156 269.29 483.29 268.652 483.46 268.022C484.189 264.745 485.411 261.598 487.083 258.687C489.271 254.807 492.187 251.384 495.67 248.605L497.147 247.456C497.671 247.087 498.22 246.761 498.761 246.409C499.302 246.057 499.843 245.679 500.436 245.388L502.23 244.53L503.089 244.066L504.051 243.697L506 242.942C506.652 242.702 507.348 242.548 508.035 242.342C508.725 242.127 509.428 241.952 510.139 241.818C511.588 241.519 513.057 241.322 514.535 241.226C515.282 241.226 516.038 241.098 516.802 241.089L519.112 241.166C519.498 241.166 519.884 241.166 520.279 241.226L521.439 241.381C522.22 241.501 523.01 241.578 523.791 241.724C525.375 242.054 526.935 242.486 528.462 243.02C530.076 243.552 531.648 244.2 533.168 244.959C533.906 245.353 534.628 245.817 535.358 246.229C536.1 246.65 536.811 247.123 537.487 247.644C538.893 248.659 540.229 249.765 541.488 250.956L543.283 252.878L543.738 253.367L544.15 253.891L544.957 254.946L545.816 256.01L546.529 257.142L547.25 258.292L547.611 258.867L547.911 259.468L549.139 261.913C549.465 262.771 549.792 263.629 550.127 264.487C552.631 271.588 552.751 279.31 550.47 286.486L549.611 289.06C549.234 289.918 548.847 290.716 548.469 291.54L548.186 292.157L547.843 292.741L547.164 293.908L546.477 295.066L545.696 296.147L544.915 297.228L544.528 297.769L544.09 298.266C543.506 298.936 542.931 299.596 542.373 300.248C541.155 301.478 539.855 302.625 538.483 303.68C537.825 304.222 537.131 304.718 536.405 305.165C535.684 305.611 534.988 306.083 534.258 306.503C532.805 307.298 531.299 307.992 529.75 308.579C528.241 309.161 526.695 309.642 525.122 310.021C524.349 310.201 523.559 310.295 522.787 310.441L521.627 310.639C521.241 310.699 520.846 310.699 520.46 310.733L518.158 310.879C517.394 310.879 516.639 310.879 515.883 310.827C514.403 310.773 512.929 310.621 511.469 310.373C510.757 310.262 510.052 310.11 509.357 309.918C508.662 309.738 507.966 309.609 507.296 309.386L505.33 308.7L504.36 308.356L503.432 307.927L501.621 307.069C501.019 306.795 500.479 306.417 499.903 306.1C499.328 305.782 498.787 305.456 498.255 305.113L496.743 304.006C493.139 301.372 490.08 298.065 487.736 294.268C485.964 291.415 484.64 288.307 483.812 285.053C483.624 284.416 483.475 283.769 483.365 283.114L483.082 281.398C483.005 280.875 482.91 280.394 482.867 279.948C482.824 279.502 482.816 279.09 482.799 278.73C482.799 278.017 482.73 277.468 482.704 277.082C482.678 276.696 482.678 276.567 482.678 276.567Z" fill="#263238"/>
<path d="M513.599 238.498C535.924 238.138 553.716 255.444 554.077 277.846L532.953 278.181C532.782 267.473 524.633 260.729 513.96 260.9L513.599 238.498Z" fill="#3F51B5"/>
<path d="M513.599 238.498C513.599 238.498 513.599 238.644 513.599 238.918C513.599 239.193 513.599 239.596 513.599 240.094C513.599 241.149 513.659 242.668 513.711 244.59C513.796 248.477 513.908 254.028 514.063 260.892L513.891 260.729C516.032 260.696 518.167 260.959 520.236 261.51C522.514 262.107 524.652 263.145 526.531 264.564C528.549 266.109 530.183 268.1 531.305 270.381C532.469 272.815 533.084 275.475 533.108 278.172L532.885 277.957L549.199 277.691L553.965 277.614L553.75 277.837C553.635 273.594 552.909 269.39 551.595 265.353L550.633 262.522C550.23 261.604 549.775 260.72 549.337 259.836C548.916 258.946 548.434 258.086 547.894 257.262C547.42 256.44 546.899 255.647 546.331 254.886C545.765 254.139 545.198 253.41 544.614 252.681C544.03 251.951 543.386 251.351 542.794 250.69L541.892 249.729L540.922 248.871L539.016 247.155C536.596 245.254 533.969 243.634 531.184 242.325L529.313 241.467C528.686 241.218 528.068 241.021 527.466 240.806L525.749 240.205C525.182 240.025 524.616 239.914 524.032 239.776L522.46 239.399L521.722 239.219L520.992 239.116L518.416 238.747C517.733 238.653 517.045 238.598 516.355 238.584L514.835 238.507L513.934 238.498H513.599H514.835H516.372C517.076 238.487 517.779 238.527 518.476 238.618L521.052 238.944L521.782 239.047L522.529 239.21L524.118 239.579C524.659 239.716 525.234 239.811 525.835 239.991L527.552 240.583C528.153 240.797 528.78 240.986 529.407 241.226L531.305 242.084C534.124 243.386 536.786 245.003 539.239 246.906C539.866 247.464 540.51 248.022 541.162 248.622L542.15 249.48L543.06 250.45C543.661 251.111 544.305 251.754 544.906 252.458L546.623 254.68C547.201 255.445 547.731 256.244 548.212 257.074C548.759 257.896 549.247 258.756 549.672 259.648C550.101 260.506 550.582 261.424 550.985 262.359L552.076 265.233C553.41 269.31 554.148 273.558 554.265 277.846V278.069H554.042L549.277 278.146L532.962 278.404H532.739V278.189C532.732 275.557 532.146 272.959 531.021 270.579C529.937 268.349 528.35 266.402 526.385 264.89C524.551 263.495 522.462 262.469 520.236 261.87C518.202 261.322 516.101 261.053 513.994 261.072H513.822V260.909C513.745 254.045 513.685 248.408 513.651 244.487C513.651 242.574 513.651 241.055 513.651 240.034V238.884C513.59 238.627 513.599 238.498 513.599 238.498Z" fill="#263238"/>
<path d="M690.261 198.507H466.656V220.042H690.261V198.507Z" fill="#E0E0E0"/>
<path d="M655.957 247.533H593.103C592.752 247.533 592.415 247.395 592.165 247.15C591.914 246.904 591.77 246.571 591.763 246.22C591.763 245.865 591.905 245.525 592.156 245.274C592.407 245.023 592.748 244.882 593.103 244.882H655.957C656.311 244.884 656.65 245.026 656.899 245.277C657.148 245.527 657.288 245.867 657.288 246.22V246.22C657.282 246.569 657.139 246.902 656.89 247.147C656.641 247.392 656.307 247.531 655.957 247.533V247.533Z" fill="#263238"/>
<path d="M655.957 254.654H593.103C592.748 254.654 592.407 254.513 592.156 254.262C591.905 254.011 591.763 253.671 591.763 253.316V253.316C591.762 253.139 591.796 252.964 591.863 252.801C591.93 252.637 592.028 252.489 592.153 252.364C592.277 252.238 592.425 252.139 592.588 252.071C592.751 252.004 592.926 251.969 593.103 251.969H655.957C656.134 251.969 656.309 252.004 656.472 252.071C656.635 252.139 656.783 252.238 656.908 252.364C657.032 252.489 657.131 252.637 657.197 252.801C657.264 252.964 657.298 253.139 657.297 253.316V253.316C657.297 253.671 657.156 254.011 656.905 254.262C656.653 254.513 656.313 254.654 655.957 254.654V254.654Z" fill="#263238"/>
<path d="M621.662 261.776H593.103C592.748 261.776 592.407 261.635 592.156 261.384C591.905 261.132 591.763 260.792 591.763 260.437V260.437C591.762 260.261 591.796 260.086 591.863 259.922C591.93 259.759 592.028 259.61 592.153 259.485C592.277 259.36 592.425 259.26 592.588 259.193C592.751 259.125 592.926 259.09 593.103 259.09H621.662C621.839 259.089 622.014 259.123 622.177 259.189C622.341 259.256 622.49 259.355 622.615 259.479C622.74 259.603 622.84 259.751 622.908 259.914C622.975 260.077 623.01 260.252 623.01 260.428V260.428C623.011 260.606 622.977 260.781 622.91 260.945C622.843 261.109 622.743 261.258 622.618 261.384C622.493 261.509 622.343 261.608 622.179 261.675C622.015 261.743 621.84 261.777 621.662 261.776V261.776Z" fill="#263238"/>
<path d="M649.981 280.54H596.993C588.182 280.54 581.039 287.677 581.039 296.482V301.776C581.039 310.58 588.182 317.717 596.993 317.717H649.981C658.792 317.717 665.935 310.58 665.935 301.776V296.482C665.935 287.677 658.792 280.54 649.981 280.54Z" fill="#EBEBEB"/>
<path d="M657.675 340.9H587.496C585.546 340.898 583.676 340.122 582.298 338.744C580.92 337.365 580.146 335.496 580.146 333.547V333.547C580.146 332.583 580.336 331.628 580.705 330.737C581.075 329.846 581.616 329.036 582.298 328.354C582.981 327.672 583.791 327.131 584.683 326.762C585.575 326.393 586.531 326.203 587.496 326.203H657.675C659.625 326.203 661.495 326.976 662.875 328.353C664.255 329.73 665.031 331.599 665.033 333.547V333.547C665.033 335.497 664.258 337.368 662.878 338.747C661.498 340.126 659.626 340.9 657.675 340.9V340.9Z" fill="#EBEBEB"/>
<path d="M655.537 293.341H592.691C592.336 293.341 591.995 293.2 591.744 292.949C591.492 292.698 591.351 292.358 591.351 292.003V292.003C591.351 291.648 591.492 291.307 591.744 291.056C591.995 290.805 592.336 290.664 592.691 290.664H655.537C655.713 290.664 655.887 290.699 656.049 290.766C656.212 290.834 656.359 290.932 656.484 291.056C656.608 291.181 656.707 291.328 656.774 291.491C656.841 291.653 656.876 291.827 656.876 292.003V292.003C656.876 292.179 656.841 292.353 656.774 292.515C656.707 292.678 656.608 292.825 656.484 292.949C656.359 293.074 656.212 293.172 656.049 293.24C655.887 293.307 655.713 293.341 655.537 293.341V293.341Z" fill="#263238"/>
<path d="M652.858 335.049H590.012C589.656 335.049 589.316 334.908 589.065 334.657C588.813 334.406 588.672 334.065 588.672 333.71C588.672 333.355 588.813 333.015 589.065 332.764C589.316 332.513 589.656 332.372 590.012 332.372H652.858C653.039 332.366 653.22 332.397 653.389 332.463C653.559 332.53 653.713 332.63 653.842 332.757C653.971 332.885 654.073 333.037 654.142 333.206C654.21 333.374 654.244 333.554 654.24 333.736V333.736C654.237 333.913 654.198 334.088 654.127 334.25C654.055 334.413 653.952 334.559 653.823 334.681C653.695 334.803 653.543 334.899 653.377 334.962C653.212 335.025 653.035 335.054 652.858 335.049V335.049Z" fill="#263238"/>
<path d="M655.537 300.463H592.691C592.336 300.463 591.995 300.322 591.744 300.071C591.492 299.82 591.351 299.479 591.351 299.124C591.351 298.769 591.492 298.429 591.744 298.178C591.995 297.927 592.336 297.786 592.691 297.786H655.537C655.713 297.786 655.887 297.82 656.049 297.888C656.212 297.955 656.359 298.054 656.484 298.178C656.608 298.302 656.707 298.45 656.774 298.612C656.841 298.774 656.876 298.949 656.876 299.124V299.124C656.876 299.3 656.841 299.474 656.774 299.637C656.707 299.799 656.608 299.946 656.484 300.071C656.359 300.195 656.212 300.294 656.049 300.361C655.887 300.428 655.713 300.463 655.537 300.463V300.463Z" fill="#263238"/>
<path d="M621.25 307.584H592.691C592.336 307.584 591.995 307.443 591.744 307.192C591.492 306.941 591.351 306.601 591.351 306.246C591.351 305.891 591.492 305.55 591.744 305.299C591.995 305.048 592.336 304.907 592.691 304.907H621.25C621.605 304.907 621.946 305.048 622.197 305.299C622.448 305.55 622.59 305.891 622.59 306.246C622.59 306.601 622.448 306.941 622.197 307.192C621.946 307.443 621.605 307.584 621.25 307.584Z" fill="#263238"/>
<path d="M576.651 243.003C576.262 243.067 575.868 243.095 575.474 243.088L572.272 243.157C569.567 243.157 565.823 243.226 561.701 243.226H556.884L557.039 243.166C554.935 245.242 553.123 247.009 551.827 248.253L550.341 249.652C550.171 249.837 549.978 249.998 549.766 250.132C549.9 249.921 550.062 249.727 550.247 249.558L551.689 248.03C552.926 246.735 554.703 244.924 556.781 242.822L556.841 242.762H561.744C565.866 242.762 569.61 242.762 572.315 242.822L575.517 242.891C575.898 242.892 576.277 242.929 576.651 243.003V243.003Z" fill="#263238"/>
<path d="M575.724 244.847C576.71 244.847 577.51 244.048 577.51 243.063C577.51 242.077 576.71 241.278 575.724 241.278C574.737 241.278 573.937 242.077 573.937 243.063C573.937 244.048 574.737 244.847 575.724 244.847Z" fill="#263238"/>
<path d="M575.724 298.489C576.71 298.489 577.51 297.69 577.51 296.705C577.51 295.719 576.71 294.92 575.724 294.92C574.737 294.92 573.937 295.719 573.937 296.705C573.937 297.69 574.737 298.489 575.724 298.489Z" fill="#263238"/>
<path d="M574.539 297.022C573.544 297.137 572.543 297.18 571.542 297.151C569.687 297.151 567.128 297.151 564.303 297.151L557.073 297.082L554.875 297.031C554.609 297.049 554.342 297.049 554.077 297.031C555.059 296.83 556.063 296.752 557.065 296.799C558.919 296.748 561.478 296.722 564.303 296.739C567.128 296.756 569.687 296.791 571.542 296.842C572.544 296.823 573.546 296.883 574.539 297.022Z" fill="#263238"/>
<path d="M499.723 336.233H493.867V342.084H499.723V336.233Z" fill="#455A64"/>
<path d="M519.361 336.233H513.505V342.084H519.361V336.233Z" fill="#E0E0E0"/>
<path d="M540.664 336.233H534.808V342.084H540.664V336.233Z" fill="#3F51B5"/>
<path d="M481.871 209.275C481.846 209.857 481.65 210.42 481.308 210.892C480.965 211.364 480.492 211.726 479.946 211.932C479.399 212.137 478.805 212.178 478.235 212.049C477.666 211.92 477.147 211.627 476.744 211.206C476.34 210.785 476.068 210.255 475.963 209.681C475.859 209.107 475.925 208.515 476.153 207.979C476.382 207.442 476.764 206.985 477.251 206.663C477.737 206.341 478.308 206.169 478.892 206.169C479.292 206.176 479.686 206.263 480.052 206.423C480.419 206.584 480.75 206.815 481.027 207.104C481.304 207.392 481.521 207.732 481.666 208.105C481.81 208.477 481.88 208.875 481.871 209.275V209.275Z" fill="white"/>
<path d="M491.952 209.275C491.927 209.857 491.731 210.42 491.388 210.892C491.046 211.364 490.572 211.726 490.026 211.932C489.48 212.137 488.885 212.178 488.316 212.049C487.747 211.92 487.228 211.627 486.824 211.206C486.42 210.785 486.149 210.255 486.044 209.681C485.939 209.107 486.005 208.515 486.234 207.979C486.463 207.442 486.844 206.985 487.331 206.663C487.818 206.341 488.389 206.169 488.972 206.169C489.372 206.176 489.767 206.263 490.133 206.423C490.5 206.584 490.831 206.815 491.107 207.104C491.384 207.392 491.601 207.732 491.746 208.105C491.891 208.477 491.961 208.875 491.952 209.275V209.275Z" fill="white"/>
<path d="M501.947 209.275C501.922 209.858 501.725 210.42 501.383 210.893C501.04 211.366 500.566 211.727 500.019 211.932C499.472 212.138 498.877 212.178 498.308 212.049C497.738 211.919 497.22 211.625 496.816 211.203C496.413 210.781 496.142 210.25 496.038 209.676C495.934 209.101 496.001 208.509 496.232 207.973C496.462 207.436 496.844 206.979 497.332 206.659C497.82 206.338 498.392 206.167 498.976 206.169C499.375 206.177 499.769 206.265 500.134 206.426C500.499 206.587 500.83 206.818 501.105 207.107C501.381 207.395 501.598 207.735 501.742 208.107C501.886 208.479 501.956 208.876 501.947 209.275V209.275Z" fill="white"/>
<path d="M690.304 359.751C690.304 358.249 690.227 296.31 690.124 198.507L690.304 198.687H466.716L466.939 198.464C466.939 256.259 466.939 311.068 466.939 359.708L466.742 359.502L690.347 359.708L466.742 359.905H466.535V359.708C466.535 311.068 466.535 256.259 466.535 198.464V198.241H466.776H690.364H690.544V198.421C690.304 296.31 690.304 358.249 690.304 359.751Z" fill="#263238"/>
<path d="M782.353 304.761H623.079V423.732H782.353V304.761Z" fill="white"/>
<path d="M781.846 304.761H622.572V319.467H781.846V304.761Z" fill="#E0E0E0"/>
<path d="M631.296 314.234C632.468 314.234 633.417 313.285 633.417 312.114C633.417 310.944 632.468 309.995 631.296 309.995C630.125 309.995 629.176 310.944 629.176 312.114C629.176 313.285 630.125 314.234 631.296 314.234Z" fill="white"/>
<path d="M638.441 314.234C639.612 314.234 640.561 313.285 640.561 312.114C640.561 310.944 639.612 309.995 638.441 309.995C637.269 309.995 636.32 310.944 636.32 312.114C636.32 313.285 637.269 314.234 638.441 314.234Z" fill="white"/>
<path d="M645.593 314.234C646.765 314.234 647.714 313.285 647.714 312.114C647.714 310.944 646.765 309.995 645.593 309.995C644.422 309.995 643.472 310.944 643.472 312.114C643.472 313.285 644.422 314.234 645.593 314.234Z" fill="white"/>
<path d="M781.846 423.732C781.846 423.732 781.846 422.985 781.846 421.552C781.846 420.119 781.846 418 781.846 415.229C781.846 409.695 781.846 401.57 781.804 391.205C781.804 370.476 781.743 340.754 781.709 304.77L781.889 304.95L622.632 304.993L622.856 304.77C622.856 347.524 622.856 387.996 622.856 423.74L622.65 423.534L737.617 423.637L770.246 423.689H778.901H781.134H781.898H778.953H770.366L737.737 423.74L622.675 423.843H622.478V423.646C622.478 387.927 622.478 347.43 622.478 304.676V304.564H622.718H781.975H782.156V304.753C782.156 340.789 782.087 370.553 782.061 391.308C782.061 401.664 782.061 409.772 782.061 415.332C782.061 418.086 782.061 420.188 782.061 421.612C782.061 423.037 781.846 423.732 781.846 423.732Z" fill="#263238"/>
<path d="M773.071 376.456C773.071 376.585 741.377 376.679 702.291 376.679C663.204 376.679 631.494 376.585 631.494 376.456C631.494 376.327 663.179 376.233 702.291 376.233C741.403 376.233 773.071 376.336 773.071 376.456Z" fill="#E0E0E0"/>
<path d="M773.071 364.247C773.071 364.367 741.377 364.47 702.291 364.47C663.204 364.47 631.494 364.367 631.494 364.247C631.494 364.126 663.179 364.023 702.291 364.023C741.403 364.023 773.071 364.118 773.071 364.247Z" fill="#E0E0E0"/>
<path d="M773.071 352.029C773.071 352.157 741.377 352.252 702.291 352.252C663.204 352.252 631.494 352.157 631.494 352.029C631.494 351.9 663.179 351.805 702.291 351.805C741.403 351.805 773.071 351.908 773.071 352.029Z" fill="#E0E0E0"/>
<path d="M773.071 339.819C773.071 339.939 741.377 340.042 702.291 340.042C663.204 340.042 631.494 339.939 631.494 339.819C631.494 339.699 663.179 339.596 702.291 339.596C741.403 339.596 773.071 339.691 773.071 339.819Z" fill="#E0E0E0"/>
<path d="M655.253 370.922H643.472V394.594H655.253V370.922Z" fill="#3F51B5"/>
<path d="M697.534 370.922H685.753V394.594H697.534V370.922Z" fill="#455A64"/>
<path d="M761.659 378.987H749.878V394.585H761.659V378.987Z" fill="#455A64"/>
<path d="M739.806 359.708H728.025V394.585H739.806V359.708Z" fill="#E0E0E0"/>
<path d="M718.194 346.134H706.413V394.594H718.194V346.134Z" fill="#3F51B5"/>
<path d="M675.552 359.708H663.771V394.585H675.552V359.708Z" fill="#E0E0E0"/>
<path d="M771.388 394.594H770.856H769.31H763.368L741.498 394.663L669.37 394.731H631.314H631.056V394.525C631.056 375.778 631.125 359.794 631.142 348.485C631.142 342.848 631.185 338.378 631.202 335.298C631.202 333.779 631.202 332.603 631.202 331.788C631.202 331.402 631.202 331.111 631.202 330.887C631.195 330.785 631.195 330.681 631.202 330.579C631.202 330.579 631.202 330.69 631.202 330.887V331.788C631.202 332.603 631.202 333.779 631.202 335.298C631.202 338.378 631.202 342.848 631.262 348.485C631.262 359.794 631.314 375.778 631.348 394.525L631.142 394.311H669.353L741.481 394.371L763.351 394.44L769.293 394.482H770.838L771.388 394.594Z" fill="#263238"/>
<path d="M661.23 406.597H656.052V411.771H661.23V406.597Z" fill="#3F51B5"/>
<path d="M692.863 406.434H687.685V411.608H692.863V406.434Z" fill="#E0E0E0"/>
<path d="M727.081 406.597H721.903V411.771H727.081V406.597Z" fill="#455A64"/>
<path d="M678.369 409.017C676.026 409.243 673.671 409.317 671.319 409.24C668.967 409.317 666.612 409.243 664.269 409.017C666.612 408.796 668.967 408.722 671.319 408.794C673.671 408.722 676.026 408.796 678.369 409.017V409.017Z" fill="#263238"/>
<path d="M709.761 409.017C707.419 409.243 705.064 409.317 702.712 409.24C700.36 409.317 698.005 409.243 695.662 409.017C698.005 408.796 700.36 408.722 702.712 408.794C705.064 408.722 707.418 408.796 709.761 409.017V409.017Z" fill="#263238"/>
<path d="M743.181 409.017C738.488 409.314 733.782 409.314 729.09 409.017C733.782 408.72 738.488 408.72 743.181 409.017V409.017Z" fill="#263238"/>
<path d="M760.345 267.584H705.314V322.573H760.345V267.584Z" fill="white"/>
<path d="M760.345 322.582C760.345 322.582 760.345 322.488 760.345 322.316C760.345 322.144 760.345 321.878 760.345 321.552C760.345 320.866 760.345 319.879 760.345 318.592C760.345 316.018 760.345 312.209 760.294 307.395C760.294 297.769 760.234 284.049 760.191 267.593L760.388 267.782H705.356L705.58 267.558C705.58 287.696 705.58 306.563 705.58 322.548L705.391 322.359L745.224 322.453L756.43 322.505H759.392H760.182H759.435L756.421 322.582L745.259 322.633L705.305 322.736H705.107V322.582C705.107 306.597 705.107 287.73 705.107 267.593V267.37H705.331H760.363H760.56V267.567C760.56 284.075 760.491 297.837 760.466 307.49C760.466 312.286 760.466 316.07 760.414 318.644C760.414 319.914 760.414 320.892 760.414 321.57C760.414 321.887 760.414 322.136 760.414 322.316C760.397 322.406 760.374 322.495 760.345 322.582V322.582Z" fill="#263238"/>
<path d="M735.959 295.169C737.547 294.469 738.895 293.318 739.835 291.86C740.776 290.402 741.267 288.701 741.249 286.966C741.249 282.067 737.565 278.086 732.963 278.06C728.36 278.035 724.651 281.99 724.651 286.889C724.619 288.639 725.105 290.358 726.05 291.832C726.994 293.305 728.354 294.466 729.957 295.169C717.155 297.091 717.73 310.999 717.73 310.999L748.006 311.136C748.006 311.136 748.693 297.082 735.959 295.169Z" fill="#3F51B5"/>
</g>
<path d="M415.148 221H409.548L386.828 175.24H323.148L300.908 221H295.308L355.148 98.12L415.148 221ZM384.908 170.6L354.828 109.64L325.388 170.6H384.908ZM437.624 113V221H432.984V99.24L521.304 208.84V101H525.944V222.76L437.624 113ZM663.585 221H657.985L635.265 175.24H571.585L549.345 221H543.745L603.585 98.12L663.585 221ZM633.345 170.6L603.265 109.64L573.825 170.6H633.345ZM681.421 101H686.701V216.36H723.821V221H681.421V101ZM793.721 101L758.041 173V221H752.761V173L716.281 101H722.041L755.481 166.76L788.281 101H793.721ZM824.821 105.64H797.141V101H857.461V105.64H830.101V221H824.821V105.64ZM874.253 101H879.533V221H874.253V101ZM961.96 224.2C950.76 224.2 940.467 221.48 931.08 216.04C921.693 210.493 914.227 202.92 908.68 193.32C903.24 183.613 900.52 172.733 900.52 160.68C900.52 149.053 903.347 138.44 909 128.84C914.76 119.24 922.387 111.667 931.88 106.12C941.48 100.573 951.667 97.8 962.44 97.8C969.907 97.8 975.827 98.4933 980.2 99.88C984.573 101.16 989.64 103.453 995.4 106.76V112.68C989.96 108.947 984.893 106.333 980.2 104.84C975.613 103.24 969.853 102.44 962.92 102.44C952.36 102.44 942.707 105.16 933.96 110.6C925.32 115.933 918.44 123.133 913.32 132.2C908.307 141.16 905.8 150.813 905.8 161.16C905.8 171.613 908.36 181.32 913.48 190.28C918.6 199.24 925.373 206.387 933.8 211.72C942.333 216.947 951.507 219.56 961.32 219.56C968.36 219.56 974.493 218.76 979.72 217.16C984.947 215.453 990.173 212.84 995.4 209.32V215.24C990.28 218.333 985 220.573 979.56 221.96C974.227 223.453 968.36 224.2 961.96 224.2ZM1043.26 223.24C1029.93 223.24 1019.58 217.747 1012.22 206.76V198.12C1015.1 204.52 1019.26 209.533 1024.7 213.16C1030.25 216.787 1036.86 218.6 1044.54 218.6C1049.87 218.6 1054.78 217.427 1059.26 215.08C1063.85 212.733 1067.47 209.427 1070.14 205.16C1072.81 200.893 1074.14 195.987 1074.14 190.44C1074.14 185.427 1073.29 181.107 1071.58 177.48C1069.87 173.853 1067.05 170.387 1063.1 167.08C1059.15 163.667 1053.45 159.667 1045.98 155.08L1040.86 151.88C1036.17 149 1032.38 146.44 1029.5 144.2C1026.62 141.96 1024.11 139.347 1021.98 136.36C1019.21 132.2 1017.82 127.4 1017.82 121.96C1017.82 114.707 1020.17 109.053 1024.86 105C1029.55 100.947 1035.53 98.92 1042.78 98.92C1052.59 98.92 1060.38 102.547 1066.14 109.8V117.96C1063.69 113.48 1060.33 109.96 1056.06 107.4C1051.79 104.84 1047.1 103.56 1041.98 103.56C1036.65 103.56 1032.17 105.213 1028.54 108.52C1024.91 111.827 1023.1 116.253 1023.1 121.8C1023.1 127.24 1024.75 131.933 1028.06 135.88C1031.47 139.72 1037.18 143.933 1045.18 148.52C1054.99 154.28 1062.62 159.507 1068.06 164.2C1071.9 167.72 1074.67 171.613 1076.38 175.88C1078.19 180.147 1079.1 184.893 1079.1 190.12C1079.1 196.733 1077.55 202.547 1074.46 207.56C1071.37 212.573 1067.1 216.467 1061.66 219.24C1056.22 221.907 1050.09 223.24 1043.26 223.24Z" fill="black" fill-opacity="0.54"/>
</svg>
