<svg width="1360" height="768" viewBox="0 0 1360 768" fill="none" xmlns="http://www.w3.org/2000/svg">
<rect width="1360" height="768" fill="white"/>
<g opacity="0.3">
<path d="M899.304 528.445C895.745 526.214 891.719 524.831 887.54 524.404C885.616 524.207 883.512 524.258 881.975 525.425C881.649 525.674 881.323 526.034 881.4 526.438C881.486 526.729 881.679 526.978 881.941 527.133C884.44 528.912 887.379 529.976 890.439 530.207C893.499 530.438 896.565 529.829 899.304 528.445" fill="#E0E0E0"/>
<path d="M899.003 528.119C896.28 526.117 893.737 523.88 891.404 521.436C889.066 518.972 887.422 515.935 886.638 512.632C886.484 512.142 886.438 511.625 886.504 511.115C886.569 510.606 886.744 510.117 887.016 509.681C893.078 514.408 897.835 520.526 899.037 528.119" fill="#E0E0E0"/>
<path d="M899.243 528.403C898.683 525.098 898.73 521.72 899.381 518.433C900.059 515.122 901.956 512.185 904.696 510.204C905.743 512.65 905.297 515.464 904.559 518.021C903.415 521.977 901.634 525.721 899.286 529.106" fill="#E0E0E0"/>
<path d="M905.185 539.033C901.579 539.471 898.436 541.375 895.74 543.804C893.042 546.269 891.169 549.504 890.373 553.07C893.911 552.847 896.908 550.359 899.089 547.562C901.27 544.765 902.772 541.701 905.16 539.093" fill="#E0E0E0"/>
<path d="M906.473 540.732C905.055 537.134 904.558 533.239 905.028 529.4C905.497 525.562 906.918 521.901 909.161 518.75C911.213 526.043 910.457 534.288 906.473 540.741" fill="#E0E0E0"/>
<path d="M914.322 550.076C911.027 549.867 907.743 550.633 904.882 552.278C902.02 553.923 899.706 556.374 898.23 559.325C898.024 559.728 897.852 560.234 898.118 560.586C898.257 560.721 898.426 560.821 898.612 560.876C898.797 560.931 898.993 560.941 899.183 560.904C902.36 560.698 905.194 558.793 907.487 556.614C909.779 554.434 911.823 551.929 914.356 550.058" fill="#E0E0E0"/>
<path d="M914.072 549.561C912.382 544.129 912.277 538.327 913.772 532.838C914.356 530.685 915.352 528.411 917.344 527.407C917.497 527.317 917.678 527.289 917.851 527.33C918.015 527.41 918.142 527.552 918.203 527.725C918.873 529.233 919.168 530.882 919.061 532.529C918.942 534.166 918.69 535.79 918.306 537.386C917.679 540.354 917.344 543.546 915.73 546.103C915.348 546.722 915.004 547.364 914.699 548.025C914.39 548.668 914.382 548.883 914.107 549.415" fill="#E0E0E0"/>
<path d="M934.835 552.658C933.298 546.807 934.93 539.719 938.622 534.923C938.897 534.571 939.257 534.194 939.695 534.228C940.374 534.297 940.554 535.198 940.554 535.876C940.277 541.893 938.307 547.71 934.869 552.658" fill="#E0E0E0"/>
<path d="M936.741 553.928C940.373 554.784 944.147 554.844 947.804 554.104C951.46 553.363 954.913 551.839 957.925 549.638C954.378 547.859 950.325 547.361 946.453 548.231C942.623 549.089 939.12 550.805 936.741 553.945" fill="#E0E0E0"/>
<path d="M938.287 550.041C942.271 543.555 949.913 539.316 957.521 538.887C956.662 541.985 954.086 544.387 951.227 545.837C948.29 547.157 945.183 548.064 941.996 548.531C940.769 548.771 939.086 549.037 938.287 549.998" fill="#E0E0E0"/>
<path d="M935.239 531.14C936.439 527.484 937.262 523.714 937.695 519.891C938.122 516.031 937.339 512.133 935.453 508.737C931.727 515.927 931.358 524.336 935.127 531.5" fill="#E0E0E0"/>
<path d="M947.758 524.816C952.112 516.914 960.99 510.608 969.972 509.724C966.537 518.304 957.092 525.005 947.758 524.816Z" fill="#E0E0E0"/>
<path d="M945.027 526.369C951.51 527.356 957.049 531.517 963.102 534.005C964.375 534.613 965.783 534.882 967.19 534.786C967.846 534.781 968.484 534.575 969.019 534.195C969.553 533.815 969.957 533.28 970.177 532.662C970.396 532.045 970.42 531.375 970.245 530.743C970.07 530.111 969.705 529.549 969.199 529.132C968.339 528.339 967.329 527.726 966.228 527.33C959.625 524.584 952.541 524.516 945.62 526.18" fill="#E0E0E0"/>
<path d="M941.266 530.916C942.735 531.337 943.241 532.092 944.401 533.087C948.378 536.456 953.079 538.864 958.139 540.123C958.663 540.251 959.35 540.303 959.608 539.831C959.865 539.359 959.548 538.913 959.256 538.553C957.052 535.97 954.193 534.028 950.978 532.933C947.81 531.757 945.07 530.359 941.292 530.642" fill="#E0E0E0"/>
<path d="M937.033 503.452C939.695 505.902 942.839 507.77 946.266 508.934C949.692 510.098 953.324 510.534 956.929 510.213C957.244 510.205 957.547 510.09 957.787 509.887C958.285 509.338 957.684 508.505 957.1 508.051C951.253 503.495 944.169 501.599 936.99 503.452" fill="#E0E0E0"/>
<path d="M942.057 501.59C945.579 499.002 949.663 497.281 953.978 496.57C958.292 495.859 962.713 496.177 966.88 497.497C963.633 500.508 959.464 502.337 955.048 502.688C950.687 503.088 946.289 502.716 942.057 501.59" fill="#E0E0E0"/>
<path d="M940.056 488.986C939.48 483.16 939.858 478.553 939.455 472.684C939.455 472.212 939.317 471.654 938.879 471.483C938.27 471.251 937.763 471.998 937.557 472.615C936.709 475.332 936.493 478.207 936.925 481.02C937.356 483.833 938.424 486.51 940.047 488.849" fill="#E0E0E0"/>
<path d="M939.635 489.638C943.449 487.175 946.738 483.982 949.312 480.243C951.218 477.669 952.833 474.503 952.395 471.294C951.053 471.328 949.735 471.652 948.531 472.245C947.328 472.837 946.267 473.684 945.422 474.726C943.752 476.835 942.541 479.269 941.868 481.873C941.086 484.447 940.545 487.081 939.635 489.595" fill="#E0E0E0"/>
<path d="M949.141 487.004C957.844 483.785 965.902 479.037 972.934 472.984C970.092 471.843 966.838 472.521 963.995 473.671C957.543 476.112 952.211 480.835 949.012 486.944" fill="#E0E0E0"/>
<path d="M942.314 492.83C946.702 493.302 951.167 493.619 955.52 492.89C959.874 492.161 963.858 490.479 967.859 488.797C968.215 488.699 968.521 488.473 968.718 488.162C968.782 487.977 968.787 487.776 968.733 487.588C968.68 487.399 968.569 487.231 968.418 487.107C968.11 486.86 967.748 486.69 967.361 486.609C963.008 485.391 958.311 485.966 954.035 487.407C949.954 488.799 946.031 490.616 942.331 492.83" fill="#E0E0E0"/>
<path d="M917.224 503.649C914.227 497.643 914.425 490.548 917.009 484.318C918.838 487.09 919.053 490.625 918.727 493.928C918.4 497.231 917.387 500.629 917.318 503.95" fill="#E0E0E0"/>
<path d="M905.254 497.609C901.505 497.563 897.787 498.299 894.338 499.769C890.888 501.238 887.784 503.41 885.221 506.146C889.001 506.601 892.83 505.892 896.195 504.112C899.549 502.342 902.714 500.235 905.641 497.823" fill="#E0E0E0"/>
<path d="M897.243 494.923C893.585 494.623 890.064 494.177 886.544 495.249C884.768 495.751 883.12 496.628 881.713 497.821C880.305 499.014 879.171 500.496 878.386 502.165C881.839 502.444 885.303 501.789 888.416 500.269C891.512 498.753 894.466 496.965 897.243 494.923Z" fill="#E0E0E0"/>
<path d="M909.118 495.043C905.829 492.89 902.446 490.693 898.608 489.801C894.77 488.909 890.33 489.569 887.66 492.452C890.76 494.28 894.529 494.494 898.127 494.486C901.725 494.477 906.139 494.443 909.53 495.644" fill="#E0E0E0"/>
<path d="M909.144 495.224C903.511 489.698 901.373 479.78 903.64 472.221C908.082 479.021 910.027 487.151 909.144 495.224" fill="#E0E0E0"/>
<path d="M924.626 479.565C925.682 477.103 926.429 474.512 927.382 471.998C928.254 469.449 929.59 467.084 931.323 465.022C933.084 462.952 935.588 461.655 938.296 461.41C937.43 465.216 935.779 468.801 933.449 471.934C931.119 475.068 928.161 477.681 924.763 479.608" fill="#E0E0E0"/>
<path d="M921.818 482.826C920.1 480.415 918.031 477.128 915.653 475.327C913.274 473.525 910.166 472.435 907.255 473.122C908.764 475.763 910.869 478.016 913.403 479.701C915.938 481.386 918.831 482.456 921.852 482.826" fill="#E0E0E0"/>
<path d="M922.384 479.771C921.106 476.891 920.161 473.874 919.568 470.779C918.992 467.662 919.488 464.441 920.976 461.642C924.067 467.476 925.063 473.748 922.505 479.831" fill="#E0E0E0"/>
<path d="M924.651 461.642C926.369 455.85 931.701 451.594 937.428 449.63C938.137 449.337 938.906 449.222 939.669 449.295C940.05 449.334 940.41 449.486 940.703 449.73C940.997 449.975 941.211 450.301 941.318 450.668C941.533 451.654 940.717 452.538 939.953 453.19C935.476 457.009 930.271 459.881 924.651 461.633" fill="#E0E0E0"/>
<path d="M924.72 456.905C924.943 453.173 925.175 449.389 926.437 445.854C927.7 442.319 929.992 438.99 933.393 437.455C933.976 441.221 932.311 444.971 930.301 448.214C928.292 451.457 925.879 454.52 924.677 458.141" fill="#E0E0E0"/>
<path d="M924.626 459.479C923.174 455.258 923.028 449.904 920.495 446.223C918.735 443.649 915.901 441.933 914.382 439.188C913.461 441.796 913.588 444.659 914.734 447.176C915.885 449.666 917.469 451.932 919.413 453.868C921.285 455.867 922.848 457.369 924.626 459.479" fill="#E0E0E0"/>
<path d="M924.651 583.683C924.54 583.683 924.437 555.541 924.428 520.844C924.419 486.146 924.505 458.004 924.626 458.004C924.746 458.004 924.832 486.137 924.84 520.844C924.849 555.55 924.763 583.683 924.651 583.683Z" fill="#E0E0E0"/>
<path d="M949.252 499.402C948.912 499.564 948.559 499.696 948.196 499.797L945.328 500.783C942.872 501.641 939.498 502.826 935.831 504.327C932.165 505.829 928.79 507.141 926.841 508.832C926.061 509.477 925.441 510.293 925.029 511.217C924.754 511.877 924.703 512.281 924.668 512.281C924.634 512.281 924.668 512.178 924.668 511.98C924.71 511.703 924.779 511.43 924.875 511.165C925.241 510.176 925.845 509.292 926.635 508.591C927.812 507.599 929.128 506.784 930.542 506.172C932.105 505.442 933.83 504.679 935.694 503.924C939.369 502.422 942.769 501.247 945.251 500.492C946.496 500.106 947.509 499.823 948.213 499.634C948.552 499.525 948.899 499.448 949.252 499.402V499.402Z" fill="#E0E0E0"/>
<path d="M957.349 479.608C957.262 479.725 957.161 479.832 957.049 479.925L956.19 480.783L952.816 483.847L941.593 493.834C937.205 497.738 933.418 501.461 930.799 504.267C929.486 505.666 928.447 506.841 927.743 507.639C927.408 508.008 927.141 508.317 926.884 508.566C926.626 508.814 926.592 508.883 926.575 508.874C926.644 508.748 926.725 508.627 926.815 508.514C926.987 508.291 927.236 507.948 927.579 507.536C928.249 506.678 929.297 505.502 930.542 504.104C933.93 500.404 937.513 496.887 941.275 493.568C945.672 489.681 949.673 486.189 952.584 483.666L956.018 480.706L956.972 479.917C957.084 479.798 957.211 479.694 957.349 479.608V479.608Z" fill="#E0E0E0"/>
<path d="M936.793 497.781C936.673 497.729 937.591 495.618 938.51 492.95C939.429 490.282 939.867 488.025 939.979 488.042C939.891 489.768 939.526 491.469 938.897 493.079C938.51 494.232 938.054 495.361 937.531 496.459C937.351 496.933 937.102 497.378 936.793 497.781V497.781Z" fill="#E0E0E0"/>
<path d="M924.72 514.812C924.464 514.579 924.236 514.317 924.042 514.031L922.324 511.817C920.865 509.938 918.89 507.347 916.606 504.507C914.321 501.667 912.312 499.128 910.784 497.291L909.015 495.104C908.784 494.839 908.579 494.551 908.405 494.246C908.676 494.46 908.92 494.705 909.135 494.975C909.59 495.464 910.226 496.185 911.007 497.077C912.561 498.879 914.674 501.367 916.923 504.233C919.173 507.098 921.156 509.69 922.556 511.611C923.252 512.572 923.81 513.327 924.179 513.911C924.389 514.193 924.57 514.494 924.72 514.812V514.812Z" fill="#E0E0E0"/>
<path d="M919.285 507.896C918.194 506.693 917.416 505.24 917.018 503.666C916.591 502.279 916.419 500.825 916.511 499.376H916.691C916.606 499.702 916.546 499.874 916.52 499.865C916.494 499.857 916.52 499.677 916.52 499.342H916.7C916.787 500.746 917.029 502.136 917.421 503.486C917.928 505.002 918.551 506.476 919.285 507.896V507.896Z" fill="#E0E0E0"/>
<path d="M912.312 499.136C911.826 498.769 911.299 498.461 910.741 498.218C909.319 497.798 907.824 497.681 906.353 497.875C904.868 497.989 903.394 498.228 901.948 498.587C901.351 498.771 900.743 498.917 900.128 499.025C900.659 498.697 901.239 498.453 901.845 498.304C903.294 497.852 904.789 497.564 906.302 497.446C907.824 497.243 909.373 497.407 910.818 497.926C911.446 498.136 911.977 498.566 912.312 499.136V499.136Z" fill="#E0E0E0"/>
<path d="M910.664 497.017C910.664 497.077 909.745 496.648 908.242 496.159C904.327 494.825 900.138 494.507 896.066 495.232C894.504 495.515 893.559 495.807 893.542 495.738C893.739 495.616 893.953 495.524 894.177 495.464C894.776 495.257 895.387 495.085 896.006 494.949C900.123 494.055 904.412 494.383 908.345 495.893C908.934 496.117 909.507 496.378 910.063 496.674C910.466 496.862 910.681 496.991 910.664 497.017Z" fill="#E0E0E0"/>
<path d="M924.626 488.042C923.905 486.043 923.314 484 922.857 481.925C922.266 479.883 921.81 477.805 921.491 475.704C922.187 477.707 922.761 479.75 923.209 481.822C923.809 483.864 924.282 485.941 924.626 488.042Z" fill="#E0E0E0"/>
<path d="M924.72 488.042C924.148 486.78 923.494 485.556 922.762 484.379C921.933 483.272 920.966 482.274 919.886 481.41C920.295 481.513 920.674 481.71 920.993 481.985C921.811 482.583 922.522 483.314 923.097 484.147C923.969 485.282 924.529 486.624 924.72 488.042V488.042Z" fill="#E0E0E0"/>
<path d="M924.651 568.686C924.651 568.686 924.522 568.008 924.205 566.807C923.741 565.127 923.111 563.497 922.324 561.942C919.607 556.862 916.251 552.151 912.338 547.922C910.114 545.348 907.95 542.971 906.113 540.68C904.468 538.658 902.981 536.512 901.665 534.263C900.782 532.742 900.029 531.149 899.415 529.501C899.209 528.909 899.054 528.454 898.977 528.137C898.915 527.98 898.875 527.815 898.857 527.647C898.857 527.647 899.097 528.291 899.561 529.441C900.226 531.056 901.013 532.62 901.914 534.117C903.257 536.329 904.758 538.443 906.405 540.44C908.251 542.714 910.415 545.108 912.647 547.656C917.155 552.71 920.693 557.815 922.582 561.847C923.354 563.431 923.95 565.094 924.359 566.807C924.488 567.416 924.574 567.888 924.608 568.214C924.636 568.369 924.651 568.527 924.651 568.686V568.686Z" fill="#E0E0E0"/>
<path d="M946.882 543.632C946.508 543.871 946.121 544.089 945.723 544.284C944.668 544.876 943.658 545.544 942.7 546.283C941.283 547.382 939.954 548.59 938.725 549.895C937.334 551.371 935.9 553.079 934.431 554.906C931.503 558.578 928.764 561.83 927.124 564.421C926.266 565.708 925.69 566.789 925.295 567.553C925.101 567.956 924.886 568.348 924.651 568.729C924.651 568.729 924.651 568.608 924.754 568.394C924.857 568.179 924.96 567.871 925.149 567.484C925.653 566.377 926.227 565.302 926.867 564.267C928.455 561.607 931.16 558.321 934.097 554.649C935.565 552.821 937.016 551.105 938.441 549.638C939.692 548.33 941.05 547.13 942.503 546.052C943.489 545.329 944.534 544.692 945.629 544.147C946.015 543.949 946.333 543.829 946.539 543.744C946.745 543.658 946.882 543.572 946.882 543.632Z" fill="#E0E0E0"/>
<path d="M947.32 551.732C946.508 551.904 945.684 552.022 944.856 552.083C942.879 552.29 940.924 552.675 939.017 553.233C937.131 553.846 935.363 554.775 933.787 555.979C932.577 556.905 932.01 557.695 931.959 557.635C931.907 557.575 932.053 557.412 932.319 557.068C932.704 556.589 933.136 556.15 933.607 555.756C935.164 554.456 936.957 553.468 938.888 552.847C940.822 552.273 942.816 551.922 944.83 551.8C945.656 551.695 946.49 551.672 947.32 551.732V551.732Z" fill="#E0E0E0"/>
<path d="M932.671 556.742C932.543 556.665 933.659 554.975 934.517 552.692C935.376 550.41 935.513 548.402 935.659 548.402C935.735 548.84 935.735 549.287 935.659 549.724C935.539 550.783 935.297 551.826 934.938 552.83C934.568 553.831 934.09 554.789 933.513 555.687C933.297 556.086 933.012 556.443 932.671 556.742Z" fill="#E0E0E0"/>
<path d="M954.086 521.727C953.964 521.815 953.832 521.887 953.691 521.942L952.532 522.465C952.026 522.68 951.407 522.963 950.72 523.323C950.034 523.684 949.209 524.052 948.368 524.559L947.02 525.322C946.556 525.588 946.092 525.906 945.603 526.18C944.615 526.781 943.619 527.519 942.563 528.274C938.027 531.653 934.069 535.744 930.842 540.389C930.13 541.47 929.417 542.491 928.85 543.503C928.567 544.001 928.258 544.473 927.992 544.945L927.279 546.318C926.798 547.176 926.42 548.034 926.12 548.703C925.819 549.372 925.527 550.033 925.321 550.548L924.84 551.723C924.784 551.862 924.718 551.997 924.643 552.126C924.66 551.978 924.701 551.833 924.763 551.697C924.877 551.377 925.015 550.974 925.175 550.487C925.355 549.964 925.587 549.329 925.914 548.617C926.24 547.905 926.558 547.055 927.021 546.189L927.717 544.799C927.966 544.318 928.258 543.838 928.575 543.332C929.134 542.302 929.829 541.273 930.542 540.174C932.166 537.842 933.966 535.636 935.926 533.576C937.918 531.545 940.065 529.672 942.348 527.974C943.422 527.218 944.426 526.489 945.431 525.897C945.929 525.597 946.401 525.279 946.874 525.039L948.239 524.293C949.098 523.795 949.956 523.435 950.626 523.1C951.296 522.765 951.966 522.5 952.481 522.302L953.666 521.847C953.801 521.793 953.942 521.752 954.086 521.727V521.727Z" fill="#E0E0E0"/>
<path d="M936.492 533.516C936.646 532.944 936.984 532.437 937.454 532.075C938.536 531.13 939.916 530.599 941.352 530.573C942.76 530.569 944.155 530.843 945.457 531.38C946.011 531.549 946.535 531.804 947.011 532.135C946.436 532.011 945.873 531.839 945.328 531.62C944.042 531.185 942.693 530.962 941.335 530.959C939.986 530.988 938.681 531.445 937.609 532.264C937.202 532.649 936.829 533.068 936.492 533.516V533.516Z" fill="#E0E0E0"/>
<path d="M933.856 536.227C935.037 533.962 935.342 531.342 934.715 528.866C934.948 529.174 935.107 529.533 935.179 529.913C935.65 531.728 935.424 533.653 934.543 535.309C934.165 535.91 933.899 536.253 933.856 536.227Z" fill="#E0E0E0"/>
<path d="M905.203 572.71C905.812 583.469 909.049 594.4 914.038 605.459H935.728C940.485 594.511 943.508 583.589 944.04 572.71H905.203Z" fill="#E0E0E0"/>
<path d="M940.528 590.11C940.528 590.221 933.384 590.316 924.574 590.316C915.764 590.316 908.629 590.221 908.629 590.11C908.629 589.998 915.764 589.904 924.574 589.904C933.384 589.904 940.528 589.964 940.528 590.11Z" fill="#FAFAFA"/>
<path d="M940.039 594.005C940.039 594.117 933.35 594.211 925.089 594.211C916.829 594.211 910.14 594.117 910.14 594.005C910.14 593.894 916.829 593.799 925.089 593.799C933.35 593.799 940.039 593.894 940.039 594.005Z" fill="#FAFAFA"/>
<path d="M914.416 579.771C914.691 583.094 914.691 586.435 914.416 589.758C914.141 586.435 914.141 583.094 914.416 579.771V579.771Z" fill="#FAFAFA"/>
<path d="M926.008 579.771C926.283 583.212 926.283 586.669 926.008 590.11C925.745 586.669 925.745 583.212 926.008 579.771Z" fill="#FAFAFA"/>
<path d="M936.922 579.668C937.185 583.178 937.185 586.703 936.922 590.213C936.647 586.703 936.647 583.178 936.922 579.668V579.668Z" fill="#FAFAFA"/>
<path d="M943.353 579.771C943.353 579.883 934.972 579.977 924.643 579.977C914.313 579.977 905.941 579.883 905.941 579.771C905.941 579.659 914.313 579.565 924.643 579.565C934.972 579.565 943.353 579.668 943.353 579.771Z" fill="#FAFAFA"/>
<path d="M501.32 434.46C503.535 433.119 505.921 432.083 508.413 431.38L509.872 424.361L521.739 424.156L523.456 431.114C525.974 431.73 528.397 432.682 530.661 433.945L536.671 430.016L545.207 438.252L541.488 444.379C542.829 446.592 543.866 448.976 544.571 451.466L551.595 452.933L551.801 464.782L544.837 466.498C544.221 469.014 543.268 471.435 542.004 473.696L545.936 479.702L537.693 488.231L531.562 484.516C529.346 485.855 526.961 486.894 524.47 487.605L523.001 494.614L511.143 494.829L509.426 487.862C506.908 487.246 504.485 486.294 502.222 485.031L496.211 488.96L487.676 480.723L491.394 474.597C490.053 472.382 489.014 469.999 488.303 467.51L481.287 466.052L481.073 454.194L488.045 452.478C488.66 449.965 489.613 447.546 490.879 445.288L486.946 439.282L495.189 430.754L501.32 434.469V434.46ZM507.64 450.256C505.894 452.068 504.725 454.356 504.281 456.832C503.836 459.307 504.135 461.859 505.141 464.164C506.147 466.47 507.814 468.426 509.931 469.785C512.049 471.145 514.522 471.846 517.039 471.802C519.555 471.758 522.002 470.969 524.071 469.536C526.139 468.103 527.736 466.09 528.66 463.75C529.583 461.411 529.793 458.85 529.261 456.392C528.729 453.933 527.48 451.688 525.672 449.938C524.468 448.774 523.046 447.858 521.488 447.244C519.929 446.629 518.265 446.328 516.59 446.358C514.915 446.387 513.262 446.747 511.726 447.416C510.19 448.085 508.802 449.05 507.64 450.256Z" fill="#EBEBEB"/>
<path d="M421.103 273.903C422.51 273.055 424.023 272.397 425.603 271.946L426.53 267.493L434.061 267.356L435.143 271.775C436.738 272.169 438.274 272.772 439.711 273.568L443.515 271.08L448.924 276.305L446.571 280.226C447.42 281.635 448.078 283.149 448.529 284.731L452.977 285.657L453.114 293.173L448.692 294.263C448.3 295.855 447.696 297.387 446.898 298.819L449.388 302.628L444.159 308.034L440.269 305.683C438.864 306.533 437.351 307.188 435.769 307.631L434.842 312.084L427.312 312.221L426.23 307.802C424.632 307.395 423.096 306.777 421.662 305.966L417.858 308.454L412.448 303.229L414.801 299.342C413.953 297.936 413.294 296.425 412.843 294.846L408.395 293.954L408.258 286.429L412.68 285.348C413.071 283.753 413.675 282.218 414.474 280.784L411.984 276.983L417.248 271.543L421.138 273.903H421.103ZM425.113 283.924C424.005 285.072 423.263 286.522 422.979 288.091C422.696 289.661 422.884 291.279 423.521 292.741C424.157 294.203 425.213 295.444 426.556 296.307C427.898 297.17 429.466 297.615 431.062 297.588C432.657 297.56 434.209 297.061 435.521 296.152C436.832 295.243 437.845 293.967 438.431 292.483C439.016 291 439.149 289.376 438.811 287.818C438.473 286.259 437.681 284.835 436.534 283.727C434.993 282.24 432.924 281.426 430.783 281.463C428.641 281.5 426.602 282.385 425.113 283.924V283.924Z" fill="#E0E0E0"/>
<path d="M897.767 277.48C899.643 276.34 901.665 275.457 903.777 274.855L905.031 268.849L915.155 268.677L916.614 274.615C918.763 275.143 920.83 275.957 922.762 277.034L927.914 273.679L935.204 280.715L932.036 285.94C933.179 287.833 934.063 289.87 934.663 291.998L940.674 293.242L940.846 303.366L934.904 304.825C934.373 306.971 933.559 309.037 932.482 310.968L935.84 316.116L928.799 323.401L923.569 320.235C921.674 321.375 919.636 322.258 917.507 322.86L916.262 328.866L906.13 329.046L904.67 323.1C902.523 322.573 900.455 321.762 898.522 320.689L893.37 324.044L886.08 317.008L889.257 311.775C888.113 309.9 887.227 307.88 886.621 305.769L880.61 304.516L880.43 294.4L886.381 292.942C886.908 290.796 887.72 288.73 888.793 286.798L885.436 281.65L892.477 274.366L897.715 277.532L897.767 277.48ZM903.168 290.968C901.674 292.513 900.672 294.466 900.289 296.58C899.906 298.695 900.159 300.875 901.016 302.845C901.873 304.815 903.295 306.488 905.104 307.65C906.912 308.813 909.024 309.413 911.174 309.376C913.324 309.339 915.414 308.665 917.181 307.441C918.948 306.217 920.311 304.496 921.1 302.497C921.888 300.499 922.065 298.311 921.609 296.211C921.153 294.112 920.084 292.195 918.538 290.702C916.464 288.701 913.68 287.605 910.797 287.655C907.915 287.705 905.171 288.896 903.168 290.968V290.968Z" fill="#E0E0E0"/>
<path d="M754.549 438.39C756.187 437.406 757.949 436.644 759.787 436.125L760.861 430.977L769.619 430.822L770.881 435.97C772.728 436.411 774.507 437.098 776.171 438.012L780.593 435.112L786.895 441.195L784.148 445.708C785.158 447.348 785.941 449.118 786.475 450.968L791.627 452.049L791.781 460.792L786.629 462.053C786.17 463.905 785.468 465.688 784.543 467.356L787.436 471.783L781.357 478.072L776.84 475.335C775.202 476.32 773.441 477.085 771.603 477.609L770.521 482.757L761.771 482.911L760.509 477.763C758.653 477.313 756.867 476.612 755.202 475.678L750.771 478.578L744.477 472.495L747.216 467.982C746.229 466.346 745.464 464.586 744.941 462.748L739.789 461.676L739.634 452.924L744.786 451.663C745.24 449.81 745.942 448.026 746.873 446.361L743.971 441.942L750.05 435.644L754.575 438.381L754.549 438.39ZM759.221 450.05C757.933 451.385 757.07 453.072 756.741 454.897C756.413 456.723 756.633 458.604 757.375 460.304C758.116 462.004 759.345 463.447 760.907 464.449C762.469 465.451 764.293 465.968 766.148 465.934C768.004 465.901 769.808 465.318 771.332 464.26C772.857 463.202 774.033 461.716 774.712 459.99C775.391 458.265 775.543 456.376 775.149 454.564C774.754 452.752 773.831 451.098 772.496 449.81C771.609 448.953 770.562 448.28 769.414 447.828C768.267 447.376 767.041 447.155 765.808 447.178C764.575 447.2 763.358 447.465 762.228 447.958C761.098 448.451 760.076 449.162 759.221 450.05V450.05Z" fill="#F5F5F5"/>
<path d="M934.277 243.855C935.025 243.403 935.831 243.054 936.673 242.817L937.162 240.449L941.163 240.38L941.739 242.723C942.585 242.931 943.399 243.251 944.16 243.675L946.187 242.354L949.063 245.134L947.81 247.193C948.262 247.94 948.612 248.746 948.848 249.587L951.218 250.076L951.287 254.074L948.934 254.649C948.725 255.491 948.405 256.302 947.981 257.06L949.304 259.076L946.53 261.951L944.469 260.715C943.724 261.167 942.921 261.517 942.082 261.753L941.584 264.121L937.591 264.19L937.016 261.848C936.168 261.633 935.351 261.31 934.586 260.887L932.56 262.208L929.683 259.428L930.937 257.369C930.474 256.627 930.115 255.824 929.872 254.984L927.528 254.486L927.459 250.488L929.803 249.913C930.004 249.069 930.316 248.255 930.731 247.493L929.408 245.477L932.19 242.603L934.251 243.855H934.277ZM936.415 249.175C935.824 249.785 935.427 250.556 935.274 251.391C935.122 252.226 935.221 253.088 935.559 253.867C935.896 254.646 936.458 255.307 937.172 255.767C937.886 256.227 938.721 256.465 939.571 256.45C940.42 256.436 941.246 256.17 941.945 255.686C942.643 255.202 943.182 254.522 943.493 253.732C943.804 252.942 943.874 252.078 943.693 251.248C943.512 250.419 943.089 249.661 942.477 249.072C941.659 248.284 940.561 247.852 939.425 247.871C938.288 247.891 937.206 248.36 936.415 249.175V249.175Z" fill="#E0E0E0"/>
<path d="M929.468 368.403C930.215 367.947 931.021 367.597 931.864 367.365L932.354 364.996L936.355 364.928L936.93 367.27C937.776 367.478 938.591 367.798 939.352 368.223L941.378 366.884L944.255 369.664L943.001 371.723C943.454 372.471 943.803 373.276 944.04 374.117L946.41 374.606L946.479 378.604L944.126 379.179C943.919 380.025 943.599 380.839 943.173 381.599L944.495 383.624L941.722 386.498L939.652 385.245C938.907 385.698 938.104 386.047 937.265 386.283L936.767 388.651L932.774 388.72L932.199 386.369C931.35 386.161 930.533 385.841 929.769 385.417L927.751 386.747L924.875 383.967L926.128 381.899C925.672 381.156 925.322 380.354 925.089 379.514L922.719 379.025L922.651 375.026L924.995 374.452C925.203 373.603 925.523 372.787 925.948 372.023L924.626 370.007L927.408 367.133L929.468 368.386V368.403ZM931.589 373.748C930.998 374.358 930.601 375.129 930.448 375.964C930.296 376.799 930.395 377.661 930.733 378.44C931.071 379.219 931.632 379.88 932.347 380.34C933.061 380.8 933.896 381.038 934.745 381.023C935.595 381.009 936.421 380.743 937.119 380.259C937.817 379.775 938.356 379.095 938.667 378.305C938.978 377.515 939.048 376.651 938.867 375.821C938.686 374.992 938.263 374.234 937.652 373.645C936.833 372.857 935.736 372.425 934.599 372.445C933.463 372.464 932.38 372.933 931.589 373.748V373.748Z" fill="#F5F5F5"/>
<path d="M522.624 520.612C523.637 519.998 524.728 519.524 525.869 519.205L526.539 515.996L531.957 515.901L532.739 519.076C533.89 519.36 534.999 519.796 536.036 520.372L538.775 518.578L542.673 522.345L540.956 525.142C541.57 526.156 542.046 527.246 542.373 528.385L545.576 529.055L545.67 534.469L542.493 535.249C542.209 536.397 541.773 537.503 541.197 538.535L542.991 541.281L539.222 545.176L536.422 543.46C535.408 544.073 534.317 544.546 533.177 544.868L532.507 548.076L527.089 548.171L526.299 545.005C525.149 544.726 524.043 544.293 523.01 543.718L520.262 545.511L516.364 541.744L518.081 538.947C517.47 537.933 516.997 536.843 516.673 535.704L513.462 535.035L513.367 529.621L516.553 528.84C516.834 527.69 517.267 526.582 517.841 525.545L516.046 522.808L519.816 518.913L522.615 520.629L522.624 520.612ZM525.517 527.828C524.717 528.655 524.18 529.701 523.975 530.834C523.77 531.966 523.905 533.134 524.364 534.19C524.824 535.245 525.586 536.141 526.554 536.763C527.523 537.386 528.655 537.707 529.807 537.687C530.958 537.666 532.078 537.305 533.024 536.649C533.97 535.992 534.7 535.07 535.121 533.999C535.543 532.928 535.637 531.756 535.392 530.631C535.146 529.507 534.573 528.48 533.743 527.682C532.633 526.612 531.142 526.027 529.6 526.054C528.058 526.081 526.589 526.719 525.517 527.828V527.828Z" fill="#F5F5F5"/>
<path d="M656.473 582.002V605.271H690.519H728.068V582.002H656.473Z" fill="#F5F5F5"/>
<path d="M653.467 575.498V582.002H730.575V575.498H690.519H653.467Z" fill="#E0E0E0"/>
<path d="M692.021 605.271H728.068V582.002H730.575V575.498H690.519V581.401L692.021 605.271Z" fill="#E0E0E0"/>
<path d="M681.005 585.751H666.485V589.252H681.005V585.751Z" fill="#E0E0E0"/>
<path d="M683.254 593.636H664.613V601.032H683.254V593.636Z" fill="white"/>
<path d="M667.481 552.263V575.532H701.535H739.085V552.263H667.481Z" fill="#F5F5F5"/>
<path d="M664.484 545.76V552.264H741.592V545.76H701.535H664.484Z" fill="#E0E0E0"/>
<path d="M703.038 575.532H739.085V552.264H741.592V545.76H701.535V551.663L703.038 575.532Z" fill="#E0E0E0"/>
<path d="M692.021 556.013H677.501V559.514H692.021V556.013Z" fill="#E0E0E0"/>
<path d="M694.271 563.898H675.629V571.294H694.271V563.898Z" fill="white"/>
<path d="M963.712 605.262C963.712 605.391 836.681 605.485 680.017 605.485C523.353 605.485 396.288 605.408 396.288 605.262C396.288 605.116 523.293 605.039 680.017 605.039C836.741 605.039 963.712 605.142 963.712 605.262Z" fill="#263238"/>
<path d="M453.613 580.749C453.613 580.749 449.98 555.824 450.289 541.324C450.599 526.824 450.289 510.513 450.289 510.513H451.955C451.955 510.513 450.822 539.291 452.058 556.656C453.295 574.022 456.532 580.749 456.532 580.749H453.63" fill="#263238"/>
<path d="M464.423 482.465C464.156 481.582 463.622 480.803 462.895 480.234C461.839 479.565 460.448 479.848 459.263 480.234C454.214 482.019 449.731 491.431 447.688 496.382L454.394 518.965C466.501 507.768 468.596 493.01 464.423 482.465Z" fill="#455A64"/>
<path d="M462.508 481.152C462.485 481.253 462.451 481.351 462.405 481.444C462.319 481.659 462.216 481.933 462.079 482.302C461.787 483.014 461.375 484.018 460.877 485.331C459.889 487.905 458.636 491.474 457.511 495.515C456.386 499.557 455.622 503.28 455.141 505.983C454.901 507.339 454.72 508.437 454.609 509.192C454.548 509.552 454.506 509.835 454.463 510.05C454.452 510.152 454.429 510.253 454.394 510.35C454.385 510.247 454.385 510.144 454.394 510.041C454.394 509.81 454.445 509.518 454.488 509.183C454.566 508.411 454.72 507.313 454.935 505.949C455.5 502.405 456.265 498.896 457.228 495.438C458.183 491.982 459.329 488.582 460.662 485.254C461.177 483.984 461.624 482.954 461.95 482.259C462.096 481.933 462.225 481.667 462.319 481.461C462.365 481.349 462.429 481.245 462.508 481.152V481.152Z" fill="#263238"/>
<path d="M451.414 524.404C448.371 522.664 445.825 520.173 444.021 517.168C442.217 514.163 441.215 510.747 441.11 507.244C440.87 502.233 442.416 497.317 444.159 492.615C444.266 492.189 444.518 491.813 444.871 491.551C445.157 491.446 445.464 491.415 445.765 491.462C446.065 491.508 446.349 491.631 446.589 491.817C451.157 494.391 453.93 499.368 455.399 504.413C456.454 507.757 456.805 511.283 456.429 514.769C455.859 518.436 454.115 521.82 451.457 524.413" fill="#455A64"/>
<path d="M451.414 524.404C451.403 524.304 451.403 524.204 451.414 524.104C451.414 523.872 451.414 523.581 451.414 523.246C451.414 522.499 451.414 521.41 451.32 520.071C451.141 516.574 450.754 513.09 450.161 509.638C449.457 505.588 448.615 501.968 447.988 499.342C447.679 498.064 447.43 497.017 447.25 496.245C447.164 495.901 447.104 495.627 447.052 495.387C447.024 495.289 447.006 495.188 447.001 495.086C447.047 495.176 447.082 495.271 447.104 495.369L447.353 496.227C447.559 496.948 447.842 498.004 448.212 499.308C448.89 501.882 449.766 505.537 450.461 509.604C451.067 513.066 451.431 516.567 451.552 520.08C451.552 521.427 451.552 522.517 451.552 523.272C451.552 523.623 451.552 523.907 451.552 524.13C451.52 524.227 451.473 524.32 451.414 524.404V524.404Z" fill="#263238"/>
<g opacity="0.3">
<path opacity="0.3" d="M451.414 524.404C448.371 522.664 445.825 520.173 444.021 517.168C442.217 514.163 441.215 510.747 441.11 507.244C440.87 502.233 442.416 497.317 444.159 492.615C444.266 492.189 444.518 491.813 444.871 491.551C445.157 491.446 445.464 491.415 445.765 491.462C446.065 491.508 446.349 491.631 446.589 491.817C451.157 494.391 453.93 499.368 455.399 504.413C456.454 507.757 456.805 511.283 456.429 514.769C455.859 518.436 454.115 521.82 451.457 524.413" fill="black"/>
</g>
<path d="M458.507 562.508C464.698 563.872 469.79 568.231 475.758 570.35C479.707 571.757 484.173 572.246 487.324 575.009C486.568 573.096 484.748 571.826 483.03 570.719C478.117 567.648 472.872 565.144 467.394 563.254C464.586 562.285 461.547 561.478 458.679 562.276" fill="#455A64"/>
<path d="M449.56 568.042C441.832 567.922 433.657 561.333 425.946 560.938C434.018 558.364 445.575 560.457 449.56 568.042Z" fill="#455A64"/>
<path d="M452.591 549.475C456.585 548.162 460.844 547.867 464.981 548.617C469.096 549.371 473.14 550.468 477.071 551.895C476.668 549.209 474.495 547.193 472.452 545.408C470.955 544.011 469.328 542.761 467.592 541.676C465.847 540.587 463.827 540.019 461.77 540.037C460.537 540.117 459.332 540.444 458.228 541C457.125 541.556 456.145 542.329 455.347 543.272C453.777 544.978 452.809 547.15 452.591 549.458" fill="#455A64"/>
<path d="M436.688 540.929C431.845 536.768 424.426 537.171 418.012 537.317C428.313 542.218 438.028 548.262 446.975 555.335C447.241 550.822 442.853 546.206 436.688 540.929Z" fill="#455A64"/>
<g opacity="0.3">
<path opacity="0.3" d="M436.688 540.929C431.845 536.768 424.426 537.171 418.012 537.317C428.313 542.218 438.028 548.262 446.975 555.335C447.241 550.822 442.853 546.206 436.688 540.929Z" fill="black"/>
</g>
<path d="M454.78 535.181C457.163 533.533 459.673 532.075 462.285 530.822C464.861 529.664 467.248 527.802 469.73 526.463C472.941 524.747 475.74 522.302 478.677 520.149C481.614 517.995 484.868 516.047 488.483 515.472C485.51 514.943 482.454 515.12 479.561 515.987C476.68 516.854 473.872 517.947 471.164 519.256C467.36 520.972 463.487 522.688 460.379 525.502C457.27 528.317 454.454 531.028 454.78 535.181" fill="#455A64"/>
<path d="M475.637 568.042C475.553 568.019 475.472 567.984 475.397 567.939L474.719 567.587C474.135 567.278 473.302 566.815 472.246 566.292C471.722 566.017 471.146 565.725 470.528 565.434C469.91 565.142 469.232 564.816 468.51 564.507C466.973 563.819 465.378 563.265 463.745 562.851C462.123 562.4 460.416 562.356 458.773 562.722C458.058 562.882 457.355 563.091 456.669 563.349C456.072 563.582 455.497 563.869 454.952 564.207C454.165 564.7 453.446 565.294 452.814 565.974C452.367 566.455 452.144 566.747 452.127 566.729C452.11 566.712 452.127 566.644 452.264 566.506C452.402 566.369 452.522 566.154 452.728 565.897C453.344 565.186 454.055 564.562 454.84 564.044C455.385 563.688 455.959 563.381 456.558 563.126C457.251 562.845 457.966 562.622 458.696 562.456C460.375 562.067 462.125 562.103 463.788 562.559C465.439 562.986 467.048 563.56 468.596 564.275C469.318 564.596 469.987 564.913 470.606 565.228C471.232 565.528 471.808 565.828 472.323 566.086C473.37 566.635 474.195 567.124 474.761 567.459L475.414 567.853C475.543 567.982 475.637 568.034 475.637 568.042Z" fill="#263238"/>
<path d="M443.781 564.224C443.95 564.249 444.115 564.298 444.27 564.37C444.703 564.523 445.125 564.706 445.532 564.919C446.885 565.593 448.131 566.46 449.233 567.493C450.331 568.547 451.266 569.759 452.007 571.088C452.229 571.489 452.43 571.901 452.608 572.324C452.685 572.474 452.737 572.637 452.762 572.804C452.762 572.804 452.428 572.169 451.835 571.182C451.058 569.907 450.12 568.736 449.044 567.699C447.963 566.662 446.751 565.77 445.438 565.048C444.433 564.516 443.764 564.224 443.781 564.224Z" fill="#263238"/>
<path d="M426.642 540.535C426.754 540.557 426.864 540.591 426.968 540.638L427.904 540.964L429.372 541.504C429.939 541.719 430.557 542.028 431.261 542.362C434.896 544.043 438.289 546.201 441.351 548.78C443.021 550.215 444.593 551.76 446.056 553.405C447.24 554.755 448.352 556.167 449.388 557.635C450.247 558.887 450.951 559.925 451.406 560.646L451.938 561.504C452.008 561.597 452.065 561.698 452.11 561.804C452.024 561.726 451.949 561.636 451.887 561.538C451.758 561.358 451.56 561.092 451.32 560.732C450.83 560.028 450.135 559.016 449.233 557.772C448.332 556.528 447.198 555.112 445.859 553.602C444.396 551.973 442.83 550.439 441.17 549.012C438.123 546.45 434.765 544.282 431.176 542.56C430.489 542.242 429.87 541.916 429.312 541.702L427.861 541.058L426.951 540.681L426.642 540.535Z" fill="#263238"/>
<path d="M464.217 545.125C464.009 545.117 463.802 545.088 463.599 545.039L462.886 544.91C462.611 544.859 462.285 544.859 461.933 544.816C460.094 544.66 458.249 545.026 456.609 545.871C455.707 546.337 454.883 546.942 454.171 547.665C453.58 548.243 453.059 548.888 452.616 549.587C452.214 550.24 451.855 550.919 451.543 551.62C451.576 551.415 451.631 551.213 451.706 551.019C451.9 550.484 452.147 549.969 452.445 549.484C452.875 548.756 453.394 548.084 453.99 547.484C454.709 546.735 455.544 546.106 456.463 545.623C458.145 544.75 460.051 544.403 461.933 544.627C462.256 544.652 462.577 544.695 462.895 544.756L463.607 544.936C463.818 544.971 464.024 545.034 464.217 545.125V545.125Z" fill="#263238"/>
<path d="M472.005 520.981C471.914 521.051 471.817 521.111 471.713 521.161L470.855 521.633C470.099 522.036 469.017 522.637 467.703 523.409C466.389 524.181 464.861 525.125 463.221 526.326C461.431 527.576 459.753 528.98 458.206 530.522C457.41 531.312 456.72 532.204 456.154 533.173C455.648 534.151 455.167 535.086 454.72 535.996C453.913 537.586 453.194 539.218 452.565 540.886C452.151 542.01 451.801 543.155 451.517 544.318C451.32 545.176 451.251 545.614 451.225 545.614C451.208 545.5 451.208 545.385 451.225 545.271C451.225 545.048 451.303 544.713 451.389 544.293C451.629 543.11 451.954 541.946 452.359 540.809C452.964 539.123 453.667 537.473 454.463 535.867C454.909 534.958 455.39 534.005 455.888 533.036C456.46 532.038 457.164 531.123 457.983 530.316C459.537 528.76 461.23 527.35 463.041 526.103C464.698 524.936 466.261 523.984 467.583 523.22C468.905 522.457 470.013 521.899 470.777 521.504L471.636 521.084C471.755 521.037 471.879 521.003 472.005 520.981V520.981Z" fill="#263238"/>
<path d="M450.281 544.421C450.197 544.213 450.145 543.993 450.126 543.769C450.032 543.297 449.92 542.697 449.783 541.985C449.412 540.021 448.924 538.082 448.323 536.176C447.696 534.278 446.956 532.418 446.108 530.608C445.807 529.947 445.55 529.389 445.352 528.943C445.244 528.748 445.161 528.541 445.103 528.325C445.237 528.504 445.352 528.697 445.447 528.9C445.653 529.278 445.945 529.827 446.305 530.522C447.215 532.316 447.984 534.178 448.607 536.09C449.22 538.006 449.688 539.965 450.006 541.95C450.126 542.705 450.212 543.323 450.255 543.752C450.287 543.974 450.295 544.198 450.281 544.421V544.421Z" fill="#263238"/>
<path d="M449.714 526.807C449.473 523.875 448.616 521.028 447.198 518.45C445.286 514.901 442.619 511.814 439.385 509.405C436.152 506.997 432.429 505.325 428.479 504.507C434.261 513.087 440.037 521.69 445.807 530.316L448.048 534.915C449.46 532.46 450.044 529.618 449.714 526.807V526.807Z" fill="#455A64"/>
<path d="M474.573 577.669H434.284V584.807H474.573V577.669Z" fill="#3F51B5"/>
<path d="M437.289 583.383L440.724 605.528H467.471L471.559 583.383H437.289Z" fill="#3F51B5"/>
<path d="M474.547 584.816C474.547 584.893 465.462 584.962 454.257 584.962C443.051 584.962 433.958 584.893 433.958 584.816C433.958 584.739 443.042 584.679 454.257 584.679C465.471 584.679 474.547 584.73 474.547 584.816Z" fill="#263238"/>
<path d="M610.568 601.779C603.329 603.378 595.814 603.245 588.635 601.391C581.457 599.538 574.818 596.016 569.261 591.112C563.703 586.209 559.383 580.063 556.653 573.175C553.924 566.287 552.861 558.852 553.552 551.476C554.243 544.1 556.669 536.991 560.631 530.729C564.593 524.467 569.98 519.229 576.352 515.442C582.724 511.655 589.902 509.426 597.299 508.936C604.697 508.446 612.106 509.71 618.923 512.624V512.624C628.09 516.536 635.776 523.257 640.874 531.815C645.972 540.374 648.218 550.33 647.289 560.246C646.359 570.163 642.302 579.528 635.703 586.993C629.103 594.457 620.302 599.635 610.568 601.779V601.779ZM590.965 513.036C580.76 515.299 571.699 521.13 565.417 529.478C559.134 537.826 556.043 548.142 556.7 558.567C557.357 568.991 561.719 578.839 569 586.333C576.281 593.828 586.002 598.478 596.41 599.443C606.819 600.409 617.23 597.628 625.768 591.601C634.306 585.574 640.408 576.698 642.975 566.573C645.542 556.447 644.404 545.739 639.768 536.377C635.131 527.016 627.3 519.617 617.687 515.515C609.258 511.918 599.912 511.051 590.965 513.036Z" fill="#455A64"/>
<path d="M610.568 601.779C603.329 603.378 595.814 603.245 588.635 601.391C581.457 599.538 574.818 596.016 569.261 591.112C563.703 586.209 559.383 580.063 556.653 573.175C553.924 566.287 552.861 558.852 553.552 551.476C554.243 544.1 556.669 536.991 560.631 530.729C564.593 524.467 569.98 519.229 576.352 515.442C582.724 511.655 589.902 509.426 597.299 508.936C604.697 508.446 612.106 509.71 618.923 512.624V512.624C628.09 516.536 635.776 523.257 640.874 531.815C645.972 540.374 648.218 550.33 647.289 560.246C646.359 570.163 642.302 579.528 635.703 586.993C629.103 594.457 620.302 599.635 610.568 601.779V601.779ZM590.965 513.036C580.76 515.299 571.699 521.13 565.417 529.478C559.134 537.826 556.043 548.142 556.7 558.567C557.357 568.991 561.719 578.839 569 586.333C576.281 593.828 586.002 598.478 596.41 599.443C606.819 600.409 617.23 597.628 625.768 591.601C634.306 585.574 640.408 576.698 642.975 566.573C645.542 556.447 644.404 545.739 639.768 536.377C635.131 527.016 627.3 519.617 617.687 515.515C609.258 511.918 599.912 511.051 590.965 513.036Z" fill="#263238"/>
<path d="M608.954 603.744C601.714 605.342 594.199 605.208 587.021 603.353C579.843 601.499 573.205 597.976 567.648 593.072C562.091 588.168 557.772 582.022 555.043 575.134C552.314 568.246 551.252 560.811 551.944 553.435C552.636 546.059 555.062 538.95 559.025 532.689C562.987 526.428 568.374 521.19 574.747 517.404C581.119 513.617 588.296 511.388 595.694 510.899C603.092 510.41 610.501 511.674 617.317 514.589V514.589C626.484 518.502 634.17 525.223 639.267 533.782C644.364 542.342 646.61 552.297 645.68 562.214C644.749 572.131 640.691 581.496 634.091 588.96C627.491 596.424 618.688 601.601 608.954 603.744V603.744ZM589.351 515.001C579.138 517.261 570.07 523.093 563.781 531.444C557.492 539.795 554.395 550.117 555.049 560.548C555.703 570.979 560.064 580.834 567.348 588.335C574.631 595.837 584.356 600.492 594.771 601.461C605.186 602.431 615.604 599.651 624.149 593.622C632.693 587.594 638.802 578.714 641.373 568.583C643.944 558.452 642.808 547.737 638.171 538.368C633.533 529 625.699 521.595 616.081 517.489C607.649 513.892 598.302 513.022 589.351 515.001Z" fill="#455A64"/>
<path d="M717.292 600.852L716.536 602.791C715.858 604.507 712.844 604.979 710.981 604.241L640.501 576.828L644.048 567.716L714.424 595.112C716.708 596.056 718.159 598.621 717.292 600.852Z" fill="#455A64"/>
<path d="M619.636 540.011C619.713 540.106 610.766 547.476 599.655 556.468C588.543 565.459 579.467 572.684 579.39 572.581C579.313 572.478 588.251 565.116 599.371 556.124C610.491 547.133 619.558 539.917 619.636 540.011Z" fill="#263238"/>
<path d="M607.434 537.283C607.511 537.377 600.891 543.006 592.656 549.844C584.422 556.682 577.673 562.165 577.595 562.07C577.518 561.976 584.13 556.348 592.373 549.501C600.616 542.654 607.348 537.188 607.434 537.283Z" fill="#263238"/>
<path d="M618.64 554.366C618.717 554.46 614.192 558.355 608.533 563.057C602.875 567.759 598.229 571.5 598.126 571.405C598.023 571.311 602.574 567.416 608.241 562.714C613.908 558.012 618.562 554.271 618.64 554.366Z" fill="#263238"/>
<path d="M919.86 417.043C919.934 423.425 918.114 429.687 914.629 435.036C911.145 440.386 906.153 444.585 900.282 447.102C894.412 449.619 887.927 450.342 881.646 449.18C875.365 448.017 869.569 445.022 864.991 440.571C860.412 436.12 857.255 430.414 855.919 424.172C854.583 417.93 855.128 411.433 857.484 405.5C859.841 399.567 863.903 394.465 869.159 390.837C874.415 387.209 880.629 385.219 887.016 385.117C895.605 385.009 903.887 388.309 910.044 394.294C916.201 400.28 919.731 408.46 919.86 417.043V417.043ZM872.075 417.815C872.137 420.866 873.101 423.831 874.848 426.334C876.594 428.838 879.043 430.769 881.887 431.883C884.73 432.996 887.84 433.244 890.824 432.593C893.808 431.942 896.532 430.423 898.652 428.226C900.773 426.03 902.194 423.255 902.738 420.252C903.281 417.249 902.922 414.152 901.705 411.353C900.489 408.553 898.47 406.177 895.903 404.524C893.336 402.87 890.336 402.013 887.282 402.062C883.177 402.141 879.27 403.844 876.419 406.797C873.568 409.75 872.006 413.712 872.075 417.815V417.815Z" fill="#F5F5F5"/>
<path d="M919.86 417.043C920.007 425.62 916.746 433.905 910.791 440.084C904.836 446.263 896.672 449.831 888.089 450.007L887.797 433.079C891.811 432.863 895.585 431.1 898.326 428.162C901.066 425.224 902.56 421.338 902.493 417.322C902.427 413.306 900.805 409.473 897.968 406.627C895.131 403.781 891.301 402.145 887.282 402.062L887.016 385.134C895.603 385.024 903.883 388.321 910.04 394.303C916.197 400.285 919.729 408.463 919.86 417.043V417.043Z" fill="#455A64"/>
<path d="M872.075 417.815C872.066 417.729 872.066 417.643 872.075 417.557V416.82C872.071 416.421 872.097 416.022 872.152 415.627C872.204 415.08 872.296 414.538 872.427 414.005C872.746 412.522 873.297 411.097 874.059 409.784C875.834 406.606 878.673 404.153 882.076 402.856C885.48 401.559 889.232 401.499 892.675 402.688C894.107 403.172 895.456 403.873 896.676 404.765C897.31 405.221 897.912 405.72 898.479 406.258C899.041 406.821 899.566 407.42 900.051 408.051C902.073 410.709 903.192 413.943 903.245 417.282C903.297 420.621 902.28 423.889 900.342 426.609C899.886 427.259 899.384 427.876 898.84 428.454C898.3 429.007 897.727 429.526 897.122 430.007C895.93 430.938 894.601 431.679 893.181 432.204C889.779 433.5 886.03 433.561 882.588 432.376C879.145 431.19 876.23 428.833 874.351 425.717C873.569 424.435 872.99 423.04 872.633 421.582C872.486 421.053 872.38 420.514 872.316 419.968C872.24 419.575 872.2 419.176 872.195 418.776C872.195 418.467 872.195 418.227 872.195 418.038C872.183 417.955 872.183 417.872 872.195 417.789C872.314 419.049 872.524 420.3 872.822 421.53C873.213 422.964 873.815 424.331 874.608 425.588C875.649 427.257 876.998 428.713 878.584 429.878C880.622 431.381 883.005 432.35 885.515 432.694C888.025 433.039 890.581 432.749 892.949 431.852C894.328 431.335 895.617 430.605 896.77 429.69C897.381 429.231 897.955 428.726 898.488 428.18C899.019 427.617 899.509 427.018 899.956 426.386C901.827 423.741 902.808 420.569 902.755 417.33C902.703 414.09 901.62 410.952 899.664 408.368C899.198 407.762 898.69 407.189 898.144 406.652C897.606 406.13 897.032 405.646 896.427 405.202C895.245 404.325 893.932 403.639 892.537 403.169C890.125 402.319 887.536 402.095 885.013 402.517C882.491 402.938 880.116 403.992 878.112 405.58C876.565 406.794 875.262 408.291 874.273 409.99C873.525 411.275 872.966 412.663 872.616 414.108C872.348 415.329 872.167 416.568 872.075 417.815V417.815Z" fill="#263238"/>
<path d="M919.86 417.043C919.86 417.043 919.86 416.863 919.8 416.519L919.68 414.983C919.68 414.64 919.62 414.271 919.594 413.851C919.568 413.431 919.448 412.993 919.362 412.504C919.198 411.379 918.957 410.267 918.641 409.175C917.836 406.162 916.583 403.287 914.923 400.646C912.522 396.753 909.322 393.414 905.534 390.848C901.747 388.281 897.457 386.547 892.949 385.76C891.6 385.534 890.238 385.397 888.871 385.348C888.175 385.348 887.48 385.28 886.776 385.348L884.646 385.494C884.285 385.494 883.925 385.494 883.573 385.58L882.499 385.769C881.787 385.897 881.057 385.992 880.344 386.155C878.885 386.506 877.451 386.953 876.051 387.493C874.623 388.041 873.235 388.686 871.895 389.424C871.225 389.81 870.581 390.282 869.911 390.659C869.243 391.073 868.603 391.532 867.996 392.032C866.733 393.009 865.537 394.069 864.416 395.207L862.81 397.034L862.407 397.497L862.046 397.995L861.333 398.99L860.612 399.994L859.985 401.067L859.35 402.139L859.041 402.68L858.774 403.246L857.744 405.494L856.885 407.888C854.785 414.507 854.896 421.629 857.203 428.18C857.512 428.969 857.813 429.758 858.113 430.548C858.414 431.337 858.869 432.049 859.238 432.796L859.521 433.362L859.848 433.885L860.517 434.941L861.179 435.996L861.926 436.974L862.681 437.944L863.051 438.433L863.471 438.879L865.129 440.655C866.289 441.758 867.522 442.781 868.821 443.718C869.441 444.201 870.096 444.64 870.779 445.031C871.457 445.417 872.118 445.837 872.796 446.198C874.161 446.893 875.573 447.492 877.021 447.991C878.424 448.485 879.858 448.886 881.314 449.192C882.036 449.329 882.766 449.406 883.478 449.509L884.56 449.664C884.912 449.707 885.273 449.664 885.633 449.715L887.763 449.793C888.476 449.793 889.171 449.715 889.867 449.672C891.232 449.589 892.589 449.408 893.928 449.132C898.839 448.127 903.443 445.978 907.366 442.86C910.615 440.306 913.341 437.152 915.395 433.568C916.97 430.875 918.128 427.959 918.83 424.919C919.117 423.82 919.323 422.702 919.448 421.573C919.516 421.084 919.594 420.629 919.637 420.217C919.68 419.805 919.637 419.428 919.68 419.085C919.68 418.424 919.74 417.909 919.757 417.549C919.774 417.189 919.8 417.026 919.8 417.026C919.8 417.026 919.8 417.197 919.8 417.549C919.8 417.901 919.8 418.407 919.8 419.093C919.8 419.428 919.8 419.805 919.8 420.226C919.8 420.646 919.697 421.084 919.645 421.59C919.533 422.727 919.338 423.854 919.061 424.962C918.38 428.026 917.236 430.968 915.67 433.688C913.395 437.702 910.293 441.188 906.568 443.914C902.844 446.641 898.582 448.545 894.066 449.501C892.709 449.779 891.335 449.965 889.953 450.059C889.248 450.059 888.544 450.179 887.832 450.179L885.668 450.11C885.307 450.11 884.947 450.11 884.586 450.059L883.495 449.904C882.766 449.801 882.027 449.732 881.297 449.587C879.815 449.283 878.354 448.879 876.927 448.377C875.457 447.873 874.023 447.271 872.633 446.575C871.938 446.206 871.268 445.786 870.581 445.391C869.891 444.993 869.228 444.548 868.598 444.061C867.284 443.114 866.034 442.082 864.854 440.972L863.136 439.17L862.716 438.716L862.329 438.227L861.574 437.24L860.809 436.245L860.131 435.181L859.461 434.108L859.126 433.576L858.843 433.01L857.744 430.745L856.817 428.343C854.472 421.696 854.358 414.468 856.49 407.751L857.349 405.314L858.414 402.997L858.68 402.422L858.998 401.882L859.642 400.784L860.277 399.703L861.007 398.69L861.737 397.678L862.097 397.171L862.51 396.708L864.132 394.855C865.276 393.708 866.492 392.636 867.773 391.646C868.385 391.135 869.033 390.67 869.714 390.256C870.392 389.836 871.045 389.398 871.723 389.003C873.081 388.259 874.49 387.611 875.939 387.064C877.337 386.516 878.772 386.066 880.232 385.717C880.962 385.546 881.692 385.451 882.422 385.322L883.504 385.142C883.865 385.082 884.234 385.082 884.595 385.048L886.75 384.911C887.462 384.911 888.167 384.911 888.871 384.962C890.253 385.008 891.63 385.152 892.992 385.391C897.54 386.193 901.865 387.955 905.678 390.559C909.49 393.163 912.704 396.549 915.103 400.492C916.754 403.149 917.991 406.042 918.769 409.072C919.084 410.171 919.316 411.293 919.465 412.427C919.534 412.916 919.628 413.362 919.671 413.782C919.714 414.203 919.714 414.572 919.731 414.915C919.731 415.584 919.791 416.09 919.808 416.459C919.826 416.828 919.86 417.043 919.86 417.043Z" fill="#263238"/>
<path d="M890.957 452.615C886.048 452.73 881.164 451.864 876.594 450.069C872.023 448.274 867.856 445.586 864.338 442.162C860.82 438.739 858.02 434.648 856.104 430.13C854.187 425.612 853.192 420.757 853.176 415.85L872.925 415.533C873.088 425.537 880.713 431.835 890.682 431.68L890.957 452.615Z" fill="#3F51B5"/>
<path d="M890.957 452.615C890.947 452.487 890.947 452.358 890.957 452.229V451.122C890.957 450.136 890.897 448.72 890.846 446.927C890.768 443.289 890.657 438.072 890.511 431.68L890.682 431.843C888.681 431.876 886.685 431.633 884.749 431.122C882.619 430.557 880.618 429.584 878.859 428.257C876.97 426.815 875.444 424.952 874.402 422.817C873.3 420.545 872.714 418.057 872.685 415.533L872.908 415.747L857.624 415.996L853.167 416.073L853.391 415.841C853.498 419.807 854.175 423.737 855.4 427.51C855.735 428.368 856.07 429.286 856.396 430.17C856.722 431.054 857.255 431.886 857.607 432.675C858.003 433.494 858.454 434.285 858.955 435.044C859.396 435.81 859.884 436.549 860.414 437.257L861.986 439.325C862.535 439.968 863.128 440.569 863.703 441.178L864.562 442.079L865.472 442.886L867.249 444.456C869.512 446.228 871.966 447.742 874.565 448.969L876.283 449.775C876.867 449.998 877.442 450.187 878 450.385L879.631 450.951C880.164 451.122 880.696 451.217 881.203 451.346L882.663 451.706L883.358 451.869L884.036 451.972L886.449 452.315C887.087 452.403 887.729 452.454 888.373 452.469L889.789 452.538L890.648 452.59H890.966H889.815H888.373C887.715 452.6 887.058 452.562 886.406 452.478L883.976 452.178C883.753 452.178 883.521 452.126 883.298 452.083L882.594 451.92L881.117 451.586C880.61 451.457 880.069 451.363 879.528 451.2L877.888 450.642C877.322 450.445 876.738 450.264 876.171 450.041L874.402 449.243C871.766 448.03 869.28 446.515 866.992 444.73L865.189 443.16L864.261 442.354L863.403 441.444C862.836 440.826 862.235 440.226 861.685 439.574L860.088 437.497C859.549 436.781 859.053 436.033 858.603 435.258C858.093 434.496 857.636 433.699 857.237 432.873C856.834 432.015 856.379 431.157 856.009 430.299C855.64 429.441 855.331 428.514 854.996 427.613C853.744 423.801 853.053 419.827 852.944 415.816V415.593H853.176L857.624 415.515L872.908 415.275H873.123V415.49C873.139 417.95 873.693 420.378 874.746 422.603C875.751 424.676 877.22 426.49 879.039 427.905C880.751 429.211 882.703 430.17 884.783 430.728C886.683 431.243 888.645 431.494 890.614 431.474H890.785V431.646C890.854 438.081 890.906 443.323 890.94 446.987C890.94 448.772 890.94 450.17 890.94 451.148V452.229C890.966 452.504 890.957 452.624 890.957 452.615Z" fill="#263238"/>
<path d="M907.873 230.839H736.784V358.63H907.873V230.839Z" fill="white"/>
<path d="M907.873 230.839H736.784V246.635H907.873V230.839Z" fill="#E0E0E0"/>
<path d="M746.152 241.007C747.408 241.007 748.427 239.989 748.427 238.733C748.427 237.477 747.408 236.459 746.152 236.459C744.895 236.459 743.876 237.477 743.876 238.733C743.876 239.989 744.895 241.007 746.152 241.007Z" fill="white"/>
<path d="M753.837 241.007C755.093 241.007 756.112 239.989 756.112 238.733C756.112 237.477 755.093 236.459 753.837 236.459C752.58 236.459 751.561 237.477 751.561 238.733C751.561 239.989 752.58 241.007 753.837 241.007Z" fill="white"/>
<path d="M761.513 241.007C762.77 241.007 763.789 239.989 763.789 238.733C763.789 237.477 762.77 236.459 761.513 236.459C760.256 236.459 759.238 237.477 759.238 238.733C759.238 239.989 760.256 241.007 761.513 241.007Z" fill="white"/>
<path d="M907.873 358.63C907.873 358.63 907.873 357.832 907.873 356.296C907.873 354.76 907.873 352.478 907.873 349.509C907.873 343.564 907.873 334.838 907.83 323.692C907.83 301.427 907.77 269.501 907.736 230.839L907.916 231.02L736.844 231.063L737.067 230.839C737.067 276.76 737.067 320.269 737.067 358.63L736.861 358.424L860.363 358.527L895.431 358.579H904.73H907.135H904.765H895.5L860.475 358.639L736.827 358.733H736.629V358.536C736.629 320.174 736.629 276.665 736.629 230.745V230.522H736.87H907.942H908.122V230.711C908.122 269.415 908.053 301.384 908.028 323.675C908.028 334.829 908.028 343.512 907.985 349.415C907.985 352.375 907.985 354.64 907.985 356.168C907.985 357.695 907.873 358.63 907.873 358.63Z" fill="#263238"/>
<path d="M898.445 307.854C898.445 307.974 864.399 308.077 822.41 308.077C780.421 308.077 746.366 307.974 746.366 307.854C746.366 307.733 780.404 307.63 822.41 307.63C864.416 307.63 898.445 307.725 898.445 307.854Z" fill="#E0E0E0"/>
<path d="M898.445 294.735C898.445 294.855 864.399 294.958 822.41 294.958C780.421 294.958 746.366 294.855 746.366 294.735C746.366 294.615 780.404 294.512 822.41 294.512C864.416 294.512 898.445 294.606 898.445 294.735Z" fill="#E0E0E0"/>
<path d="M898.445 281.616C898.445 281.736 864.399 281.839 822.41 281.839C780.421 281.839 746.366 281.736 746.366 281.616C746.366 281.496 780.404 281.393 822.41 281.393C864.416 281.393 898.445 281.487 898.445 281.616Z" fill="#E0E0E0"/>
<path d="M898.445 268.497C898.445 268.617 864.399 268.72 822.41 268.72C780.421 268.72 746.366 268.617 746.366 268.497C746.366 268.377 780.404 268.274 822.41 268.274C864.416 268.274 898.445 268.368 898.445 268.497Z" fill="#E0E0E0"/>
<path d="M887.797 307.365C884.835 300.217 882.8 292.41 880.524 285.005C878.55 278.561 878.361 275.567 876.669 270.102C873.99 261.522 866.915 260.578 861.763 262.903C857.177 264.979 855.202 270.359 853.683 275.207L848.221 292.598C847.486 295.383 846.365 298.052 844.89 300.526C843.301 302.92 840.888 304.911 838.072 305.28C833.418 305.889 829.253 302.002 827.261 297.703C825.269 293.405 824.685 288.549 822.968 284.147C821.251 279.745 817.533 275.567 812.844 275.447C807.066 275.344 803.141 281.23 800.746 286.549C797.721 293.258 795.284 300.217 793.464 307.347C792.975 309.809 792.161 312.195 791.043 314.443C789.806 316.614 787.763 318.476 785.298 318.776C782.13 319.162 779.185 316.905 777.347 314.263C775.51 311.62 774.367 308.523 772.478 305.914C770.589 303.306 767.55 301.135 764.398 301.685C761.573 302.182 759.555 304.653 757.881 307.013C753.33 313.401 749.391 320.204 746.117 327.33H903.425C896.212 324.842 890.725 314.546 887.797 307.365Z" fill="#3F51B5"/>
<path d="M790.347 337.626H782.92V345.048H790.347V337.626Z" fill="#3F51B5"/>
<path d="M836.81 341.333H798.067C797.839 341.333 797.621 341.242 797.459 341.081C797.298 340.92 797.208 340.702 797.208 340.475C797.208 340.247 797.298 340.029 797.459 339.868C797.621 339.707 797.839 339.617 798.067 339.617H836.81C837.037 339.617 837.256 339.707 837.417 339.868C837.578 340.029 837.668 340.247 837.668 340.475C837.668 340.702 837.578 340.92 837.417 341.081C837.256 341.242 837.037 341.333 836.81 341.333Z" fill="#263238"/>
<path d="M896.633 327.33H896.066H894.409L888.021 327.373L864.527 327.442L787.033 327.51H746.152H745.946V327.304C745.946 307.167 746.006 289.999 746.023 277.849C746.023 271.8 746.066 266.996 746.083 263.684C746.083 262.054 746.083 260.792 746.083 259.917C746.083 259.505 746.083 259.188 746.083 258.948C746.083 258.707 746.083 258.622 746.083 258.622C746.083 258.622 746.083 258.733 746.083 258.948C746.083 259.162 746.083 259.505 746.083 259.917C746.083 260.775 746.083 262.054 746.083 263.684C746.083 266.996 746.083 271.8 746.143 277.849C746.143 289.999 746.186 307.167 746.22 327.304L746.014 327.099H786.895L864.39 327.167L887.883 327.236H894.272H895.929C896.444 327.313 896.633 327.33 896.633 327.33Z" fill="#263238"/>
<g opacity="0.3">
<path opacity="0.3" d="M878.163 275.867L822.333 327.33H850.248L883.856 296.236L878.163 275.867Z" fill="white"/>
</g>
<g opacity="0.3">
<path opacity="0.3" d="M828.979 300.612L798.264 327.33H790.347L826.617 296.253L829.777 301.599" fill="white"/>
</g>
<path d="M746.117 327.33C747.633 323.801 749.354 320.363 751.269 317.034C753.482 313.116 755.919 309.329 758.568 305.691C759.383 304.585 760.352 303.6 761.445 302.766C762.63 301.861 764.092 301.391 765.583 301.436C767.149 301.557 768.643 302.139 769.877 303.109C771.175 304.106 772.278 305.333 773.131 306.73C774.943 309.51 776.102 312.881 778.506 315.55C779.704 316.917 781.268 317.915 783.014 318.424C783.912 318.633 784.847 318.633 785.745 318.424C786.659 318.197 787.516 317.782 788.261 317.206C789.786 315.98 790.944 314.36 791.61 312.521C792.301 310.607 792.875 308.653 793.327 306.67C794.397 302.538 795.675 298.463 797.156 294.46C797.912 292.412 798.734 290.356 799.621 288.291C800.48 286.185 801.502 284.148 802.678 282.199C803.862 280.171 805.435 278.396 807.306 276.974C808.272 276.259 809.365 275.732 810.526 275.421C811.713 275.13 812.948 275.094 814.149 275.318C816.558 275.879 818.701 277.247 820.22 279.196C821.77 281.116 822.936 283.315 823.655 285.674C824.445 288.025 824.986 290.445 825.673 292.83C826.269 295.253 827.24 297.569 828.549 299.694C829.867 301.798 831.78 303.464 834.045 304.482C835.162 304.944 836.373 305.134 837.578 305.036C838.783 304.937 839.947 304.553 840.974 303.915C843.002 302.604 844.616 300.744 845.628 298.553C846.623 296.384 847.447 294.14 848.093 291.843C849.524 287.302 850.926 282.846 852.3 278.476C852.996 276.296 853.622 274.117 854.404 272.006C855.125 269.888 856.155 267.887 857.461 266.069C858.12 265.181 858.904 264.392 859.788 263.727C860.678 263.087 861.659 262.584 862.699 262.234C863.721 261.891 864.783 261.677 865.858 261.599C866.922 261.541 867.988 261.631 869.027 261.865C871.055 262.384 872.861 263.543 874.179 265.168C875.412 266.752 876.322 268.562 876.858 270.496C878.009 274.229 878.635 277.952 879.563 281.427C880.009 283.143 880.533 284.859 881.031 286.515C881.529 288.171 882.001 289.801 882.474 291.389C884.046 297.122 885.956 302.757 888.192 308.265C889.903 312.417 892.09 316.356 894.71 320.003C896.349 322.322 898.383 324.335 900.72 325.949C901.346 326.341 902 326.685 902.678 326.978L903.365 327.287L902.661 327.021C901.974 326.744 901.31 326.411 900.677 326.026C898.304 324.437 896.238 322.431 894.581 320.106C891.924 316.464 889.707 312.522 887.978 308.36C885.706 302.854 883.77 297.215 882.182 291.474C881.701 289.887 881.22 288.265 880.722 286.609C880.224 284.954 879.692 283.263 879.236 281.513C878.301 278.021 877.665 274.314 876.506 270.608C875.991 268.741 875.116 266.992 873.93 265.46C872.659 263.893 870.915 262.78 868.958 262.285C867.957 262.069 866.933 261.985 865.91 262.036C864.868 262.113 863.841 262.324 862.853 262.663C860.825 263.334 859.061 264.628 857.813 266.361C856.536 268.149 855.529 270.115 854.825 272.195C854.06 274.289 853.425 276.485 852.729 278.647C851.367 283.017 849.97 287.473 848.539 292.015C847.889 294.336 847.057 296.603 846.049 298.793C845.003 301.063 843.328 302.986 841.223 304.336C840.142 305.015 838.912 305.425 837.639 305.529C836.365 305.634 835.086 305.43 833.907 304.936C831.556 303.89 829.571 302.166 828.206 299.986C826.873 297.829 825.883 295.479 825.269 293.019C824.582 290.616 824.033 288.205 823.26 285.889C822.572 283.586 821.453 281.434 819.963 279.548C818.506 277.676 816.451 276.358 814.141 275.816C813.002 275.608 811.831 275.643 810.706 275.919C809.595 276.213 808.549 276.713 807.624 277.395C805.804 278.787 804.27 280.518 803.107 282.491C801.945 284.413 800.932 286.421 800.076 288.497C799.194 290.556 798.373 292.607 797.612 294.649C796.092 298.742 794.821 302.809 793.773 306.815C793.327 308.812 792.754 310.778 792.056 312.701C791.377 314.598 790.189 316.272 788.621 317.54C787.841 318.155 786.935 318.591 785.968 318.819C785.014 319.046 784.02 319.046 783.066 318.819C781.254 318.292 779.633 317.255 778.395 315.833C775.93 313.079 774.788 309.698 773.002 306.953C772.173 305.584 771.099 304.38 769.834 303.401C768.646 302.46 767.206 301.892 765.695 301.77C764.267 301.726 762.868 302.171 761.728 303.032C760.654 303.85 759.7 304.814 758.894 305.897C756.212 309.498 753.733 313.245 751.467 317.12C749.621 320.32 748.324 322.886 747.457 324.627L746.487 326.618C746.272 327.107 746.117 327.33 746.117 327.33Z" fill="#263238"/>
<path d="M679.176 406.644H525.277V499.076H679.176V406.644Z" fill="white"/>
<path d="M679.176 406.644H525.277V420.852H679.176V406.644Z" fill="#E0E0E0"/>
<path d="M535.744 413.748C535.746 414.154 535.627 414.551 535.402 414.89C535.178 415.228 534.858 415.492 534.483 415.649C534.108 415.805 533.695 415.847 533.297 415.769C532.898 415.691 532.532 415.496 532.244 415.21C531.956 414.923 531.76 414.558 531.68 414.16C531.6 413.762 531.64 413.349 531.795 412.974C531.95 412.599 532.213 412.278 532.551 412.052C532.888 411.826 533.286 411.706 533.692 411.706C534.235 411.706 534.755 411.921 535.14 412.304C535.525 412.686 535.742 413.206 535.744 413.748V413.748Z" fill="white"/>
<path d="M542.656 413.748C542.658 414.154 542.539 414.552 542.314 414.89C542.089 415.229 541.769 415.493 541.393 415.649C541.018 415.806 540.605 415.847 540.206 415.768C539.807 415.689 539.44 415.494 539.153 415.207C538.865 414.919 538.67 414.553 538.591 414.155C538.512 413.756 538.553 413.343 538.71 412.968C538.866 412.593 539.13 412.273 539.469 412.048C539.808 411.823 540.206 411.704 540.613 411.706C541.155 411.706 541.674 411.921 542.058 412.304C542.441 412.687 542.656 413.206 542.656 413.748Z" fill="white"/>
<path d="M549.569 413.748C549.57 414.154 549.451 414.551 549.227 414.89C549.002 415.228 548.682 415.492 548.308 415.649C547.933 415.805 547.52 415.847 547.121 415.769C546.723 415.691 546.356 415.496 546.068 415.21C545.78 414.923 545.584 414.558 545.504 414.16C545.424 413.762 545.464 413.349 545.62 412.974C545.775 412.599 546.038 412.278 546.375 412.052C546.713 411.826 547.11 411.706 547.516 411.706C548.059 411.706 548.58 411.921 548.964 412.304C549.349 412.686 549.566 413.206 549.569 413.748V413.748Z" fill="white"/>
<path d="M679.141 499.085C679.141 499.085 679.141 498.51 679.141 497.412C679.141 496.313 679.141 494.692 679.141 492.572C679.141 488.282 679.141 482.071 679.09 474.057C679.09 458.038 679.038 434.949 679.004 406.644L679.176 406.824H525.285L525.509 406.601C525.509 439.351 525.509 470.599 525.509 499.042L525.303 498.827L636.071 498.93L667.841 498.99H676.299H678.489H679.236H676.351H667.936L636.208 499.188L525.32 499.291H525.114V499.085C525.114 470.642 525.114 439.394 525.114 406.644V406.421H525.346L679.236 406.472H679.408V406.644C679.408 434.958 679.339 458.124 679.322 474.16C679.322 482.165 679.322 488.394 679.27 492.641C679.27 494.743 679.27 496.356 679.27 497.454C679.27 498.553 679.141 499.085 679.141 499.085Z" fill="#263238"/>
<path d="M548.676 436.425H542.133V484.284H548.676V436.425Z" fill="#3F51B5"/>
<path d="M561.307 452.675H554.763V484.276H561.307V452.675Z" fill="#3F51B5"/>
<path d="M573.929 442.371H567.386V484.524H573.929V442.371Z" fill="#3F51B5"/>
<path d="M586.56 438.27H580.017V484.284H586.56V438.27Z" fill="#3F51B5"/>
<path d="M599.182 453.645H592.639V484.276H599.182V453.645Z" fill="#3F51B5"/>
<path d="M611.813 459.66H605.27V484.284H611.813V459.66Z" fill="#3F51B5"/>
<path d="M624.436 441.333H617.893V484.276H624.436V441.333Z" fill="#3F51B5"/>
<path d="M637.067 449.08H630.524V484.284H637.067V449.08Z" fill="#3F51B5"/>
<path d="M649.689 442.886H643.146V484.276H649.689V442.886Z" fill="#3F51B5"/>
<path d="M662.32 456.082H655.777V484.284H662.32V456.082Z" fill="#3F51B5"/>
<g opacity="0.3">
<path opacity="0.3" d="M561.307 452.675H554.763V484.276H561.307V452.675Z" fill="white"/>
</g>
<g opacity="0.3">
<path opacity="0.3" d="M586.56 438.27H580.017V484.284H586.56V438.27Z" fill="white"/>
</g>
<g opacity="0.3">
<path opacity="0.3" d="M611.813 459.66H605.27V484.284H611.813V459.66Z" fill="white"/>
</g>
<g opacity="0.3">
<path opacity="0.3" d="M637.067 449.08H630.524V484.284H637.067V449.08Z" fill="white"/>
</g>
<g opacity="0.3">
<path opacity="0.3" d="M662.32 456.082H655.777V484.284H662.32V456.082Z" fill="white"/>
</g>
<path d="M671.714 484.284C671.714 484.404 641.274 484.507 603.733 484.507C566.192 484.507 535.744 484.43 535.744 484.284C535.744 484.138 566.175 484.052 603.733 484.052C641.291 484.052 671.714 484.155 671.714 484.284Z" fill="#263238"/>
<path d="M489.788 339.059H407.777V421.007H489.788V339.059Z" fill="white"/>
<path d="M450.539 386.412L473.147 386.721C472.975 398.733 462.843 408.583 450.539 408.583H450.401L450.539 386.412Z" fill="#455A64"/>
<path d="M446.958 383.186L446.64 405.357C434.353 405.185 424.315 395.232 424.315 383.186C424.315 371.14 434.524 361.015 446.932 361.015C459.34 361.015 469.549 371.028 469.549 383.186H446.958Z" fill="#3F51B5"/>
<path d="M489.711 339.059H407.777V355.181H489.711V339.059Z" fill="#E0E0E0"/>
<path d="M417.334 349.441C418.619 349.441 419.661 348.4 419.661 347.116C419.661 345.832 418.619 344.791 417.334 344.791C416.049 344.791 415.007 345.832 415.007 347.116C415.007 348.4 416.049 349.441 417.334 349.441Z" fill="white"/>
<path d="M425.173 349.441C426.459 349.441 427.5 348.4 427.5 347.116C427.5 345.832 426.459 344.791 425.173 344.791C423.888 344.791 422.846 345.832 422.846 347.116C422.846 348.4 423.888 349.441 425.173 349.441Z" fill="white"/>
<path d="M435.34 347.15C435.34 347.61 435.204 348.059 434.948 348.442C434.692 348.824 434.329 349.122 433.904 349.298C433.478 349.474 433.011 349.52 432.559 349.431C432.108 349.341 431.693 349.119 431.368 348.794C431.042 348.469 430.821 348.055 430.731 347.604C430.641 347.153 430.687 346.685 430.863 346.26C431.039 345.835 431.338 345.472 431.72 345.217C432.103 344.961 432.553 344.825 433.013 344.825C433.63 344.825 434.222 345.07 434.659 345.506C435.095 345.942 435.34 346.533 435.34 347.15V347.15Z" fill="white"/>
<path d="M489.788 421.007C489.788 421.007 489.788 420.869 489.788 420.612C489.788 420.355 489.788 419.968 489.788 419.479C489.788 418.467 489.788 416.991 489.788 415.069C489.788 411.217 489.788 405.571 489.737 398.398C489.737 384.061 489.677 363.606 489.634 339.059L489.831 339.248H407.828L408.052 339.025C408.052 369.055 408.052 397.154 408.052 420.972L407.854 420.775L467.248 420.869L483.932 420.921H488.337H489.376H489.771H488.286H483.915L467.274 420.972L407.803 421.195H407.614V421.007C407.614 397.189 407.614 369.063 407.614 339.059V338.836H407.803H489.805H489.994V339.033C489.994 363.624 489.926 384.13 489.9 398.501C489.9 405.648 489.857 411.277 489.848 415.121C489.848 417.037 489.848 418.496 489.848 419.497C489.848 419.977 489.848 420.355 489.848 420.603C489.848 420.852 489.788 421.007 489.788 421.007Z" fill="#263238"/>
<path d="M690.261 226.507H466.656V387.751H690.261V226.507Z" fill="white"/>
<path d="M649.981 263.057H596.993C588.182 263.057 581.039 270.195 581.039 278.999V284.293C581.039 293.097 588.182 300.235 596.993 300.235H649.981C658.792 300.235 665.935 293.097 665.935 284.293V278.999C665.935 270.195 658.792 263.057 649.981 263.057Z" fill="#EBEBEB"/>
<path d="M482.678 304.567C482.6 297.737 484.547 291.037 488.276 285.312C492.005 279.587 497.348 275.095 503.63 272.401C509.912 269.707 516.851 268.934 523.573 270.178C530.294 271.422 536.496 274.628 541.396 279.391C546.296 284.154 549.673 290.261 551.103 296.941C552.532 303.62 551.949 310.573 549.427 316.922C546.905 323.271 542.557 328.73 536.933 332.612C531.308 336.494 524.659 338.624 517.824 338.733C508.632 338.848 499.771 335.315 493.182 328.91C486.594 322.506 482.816 313.751 482.678 304.567V304.567ZM533.803 303.709C533.735 300.447 532.702 297.278 530.834 294.602C528.966 291.925 526.347 289.861 523.307 288.67C520.267 287.478 516.942 287.213 513.751 287.907C510.56 288.601 507.646 290.224 505.377 292.57C503.108 294.917 501.584 297.882 500.999 301.092C500.414 304.302 500.793 307.614 502.088 310.609C503.383 313.604 505.537 316.149 508.278 317.923C511.018 319.698 514.223 320.621 517.489 320.578C521.885 320.503 526.072 318.689 529.131 315.533C532.19 312.377 533.87 308.137 533.803 303.744V303.709Z" fill="#F5F5F5"/>
<path d="M482.678 304.567C482.52 295.383 486.013 286.511 492.393 279.897C498.772 273.283 507.516 269.467 516.707 269.286L516.999 287.407C512.593 287.478 508.395 289.295 505.329 292.458C502.263 295.622 500.58 299.873 500.65 304.276C500.721 308.679 502.539 312.874 505.705 315.937C508.871 319.001 513.125 320.683 517.532 320.612L517.824 338.733C508.632 338.85 499.769 335.318 493.18 328.913C486.591 322.508 482.814 313.752 482.678 304.567V304.567Z" fill="#455A64"/>
<path d="M533.803 303.744C533.813 303.832 533.813 303.921 533.803 304.01V304.799C533.809 305.227 533.78 305.654 533.718 306.078C533.663 306.656 533.566 307.23 533.426 307.794C533.089 309.369 532.509 310.883 531.708 312.281C530.666 314.152 529.266 315.799 527.587 317.129C525.406 318.888 522.812 320.062 520.051 320.541C517.289 321.02 514.451 320.788 511.804 319.866C511.05 319.604 510.313 319.294 509.598 318.939C508.877 318.554 508.182 318.121 507.52 317.643C506.845 317.156 506.203 316.625 505.596 316.056C504.998 315.452 504.438 314.81 503.922 314.134C502.856 312.747 502.021 311.197 501.449 309.544C500.883 307.834 500.577 306.05 500.539 304.25C500.527 302.45 500.791 300.659 501.32 298.939C501.835 297.268 502.618 295.692 503.638 294.271C504.598 292.882 505.775 291.657 507.125 290.642C507.76 290.156 508.429 289.715 509.125 289.321C509.825 288.939 510.551 288.606 511.298 288.326C514.937 286.935 518.95 286.868 522.634 288.135C526.318 289.402 529.439 291.924 531.451 295.258C532.296 296.629 532.924 298.123 533.314 299.685C533.469 300.249 533.584 300.822 533.657 301.401C533.735 301.82 533.778 302.245 533.786 302.671C533.786 303.006 533.786 303.263 533.786 303.461C533.798 303.552 533.798 303.644 533.786 303.735C533.76 303.649 533.745 303.559 533.743 303.469C533.743 303.263 533.7 303.006 533.666 302.68C533.644 302.256 533.59 301.834 533.503 301.419C533.414 300.838 533.285 300.265 533.116 299.703C532.707 298.167 532.064 296.702 531.21 295.361C530.084 293.572 528.627 292.014 526.917 290.771C524.715 289.14 522.136 288.093 519.42 287.727C516.704 287.361 513.939 287.688 511.384 288.677C509.907 289.235 508.526 290.016 507.288 290.994C505.997 291.994 504.878 293.196 503.973 294.555C502.983 295.941 502.221 297.476 501.715 299.102C501.206 300.77 500.951 302.506 500.959 304.25C501.023 307.724 502.186 311.088 504.282 313.86C505.255 315.187 506.439 316.346 507.786 317.292C508.427 317.76 509.101 318.182 509.804 318.553C510.498 318.904 511.215 319.208 511.95 319.462C514.535 320.371 517.307 320.612 520.01 320.162C522.712 319.711 525.257 318.585 527.406 316.888C529.063 315.588 530.456 313.983 531.511 312.161C532.318 310.791 532.914 309.307 533.28 307.759C533.434 307.197 533.543 306.623 533.606 306.043C533.684 305.624 533.727 305.2 533.735 304.773C533.735 304.447 533.778 304.19 533.786 303.984C533.784 303.904 533.79 303.823 533.803 303.744V303.744Z" fill="#263238"/>
<path d="M482.678 304.567C482.678 304.567 482.678 304.756 482.738 305.125C482.799 305.494 482.807 306.06 482.867 306.764C482.867 307.133 482.927 307.536 482.962 307.974C482.996 308.411 483.116 308.9 483.202 309.424C483.288 309.947 483.391 310.505 483.494 311.14C483.622 311.774 483.783 312.401 483.975 313.019C484.831 316.245 486.171 319.323 487.951 322.148C490.27 325.912 493.293 329.195 496.855 331.818L498.358 332.907C498.881 333.25 499.44 333.551 499.989 333.885C500.539 334.22 501.088 334.563 501.706 334.838L503.51 335.696L504.42 336.116L505.382 336.451L507.331 337.129C507.992 337.343 508.687 337.472 509.374 337.643C510.06 337.836 510.757 337.985 511.461 338.09C512.906 338.336 514.366 338.482 515.831 338.527C516.57 338.527 517.326 338.604 518.081 338.579L520.357 338.424C520.743 338.424 521.129 338.424 521.507 338.33L522.649 338.132C523.414 337.987 524.195 337.892 524.968 337.712C528.112 336.943 531.142 335.769 533.984 334.22C534.705 333.808 535.392 333.362 536.105 332.899C536.823 332.455 537.508 331.962 538.157 331.423C539.513 330.368 540.796 329.221 541.995 327.991L543.712 326.035L544.142 325.546L544.528 325.014L545.292 323.941L546.065 322.869L546.743 321.719L547.413 320.569L547.748 319.994L548.031 319.385L549.156 316.94L550.015 314.366C552.262 307.279 552.141 299.654 549.672 292.641L548.693 290.067C548.298 289.261 547.894 288.454 547.491 287.656L547.19 287.056L546.838 286.489L546.125 285.357L545.421 284.233L544.614 283.186L543.807 282.139L543.412 281.625L542.957 281.144C542.364 280.501 541.772 279.874 541.179 279.239C539.942 278.06 538.625 276.968 537.238 275.97C536.573 275.45 535.87 274.979 535.134 274.563C534.413 274.143 533.709 273.705 532.979 273.302C531.514 272.566 530.002 271.927 528.454 271.389C526.947 270.86 525.407 270.433 523.843 270.11C523.07 269.956 522.289 269.879 521.524 269.758L520.365 269.604C519.987 269.552 519.601 269.604 519.215 269.544L516.931 269.467C516.175 269.467 515.428 269.552 514.689 269.587C513.226 269.68 511.772 269.875 510.336 270.17C509.633 270.295 508.939 270.464 508.258 270.676C507.58 270.874 506.893 271.028 506.24 271.26L504.317 272.006L503.364 272.367L502.462 272.821L500.685 273.679C500.101 273.963 499.577 274.357 499.027 274.683C498.478 275.009 497.937 275.353 497.422 275.713L495.953 276.845C492.479 279.582 489.563 282.961 487.367 286.798C485.68 289.681 484.441 292.802 483.692 296.056C483.517 296.68 483.376 297.313 483.271 297.952C483.185 298.553 483.099 299.111 483.03 299.668C482.962 300.226 482.867 300.672 482.833 301.11C482.799 301.547 482.833 301.968 482.781 302.328C482.781 303.04 482.721 303.581 482.704 303.967C482.687 304.353 482.661 304.533 482.661 304.533C482.661 304.533 482.661 304.344 482.661 303.967C482.661 303.589 482.661 303.032 482.661 302.32C482.661 301.959 482.661 301.547 482.661 301.101C482.661 300.655 482.773 300.175 482.833 299.651C482.893 299.128 482.979 298.553 483.056 297.935C483.156 297.29 483.29 296.652 483.46 296.022C484.189 292.745 485.411 289.598 487.083 286.687C489.271 282.807 492.187 279.384 495.67 276.605L497.147 275.456C497.671 275.087 498.22 274.761 498.761 274.409C499.302 274.057 499.843 273.679 500.436 273.388L502.23 272.53L503.089 272.066L504.051 271.697L506 270.942C506.652 270.702 507.348 270.548 508.035 270.342C508.725 270.127 509.428 269.952 510.139 269.818C511.588 269.519 513.057 269.322 514.535 269.226C515.282 269.226 516.038 269.098 516.802 269.089L519.112 269.166C519.498 269.166 519.884 269.166 520.279 269.226L521.439 269.381C522.22 269.501 523.01 269.578 523.791 269.724C525.375 270.054 526.935 270.486 528.462 271.02C530.076 271.552 531.648 272.2 533.168 272.959C533.906 273.353 534.628 273.817 535.358 274.229C536.1 274.65 536.811 275.123 537.487 275.644C538.893 276.659 540.229 277.765 541.488 278.956L543.283 280.878L543.738 281.367L544.15 281.891L544.957 282.946L545.816 284.01L546.529 285.142L547.25 286.292L547.611 286.867L547.911 287.468L549.139 289.913C549.465 290.771 549.792 291.629 550.127 292.487C552.631 299.588 552.751 307.31 550.47 314.486L549.611 317.06C549.234 317.918 548.847 318.716 548.469 319.54L548.186 320.157L547.843 320.741L547.164 321.908L546.477 323.066L545.696 324.147L544.915 325.228L544.528 325.769L544.09 326.266C543.506 326.936 542.931 327.596 542.373 328.248C541.155 329.478 539.855 330.625 538.483 331.68C537.825 332.222 537.131 332.718 536.405 333.165C535.684 333.611 534.988 334.083 534.258 334.503C532.805 335.298 531.299 335.992 529.75 336.579C528.241 337.161 526.695 337.642 525.122 338.021C524.349 338.201 523.559 338.295 522.787 338.441L521.627 338.639C521.241 338.699 520.846 338.699 520.46 338.733L518.158 338.879C517.394 338.879 516.639 338.879 515.883 338.827C514.403 338.773 512.929 338.621 511.469 338.373C510.757 338.262 510.052 338.11 509.357 337.918C508.662 337.738 507.966 337.609 507.296 337.386L505.33 336.7L504.36 336.356L503.432 335.927L501.621 335.069C501.019 334.795 500.479 334.417 499.903 334.1C499.328 333.782 498.787 333.456 498.255 333.113L496.743 332.006C493.139 329.372 490.08 326.065 487.736 322.268C485.964 319.415 484.64 316.307 483.812 313.053C483.624 312.416 483.475 311.769 483.365 311.114L483.082 309.398C483.005 308.875 482.91 308.394 482.867 307.948C482.824 307.502 482.816 307.09 482.799 306.73C482.799 306.017 482.73 305.468 482.704 305.082C482.678 304.696 482.678 304.567 482.678 304.567Z" fill="#263238"/>
<path d="M513.599 266.498C535.924 266.138 553.716 283.444 554.077 305.846L532.953 306.181C532.782 295.473 524.633 288.729 513.96 288.9L513.599 266.498Z" fill="#3F51B5"/>
<path d="M513.599 266.498C513.599 266.498 513.599 266.644 513.599 266.918C513.599 267.193 513.599 267.596 513.599 268.094C513.599 269.149 513.659 270.668 513.711 272.59C513.796 276.477 513.908 282.028 514.063 288.892L513.891 288.729C516.032 288.696 518.167 288.959 520.236 289.51C522.514 290.107 524.652 291.145 526.531 292.564C528.549 294.109 530.183 296.1 531.305 298.381C532.469 300.815 533.084 303.475 533.108 306.172L532.885 305.957L549.199 305.691L553.965 305.614L553.75 305.837C553.635 301.594 552.909 297.39 551.595 293.353L550.633 290.522C550.23 289.604 549.775 288.72 549.337 287.836C548.916 286.946 548.434 286.086 547.894 285.262C547.42 284.44 546.899 283.647 546.331 282.886C545.765 282.139 545.198 281.41 544.614 280.681C544.03 279.951 543.386 279.351 542.794 278.69L541.892 277.729L540.922 276.871L539.016 275.155C536.596 273.254 533.969 271.634 531.184 270.325L529.313 269.467C528.686 269.218 528.068 269.021 527.466 268.806L525.749 268.205C525.182 268.025 524.616 267.914 524.032 267.776L522.46 267.399L521.722 267.219L520.992 267.116L518.416 266.747C517.733 266.653 517.045 266.598 516.355 266.584L514.835 266.507L513.934 266.498H513.599H514.835H516.372C517.076 266.487 517.779 266.527 518.476 266.618L521.052 266.944L521.782 267.047L522.529 267.21L524.118 267.579C524.659 267.716 525.234 267.811 525.835 267.991L527.552 268.583C528.153 268.797 528.78 268.986 529.407 269.226L531.305 270.084C534.124 271.386 536.786 273.003 539.239 274.906C539.866 275.464 540.51 276.022 541.162 276.622L542.15 277.48L543.06 278.45C543.661 279.111 544.305 279.754 544.906 280.458L546.623 282.68C547.201 283.445 547.731 284.244 548.212 285.074C548.759 285.896 549.247 286.756 549.672 287.648C550.101 288.506 550.582 289.424 550.985 290.359L552.076 293.233C553.41 297.31 554.148 301.558 554.265 305.846V306.069H554.042L549.277 306.146L532.962 306.404H532.739V306.189C532.732 303.557 532.146 300.959 531.021 298.579C529.937 296.349 528.35 294.402 526.385 292.89C524.551 291.495 522.462 290.469 520.236 289.87C518.202 289.322 516.101 289.053 513.994 289.072H513.822V288.909C513.745 282.045 513.685 276.408 513.651 272.487C513.651 270.574 513.651 269.055 513.651 268.034V266.884C513.59 266.627 513.599 266.498 513.599 266.498Z" fill="#263238"/>
<path d="M690.261 226.507H466.656V248.042H690.261V226.507Z" fill="#E0E0E0"/>
<path d="M655.957 275.533H593.103C592.752 275.533 592.415 275.395 592.165 275.15C591.914 274.904 591.77 274.571 591.763 274.22C591.763 273.865 591.905 273.525 592.156 273.274C592.407 273.023 592.748 272.882 593.103 272.882H655.957C656.311 272.884 656.65 273.026 656.899 273.277C657.148 273.527 657.288 273.867 657.288 274.22V274.22C657.282 274.569 657.139 274.902 656.89 275.147C656.641 275.392 656.307 275.531 655.957 275.533V275.533Z" fill="#263238"/>
<path d="M655.957 282.654H593.103C592.748 282.654 592.407 282.513 592.156 282.262C591.905 282.011 591.763 281.671 591.763 281.316V281.316C591.762 281.139 591.796 280.964 591.863 280.801C591.93 280.637 592.028 280.489 592.153 280.364C592.277 280.238 592.425 280.139 592.588 280.071C592.751 280.004 592.926 279.969 593.103 279.969H655.957C656.134 279.969 656.309 280.004 656.472 280.071C656.635 280.139 656.783 280.238 656.908 280.364C657.032 280.489 657.131 280.637 657.197 280.801C657.264 280.964 657.298 281.139 657.297 281.316V281.316C657.297 281.671 657.156 282.011 656.905 282.262C656.653 282.513 656.313 282.654 655.957 282.654V282.654Z" fill="#263238"/>
<path d="M621.662 289.776H593.103C592.748 289.776 592.407 289.635 592.156 289.384C591.905 289.132 591.763 288.792 591.763 288.437V288.437C591.762 288.261 591.796 288.086 591.863 287.922C591.93 287.759 592.028 287.61 592.153 287.485C592.277 287.36 592.425 287.26 592.588 287.193C592.751 287.125 592.926 287.09 593.103 287.09H621.662C621.839 287.089 622.014 287.123 622.177 287.189C622.341 287.256 622.49 287.355 622.615 287.479C622.74 287.603 622.84 287.751 622.908 287.914C622.975 288.077 623.01 288.252 623.01 288.428V288.428C623.011 288.606 622.977 288.781 622.91 288.945C622.843 289.109 622.743 289.258 622.618 289.384C622.493 289.509 622.343 289.608 622.179 289.675C622.015 289.743 621.84 289.777 621.662 289.776V289.776Z" fill="#263238"/>
<path d="M649.981 308.54H596.993C588.182 308.54 581.039 315.677 581.039 324.482V329.776C581.039 338.58 588.182 345.717 596.993 345.717H649.981C658.792 345.717 665.935 338.58 665.935 329.776V324.482C665.935 315.677 658.792 308.54 649.981 308.54Z" fill="#EBEBEB"/>
<path d="M657.675 368.9H587.496C585.546 368.898 583.676 368.122 582.298 366.744C580.92 365.365 580.146 363.496 580.146 361.547V361.547C580.146 360.583 580.336 359.628 580.705 358.737C581.075 357.846 581.616 357.036 582.298 356.354C582.981 355.672 583.791 355.131 584.683 354.762C585.575 354.393 586.531 354.203 587.496 354.203H657.675C659.625 354.203 661.495 354.976 662.875 356.353C664.255 357.73 665.031 359.599 665.033 361.547V361.547C665.033 363.497 664.258 365.368 662.878 366.747C661.498 368.126 659.626 368.9 657.675 368.9V368.9Z" fill="#EBEBEB"/>
<path d="M655.537 321.341H592.691C592.336 321.341 591.995 321.2 591.744 320.949C591.492 320.698 591.351 320.358 591.351 320.003V320.003C591.351 319.648 591.492 319.307 591.744 319.056C591.995 318.805 592.336 318.664 592.691 318.664H655.537C655.713 318.664 655.887 318.699 656.049 318.766C656.212 318.834 656.359 318.932 656.484 319.056C656.608 319.181 656.707 319.328 656.774 319.491C656.841 319.653 656.876 319.827 656.876 320.003V320.003C656.876 320.179 656.841 320.353 656.774 320.515C656.707 320.678 656.608 320.825 656.484 320.949C656.359 321.074 656.212 321.172 656.049 321.24C655.887 321.307 655.713 321.341 655.537 321.341V321.341Z" fill="#263238"/>
<path d="M652.858 363.049H590.012C589.656 363.049 589.316 362.908 589.065 362.657C588.813 362.406 588.672 362.065 588.672 361.71C588.672 361.355 588.813 361.015 589.065 360.764C589.316 360.513 589.656 360.372 590.012 360.372H652.858C653.039 360.366 653.22 360.397 653.389 360.463C653.559 360.53 653.713 360.63 653.842 360.757C653.971 360.885 654.073 361.037 654.142 361.206C654.21 361.374 654.244 361.554 654.24 361.736V361.736C654.237 361.913 654.198 362.088 654.127 362.25C654.055 362.413 653.952 362.559 653.823 362.681C653.695 362.803 653.543 362.899 653.377 362.962C653.212 363.025 653.035 363.054 652.858 363.049V363.049Z" fill="#263238"/>
<path d="M655.537 328.463H592.691C592.336 328.463 591.995 328.322 591.744 328.071C591.492 327.82 591.351 327.479 591.351 327.124C591.351 326.769 591.492 326.429 591.744 326.178C591.995 325.927 592.336 325.786 592.691 325.786H655.537C655.713 325.786 655.887 325.82 656.049 325.888C656.212 325.955 656.359 326.054 656.484 326.178C656.608 326.302 656.707 326.45 656.774 326.612C656.841 326.774 656.876 326.949 656.876 327.124V327.124C656.876 327.3 656.841 327.474 656.774 327.637C656.707 327.799 656.608 327.946 656.484 328.071C656.359 328.195 656.212 328.294 656.049 328.361C655.887 328.428 655.713 328.463 655.537 328.463V328.463Z" fill="#263238"/>
<path d="M621.25 335.584H592.691C592.336 335.584 591.995 335.443 591.744 335.192C591.492 334.941 591.351 334.601 591.351 334.246C591.351 333.891 591.492 333.55 591.744 333.299C591.995 333.048 592.336 332.907 592.691 332.907H621.25C621.605 332.907 621.946 333.048 622.197 333.299C622.448 333.55 622.59 333.891 622.59 334.246C622.59 334.601 622.448 334.941 622.197 335.192C621.946 335.443 621.605 335.584 621.25 335.584Z" fill="#263238"/>
<path d="M576.651 271.003C576.262 271.067 575.868 271.095 575.474 271.088L572.272 271.157C569.567 271.157 565.823 271.226 561.701 271.226H556.884L557.039 271.166C554.935 273.242 553.123 275.009 551.827 276.253L550.341 277.652C550.171 277.837 549.978 277.998 549.766 278.132C549.9 277.921 550.062 277.727 550.247 277.558L551.689 276.03C552.926 274.735 554.703 272.924 556.781 270.822L556.841 270.762H561.744C565.866 270.762 569.61 270.762 572.315 270.822L575.517 270.891C575.898 270.892 576.277 270.929 576.651 271.003V271.003Z" fill="#263238"/>
<path d="M575.724 272.847C576.71 272.847 577.51 272.048 577.51 271.063C577.51 270.077 576.71 269.278 575.724 269.278C574.737 269.278 573.937 270.077 573.937 271.063C573.937 272.048 574.737 272.847 575.724 272.847Z" fill="#263238"/>
<path d="M575.724 326.489C576.71 326.489 577.51 325.69 577.51 324.705C577.51 323.719 576.71 322.92 575.724 322.92C574.737 322.92 573.937 323.719 573.937 324.705C573.937 325.69 574.737 326.489 575.724 326.489Z" fill="#263238"/>
<path d="M574.539 325.022C573.544 325.137 572.543 325.18 571.542 325.151C569.687 325.151 567.128 325.151 564.303 325.151L557.073 325.082L554.875 325.031C554.609 325.049 554.342 325.049 554.077 325.031C555.059 324.83 556.063 324.752 557.065 324.799C558.919 324.748 561.478 324.722 564.303 324.739C567.128 324.756 569.687 324.791 571.542 324.842C572.544 324.823 573.546 324.883 574.539 325.022Z" fill="#263238"/>
<path d="M499.723 364.233H493.867V370.084H499.723V364.233Z" fill="#455A64"/>
<path d="M519.361 364.233H513.505V370.084H519.361V364.233Z" fill="#E0E0E0"/>
<path d="M540.664 364.233H534.808V370.084H540.664V364.233Z" fill="#3F51B5"/>
<path d="M481.871 237.275C481.846 237.857 481.65 238.42 481.308 238.892C480.965 239.364 480.492 239.726 479.946 239.932C479.399 240.137 478.805 240.178 478.235 240.049C477.666 239.92 477.147 239.627 476.744 239.206C476.34 238.785 476.068 238.255 475.963 237.681C475.859 237.107 475.925 236.515 476.153 235.979C476.382 235.442 476.764 234.985 477.251 234.663C477.737 234.341 478.308 234.169 478.892 234.169C479.292 234.176 479.686 234.263 480.052 234.423C480.419 234.584 480.75 234.815 481.027 235.104C481.304 235.392 481.521 235.732 481.666 236.105C481.81 236.477 481.88 236.875 481.871 237.275V237.275Z" fill="white"/>
<path d="M491.952 237.275C491.927 237.857 491.731 238.42 491.388 238.892C491.046 239.364 490.572 239.726 490.026 239.932C489.48 240.137 488.885 240.178 488.316 240.049C487.747 239.92 487.228 239.627 486.824 239.206C486.42 238.785 486.149 238.255 486.044 237.681C485.939 237.107 486.005 236.515 486.234 235.979C486.463 235.442 486.844 234.985 487.331 234.663C487.818 234.341 488.389 234.169 488.972 234.169C489.372 234.176 489.767 234.263 490.133 234.423C490.5 234.584 490.831 234.815 491.107 235.104C491.384 235.392 491.601 235.732 491.746 236.105C491.891 236.477 491.961 236.875 491.952 237.275V237.275Z" fill="white"/>
<path d="M501.947 237.275C501.922 237.858 501.725 238.42 501.383 238.893C501.04 239.366 500.566 239.727 500.019 239.932C499.472 240.138 498.877 240.178 498.308 240.049C497.738 239.919 497.22 239.625 496.816 239.203C496.413 238.781 496.142 238.25 496.038 237.676C495.934 237.101 496.001 236.509 496.232 235.973C496.462 235.436 496.844 234.979 497.332 234.659C497.82 234.338 498.392 234.167 498.976 234.169C499.375 234.177 499.769 234.265 500.134 234.426C500.499 234.587 500.83 234.818 501.105 235.107C501.381 235.395 501.598 235.735 501.742 236.107C501.886 236.479 501.956 236.876 501.947 237.275V237.275Z" fill="white"/>
<path d="M690.304 387.751C690.304 386.249 690.227 324.31 690.124 226.507L690.304 226.687H466.716L466.939 226.464C466.939 284.259 466.939 339.068 466.939 387.708L466.742 387.502L690.347 387.708L466.742 387.905H466.535V387.708C466.535 339.068 466.535 284.259 466.535 226.464V226.241H466.776H690.364H690.544V226.421C690.304 324.31 690.304 386.249 690.304 387.751Z" fill="#263238"/>
<path d="M782.353 332.761H623.079V451.732H782.353V332.761Z" fill="white"/>
<path d="M781.846 332.761H622.572V347.467H781.846V332.761Z" fill="#E0E0E0"/>
<path d="M631.296 342.234C632.468 342.234 633.417 341.285 633.417 340.114C633.417 338.944 632.468 337.995 631.296 337.995C630.125 337.995 629.176 338.944 629.176 340.114C629.176 341.285 630.125 342.234 631.296 342.234Z" fill="white"/>
<path d="M638.441 342.234C639.612 342.234 640.561 341.285 640.561 340.114C640.561 338.944 639.612 337.995 638.441 337.995C637.269 337.995 636.32 338.944 636.32 340.114C636.32 341.285 637.269 342.234 638.441 342.234Z" fill="white"/>
<path d="M645.593 342.234C646.765 342.234 647.714 341.285 647.714 340.114C647.714 338.944 646.765 337.995 645.593 337.995C644.422 337.995 643.472 338.944 643.472 340.114C643.472 341.285 644.422 342.234 645.593 342.234Z" fill="white"/>
<path d="M781.846 451.732C781.846 451.732 781.846 450.985 781.846 449.552C781.846 448.119 781.846 446 781.846 443.229C781.846 437.695 781.846 429.57 781.804 419.205C781.804 398.476 781.743 368.754 781.709 332.77L781.889 332.95L622.632 332.993L622.856 332.77C622.856 375.524 622.856 415.996 622.856 451.74L622.65 451.534L737.617 451.637L770.246 451.689H778.901H781.134H781.898H778.953H770.366L737.737 451.74L622.675 451.843H622.478V451.646C622.478 415.927 622.478 375.43 622.478 332.676V332.564H622.718H781.975H782.156V332.753C782.156 368.789 782.087 398.553 782.061 419.308C782.061 429.664 782.061 437.772 782.061 443.332C782.061 446.086 782.061 448.188 782.061 449.612C782.061 451.037 781.846 451.732 781.846 451.732Z" fill="#263238"/>
<path d="M773.071 404.456C773.071 404.585 741.377 404.679 702.291 404.679C663.204 404.679 631.494 404.585 631.494 404.456C631.494 404.327 663.179 404.233 702.291 404.233C741.403 404.233 773.071 404.336 773.071 404.456Z" fill="#E0E0E0"/>
<path d="M773.071 392.247C773.071 392.367 741.377 392.47 702.291 392.47C663.204 392.47 631.494 392.367 631.494 392.247C631.494 392.126 663.179 392.023 702.291 392.023C741.403 392.023 773.071 392.118 773.071 392.247Z" fill="#E0E0E0"/>
<path d="M773.071 380.029C773.071 380.157 741.377 380.252 702.291 380.252C663.204 380.252 631.494 380.157 631.494 380.029C631.494 379.9 663.179 379.805 702.291 379.805C741.403 379.805 773.071 379.908 773.071 380.029Z" fill="#E0E0E0"/>
<path d="M773.071 367.819C773.071 367.939 741.377 368.042 702.291 368.042C663.204 368.042 631.494 367.939 631.494 367.819C631.494 367.699 663.179 367.596 702.291 367.596C741.403 367.596 773.071 367.691 773.071 367.819Z" fill="#E0E0E0"/>
<path d="M655.253 398.922H643.472V422.594H655.253V398.922Z" fill="#3F51B5"/>
<path d="M697.534 398.922H685.753V422.594H697.534V398.922Z" fill="#455A64"/>
<path d="M761.659 406.987H749.878V422.585H761.659V406.987Z" fill="#455A64"/>
<path d="M739.806 387.708H728.025V422.585H739.806V387.708Z" fill="#E0E0E0"/>
<path d="M718.194 374.134H706.413V422.594H718.194V374.134Z" fill="#3F51B5"/>
<path d="M675.552 387.708H663.771V422.585H675.552V387.708Z" fill="#E0E0E0"/>
<path d="M771.388 422.594H770.856H769.31H763.368L741.498 422.663L669.37 422.731H631.314H631.056V422.525C631.056 403.778 631.125 387.794 631.142 376.485C631.142 370.848 631.185 366.378 631.202 363.298C631.202 361.779 631.202 360.603 631.202 359.788C631.202 359.402 631.202 359.111 631.202 358.887C631.195 358.785 631.195 358.681 631.202 358.579C631.202 358.579 631.202 358.69 631.202 358.887V359.788C631.202 360.603 631.202 361.779 631.202 363.298C631.202 366.378 631.202 370.848 631.262 376.485C631.262 387.794 631.314 403.778 631.348 422.525L631.142 422.311H669.353L741.481 422.371L763.351 422.44L769.293 422.482H770.838L771.388 422.594Z" fill="#263238"/>
<path d="M661.23 434.597H656.052V439.771H661.23V434.597Z" fill="#3F51B5"/>
<path d="M692.863 434.434H687.685V439.608H692.863V434.434Z" fill="#E0E0E0"/>
<path d="M727.081 434.597H721.903V439.771H727.081V434.597Z" fill="#455A64"/>
<path d="M678.369 437.017C676.026 437.243 673.671 437.317 671.319 437.24C668.967 437.317 666.612 437.243 664.269 437.017C666.612 436.796 668.967 436.722 671.319 436.794C673.671 436.722 676.026 436.796 678.369 437.017V437.017Z" fill="#263238"/>
<path d="M709.761 437.017C707.419 437.243 705.064 437.317 702.712 437.24C700.36 437.317 698.005 437.243 695.662 437.017C698.005 436.796 700.36 436.722 702.712 436.794C705.064 436.722 707.418 436.796 709.761 437.017V437.017Z" fill="#263238"/>
<path d="M743.181 437.017C738.488 437.314 733.782 437.314 729.09 437.017C733.782 436.72 738.488 436.72 743.181 437.017V437.017Z" fill="#263238"/>
<path d="M760.345 295.584H705.314V350.573H760.345V295.584Z" fill="white"/>
<path d="M760.345 350.582C760.345 350.582 760.345 350.488 760.345 350.316C760.345 350.144 760.345 349.878 760.345 349.552C760.345 348.866 760.345 347.879 760.345 346.592C760.345 344.018 760.345 340.209 760.294 335.395C760.294 325.769 760.234 312.049 760.191 295.593L760.388 295.782H705.356L705.58 295.558C705.58 315.696 705.58 334.563 705.58 350.548L705.391 350.359L745.224 350.453L756.43 350.505H759.392H760.182H759.435L756.421 350.582L745.259 350.633L705.305 350.736H705.107V350.582C705.107 334.597 705.107 315.73 705.107 295.593V295.37H705.331H760.363H760.56V295.567C760.56 312.075 760.491 325.837 760.466 335.49C760.466 340.286 760.466 344.07 760.414 346.644C760.414 347.914 760.414 348.892 760.414 349.57C760.414 349.887 760.414 350.136 760.414 350.316C760.397 350.406 760.374 350.495 760.345 350.582V350.582Z" fill="#263238"/>
<path d="M735.959 323.169C737.547 322.469 738.895 321.318 739.835 319.86C740.776 318.402 741.267 316.701 741.249 314.966C741.249 310.067 737.565 306.086 732.963 306.06C728.36 306.035 724.651 309.99 724.651 314.889C724.619 316.639 725.105 318.358 726.05 319.832C726.994 321.305 728.354 322.466 729.957 323.169C717.155 325.091 717.73 338.999 717.73 338.999L748.006 339.136C748.006 339.136 748.693 325.082 735.959 323.169Z" fill="#3F51B5"/>
</g>
<path d="M415.148 197H409.548L386.828 151.24H323.148L300.908 197H295.308L355.148 74.12L415.148 197ZM384.908 146.6L354.828 85.64L325.388 146.6H384.908ZM437.624 89V197H432.984V75.24L521.304 184.84V77H525.944V198.76L437.624 89ZM663.585 197H657.985L635.265 151.24H571.585L549.345 197H543.745L603.585 74.12L663.585 197ZM633.345 146.6L603.265 85.64L573.825 146.6H633.345ZM681.421 77H686.701V192.36H723.821V197H681.421V77ZM793.721 77L758.041 149V197H752.761V149L716.281 77H722.041L755.481 142.76L788.281 77H793.721ZM824.821 81.64H797.141V77H857.461V81.64H830.101V197H824.821V81.64ZM874.253 77H879.533V197H874.253V77ZM961.96 200.2C950.76 200.2 940.467 197.48 931.08 192.04C921.693 186.493 914.227 178.92 908.68 169.32C903.24 159.613 900.52 148.733 900.52 136.68C900.52 125.053 903.347 114.44 909 104.84C914.76 95.24 922.387 87.6667 931.88 82.12C941.48 76.5733 951.667 73.8 962.44 73.8C969.907 73.8 975.827 74.4933 980.2 75.88C984.573 77.16 989.64 79.4533 995.4 82.76V88.68C989.96 84.9467 984.893 82.3333 980.2 80.84C975.613 79.24 969.853 78.44 962.92 78.44C952.36 78.44 942.707 81.16 933.96 86.6C925.32 91.9333 918.44 99.1333 913.32 108.2C908.307 117.16 905.8 126.813 905.8 137.16C905.8 147.613 908.36 157.32 913.48 166.28C918.6 175.24 925.373 182.387 933.8 187.72C942.333 192.947 951.507 195.56 961.32 195.56C968.36 195.56 974.493 194.76 979.72 193.16C984.947 191.453 990.173 188.84 995.4 185.32V191.24C990.28 194.333 985 196.573 979.56 197.96C974.227 199.453 968.36 200.2 961.96 200.2ZM1043.26 199.24C1029.93 199.24 1019.58 193.747 1012.22 182.76V174.12C1015.1 180.52 1019.26 185.533 1024.7 189.16C1030.25 192.787 1036.86 194.6 1044.54 194.6C1049.87 194.6 1054.78 193.427 1059.26 191.08C1063.85 188.733 1067.47 185.427 1070.14 181.16C1072.81 176.893 1074.14 171.987 1074.14 166.44C1074.14 161.427 1073.29 157.107 1071.58 153.48C1069.87 149.853 1067.05 146.387 1063.1 143.08C1059.15 139.667 1053.45 135.667 1045.98 131.08L1040.86 127.88C1036.17 125 1032.38 122.44 1029.5 120.2C1026.62 117.96 1024.11 115.347 1021.98 112.36C1019.21 108.2 1017.82 103.4 1017.82 97.96C1017.82 90.7067 1020.17 85.0533 1024.86 81C1029.55 76.9467 1035.53 74.92 1042.78 74.92C1052.59 74.92 1060.38 78.5467 1066.14 85.8V93.96C1063.69 89.48 1060.33 85.96 1056.06 83.4C1051.79 80.84 1047.1 79.56 1041.98 79.56C1036.65 79.56 1032.17 81.2133 1028.54 84.52C1024.91 87.8267 1023.1 92.2533 1023.1 97.8C1023.1 103.24 1024.75 107.933 1028.06 111.88C1031.47 115.72 1037.18 119.933 1045.18 124.52C1054.99 130.28 1062.62 135.507 1068.06 140.2C1071.9 143.72 1074.67 147.613 1076.38 151.88C1078.19 156.147 1079.1 160.893 1079.1 166.12C1079.1 172.733 1077.55 178.547 1074.46 183.56C1071.37 188.573 1067.1 192.467 1061.66 195.24C1056.22 197.907 1050.09 199.24 1043.26 199.24Z" fill="black" fill-opacity="0.54"/>
</svg>
