<svg width="1500" height="500" viewBox="0 0 1500 500" fill="none" xmlns="http://www.w3.org/2000/svg">
<rect width="1500" height="500" fill="white"/>
<path d="M310.625 281.258C311.992 283.146 313.75 284.676 315.898 285.848C318.047 286.954 320.684 287.508 323.809 287.508C326.999 287.508 329.896 286.759 332.5 285.262C335.104 283.699 337.48 281.681 339.629 279.207C341.777 276.733 343.698 273.966 345.391 270.906C347.083 267.846 348.613 264.786 349.98 261.727C350.306 261.01 350.762 260.49 351.348 260.164C351.934 259.773 352.585 259.578 353.301 259.578C354.408 259.578 355.286 259.969 355.938 260.75C356.654 261.531 357.012 262.378 357.012 263.289C357.012 263.615 356.979 263.908 356.914 264.168C356.849 264.363 356.751 264.591 356.621 264.852C352.129 274.747 347.214 282.202 341.875 287.215C336.602 292.228 330.612 294.799 323.906 294.93C319.609 294.93 315.898 294.083 312.773 292.391C309.648 290.763 307.077 288.647 305.059 286.043C303.04 283.374 301.543 280.379 300.566 277.059C299.59 273.738 299.102 270.418 299.102 267.098C299.102 263.777 299.492 260.717 300.273 257.918C301.12 255.118 302.292 252.677 303.789 250.594C305.352 248.51 307.174 246.883 309.258 245.711C311.406 244.539 313.75 243.953 316.289 243.953C317.786 243.953 319.251 244.279 320.684 244.93C322.181 245.516 323.516 246.395 324.688 247.566C325.859 248.673 326.803 250.04 327.52 251.668C328.236 253.296 328.594 255.151 328.594 257.234C328.594 259.904 328.138 262.41 327.227 264.754C326.315 267.098 325.046 269.279 323.418 271.297C321.855 273.315 319.967 275.171 317.754 276.863C315.54 278.556 313.164 280.021 310.625 281.258ZM307.695 274.91C309.714 274.064 311.536 272.99 313.164 271.688C314.857 270.385 316.289 268.953 317.461 267.391C318.633 265.828 319.544 264.201 320.195 262.508C320.846 260.75 321.172 258.992 321.172 257.234C321.172 255.281 320.684 253.816 319.707 252.84C318.73 251.798 317.591 251.277 316.289 251.277C314.531 251.277 313.034 251.766 311.797 252.742C310.56 253.719 309.551 254.988 308.77 256.551C307.988 258.113 307.402 259.871 307.012 261.824C306.686 263.712 306.523 265.6 306.523 267.488C306.523 268.66 306.621 269.897 306.816 271.199C307.077 272.501 307.37 273.738 307.695 274.91ZM408.281 236.727C398.255 249.096 389.108 262.117 380.84 275.789C383.118 279.174 385.625 281.974 388.359 284.188C391.094 286.401 394.186 287.508 397.637 287.508C400.697 287.508 403.594 286.629 406.328 284.871C409.062 283.113 411.536 280.965 413.75 278.426C416.029 275.822 417.982 273.055 419.609 270.125C421.302 267.13 422.604 264.428 423.516 262.02C424.167 260.392 425.306 259.578 426.934 259.578C428.04 259.578 428.919 259.969 429.57 260.75C430.286 261.466 430.645 262.312 430.645 263.289C430.645 263.615 430.579 264.038 430.449 264.559C430.514 264.428 430.221 265.079 429.57 266.512C428.919 267.944 427.943 269.799 426.641 272.078C425.339 274.292 423.743 276.733 421.855 279.402C419.967 282.072 417.786 284.578 415.312 286.922C412.904 289.201 410.202 291.089 407.207 292.586C404.212 294.148 400.99 294.93 397.539 294.93C393.242 294.93 389.368 293.79 385.918 291.512C382.533 289.233 379.473 286.336 376.738 282.82C375.632 284.773 374.557 286.727 373.516 288.68C372.474 290.633 371.432 292.586 370.391 294.539C369.674 295.906 368.568 296.59 367.07 296.59C365.964 296.59 365.052 296.199 364.336 295.418C363.685 294.637 363.359 293.79 363.359 292.879C363.359 292.358 363.522 291.772 363.848 291.121C365.15 288.582 366.484 286.043 367.852 283.504C369.219 280.965 370.651 278.458 372.148 275.984C369.935 272.143 368.047 268.237 366.484 264.266C364.922 260.229 363.685 256.453 362.773 252.938L357.012 264.852C356.296 266.284 355.189 267 353.691 267C352.585 267 351.673 266.609 350.957 265.828C350.306 265.047 349.98 264.201 349.98 263.289C349.98 262.703 350.111 262.182 350.371 261.727L361.016 239.461C361.341 238.875 361.797 238.387 362.383 237.996C362.969 237.605 363.62 237.41 364.336 237.41C365.378 237.41 366.224 237.768 366.875 238.484C367.526 239.135 367.917 239.949 368.047 240.926C368.112 241.837 368.34 243.27 368.73 245.223C369.186 247.176 369.772 249.422 370.488 251.961C371.27 254.435 372.148 257.104 373.125 259.969C374.167 262.833 375.371 265.665 376.738 268.465C384.551 255.77 393.177 243.628 402.617 232.039C403.268 231.193 404.212 230.77 405.449 230.77C406.491 230.77 407.37 231.128 408.086 231.844C408.802 232.56 409.16 233.406 409.16 234.383C409.16 235.294 408.867 236.076 408.281 236.727ZM499.199 264.754C498.939 265.275 498.385 266.382 497.539 268.074C496.758 269.702 495.716 271.59 494.414 273.738C493.177 275.887 491.712 278.133 490.02 280.477C488.327 282.82 486.439 284.969 484.355 286.922C482.272 288.875 480.026 290.503 477.617 291.805C475.208 293.042 472.669 293.66 470 293.66C466.224 293.66 463.034 292.456 460.43 290.047C457.891 287.638 456.035 284.611 454.863 280.965C452.65 284.676 450.013 287.638 446.953 289.852C443.893 292 440.833 293.074 437.773 293.074C435.365 293.074 433.184 292.651 431.23 291.805C429.277 290.893 427.617 289.656 426.25 288.094C424.883 286.466 423.809 284.578 423.027 282.43C422.311 280.281 421.953 277.938 421.953 275.398C421.953 270.32 422.799 265.861 424.492 262.02C426.25 258.113 428.464 254.858 431.133 252.254C433.802 249.65 436.732 247.697 439.922 246.395C443.177 245.092 446.302 244.441 449.297 244.441C451.315 244.441 453.171 244.734 454.863 245.32C456.556 245.841 457.988 246.427 459.16 247.078C460.397 247.729 461.341 248.348 461.992 248.934C462.643 249.454 463.001 249.747 463.066 249.812C463.783 250.659 464.141 251.538 464.141 252.449C464.141 253.426 463.783 254.305 463.066 255.086C462.35 255.802 461.504 256.16 460.527 256.16C459.486 256.16 458.607 255.802 457.891 255.086C457.76 254.956 457.467 254.728 457.012 254.402C456.556 254.012 455.938 253.621 455.156 253.23C454.375 252.84 453.431 252.514 452.324 252.254C451.283 251.928 450.078 251.766 448.711 251.766C446.693 251.766 444.544 252.221 442.266 253.133C439.987 254.044 437.904 255.477 436.016 257.43C434.128 259.318 432.533 261.727 431.23 264.656C429.993 267.521 429.375 270.939 429.375 274.91C429.375 276.147 429.505 277.417 429.766 278.719C430.026 279.956 430.482 281.095 431.133 282.137C431.784 283.178 432.663 284.025 433.77 284.676C434.876 285.327 436.243 285.652 437.871 285.652C439.043 285.652 440.378 285.262 441.875 284.48C443.438 283.699 444.902 282.495 446.27 280.867C447.702 279.24 448.971 277.189 450.078 274.715C451.25 272.241 452.064 269.311 452.52 265.926C452.65 265.014 453.073 264.266 453.789 263.68C454.505 263.029 455.352 262.703 456.328 262.703C457.24 262.703 458.021 263.061 458.672 263.777C459.388 264.493 459.779 265.307 459.844 266.219C459.909 267.456 460.039 269.214 460.234 271.492C460.43 273.706 460.853 275.919 461.504 278.133C462.22 280.346 463.262 282.267 464.629 283.895C465.996 285.522 467.884 286.336 470.293 286.336C471.855 286.336 473.385 285.913 474.883 285.066C476.445 284.22 477.943 283.113 479.375 281.746C480.872 280.314 482.272 278.719 483.574 276.961C484.941 275.138 486.178 273.315 487.285 271.492C488.392 269.669 489.368 267.911 490.215 266.219C491.061 264.526 491.777 263.061 492.363 261.824C492.689 261.108 493.145 260.555 493.73 260.164C494.382 259.773 495.065 259.578 495.781 259.578C496.888 259.578 497.767 260.001 498.418 260.848C499.134 261.629 499.492 262.475 499.492 263.387C499.492 263.842 499.395 264.298 499.199 264.754ZM515.02 283.309C515.996 281.355 517.233 278.947 518.73 276.082C520.293 273.152 521.888 270.223 523.516 267.293C525.208 264.363 526.836 261.596 528.398 258.992C530.026 256.388 531.393 254.402 532.5 253.035C534.388 250.757 536.341 249.129 538.359 248.152C540.378 247.176 542.233 246.688 543.926 246.688C545.618 246.688 547.051 247.046 548.223 247.762C549.46 248.478 550.469 249.454 551.25 250.691C552.031 251.863 552.617 253.263 553.008 254.891C553.398 256.453 553.594 258.146 553.594 259.969C553.594 261.01 553.529 262.378 553.398 264.07C553.333 265.763 553.236 267.586 553.105 269.539C553.04 271.492 552.943 273.51 552.812 275.594C552.747 277.677 552.682 279.63 552.617 281.453C553.594 279.5 554.701 277.352 555.938 275.008C557.174 272.599 558.411 270.223 559.648 267.879C560.951 265.535 562.188 263.354 563.359 261.336C564.531 259.253 565.605 257.56 566.582 256.258C569.382 252.417 571.986 249.845 574.395 248.543C576.868 247.241 579.049 246.59 580.938 246.59C583.151 246.59 584.974 247.013 586.406 247.859C587.839 248.641 588.945 249.682 589.727 250.984C590.573 252.221 591.159 253.621 591.484 255.184C591.81 256.746 591.973 258.243 591.973 259.676C591.973 261.889 591.81 264.201 591.484 266.609C591.159 269.018 590.996 271.883 590.996 275.203C590.996 276.57 591.061 277.938 591.191 279.305C591.322 280.672 591.582 281.876 591.973 282.918C592.428 283.96 593.112 284.806 594.023 285.457C594.935 286.108 596.172 286.434 597.734 286.434C599.427 286.434 601.087 286.01 602.715 285.164C604.342 284.253 605.905 283.081 607.402 281.648C608.9 280.216 610.299 278.589 611.602 276.766C612.969 274.943 614.206 273.12 615.312 271.297C616.419 269.474 617.396 267.749 618.242 266.121C619.089 264.428 619.772 262.996 620.293 261.824C620.618 261.108 621.074 260.555 621.66 260.164C622.246 259.773 622.897 259.578 623.613 259.578C624.72 259.578 625.599 260.001 626.25 260.848C626.966 261.629 627.324 262.475 627.324 263.387C627.324 263.842 627.227 264.298 627.031 264.754C626.771 265.275 626.25 266.382 625.469 268.074C624.688 269.702 623.646 271.59 622.344 273.738C621.042 275.822 619.512 278.035 617.754 280.379C616.061 282.723 614.173 284.904 612.09 286.922C610.007 288.875 607.76 290.503 605.352 291.805C602.943 293.042 600.404 293.66 597.734 293.66C594.87 293.66 592.526 293.139 590.703 292.098C588.945 291.121 587.513 289.786 586.406 288.094C585.365 286.401 584.648 284.448 584.258 282.234C583.867 280.021 583.672 277.71 583.672 275.301C583.672 272.111 583.835 269.181 584.16 266.512C584.486 263.777 584.648 261.661 584.648 260.164C584.648 258.536 584.486 257.299 584.16 256.453C583.9 255.607 583.542 255.021 583.086 254.695C582.695 254.305 582.305 254.109 581.914 254.109C581.523 254.044 581.23 254.012 581.035 254.012C579.473 254.012 577.812 254.891 576.055 256.648C574.362 258.341 572.604 260.62 570.781 263.484C568.958 266.349 567.07 269.604 565.117 273.25C563.229 276.896 561.309 280.607 559.355 284.383C558.249 286.466 557.305 288.191 556.523 289.559C555.807 290.926 555.091 292 554.375 292.781C553.724 293.562 553.073 294.116 552.422 294.441C551.771 294.767 551.055 294.93 550.273 294.93C548.581 294.93 547.279 294.344 546.367 293.172C545.521 292 545.098 290.47 545.098 288.582C545.098 287.605 545.13 286.303 545.195 284.676C545.26 283.048 545.326 281.258 545.391 279.305C545.456 277.352 545.553 275.333 545.684 273.25C545.814 271.167 545.911 269.181 545.977 267.293C546.042 265.34 546.107 263.615 546.172 262.117C546.237 260.62 546.27 259.48 546.27 258.699C546.27 257.007 545.977 255.802 545.391 255.086C544.805 254.305 544.121 253.914 543.34 253.914C542.624 253.914 541.81 254.174 540.898 254.695C540.052 255.216 539.043 256.225 537.871 257.723C536.96 258.895 535.788 260.62 534.355 262.898C532.988 265.112 531.523 267.586 529.961 270.32C528.398 273.055 526.836 275.854 525.273 278.719C523.776 281.583 522.474 284.155 521.367 286.434C520 289.168 518.633 291.023 517.266 292C515.898 293.042 514.564 293.562 513.262 293.562C511.374 293.562 509.974 293.009 509.062 291.902C508.151 290.73 507.695 289.201 507.695 287.312C507.695 287.117 507.728 285.945 507.793 283.797C507.923 281.648 508.053 279.044 508.184 275.984C508.314 272.859 508.444 269.539 508.574 266.023C508.77 262.508 508.932 259.22 509.062 256.16C509.128 254.533 509.062 253.035 508.867 251.668C508.672 250.301 508.411 249.487 508.086 249.227C507.565 249.357 506.523 250.561 504.961 252.84C503.464 255.118 501.543 259.09 499.199 264.754C498.874 265.47 498.385 266.023 497.734 266.414C497.083 266.805 496.4 267 495.684 267C494.577 267 493.698 266.642 493.047 265.926C492.396 265.145 492.07 264.266 492.07 263.289C492.07 262.833 492.168 262.345 492.363 261.824C495.293 254.858 498.092 249.747 500.762 246.492C503.431 243.172 506.035 241.512 508.574 241.512C510.072 241.512 511.309 241.87 512.285 242.586C513.327 243.237 514.141 244.116 514.727 245.223C515.312 246.264 515.736 247.469 515.996 248.836C516.257 250.203 516.387 251.538 516.387 252.84C516.387 258.634 516.224 263.94 515.898 268.758C515.638 273.576 515.345 278.426 515.02 283.309ZM714.434 264.754C714.434 270.743 713.359 275.854 711.211 280.086C709.062 284.318 706.426 287.54 703.301 289.754H703.691C707.533 289.754 711.016 288.908 714.141 287.215C717.331 285.457 720.195 283.243 722.734 280.574C725.273 277.84 727.552 274.812 729.57 271.492C731.589 268.172 733.379 264.949 734.941 261.824C735.267 261.108 735.723 260.555 736.309 260.164C736.96 259.773 737.643 259.578 738.359 259.578C739.466 259.578 740.345 259.969 740.996 260.75C741.647 261.531 741.973 262.378 741.973 263.289C741.973 263.81 741.875 264.298 741.68 264.754C739.987 268.53 737.969 272.339 735.625 276.18C733.281 279.956 730.547 283.374 727.422 286.434C724.297 289.493 720.781 291.967 716.875 293.855C712.969 295.809 708.639 296.785 703.887 296.785C700.436 296.785 697.083 296.232 693.828 295.125C690.573 294.083 687.708 292.423 685.234 290.145C684.323 289.428 683.542 288.68 682.891 287.898C682.24 287.052 681.719 286.271 681.328 285.555C681.198 285.424 681.133 285.294 681.133 285.164C680.742 284.578 680.547 283.96 680.547 283.309C680.547 282.462 680.84 281.681 681.426 280.965C681.491 280.835 681.556 280.77 681.621 280.77C681.686 280.704 681.751 280.639 681.816 280.574C682.467 279.988 683.184 279.663 683.965 279.598H684.258C684.583 279.598 684.811 279.63 684.941 279.695C685.007 279.695 685.039 279.728 685.039 279.793C685.104 279.793 685.169 279.793 685.234 279.793C685.43 279.793 685.658 279.858 685.918 279.988C685.983 280.053 686.048 280.086 686.113 280.086C686.699 280.477 687.188 280.965 687.578 281.551C688.034 282.332 688.555 283.048 689.141 283.699C689.661 284.22 690.28 284.708 690.996 285.164C691.712 285.555 692.526 285.75 693.438 285.75C695.065 285.75 696.693 285.262 698.32 284.285C699.948 283.309 701.413 281.909 702.715 280.086C704.017 278.263 705.059 276.049 705.84 273.445C706.686 270.841 707.109 267.944 707.109 264.754C707.109 262.41 706.849 260.424 706.328 258.797C705.872 257.104 705.254 255.737 704.473 254.695C703.757 253.654 702.975 252.905 702.129 252.449C701.283 251.928 700.469 251.668 699.688 251.668C697.93 251.668 696.139 252.579 694.316 254.402C692.559 256.225 690.801 258.536 689.043 261.336C687.285 264.135 685.527 267.228 683.77 270.613C682.077 273.999 680.352 277.286 678.594 280.477C678.464 291.023 678.268 301.082 678.008 310.652C677.812 320.223 677.422 329.109 676.836 337.312C676.315 345.516 675.566 352.938 674.59 359.578C673.613 366.219 672.279 371.883 670.586 376.57C668.893 381.323 666.81 384.969 664.336 387.508C661.862 390.047 658.835 391.316 655.254 391.316C654.147 391.316 652.878 391.089 651.445 390.633C650.013 390.177 648.678 389.233 647.441 387.801C646.204 386.434 645.163 384.448 644.316 381.844C643.47 379.24 643.047 375.757 643.047 371.395C643.047 365.861 643.73 359.448 645.098 352.156C646.465 344.865 648.418 337.117 650.957 328.914C653.431 320.776 656.393 312.41 659.844 303.816C663.294 295.223 667.103 286.857 671.27 278.719C671.27 276.44 671.27 274.194 671.27 271.98C671.335 269.767 671.367 267.618 671.367 265.535C670.521 266.512 669.512 267 668.34 267C667.233 267 666.354 266.609 665.703 265.828C665.052 265.047 664.727 264.201 664.727 263.289C664.727 262.833 664.824 262.345 665.02 261.824C666.582 258.243 667.786 254.858 668.633 251.668C669.479 248.413 670.098 245.581 670.488 243.172C670.944 240.698 671.204 238.745 671.27 237.312C671.335 235.88 671.367 235.132 671.367 235.066C671.367 234.09 671.725 233.243 672.441 232.527C673.158 231.811 674.036 231.453 675.078 231.453C676.055 231.453 676.901 231.811 677.617 232.527C678.333 233.178 678.691 234.025 678.691 235.066V265.047C680.189 262.508 681.686 260.001 683.184 257.527C684.681 255.053 686.243 252.84 687.871 250.887C689.564 248.934 691.354 247.371 693.242 246.199C695.195 244.962 697.344 244.344 699.688 244.344C701.901 244.344 703.919 244.865 705.742 245.906C707.565 246.948 709.128 248.38 710.43 250.203C711.732 252.026 712.708 254.207 713.359 256.746C714.076 259.22 714.434 261.889 714.434 264.754ZM671.074 296.102C667.884 303.263 664.987 310.457 662.383 317.684C659.844 324.91 657.695 331.876 655.938 338.582C654.115 345.288 652.715 351.57 651.738 357.43C650.762 363.289 650.273 368.432 650.273 372.859C650.273 373.966 650.339 375.171 650.469 376.473C650.599 377.775 650.859 378.979 651.25 380.086C651.641 381.193 652.194 382.104 652.91 382.82C653.626 383.602 654.57 383.992 655.742 383.992C657.891 383.992 659.746 382.625 661.309 379.891C662.871 377.221 664.173 373.576 665.215 368.953C666.322 364.396 667.233 359.122 667.949 353.133C668.665 347.208 669.219 340.991 669.609 334.48C670.065 327.97 670.391 321.395 670.586 314.754C670.781 308.178 670.944 301.961 671.074 296.102ZM780.059 281.258C778.431 281.258 776.999 281.128 775.762 280.867C774.785 282.82 773.613 284.643 772.246 286.336C770.879 287.964 769.284 289.396 767.461 290.633C765.703 291.87 763.717 292.846 761.504 293.562C759.29 294.279 756.882 294.637 754.277 294.637C751.217 294.637 748.418 294.083 745.879 292.977C743.34 291.935 741.126 290.47 739.238 288.582C737.35 286.629 735.885 284.318 734.844 281.648C733.802 278.914 733.281 275.919 733.281 272.664C733.281 268.497 734.03 264.884 735.527 261.824C737.025 258.699 738.75 256.128 740.703 254.109C742.656 252.026 744.609 250.496 746.562 249.52C748.516 248.478 749.98 247.957 750.957 247.957C752.064 247.957 752.878 248.25 753.398 248.836C753.984 249.422 754.277 250.203 754.277 251.18C754.277 252.286 753.919 253.133 753.203 253.719C752.552 254.24 751.706 254.76 750.664 255.281C749.622 255.802 748.516 256.551 747.344 257.527C746.172 258.439 745.065 259.611 744.023 261.043C743.047 262.475 742.233 264.168 741.582 266.121C740.931 268.074 740.605 270.255 740.605 272.664C740.605 274.812 740.931 276.831 741.582 278.719C742.233 280.542 743.177 282.137 744.414 283.504C745.651 284.806 747.116 285.848 748.809 286.629C750.501 287.345 752.389 287.703 754.473 287.703C758.184 287.703 761.243 286.857 763.652 285.164C766.126 283.406 768.014 281.193 769.316 278.523C765.475 276.505 762.318 273.641 759.844 269.93C757.37 266.219 756.133 262.052 756.133 257.43C756.133 253.719 757.012 250.691 758.77 248.348C760.592 246.004 762.969 244.832 765.898 244.832C767.656 244.832 769.316 245.255 770.879 246.102C772.441 246.948 773.809 248.283 774.98 250.105C776.217 251.928 777.194 254.272 777.91 257.137C778.626 260.001 778.984 263.419 778.984 267.391C778.984 269.474 778.724 271.655 778.203 273.934C778.594 273.999 778.984 274.031 779.375 274.031C779.766 274.031 780.189 274.031 780.645 274.031C782.858 274.031 784.844 273.771 786.602 273.25C788.359 272.729 789.954 271.948 791.387 270.906C792.819 269.865 794.089 268.53 795.195 266.902C796.367 265.275 797.474 263.387 798.516 261.238C798.711 260.848 799.134 260.49 799.785 260.164C800.436 259.773 801.087 259.578 801.738 259.578C802.585 259.578 803.366 259.936 804.082 260.652C804.863 261.303 805.254 262.182 805.254 263.289C805.254 263.81 805.124 264.396 804.863 265.047C804.603 265.633 804.342 266.186 804.082 266.707C802.975 268.66 801.673 270.548 800.176 272.371C798.743 274.129 797.018 275.691 795 277.059C793.047 278.361 790.833 279.402 788.359 280.184C785.885 280.965 783.118 281.323 780.059 281.258ZM763.359 256.648C763.359 257.885 763.522 259.188 763.848 260.555C764.173 261.922 764.661 263.289 765.312 264.656C766.029 265.958 766.875 267.228 767.852 268.465C768.893 269.637 770.098 270.646 771.465 271.492C771.66 270.125 771.758 268.79 771.758 267.488C771.758 265.73 771.628 263.94 771.367 262.117C771.107 260.294 770.716 258.634 770.195 257.137C769.74 255.574 769.154 254.337 768.438 253.426C767.721 252.449 766.875 251.961 765.898 251.961C765.508 251.961 764.987 252.254 764.336 252.84C763.685 253.426 763.359 254.695 763.359 256.648ZM808.574 251.863C808.314 253.621 807.988 255.281 807.598 256.844C807.207 258.341 806.816 259.676 806.426 260.848C806.1 261.954 805.807 262.866 805.547 263.582C805.286 264.298 805.124 264.689 805.059 264.754C804.408 266.251 803.268 267 801.641 267C800.729 267 799.883 266.674 799.102 266.023C798.32 265.307 797.93 264.428 797.93 263.387C797.93 262.996 797.995 262.703 798.125 262.508C798.255 262.312 798.451 261.922 798.711 261.336C798.971 260.75 799.297 259.773 799.688 258.406C800.078 257.039 800.566 254.923 801.152 252.059C800.046 252.059 798.906 252.026 797.734 251.961C796.562 251.896 795.488 251.668 794.512 251.277C793.47 250.887 792.624 250.268 791.973 249.422C791.322 248.576 790.996 247.404 790.996 245.906C790.996 244.799 791.322 243.302 791.973 241.414C792.559 239.526 793.372 237.671 794.414 235.848C795.456 234.025 796.628 232.462 797.93 231.16C799.232 229.793 800.534 229.109 801.836 229.109C803.333 229.109 804.538 229.663 805.449 230.77C806.426 231.876 807.174 233.243 807.695 234.871C808.216 236.434 808.574 238.094 808.77 239.852C809.03 241.609 809.16 243.139 809.16 244.441C810.267 244.441 811.341 244.441 812.383 244.441C813.49 244.376 814.531 244.344 815.508 244.344C819.219 244.344 822.051 245.158 824.004 246.785C825.957 248.413 826.934 251.082 826.934 254.793C826.934 256.29 826.836 257.853 826.641 259.48C826.445 261.108 826.217 262.801 825.957 264.559C825.697 266.251 825.469 267.944 825.273 269.637C825.078 271.329 824.98 272.99 824.98 274.617C824.98 276.961 825.306 278.914 825.957 280.477C826.608 281.974 827.422 283.178 828.398 284.09C829.375 285.001 830.417 285.652 831.523 286.043C832.63 286.368 833.639 286.531 834.551 286.531C837.35 286.531 839.987 285.62 842.461 283.797C844.935 281.974 847.214 279.793 849.297 277.254C851.38 274.65 853.236 271.915 854.863 269.051C856.556 266.186 857.956 263.68 859.062 261.531C859.388 260.945 859.844 260.49 860.43 260.164C861.016 259.839 861.634 259.676 862.285 259.676C863.457 259.676 864.368 260.066 865.02 260.848C865.671 261.564 865.996 262.378 865.996 263.289C865.996 263.94 865.866 264.526 865.605 265.047C864.108 267.716 862.35 270.743 860.332 274.129C858.379 277.449 856.133 280.574 853.594 283.504C851.055 286.434 848.19 288.908 845 290.926C841.875 292.944 838.424 293.953 834.648 293.953C832.305 293.953 830.091 293.497 828.008 292.586C825.924 291.74 824.102 290.503 822.539 288.875C821.042 287.182 819.837 285.132 818.926 282.723C818.014 280.249 817.559 277.482 817.559 274.422C817.559 271.167 817.884 267.944 818.535 264.754C819.186 261.499 819.512 258.406 819.512 255.477C819.512 254.24 819.219 253.328 818.633 252.742C818.112 252.091 816.908 251.766 815.02 251.766C814.108 251.766 813.099 251.766 811.992 251.766C810.951 251.766 809.811 251.798 808.574 251.863ZM802.031 244.637C802.031 244.181 801.999 243.595 801.934 242.879C801.934 242.098 801.868 241.349 801.738 240.633C801.673 239.917 801.543 239.298 801.348 238.777C801.217 238.257 801.055 237.996 800.859 237.996C800.664 237.996 800.404 238.257 800.078 238.777C799.818 239.233 799.525 239.819 799.199 240.535C798.874 241.186 798.581 241.902 798.32 242.684C798.06 243.465 797.865 244.116 797.734 244.637H802.031ZM938.164 194.246C938.164 195.288 937.806 196.134 937.09 196.785C936.374 197.371 935.495 197.664 934.453 197.664H884.941V198.738C884.941 202.71 884.648 206.941 884.062 211.434C883.477 215.926 882.663 220.418 881.621 224.91C880.645 229.337 879.505 233.667 878.203 237.898C876.966 242.13 875.664 246.036 874.297 249.617C872.995 253.198 871.693 256.323 870.391 258.992C869.089 261.596 867.917 263.549 866.875 264.852C867.721 267.846 868.73 270.646 869.902 273.25C871.074 275.789 872.376 278.035 873.809 279.988C875.306 281.876 876.901 283.374 878.594 284.48C880.286 285.587 882.109 286.141 884.062 286.141C886.341 286.141 888.587 285.197 890.801 283.309C893.079 281.355 895.163 279.077 897.051 276.473C899.004 273.803 900.697 271.134 902.129 268.465C903.626 265.73 904.701 263.549 905.352 261.922C906.003 260.359 907.142 259.578 908.77 259.578C909.876 259.578 910.755 259.969 911.406 260.75C912.122 261.531 912.48 262.378 912.48 263.289C912.48 263.745 912.383 264.201 912.188 264.656C911.992 265.112 911.504 266.154 910.723 267.781C910.007 269.409 909.03 271.297 907.793 273.445C906.621 275.594 905.221 277.872 903.594 280.281C902.031 282.625 900.241 284.773 898.223 286.727C896.27 288.68 894.154 290.307 891.875 291.609C889.596 292.911 887.188 293.562 884.648 293.562C880.156 293.562 876.12 292.098 872.539 289.168C868.958 286.238 865.898 282.137 863.359 276.863C860.885 271.59 858.997 265.34 857.695 258.113C856.393 250.887 855.742 242.977 855.742 234.383C855.742 232.234 855.775 229.728 855.84 226.863C855.905 223.934 856.035 220.874 856.23 217.684C856.426 214.428 856.719 211.108 857.109 207.723C857.5 204.272 858.021 200.919 858.672 197.664H823.613C822.572 197.664 821.693 197.371 820.977 196.785C820.26 196.134 819.902 195.288 819.902 194.246C819.902 193.204 820.26 192.391 820.977 191.805C821.693 191.154 822.572 190.828 823.613 190.828H860.332C860.983 188.484 861.732 186.336 862.578 184.383C863.49 182.43 864.499 180.737 865.605 179.305C866.777 177.872 868.047 176.766 869.414 175.984C870.846 175.138 872.409 174.715 874.102 174.715C875.729 174.715 877.129 175.138 878.301 175.984C879.538 176.766 880.579 177.872 881.426 179.305C882.272 180.737 882.923 182.43 883.379 184.383C883.9 186.336 884.29 188.484 884.551 190.828H934.453C935.495 190.828 936.374 191.154 937.09 191.805C937.806 192.391 938.164 193.204 938.164 194.246ZM864.629 255.086C866.582 250.789 868.34 246.167 869.902 241.219C871.53 236.206 872.897 231.16 874.004 226.082C875.176 221.004 876.055 216.023 876.641 211.141C877.292 206.258 877.617 201.766 877.617 197.664H866.094C865.182 201.701 864.434 206.714 863.848 212.703C863.327 218.628 863.066 225.854 863.066 234.383C863.066 239.135 863.197 243.139 863.457 246.395C863.717 249.585 864.108 252.482 864.629 255.086ZM873.711 182.039C873.125 182.039 872.279 182.69 871.172 183.992C870.065 185.229 868.958 187.508 867.852 190.828H877.227C876.901 188.094 876.413 185.945 875.762 184.383C875.176 182.82 874.492 182.039 873.711 182.039ZM866.191 262.117V262.215V262.117ZM981.23 264.754C980.97 265.275 980.417 266.382 979.57 268.074C978.789 269.702 977.747 271.59 976.445 273.738C975.208 275.887 973.743 278.133 972.051 280.477C970.358 282.82 968.47 284.969 966.387 286.922C964.303 288.875 962.057 290.503 959.648 291.805C957.24 293.042 954.701 293.66 952.031 293.66C948.255 293.66 945.065 292.456 942.461 290.047C939.922 287.638 938.066 284.611 936.895 280.965C934.681 284.676 932.044 287.638 928.984 289.852C925.924 292 922.865 293.074 919.805 293.074C917.396 293.074 915.215 292.651 913.262 291.805C911.309 290.893 909.648 289.656 908.281 288.094C906.914 286.466 905.84 284.578 905.059 282.43C904.342 280.281 903.984 277.938 903.984 275.398C903.984 270.32 904.831 265.861 906.523 262.02C908.281 258.113 910.495 254.858 913.164 252.254C915.833 249.65 918.763 247.697 921.953 246.395C925.208 245.092 928.333 244.441 931.328 244.441C933.346 244.441 935.202 244.734 936.895 245.32C938.587 245.841 940.02 246.427 941.191 247.078C942.428 247.729 943.372 248.348 944.023 248.934C944.674 249.454 945.033 249.747 945.098 249.812C945.814 250.659 946.172 251.538 946.172 252.449C946.172 253.426 945.814 254.305 945.098 255.086C944.382 255.802 943.535 256.16 942.559 256.16C941.517 256.16 940.638 255.802 939.922 255.086C939.792 254.956 939.499 254.728 939.043 254.402C938.587 254.012 937.969 253.621 937.188 253.23C936.406 252.84 935.462 252.514 934.355 252.254C933.314 251.928 932.109 251.766 930.742 251.766C928.724 251.766 926.576 252.221 924.297 253.133C922.018 254.044 919.935 255.477 918.047 257.43C916.159 259.318 914.564 261.727 913.262 264.656C912.025 267.521 911.406 270.939 911.406 274.91C911.406 276.147 911.536 277.417 911.797 278.719C912.057 279.956 912.513 281.095 913.164 282.137C913.815 283.178 914.694 284.025 915.801 284.676C916.908 285.327 918.275 285.652 919.902 285.652C921.074 285.652 922.409 285.262 923.906 284.48C925.469 283.699 926.934 282.495 928.301 280.867C929.733 279.24 931.003 277.189 932.109 274.715C933.281 272.241 934.095 269.311 934.551 265.926C934.681 265.014 935.104 264.266 935.82 263.68C936.536 263.029 937.383 262.703 938.359 262.703C939.271 262.703 940.052 263.061 940.703 263.777C941.419 264.493 941.81 265.307 941.875 266.219C941.94 267.456 942.07 269.214 942.266 271.492C942.461 273.706 942.884 275.919 943.535 278.133C944.251 280.346 945.293 282.267 946.66 283.895C948.027 285.522 949.915 286.336 952.324 286.336C953.887 286.336 955.417 285.913 956.914 285.066C958.477 284.22 959.974 283.113 961.406 281.746C962.904 280.314 964.303 278.719 965.605 276.961C966.973 275.138 968.21 273.315 969.316 271.492C970.423 269.669 971.4 267.911 972.246 266.219C973.092 264.526 973.809 263.061 974.395 261.824C974.72 261.108 975.176 260.555 975.762 260.164C976.413 259.773 977.096 259.578 977.812 259.578C978.919 259.578 979.798 260.001 980.449 260.848C981.165 261.629 981.523 262.475 981.523 263.387C981.523 263.842 981.426 264.298 981.23 264.754ZM1030.06 264.949C1029.34 266.447 1028.43 268.237 1027.32 270.32C1026.28 272.339 1025.08 274.454 1023.71 276.668C1022.34 278.882 1020.81 281.095 1019.12 283.309C1017.43 285.457 1015.57 287.41 1013.55 289.168C1011.6 290.861 1009.49 292.228 1007.21 293.27C1004.99 294.376 1002.62 294.93 1000.08 294.93C996.172 294.93 992.819 293.725 990.02 291.316C987.22 288.908 984.844 285.75 982.891 281.844C980.938 277.938 979.342 273.51 978.105 268.562C976.934 263.549 976.022 258.471 975.371 253.328C974.72 248.12 974.264 243.074 974.004 238.191C973.809 233.309 973.711 228.979 973.711 225.203C973.711 219.734 973.874 214.07 974.199 208.211C974.59 202.352 975.176 196.622 975.957 191.023C976.738 185.424 977.715 180.118 978.887 175.105C980.124 170.092 981.556 165.698 983.184 161.922C984.876 158.146 986.797 155.151 988.945 152.938C991.094 150.724 993.535 149.617 996.27 149.617C998.418 149.617 1000.34 150.138 1002.03 151.18C1003.79 152.156 1005.25 153.784 1006.43 156.062C1007.6 158.341 1008.51 161.303 1009.16 164.949C1009.81 168.595 1010.14 173.055 1010.14 178.328C1010.14 184.839 1009.45 191.577 1008.09 198.543C1006.72 205.444 1004.86 212.41 1002.52 219.441C1000.18 226.473 997.409 233.504 994.219 240.535C991.029 247.501 987.611 254.305 983.965 260.945C985.592 269.214 987.773 275.724 990.508 280.477C993.242 285.164 996.53 287.508 1000.37 287.508C1002.98 287.508 1005.48 286.499 1007.89 284.48C1010.3 282.397 1012.51 279.956 1014.53 277.156C1016.55 274.357 1018.31 271.525 1019.8 268.66C1021.37 265.73 1022.57 263.387 1023.42 261.629C1023.74 260.978 1024.2 260.49 1024.79 260.164C1025.37 259.773 1026.02 259.578 1026.74 259.578C1027.85 259.578 1028.72 259.969 1029.38 260.75C1030.09 261.531 1030.45 262.41 1030.45 263.387C1030.45 263.777 1030.32 264.298 1030.06 264.949ZM981.133 225.691C981.133 229.858 981.23 233.862 981.426 237.703C981.621 241.544 981.882 245.223 982.207 248.738C984.941 243.465 987.546 237.866 990.02 231.941C992.493 225.952 994.674 219.93 996.562 213.875C998.451 207.755 999.948 201.701 1001.05 195.711C1002.23 189.656 1002.81 183.895 1002.81 178.426C1002.81 170.743 1002.19 165.242 1000.96 161.922C999.72 158.602 998.06 156.941 995.977 156.941C994.609 156.941 993.275 157.885 991.973 159.773C990.736 161.661 989.564 164.233 988.457 167.488C987.35 170.743 986.341 174.585 985.43 179.012C984.518 183.439 983.737 188.191 983.086 193.27C982.5 198.348 982.012 203.654 981.621 209.188C981.296 214.721 981.133 220.223 981.133 225.691Z" fill="black"/>
<g clip-path="url(#clip0_6_22)">
<path d="M60.2959 296.368C60.5064 262.381 60.7063 228.45 60.8957 194.574C60.904 193.502 61.292 192.465 61.9954 191.635C62.6988 190.804 63.6754 190.231 64.7633 190.009V190.009C67.5213 189.471 70.3097 189.09 73.114 188.867C72.8648 190.909 73.0364 192.977 73.6192 194.955C73.9351 196.045 74.369 197.101 74.9136 198.105C73.335 198.211 71.9459 198.348 70.6041 198.531L70.0516 291.787C81.3543 291.392 96.9666 292.777 107.369 296.048C115.721 298.659 123.595 302.521 130.701 307.492V256.694C133.928 257.296 137.249 257.249 140.457 256.557V308.406C148.367 303.181 156.913 298.913 165.904 295.698C177.269 292.194 189.213 290.764 201.122 291.483V198.759C198.502 198.516 195.629 198.409 192.613 198.409C193.012 198.074 193.391 197.718 193.75 197.344L194.555 196.492C196.324 194.374 197.464 191.834 197.854 189.141C201.012 189.278 203.932 189.552 206.71 189.933C207.875 190.09 208.941 190.649 209.713 191.504C210.484 192.36 210.909 193.456 210.909 194.589V194.589V296.779C210.909 297.398 210.783 298.01 210.537 298.582C210.29 299.153 209.93 299.673 209.475 300.109C209.02 300.546 208.481 300.892 207.887 301.128C207.294 301.363 206.658 301.483 206.016 301.481C205.639 301.479 205.263 301.438 204.895 301.36C192.899 299.858 180.707 300.95 169.203 304.555C160.709 307.632 152.648 311.722 145.208 316.73C155.67 313.585 166.58 312.045 177.538 312.164C191.597 312.384 205.589 314.094 219.26 317.262C219.26 281.622 219.26 245.976 219.26 210.325H224.154C225.447 210.325 226.688 210.82 227.603 211.702C228.518 212.584 229.032 213.78 229.032 215.027V323.426C229.032 324.673 228.518 325.869 227.603 326.751C226.688 327.633 225.447 328.128 224.154 328.128C223.618 328.125 223.085 328.043 222.575 327.885C207.88 323.989 192.743 321.858 177.506 321.539C164.014 321.353 150.64 323.974 138.294 329.224C137.469 329.745 136.502 330.015 135.516 330C134.535 330.015 133.572 329.744 132.753 329.224C120.409 323.968 107.035 321.336 93.541 321.508C78.3045 321.829 63.1673 323.96 48.4722 327.854C47.9623 328.014 47.4298 328.096 46.8936 328.098C46.2517 328.1 45.6157 327.98 45.0221 327.744C44.4285 327.509 43.8889 327.163 43.4343 326.726C42.9796 326.289 42.6189 325.77 42.3728 325.198C42.1267 324.627 42 324.014 42 323.395V214.997C42 213.75 42.5139 212.554 43.4287 211.672C44.3435 210.79 45.5842 210.294 46.8778 210.294H51.7715V317.232C65.4426 314.061 79.4343 312.352 93.4937 312.134C105.235 311.997 116.917 313.767 128.049 317.369C121.01 311.876 112.984 307.677 104.37 304.981C93.6357 301.603 77.5341 300.416 65.5684 301.466C64.9295 301.518 64.2862 301.448 63.6756 301.259C63.0649 301.071 62.4991 300.767 62.0105 300.367C61.5219 299.967 61.1203 299.477 60.8287 298.927C60.5372 298.376 60.3614 297.776 60.3117 297.159C60.2801 296.896 60.2801 296.631 60.3117 296.368H60.2959ZM154.49 283.007C154.106 283.247 153.676 283.413 153.225 283.493C152.774 283.574 152.311 283.568 151.863 283.476C151.414 283.385 150.989 283.208 150.611 282.958C150.233 282.708 149.91 282.388 149.66 282.017C149.41 281.647 149.239 281.232 149.155 280.797C149.071 280.363 149.077 279.917 149.173 279.484C149.268 279.052 149.451 278.642 149.71 278.277C149.97 277.913 150.301 277.601 150.686 277.361C156.303 273.998 162.339 271.334 168.65 269.432C175.03 267.347 181.652 266.029 188.367 265.506C188.825 265.478 189.285 265.537 189.719 265.68C190.153 265.823 190.554 266.048 190.899 266.34C191.243 266.633 191.524 266.988 191.727 267.385C191.929 267.782 192.048 268.214 192.077 268.656C192.106 269.098 192.044 269.54 191.896 269.959C191.747 270.378 191.515 270.764 191.211 271.096C190.908 271.428 190.539 271.7 190.127 271.895C189.715 272.089 189.267 272.204 188.809 272.232C182.68 272.718 176.636 273.929 170.813 275.839C165.08 277.554 159.595 279.962 154.49 283.007V283.007ZM154.49 256.953C153.852 257.342 153.1 257.521 152.348 257.463C151.595 257.404 150.882 257.112 150.316 256.63C149.751 256.148 149.362 255.502 149.21 254.79C149.057 254.077 149.149 253.335 149.471 252.677C150.426 252.002 151.324 251.254 152.154 250.44C157.351 247.547 162.855 245.2 168.571 243.439C174.87 241.417 181.401 240.145 188.02 239.65C188.478 239.625 188.937 239.687 189.37 239.833C189.803 239.979 190.202 240.206 190.544 240.501C190.887 240.795 191.165 241.152 191.365 241.551C191.564 241.949 191.68 242.381 191.706 242.823C191.732 243.265 191.667 243.707 191.516 244.125C191.364 244.542 191.129 244.927 190.823 245.257C190.518 245.587 190.148 245.856 189.734 246.048C189.321 246.24 188.873 246.352 188.414 246.377C182.391 246.86 176.449 248.04 170.718 249.892C165.023 251.599 159.563 253.965 154.459 256.938L154.49 256.953ZM164.104 219.09C165.572 218.573 167.072 218.071 168.556 217.569C174.833 215.545 181.343 214.267 187.941 213.764C188.866 213.716 189.773 214.024 190.463 214.62C191.153 215.217 191.569 216.053 191.619 216.945C191.669 217.837 191.35 218.711 190.731 219.376C190.112 220.041 189.245 220.442 188.32 220.491C182.316 220.963 176.395 222.138 170.687 223.991C166.649 225.215 162.717 226.742 158.926 228.556C158.926 228.008 158.926 227.476 159.005 226.928L159.258 225.817L159.826 225.026C161.105 223.062 162.604 221.054 164.104 219.03V219.09ZM120.314 277.345C121.093 277.832 121.639 278.596 121.833 279.471C122.027 280.346 121.852 281.259 121.348 282.01C120.843 282.76 120.05 283.287 119.143 283.474C118.235 283.661 117.288 283.493 116.51 283.007C111.409 279.968 105.93 277.565 100.203 275.854C94.3954 273.946 88.3678 272.729 82.2541 272.232C81.3288 272.184 80.4614 271.783 79.8427 271.118C79.224 270.453 78.9046 269.578 78.9548 268.686C79.0051 267.794 79.4208 266.958 80.1106 266.362C80.8004 265.765 81.7077 265.457 82.633 265.506C89.3518 266.025 95.9789 267.339 102.365 269.417C108.67 271.322 114.701 273.986 120.314 277.345V277.345ZM121.529 252.57C121.867 253.228 121.973 253.973 121.83 254.694C121.688 255.414 121.305 256.07 120.74 256.561C120.175 257.052 119.459 257.352 118.701 257.415C117.943 257.477 117.184 257.299 116.541 256.907C111.444 253.931 105.989 251.565 100.297 249.861C94.5655 248.013 88.6245 246.832 82.6014 246.346C82.1224 246.35 81.6479 246.258 81.2073 246.077C80.7668 245.896 80.3696 245.629 80.0406 245.293C79.7115 244.958 79.4577 244.561 79.2949 244.126C79.1321 243.692 79.0637 243.23 79.0941 242.769C79.1246 242.309 79.2531 241.859 79.4717 241.448C79.6903 241.037 79.9943 240.674 80.3648 240.381C80.7353 240.089 81.1643 239.873 81.6251 239.747C82.086 239.621 82.5688 239.588 83.0434 239.65C89.6412 240.147 96.1512 241.419 102.428 243.439C108.438 245.245 114.207 247.723 119.619 250.82C120.217 251.442 120.855 252.027 121.529 252.57V252.57ZM111.963 228.48C108.204 226.678 104.31 225.152 100.313 223.915C94.6047 222.062 88.6835 220.887 82.6803 220.414C81.8107 220.303 81.0164 219.88 80.4557 219.23C79.8951 218.58 79.6091 217.749 79.6549 216.905C79.7007 216.06 80.0749 215.263 80.7028 214.673C81.3308 214.082 82.1665 213.742 83.0434 213.719C89.649 214.235 96.1643 215.528 102.444 217.569C104.133 218.101 105.822 218.664 107.48 219.288C108.184 220.108 108.797 220.995 109.311 221.936C110.046 223.255 110.669 224.629 111.174 226.045C111.333 226.564 111.528 227.073 111.758 227.567L111.932 228.571L111.963 228.48Z" fill="black"/>
<path d="M145.035 240.655C144.026 242.335 142.578 243.731 140.836 244.703C139.392 245.521 137.771 246.006 136.1 246.118C134.392 246.221 132.686 245.901 131.143 245.19C130.043 244.663 129.049 243.952 128.207 243.089L145.114 240.655H145.035ZM147.371 223.443L146.818 225.908L146.692 227.674L124.592 230.839C124.536 229.479 124.367 228.125 124.087 226.791L147.434 223.443H147.371ZM146.645 231.539V232.604V232.969C146.692 233.669 146.692 234.37 146.645 235.07L146.313 236.591L125.792 239.528L125.428 238.737L124.623 235.587V234.674L146.55 231.524L146.645 231.539Z" fill="#5C546A"/>
<path d="M116.857 212.212C113.98 209.284 111.57 205.961 109.706 202.351C107.663 198.326 106.584 193.911 106.549 189.43C106.658 184.605 107.957 179.874 110.337 175.628V175.521C113.365 170.444 118.074 166.495 123.708 164.305C128.087 162.61 132.825 161.957 137.521 162.403C142.172 162.811 146.673 164.204 150.702 166.482C155.858 169.349 159.899 173.763 162.21 179.052C163.686 182.423 164.446 186.045 164.446 189.704C164.446 193.364 163.686 196.986 162.21 200.357C159.605 206.596 153.496 213.277 149.581 219.41L122.95 223.093C121.637 219.133 119.571 215.443 116.857 212.212V212.212Z" fill="#F4BB2C"/>
<path d="M88.9159 194.742C88.0302 194.754 87.1748 194.431 86.5322 193.844C85.8759 193.241 85.4857 192.418 85.443 191.546C85.4294 191.113 85.5046 190.682 85.6645 190.277C85.8243 189.872 86.0655 189.502 86.3743 189.187C86.6807 188.872 87.0495 188.619 87.4589 188.444C87.8684 188.269 88.3101 188.175 88.758 188.167L96.209 187.909C96.6583 187.894 97.1061 187.966 97.5263 188.12C97.9464 188.274 98.3304 188.507 98.6558 188.807C98.9877 189.099 99.2541 189.453 99.4387 189.849C99.6233 190.244 99.7221 190.671 99.7292 191.104V191.226C99.7173 192.07 99.3674 192.878 98.7525 193.479C98.1376 194.08 97.3055 194.429 96.43 194.452H96.3037L88.9159 194.742ZM134.869 146.226C134.881 145.361 135.249 144.536 135.891 143.931C136.533 143.327 137.397 142.992 138.294 143H138.531C139.365 143.065 140.146 143.423 140.725 144.004C141.337 144.629 141.672 145.459 141.657 146.318V146.318C141.665 146.373 141.665 146.43 141.657 146.485L141.451 153.531C141.459 153.602 141.459 153.673 141.451 153.744C141.394 154.551 141.022 155.307 140.41 155.859C139.763 156.452 138.902 156.78 138.01 156.772H137.789C136.926 156.711 136.12 156.335 135.534 155.722C134.948 155.109 134.626 154.304 134.632 153.47V153.47C134.624 153.409 134.624 153.348 134.632 153.287L134.806 146.242L134.869 146.226ZM167.119 155.905C167.369 155.546 167.689 155.238 168.063 154.998C168.436 154.759 168.854 154.593 169.294 154.509C169.734 154.426 170.187 154.427 170.626 154.512C171.065 154.598 171.483 154.766 171.855 155.007V155.007C172.226 155.246 172.544 155.553 172.791 155.911C173.037 156.268 173.207 156.67 173.292 157.092C173.462 157.946 173.281 158.83 172.786 159.557L168.619 165.538C168.373 165.898 168.055 166.207 167.683 166.447C167.312 166.687 166.895 166.854 166.456 166.938C165.566 167.11 164.641 166.934 163.883 166.451C163.128 165.945 162.607 165.175 162.431 164.305C162.265 163.45 162.452 162.565 162.952 161.84L167.119 155.844V155.905ZM181.832 184.561H181.942C182.793 184.514 183.632 184.774 184.294 185.291C184.994 185.847 185.441 186.644 185.541 187.513V187.513C185.541 187.513 185.541 187.604 185.541 187.62C185.593 188.445 185.323 189.259 184.784 189.902C184.499 190.236 184.15 190.513 183.754 190.717C183.359 190.921 182.925 191.047 182.479 191.089L175.06 191.85C174.614 191.896 174.162 191.857 173.732 191.734C173.302 191.611 172.901 191.407 172.553 191.134C172.205 190.861 171.917 190.524 171.705 190.143C171.493 189.762 171.362 189.344 171.318 188.913C171.266 188.485 171.306 188.051 171.433 187.637C171.561 187.224 171.774 186.84 172.06 186.509C172.629 185.833 173.452 185.401 174.349 185.306C176.843 185.048 179.322 184.774 181.816 184.545L181.832 184.561ZM97.8665 158.523C97.373 158.08 97.0267 157.506 96.8711 156.874C96.7156 156.242 96.7579 155.58 96.9927 154.971C97.2275 154.362 97.6443 153.833 98.1903 153.452C98.7364 153.072 99.3872 152.855 100.061 152.831C100.956 152.787 101.834 153.082 102.508 153.653L107.969 158.568C108.299 158.86 108.566 159.212 108.753 159.604C108.94 159.996 109.044 160.42 109.059 160.851C109.079 161.499 108.901 162.139 108.547 162.69C108.192 163.241 107.678 163.68 107.066 163.951C106.455 164.222 105.775 164.313 105.11 164.214C104.445 164.115 103.826 163.829 103.328 163.392L97.8665 158.523Z" fill="black"/>
</g>
<defs>
<clipPath id="clip0_6_22">
<rect width="187" height="187" fill="white" transform="translate(42 143)"/>
</clipPath>
</defs>
</svg>
